G04*
G04 #@! TF.GenerationSoftware,Altium Limited,Altium Designer,19.1.5 (86)*
G04*
G04 Layer_Color=32896*
%FSLAX25Y25*%
%MOIN*%
G70*
G01*
G75*
%ADD10C,0.00787*%
%ADD30C,0.01000*%
%ADD56C,0.00984*%
%ADD57C,0.00100*%
%ADD58C,0.00800*%
D10*
X182283Y54035D02*
Y58169D01*
X173575Y59547D02*
X181543D01*
X173575D02*
Y60138D01*
X181543D01*
Y59547D02*
Y60138D01*
X129331Y30118D02*
Y66732D01*
X92716Y30118D02*
X129331D01*
X92716D02*
Y66732D01*
X129331D01*
X167205Y4331D02*
Y11417D01*
X140118Y4331D02*
X167205D01*
X140118D02*
Y11417D01*
X167205D01*
X187008Y34449D02*
X188583D01*
X187008Y31693D02*
X188583D01*
X74803Y66535D02*
Y69685D01*
X65354Y66535D02*
Y69685D01*
X72539Y27953D02*
X76673D01*
X71161Y19244D02*
Y27213D01*
X70571Y19244D02*
X71161D01*
X70571D02*
Y27213D01*
X71161D01*
X73032Y10630D02*
Y12205D01*
X75787Y10630D02*
Y12205D01*
X173425Y46063D02*
Y47638D01*
X176181Y46063D02*
Y47638D01*
X190354Y46063D02*
Y47638D01*
X193110Y46063D02*
Y47638D01*
X187008Y39961D02*
X188583D01*
X187008Y37205D02*
X188583D01*
D30*
X149968Y37319D02*
Y66319D01*
X169718D01*
Y37319D02*
Y66319D01*
X149968Y37319D02*
X169718D01*
D56*
X136024Y66142D02*
X135285Y66568D01*
Y65715D01*
X136024Y66142D01*
D57*
X52549Y39733D02*
X55049D01*
X28749Y47733D02*
X29049D01*
X20749Y32033D02*
X22149D01*
X20849Y31933D02*
X22049D01*
X20549Y32433D02*
X20849D01*
X20549Y32333D02*
X20849D01*
X20649Y32233D02*
X22149D01*
X20049Y36233D02*
X21449D01*
X20549Y37333D02*
X21849D01*
X20549Y37233D02*
X21849D01*
X20449Y37133D02*
X21849D01*
X20449Y37033D02*
X21749D01*
X20449Y36933D02*
X21749D01*
X20349Y36833D02*
X21649D01*
X20349Y36733D02*
X21649D01*
X20249Y36633D02*
X21549D01*
X20249Y36533D02*
X21549D01*
X20149Y36433D02*
X21449D01*
X20149Y36333D02*
X21449D01*
X20049Y36133D02*
X21349D01*
X19949Y36033D02*
X21349D01*
X19949Y35933D02*
X21249D01*
X19849Y35833D02*
X21249D01*
X19849Y35733D02*
X21149D01*
X19849Y35633D02*
X21149D01*
X19749Y35533D02*
X21149D01*
X19749Y35433D02*
X21049D01*
X19349Y35333D02*
X21049D01*
X19349Y35233D02*
X20949D01*
X19449Y35133D02*
X20949D01*
X19449Y35033D02*
X20849D01*
X19549Y34933D02*
X20849D01*
X19549Y34833D02*
X20849D01*
X20749Y32133D02*
X22149D01*
X20049Y37533D02*
X24749D01*
X20049Y37433D02*
X24749D01*
X51449Y48733D02*
X52949D01*
X51449Y55033D02*
X52949D01*
X51249Y54933D02*
X53149D01*
X52549Y54833D02*
X53349D01*
X52749Y54733D02*
X53549D01*
X52849Y54633D02*
X53649D01*
X52849Y49033D02*
X53649D01*
X52549Y48933D02*
X53449D01*
X51149Y48833D02*
X53249D01*
X43249Y52533D02*
X45049D01*
X43249Y52433D02*
X45049D01*
X42449Y48933D02*
X45049D01*
X42449Y48833D02*
X45049D01*
X36849Y52133D02*
X38049D01*
X36849Y52033D02*
X37949D01*
X36849Y51933D02*
X37949D01*
X36749Y51833D02*
X37949D01*
X36749Y51733D02*
X37949D01*
X36749Y51633D02*
X37949D01*
X36749Y51533D02*
X37949D01*
X36749Y51433D02*
X37949D01*
X36749Y51333D02*
X37949D01*
X36749Y51233D02*
X37949D01*
X36749Y51133D02*
X37949D01*
X36749Y51033D02*
X37949D01*
X36749Y50933D02*
X37949D01*
X36749Y50833D02*
X37949D01*
X36749Y50733D02*
X37949D01*
X36749Y50633D02*
X37949D01*
X36749Y50533D02*
X37949D01*
X36749Y50433D02*
X37949D01*
X36749Y50333D02*
X37949D01*
X36749Y50233D02*
X37949D01*
X36749Y50133D02*
X37949D01*
X36749Y50033D02*
X37949D01*
X36749Y49933D02*
X37949D01*
X36749Y49833D02*
X37949D01*
X36749Y49733D02*
X37949D01*
X36749Y49633D02*
X37949D01*
X36749Y49533D02*
X37949D01*
X36749Y49433D02*
X37949D01*
X36749Y49333D02*
X37949D01*
X36749Y49233D02*
X37949D01*
X36749Y49133D02*
X37949D01*
X36749Y49033D02*
X37949D01*
X36149Y48933D02*
X38449D01*
X36149Y48833D02*
X38449D01*
X28649Y48033D02*
X29049D01*
X28649Y47933D02*
X28949D01*
X28749Y47833D02*
X28949D01*
X28649Y48733D02*
X32049D01*
X28649Y48633D02*
X31949D01*
X28649Y48533D02*
X31749D01*
X28649Y48433D02*
X29549D01*
X28649Y48333D02*
X29149D01*
X28649Y48233D02*
X29049D01*
X28849Y49233D02*
X32149D01*
X28849Y49133D02*
X32149D01*
X28749Y49033D02*
X32149D01*
X28749Y48933D02*
X32049D01*
X28149Y52233D02*
X28949D01*
X28549Y52633D02*
X29049D01*
X28349Y52533D02*
X29249D01*
X28249Y52433D02*
X28849D01*
X28149Y52333D02*
X28949D01*
X28249Y52133D02*
X28949D01*
X28249Y52033D02*
X28849D01*
X28649Y48833D02*
X32049D01*
X28649Y48133D02*
X29049D01*
X52549Y39833D02*
X55049D01*
X51749Y44233D02*
X53149D01*
X52849Y47333D02*
X55049D01*
X52849Y47233D02*
X55049D01*
X52749Y47133D02*
X55049D01*
X52749Y47033D02*
X54149D01*
X52749Y46933D02*
X54149D01*
X52649Y46833D02*
X54149D01*
X52649Y46733D02*
X54049D01*
X52549Y46633D02*
X54049D01*
X52549Y46533D02*
X53949D01*
X52549Y46433D02*
X53949D01*
X52449Y46333D02*
X53949D01*
X52449Y46233D02*
X53849D01*
X52449Y46133D02*
X53849D01*
X52349Y46033D02*
X53849D01*
X52349Y45933D02*
X53749D01*
X52349Y45833D02*
X53749D01*
X52249Y45733D02*
X53749D01*
X52249Y45633D02*
X53649D01*
X52249Y45533D02*
X53649D01*
X52249Y45433D02*
X53549D01*
X52149Y45333D02*
X53549D01*
X52149Y45233D02*
X53549D01*
X52149Y45133D02*
X53449D01*
X52049Y45033D02*
X53449D01*
X52049Y44933D02*
X53449D01*
X52049Y44833D02*
X53349D01*
X51949Y44733D02*
X53349D01*
X51949Y44633D02*
X53349D01*
X51949Y44533D02*
X53349D01*
X51849Y44433D02*
X53249D01*
X51849Y44333D02*
X53249D01*
X51749Y44133D02*
X53149D01*
X51749Y44033D02*
X53149D01*
X51649Y43933D02*
X53049D01*
X51649Y43833D02*
X53049D01*
X51649Y43733D02*
X53049D01*
X51549Y43633D02*
X52949D01*
X51549Y43533D02*
X52949D01*
X51549Y43433D02*
X52949D01*
X51449Y43333D02*
X52849D01*
X51149Y43233D02*
X52849D01*
X44149Y43433D02*
X47849D01*
X44149Y43333D02*
X47849D01*
X44449Y44233D02*
X45549D01*
X44849Y44633D02*
X45549D01*
X44749Y44533D02*
X45549D01*
X44549Y44433D02*
X45549D01*
X44549Y44333D02*
X45549D01*
X44349Y44133D02*
X45549D01*
X44349Y44033D02*
X45549D01*
X44349Y43933D02*
X45549D01*
X44249Y43833D02*
X45549D01*
X44249Y43733D02*
X45549D01*
X44249Y43633D02*
X45549D01*
X44249Y43533D02*
X45549D01*
X44549Y41633D02*
X44849D01*
X44649Y41533D02*
X45049D01*
X44749Y41433D02*
X45149D01*
X36449Y45033D02*
X37749D01*
X36249Y44933D02*
X38049D01*
X36049Y44833D02*
X36849D01*
X36049Y41333D02*
X36849D01*
X36249Y41233D02*
X38049D01*
X36649Y41133D02*
X37649D01*
X28749Y47633D02*
X29049D01*
X28749Y47533D02*
X29049D01*
X28849Y47433D02*
X29149D01*
X28849Y47333D02*
X29249D01*
X52849Y34633D02*
X54149D01*
X52849Y34533D02*
X54049D01*
X52749Y34433D02*
X54049D01*
X52649Y34333D02*
X53949D01*
X52549Y34233D02*
X53849D01*
X52349Y34133D02*
X53749D01*
X52149Y34033D02*
X53549D01*
X50849Y33833D02*
X53249D01*
X51149Y33733D02*
X52949D01*
X50649Y33933D02*
X53449D01*
X44849Y36233D02*
X46049D01*
X44849Y36933D02*
X46049D01*
X44849Y36833D02*
X46049D01*
X44849Y36733D02*
X46049D01*
X44849Y36633D02*
X46049D01*
X44849Y36533D02*
X46049D01*
X44849Y36433D02*
X46049D01*
X44849Y36333D02*
X46049D01*
X44849Y36133D02*
X46049D01*
X44849Y36033D02*
X46049D01*
X44849Y35933D02*
X46049D01*
X44849Y35833D02*
X46049D01*
X44849Y35733D02*
X46049D01*
X44849Y35633D02*
X46049D01*
X44849Y35533D02*
X46049D01*
X44849Y35433D02*
X46049D01*
X44849Y35333D02*
X46049D01*
X44849Y35233D02*
X46049D01*
X44849Y35133D02*
X46049D01*
X44849Y35033D02*
X46049D01*
X44849Y34933D02*
X46049D01*
X44849Y34833D02*
X46049D01*
X44849Y34733D02*
X46049D01*
X44849Y34633D02*
X46049D01*
X44849Y34533D02*
X46049D01*
X44849Y34433D02*
X46049D01*
X44849Y34333D02*
X46049D01*
X44849Y34233D02*
X46049D01*
X44849Y34133D02*
X46049D01*
X44849Y34033D02*
X46049D01*
X44249Y33933D02*
X46549D01*
X44249Y33833D02*
X46549D01*
X44249Y33733D02*
X46549D01*
X36549Y36233D02*
X37749D01*
X36149Y37433D02*
X36849D01*
X36349Y37333D02*
X37049D01*
X36449Y37233D02*
X37149D01*
X36449Y37133D02*
X37249D01*
X36549Y37033D02*
X37349D01*
X36549Y36933D02*
X37449D01*
X36549Y36833D02*
X37549D01*
X36549Y36733D02*
X37549D01*
X36549Y36633D02*
X37649D01*
X36549Y36533D02*
X37649D01*
X36549Y36433D02*
X37749D01*
X36549Y36333D02*
X37749D01*
X36549Y36133D02*
X37849D01*
X36549Y35833D02*
X37849D01*
X36549Y35733D02*
X37849D01*
X36549Y35633D02*
X37849D01*
X36549Y35533D02*
X37849D01*
X36549Y35433D02*
X37849D01*
X36549Y35333D02*
X37849D01*
X36549Y35233D02*
X37849D01*
X36549Y35133D02*
X37849D01*
X36549Y35033D02*
X37749D01*
X36549Y34933D02*
X37749D01*
X36549Y34833D02*
X37749D01*
X36549Y34733D02*
X37649D01*
X36549Y34633D02*
X37649D01*
X36549Y34533D02*
X37549D01*
X36449Y34433D02*
X37549D01*
X36449Y34333D02*
X37449D01*
X36349Y34233D02*
X37349D01*
X36249Y34133D02*
X37249D01*
X36149Y34033D02*
X37149D01*
X35949Y33933D02*
X36949D01*
X34149Y36033D02*
X37849D01*
X34149Y35933D02*
X37849D01*
X28149Y36233D02*
X30149D01*
X28449Y37633D02*
X29349D01*
X28049Y37533D02*
X29549D01*
X28649Y36333D02*
X30149D01*
X27849Y36133D02*
X30149D01*
X27649Y36033D02*
X30149D01*
X27549Y35933D02*
X30149D01*
X27449Y35833D02*
X30049D01*
X27449Y35733D02*
X30049D01*
X27349Y35633D02*
X29949D01*
X27349Y35533D02*
X29949D01*
X27249Y35433D02*
X29849D01*
X27249Y35333D02*
X29649D01*
X27249Y35233D02*
X29449D01*
X27249Y35133D02*
X28949D01*
X28849Y33933D02*
X30149D01*
X27949Y33833D02*
X29549D01*
X28149Y33733D02*
X29249D01*
X21049Y31733D02*
X21949D01*
X31849Y47733D02*
X32349D01*
X49149Y39733D02*
X50649D01*
X20449Y32733D02*
X20749D01*
X20449Y32633D02*
X20749D01*
X20549Y32533D02*
X20749D01*
X18949Y36233D02*
X19249D01*
X18749Y36733D02*
X18949D01*
X18749Y36633D02*
X19049D01*
X18849Y36533D02*
X19049D01*
X18849Y36433D02*
X19149D01*
X18849Y36333D02*
X19149D01*
X18949Y36133D02*
X19249D01*
X19049Y36033D02*
X19349D01*
X19049Y35933D02*
X19349D01*
X19149Y35833D02*
X19349D01*
X19149Y35733D02*
X19449D01*
X19149Y35633D02*
X19449D01*
X19249Y35533D02*
X19549D01*
X19249Y35433D02*
X19549D01*
Y34733D02*
X20749D01*
X19649Y34633D02*
X20749D01*
X19649Y34533D02*
X20649D01*
X19749Y34433D02*
X20649D01*
X19749Y34333D02*
X20549D01*
X19749Y34233D02*
X20549D01*
X19849Y34133D02*
X20549D01*
X19849Y34033D02*
X20449D01*
X19949Y33933D02*
X20449D01*
X19949Y33833D02*
X20349D01*
X19949Y33733D02*
X20349D01*
X20049Y33633D02*
X20349D01*
X20049Y33533D02*
X20349D01*
X20149Y33433D02*
X20349D01*
X20149Y33333D02*
X20449D01*
X20249Y33233D02*
X20449D01*
X20249Y33133D02*
X20549D01*
X20349Y33033D02*
X20549D01*
X20349Y32933D02*
X20649D01*
X20349Y32833D02*
X20649D01*
X18049Y37533D02*
X19449D01*
X18049Y37433D02*
X19449D01*
X18249Y37333D02*
X19149D01*
X18449Y37233D02*
X18949D01*
X18549Y37133D02*
X18849D01*
X18549Y37033D02*
X18949D01*
X18649Y36933D02*
X18949D01*
X18649Y36833D02*
X18949D01*
X26749Y54433D02*
X26949D01*
X26749Y53233D02*
X26949D01*
X28349Y51933D02*
X28749D01*
X26249Y52233D02*
X27449D01*
X26449Y54333D02*
X27149D01*
X26349Y54233D02*
X27349D01*
X26349Y54133D02*
X27349D01*
X26249Y54033D02*
X27449D01*
X26249Y53933D02*
X27449D01*
X26249Y53833D02*
X27449D01*
X26249Y53733D02*
X27449D01*
X26249Y53633D02*
X27449D01*
X26349Y53533D02*
X27349D01*
X26349Y53433D02*
X27249D01*
X26449Y53333D02*
X27149D01*
X26249Y52533D02*
X27949D01*
X26249Y52433D02*
X27949D01*
X26249Y52333D02*
X27449D01*
X26249Y52133D02*
X27449D01*
X26249Y52033D02*
X27449D01*
X26249Y51933D02*
X27449D01*
X26249Y51833D02*
X27449D01*
X26249Y51733D02*
X27449D01*
X26249Y51633D02*
X27449D01*
X26249Y51533D02*
X27449D01*
X26249Y51433D02*
X27449D01*
X26249Y51333D02*
X27449D01*
X26249Y51233D02*
X27449D01*
X26249Y51133D02*
X27449D01*
X26249Y51033D02*
X27449D01*
X26249Y50933D02*
X27449D01*
X26249Y50833D02*
X27449D01*
X26249Y50733D02*
X27449D01*
X26249Y50633D02*
X27449D01*
X26249Y50533D02*
X27449D01*
X26249Y50433D02*
X27449D01*
X26249Y50333D02*
X27449D01*
X26249Y50233D02*
X27449D01*
X26249Y50133D02*
X27449D01*
X26249Y50033D02*
X27449D01*
X26249Y49933D02*
X27449D01*
X26249Y49833D02*
X27449D01*
X26249Y49733D02*
X27449D01*
X26249Y49633D02*
X27449D01*
X26249Y49533D02*
X27449D01*
X26249Y49433D02*
X27449D01*
X26249Y49333D02*
X27449D01*
X26249Y49233D02*
X27449D01*
X26249Y49133D02*
X27449D01*
X26249Y49033D02*
X27449D01*
X25649Y48933D02*
X28049D01*
X25649Y48833D02*
X28049D01*
X23049Y48733D02*
X24149D01*
X23149Y52633D02*
X24249D01*
X22949Y52533D02*
X24449D01*
X22449Y52233D02*
X23249D01*
X22749Y52433D02*
X23549D01*
X22549Y52333D02*
X23349D01*
X22349Y52133D02*
X23249D01*
X22249Y52033D02*
X23249D01*
X22249Y51933D02*
X23149D01*
X22149Y51833D02*
X23149D01*
X22049Y51733D02*
X23149D01*
X22049Y51633D02*
X23149D01*
X21949Y51533D02*
X23149D01*
X21949Y51433D02*
X23149D01*
X21949Y51333D02*
X23149D01*
X21949Y51233D02*
X23149D01*
X21849Y50133D02*
X22049D01*
X21849Y50033D02*
X22149D01*
X21949Y49933D02*
X22149D01*
X21949Y49833D02*
X22149D01*
X21949Y49733D02*
X22249D01*
X22049Y49633D02*
X22249D01*
X22049Y49533D02*
X22349D01*
X22149Y49433D02*
X22449D01*
X22149Y49333D02*
X22449D01*
X22249Y49233D02*
X22549D01*
X22349Y49133D02*
X22649D01*
X22449Y49033D02*
X22849D01*
Y48833D02*
X24449D01*
X21849Y51133D02*
X25549D01*
X21849Y51033D02*
X25549D01*
X21849Y50933D02*
X25549D01*
X22649Y48933D02*
X24649D01*
X24149Y52233D02*
X24949D01*
X23949Y52433D02*
X24649D01*
X24149Y52333D02*
X24849D01*
X24249Y52133D02*
X25049D01*
X24249Y52033D02*
X25149D01*
X24249Y51933D02*
X25249D01*
X24249Y51833D02*
X25249D01*
X24249Y51733D02*
X25349D01*
X24249Y51633D02*
X25349D01*
X24249Y51533D02*
X25449D01*
X24249Y51433D02*
X25449D01*
X24249Y51333D02*
X25449D01*
X24249Y51233D02*
X25549D01*
X24249Y50833D02*
X25549D01*
X24249Y50733D02*
X25549D01*
X24249Y50633D02*
X25549D01*
X24249Y50533D02*
X25549D01*
X24249Y50433D02*
X25549D01*
X24249Y50333D02*
X25549D01*
X24249Y50233D02*
X25549D01*
X24249Y50133D02*
X25549D01*
X24249Y50033D02*
X25449D01*
X24249Y49933D02*
X25449D01*
X24249Y49833D02*
X25449D01*
X24249Y49733D02*
X25349D01*
X24249Y49633D02*
X25349D01*
X24249Y49533D02*
X25349D01*
X24149Y49433D02*
X25249D01*
X24149Y49333D02*
X25149D01*
X24049Y49233D02*
X25049D01*
X24049Y49133D02*
X24949D01*
X23849Y49033D02*
X24849D01*
X27549Y37633D02*
X27749D01*
X27549Y37533D02*
X27849D01*
X27549Y37433D02*
X28549D01*
X27549Y37333D02*
X28349D01*
X27549Y37233D02*
X28249D01*
X27549Y37133D02*
X28049D01*
X27549Y37033D02*
X28049D01*
X27549Y36933D02*
X27949D01*
X27549Y36833D02*
X27849D01*
X27549Y36733D02*
X27849D01*
X27549Y36633D02*
X27749D01*
X27549Y36533D02*
X27749D01*
X27249Y35033D02*
X28249D01*
X27249Y34933D02*
X27949D01*
X27249Y34833D02*
X27849D01*
X27249Y34733D02*
X27849D01*
X27349Y34633D02*
X27849D01*
X27349Y34533D02*
X27849D01*
X27449Y34433D02*
X27849D01*
X27449Y34333D02*
X27849D01*
X27549Y34233D02*
X27949D01*
X27549Y34133D02*
X27949D01*
X27649Y34033D02*
X28149D01*
X27749Y33933D02*
X28449D01*
X28549Y33633D02*
X28749D01*
X25349Y36233D02*
X26549D01*
X25549Y39333D02*
X26249D01*
X25449Y39233D02*
X26349D01*
X25349Y39133D02*
X26449D01*
X25349Y39033D02*
X26449D01*
X25349Y38933D02*
X26449D01*
X25349Y38833D02*
X26549D01*
X25349Y38733D02*
X26449D01*
X25349Y38633D02*
X26449D01*
X25349Y38533D02*
X26449D01*
X25449Y38433D02*
X26349D01*
X25549Y38333D02*
X26249D01*
X25649Y38233D02*
X26149D01*
X25349Y37333D02*
X26549D01*
X25349Y37233D02*
X26549D01*
X25349Y37133D02*
X26549D01*
X25349Y37033D02*
X26549D01*
X25349Y36933D02*
X26549D01*
X25349Y36833D02*
X26549D01*
X25349Y36733D02*
X26549D01*
X25349Y36633D02*
X26549D01*
X25349Y36533D02*
X26549D01*
X25349Y36433D02*
X26549D01*
X25349Y36333D02*
X26549D01*
X25349Y36133D02*
X26549D01*
X25349Y36033D02*
X26549D01*
X25349Y35933D02*
X26549D01*
X25349Y35833D02*
X26549D01*
X25349Y35733D02*
X26549D01*
X25349Y35633D02*
X26549D01*
X25349Y35533D02*
X26549D01*
X25349Y35433D02*
X26549D01*
X25349Y35333D02*
X26549D01*
X25349Y35233D02*
X26549D01*
X25349Y35133D02*
X26549D01*
X25349Y35033D02*
X26549D01*
X25349Y34933D02*
X26549D01*
X25349Y34833D02*
X26549D01*
X25349Y34733D02*
X26549D01*
X25349Y34633D02*
X26549D01*
X25349Y34533D02*
X26549D01*
X25349Y34433D02*
X26549D01*
X25349Y34333D02*
X26549D01*
X25349Y34233D02*
X26549D01*
X25349Y34133D02*
X26549D01*
X25349Y34033D02*
X26549D01*
X25349Y37533D02*
X27149D01*
X25349Y37433D02*
X27149D01*
X24749Y33733D02*
X27149D01*
X20949Y31833D02*
X22049D01*
X21249Y32733D02*
X21849D01*
X21149Y32633D02*
X21949D01*
X21049Y32533D02*
X22049D01*
X20949Y32433D02*
X22149D01*
X20949Y32333D02*
X22149D01*
X23049Y36233D02*
X24349D01*
X23049Y38133D02*
X23749D01*
X23049Y38033D02*
X23849D01*
X23049Y37933D02*
X23949D01*
X23049Y37833D02*
X24049D01*
X23049Y37733D02*
X24249D01*
X23049Y37633D02*
X24549D01*
X23049Y37333D02*
X24349D01*
X23049Y37233D02*
X24349D01*
X23049Y37133D02*
X24349D01*
X23049Y37033D02*
X24349D01*
X23049Y36933D02*
X24349D01*
X23049Y36833D02*
X24349D01*
X23049Y36733D02*
X24349D01*
X23049Y36633D02*
X24349D01*
X23049Y36533D02*
X24349D01*
X23049Y36433D02*
X24349D01*
X23049Y36333D02*
X24349D01*
X23049Y36133D02*
X24349D01*
X23049Y36033D02*
X24349D01*
X23049Y35933D02*
X24349D01*
X23049Y35833D02*
X24349D01*
X23049Y35733D02*
X24349D01*
X23049Y35633D02*
X24349D01*
X23049Y35533D02*
X24349D01*
X23049Y35433D02*
X24349D01*
X23049Y35333D02*
X24349D01*
X23049Y35233D02*
X24349D01*
X23049Y35133D02*
X24349D01*
X23049Y35033D02*
X24349D01*
X23049Y34933D02*
X24349D01*
X23049Y34833D02*
X24349D01*
X23049Y34733D02*
X24349D01*
X23049Y34633D02*
X24349D01*
X23049Y34533D02*
X24349D01*
X23049Y34433D02*
X24249D01*
X23049Y34333D02*
X24249D01*
X23049Y34233D02*
X24249D01*
X23049Y34133D02*
X24249D01*
X22349Y34033D02*
X24149D01*
X22449Y33933D02*
X24049D01*
X22649Y33833D02*
X23949D01*
X22849Y33733D02*
X23749D01*
X23049Y39433D02*
X23249D01*
X23049Y39333D02*
X23249D01*
X23049Y39233D02*
X23249D01*
X23049Y39133D02*
X23249D01*
X23049Y39033D02*
X23349D01*
X23049Y38933D02*
X23349D01*
X23049Y38833D02*
X23349D01*
X23049Y38733D02*
X23349D01*
X23049Y38633D02*
X23449D01*
X23049Y38533D02*
X23449D01*
X23049Y38433D02*
X23549D01*
X23049Y38333D02*
X23549D01*
X23049Y38233D02*
X23649D01*
X22149Y34333D02*
X22449D01*
X22249Y34233D02*
X22549D01*
X22349Y34133D02*
X22649D01*
X23249Y33633D02*
X23349D01*
X24649Y33933D02*
X27149D01*
X24649Y33833D02*
X27149D01*
X21249Y31633D02*
X21749D01*
X34749Y52233D02*
X35449D01*
X34749Y52133D02*
X35549D01*
X34749Y52033D02*
X35649D01*
X34849Y51933D02*
X35749D01*
X34849Y51833D02*
X35849D01*
X34849Y51733D02*
X35849D01*
X34849Y51633D02*
X35949D01*
X34849Y51533D02*
X35949D01*
X34849Y51433D02*
X36049D01*
X34849Y51333D02*
X36049D01*
X34849Y51233D02*
X36049D01*
X34849Y50833D02*
X36149D01*
X34849Y50733D02*
X36149D01*
X34849Y50633D02*
X36149D01*
X34849Y50533D02*
X36149D01*
X34849Y50433D02*
X36149D01*
X34849Y50333D02*
X36149D01*
X34849Y50233D02*
X36149D01*
X34849Y50133D02*
X36049D01*
X34849Y50033D02*
X36049D01*
X34849Y49933D02*
X36049D01*
X34849Y49833D02*
X35949D01*
X34849Y49733D02*
X35949D01*
X34749Y49633D02*
X35849D01*
X34749Y49533D02*
X35849D01*
X34749Y49433D02*
X35749D01*
X33049Y52233D02*
X33849D01*
X33249Y52433D02*
X34049D01*
X33149Y52333D02*
X33849D01*
X32949Y52133D02*
X33749D01*
X32849Y52033D02*
X33749D01*
X32749Y51933D02*
X33749D01*
X32749Y51833D02*
X33749D01*
X32749Y49333D02*
X33049D01*
X32849Y49233D02*
X33149D01*
X32949Y49133D02*
X33249D01*
X33049Y49033D02*
X33349D01*
X33649Y48733D02*
X34749D01*
X33649Y52633D02*
X34749D01*
X33449Y52533D02*
X35049D01*
X34449Y52433D02*
X35249D01*
X34649Y52333D02*
X35349D01*
X34649Y49333D02*
X35649D01*
X34649Y49233D02*
X35549D01*
X34549Y49133D02*
X35449D01*
X34449Y49033D02*
X35449D01*
X33149Y48933D02*
X35249D01*
X33349Y48833D02*
X35049D01*
X31749Y48033D02*
X32249D01*
X31749Y47933D02*
X32249D01*
X31849Y47833D02*
X32349D01*
X31449Y48433D02*
X31749D01*
X31549Y48333D02*
X31949D01*
X31549Y48233D02*
X32049D01*
X30949Y52233D02*
X31749D01*
X30949Y52133D02*
X31849D01*
X30949Y52033D02*
X31849D01*
X30949Y51933D02*
X31949D01*
X31049Y51833D02*
X31949D01*
X31049Y51733D02*
X32049D01*
X31049Y51633D02*
X32049D01*
X31049Y51533D02*
X32049D01*
X31049Y51433D02*
X32049D01*
X31049Y51333D02*
X32049D01*
X31049Y51233D02*
X32049D01*
X31049Y51133D02*
X32049D01*
X30949Y51033D02*
X31949D01*
X30949Y50933D02*
X31949D01*
X30949Y50833D02*
X31849D01*
X30949Y50733D02*
X31849D01*
X30949Y50633D02*
X31749D01*
X31149Y50233D02*
X31749D01*
X31449Y50133D02*
X31849D01*
X31649Y50033D02*
X31949D01*
X31649Y49933D02*
X32049D01*
X31749Y49833D02*
X32049D01*
X31749Y49733D02*
X32149D01*
X31649Y49633D02*
X32149D01*
X29449Y49533D02*
X32149D01*
X29149Y49433D02*
X32149D01*
X29049Y49333D02*
X32149D01*
X29249Y52233D02*
X30049D01*
X29849Y52633D02*
X31049D01*
X29649Y52533D02*
X31249D01*
X30749Y52433D02*
X31449D01*
X29449D02*
X30249D01*
X28949D02*
X29349D01*
X30949Y52333D02*
X31649D01*
X29249D02*
X30049D01*
X29149Y52133D02*
X29949D01*
X29149Y52033D02*
X29949D01*
X29049Y51933D02*
X29949D01*
X29049Y51833D02*
X29949D01*
X28949Y51733D02*
X29949D01*
X28949Y51633D02*
X29949D01*
X28949Y51533D02*
X29949D01*
X28949Y51433D02*
X29949D01*
X28949Y51333D02*
X29949D01*
X28949Y51233D02*
X29949D01*
X28949Y51133D02*
X29949D01*
X29049Y51033D02*
X29949D01*
X29049Y50933D02*
X29949D01*
X29149Y50833D02*
X29949D01*
X29149Y50733D02*
X30049D01*
X29249Y50633D02*
X30049D01*
X30849Y50533D02*
X31549D01*
X29349D02*
X30149D01*
X30749Y50433D02*
X31449D01*
X29449D02*
X30249D01*
X29649Y50333D02*
X31449D01*
X29849Y50233D02*
X30949D01*
X30349Y50133D02*
X30649D01*
X31649Y48133D02*
X32149D01*
X32649Y51733D02*
X33749D01*
X32549Y51633D02*
X33749D01*
X32549Y51533D02*
X33749D01*
X32549Y51433D02*
X33749D01*
X32449Y51333D02*
X33749D01*
X32449Y51233D02*
X33749D01*
X32349Y50133D02*
X32649D01*
X32449Y50033D02*
X32649D01*
X32449Y49933D02*
X32749D01*
X32449Y49833D02*
X32749D01*
X32549Y49733D02*
X32849D01*
X32549Y49633D02*
X32849D01*
X32649Y49533D02*
X32949D01*
X32649Y49433D02*
X32949D01*
X32449Y51133D02*
X36149D01*
X32449Y51033D02*
X36149D01*
X32449Y50933D02*
X36149D01*
X35349Y44233D02*
X36449D01*
X35849Y44733D02*
X36649D01*
X35749Y44633D02*
X36549D01*
X35649Y44533D02*
X36549D01*
X35449Y44433D02*
X36449D01*
X35449Y44333D02*
X36449D01*
X35349Y44133D02*
X36449D01*
X35249Y44033D02*
X36449D01*
X35249Y43933D02*
X36449D01*
X35149Y43833D02*
X36449D01*
X35149Y43733D02*
X36449D01*
X35149Y43633D02*
X36449D01*
X35049Y43533D02*
X36449D01*
X35049Y43433D02*
X36449D01*
X35049Y43333D02*
X36449D01*
X35049Y43233D02*
X36449D01*
X35049Y43133D02*
X36449D01*
X35049Y43033D02*
X36449D01*
X35049Y42933D02*
X36449D01*
X35049Y42833D02*
X36449D01*
X35049Y42733D02*
X36449D01*
X35049Y42633D02*
X36449D01*
X35149Y42533D02*
X36449D01*
X35149Y42433D02*
X36449D01*
X35149Y42333D02*
X36449D01*
X35249Y42233D02*
X36449D01*
X35249Y42133D02*
X36449D01*
X35349Y42033D02*
X36449D01*
X35449Y41933D02*
X36449D01*
X35449Y41833D02*
X36449D01*
X35549Y41733D02*
X36449D01*
X35649Y41633D02*
X36549D01*
X35749Y41533D02*
X36549D01*
X35849Y41433D02*
X36649D01*
X33049Y44233D02*
X34449D01*
X33249Y44733D02*
X34449D01*
X33249Y44633D02*
X34449D01*
X33249Y44533D02*
X34449D01*
X32749D02*
X33149D01*
X33249Y44433D02*
X34449D01*
X32849D02*
X33149D01*
X32949Y44333D02*
X34449D01*
X33049Y44133D02*
X34449D01*
X33149Y44033D02*
X34449D01*
X33149Y43933D02*
X34449D01*
X33149Y43833D02*
X34449D01*
X33249Y43733D02*
X34449D01*
X33249Y43633D02*
X34449D01*
X33249Y43533D02*
X34449D01*
X33249Y43433D02*
X34449D01*
X33249Y43333D02*
X34449D01*
X33249Y43233D02*
X34449D01*
X33249Y43133D02*
X34449D01*
X33249Y43033D02*
X34449D01*
X33249Y42933D02*
X34449D01*
X33249Y42833D02*
X34449D01*
X33249Y42733D02*
X34449D01*
X33249Y42633D02*
X34449D01*
X33249Y42533D02*
X34449D01*
X33249Y42433D02*
X34449D01*
X33249Y42333D02*
X34449D01*
X33249Y42233D02*
X34449D01*
X33249Y42133D02*
X34449D01*
X33249Y42033D02*
X34449D01*
X33249Y41933D02*
X34449D01*
X33249Y41833D02*
X34449D01*
X33249Y41733D02*
X34449D01*
X33249Y41633D02*
X34449D01*
X33249Y41533D02*
X34449D01*
X33249Y41433D02*
X34449D01*
X33249Y44933D02*
X35049D01*
X33249Y44833D02*
X35049D01*
X32749Y41333D02*
X35049D01*
X32749Y41233D02*
X35049D01*
X30649Y44233D02*
X31849D01*
X31749Y47333D02*
X32349D01*
X31749Y47233D02*
X32249D01*
X31649Y47133D02*
X32249D01*
X31649Y47033D02*
X32149D01*
X31549Y46933D02*
X32049D01*
X31349Y46833D02*
X31949D01*
X31049Y46733D02*
X31749D01*
X31449Y45133D02*
X32149D01*
X31149Y45033D02*
X32449D01*
X30849Y44733D02*
X32049D01*
X30749Y44633D02*
X31949D01*
X30749Y44533D02*
X31849D01*
X30649Y44433D02*
X31849D01*
X30649Y44333D02*
X31849D01*
X30649Y44133D02*
X31849D01*
X30549Y44033D02*
X31849D01*
X30549Y43933D02*
X31849D01*
X30549Y43833D02*
X31849D01*
X30549Y43733D02*
X31849D01*
X30549Y43633D02*
X31849D01*
X30549Y43533D02*
X31849D01*
X30549Y43433D02*
X31849D01*
X30549Y43333D02*
X31849D01*
X30549Y43233D02*
X31849D01*
X30549Y43133D02*
X31849D01*
X30549Y43033D02*
X31849D01*
X30549Y42933D02*
X31849D01*
X30549Y42833D02*
X31849D01*
X30549Y42733D02*
X31849D01*
X30549Y42633D02*
X31849D01*
X30549Y42533D02*
X31849D01*
X30549Y42433D02*
X31849D01*
X30549Y42333D02*
X31849D01*
X30549Y42233D02*
X31849D01*
X30549Y42133D02*
X31849D01*
X30549Y42033D02*
X31849D01*
X30549Y41933D02*
X31849D01*
X30549Y41833D02*
X31849D01*
X30549Y41733D02*
X31849D01*
X30549Y41633D02*
X31849D01*
X30549Y41533D02*
X31849D01*
X30549Y41433D02*
X31849D01*
X29949Y41333D02*
X32249D01*
X29949Y41233D02*
X32249D01*
X28949Y47233D02*
X29249D01*
X29049Y47133D02*
X29349D01*
X29149Y47033D02*
X29549D01*
X29249Y46933D02*
X29649D01*
X29349Y46833D02*
X29849D01*
X29549Y46733D02*
X30249D01*
X29749Y46633D02*
X31549D01*
X30049Y46533D02*
X31249D01*
X31849Y47633D02*
X32349D01*
X31849Y47533D02*
X32349D01*
X31849Y47433D02*
X32349D01*
X30949Y44933D02*
X32649D01*
X30949Y44833D02*
X32849D01*
X32449Y44733D02*
X32949D01*
X32649Y44633D02*
X33049D01*
X35449Y37633D02*
X36449D01*
X35249Y37533D02*
X36749D01*
X35049Y37433D02*
X35849D01*
X34949Y37333D02*
X35649D01*
X34749Y37233D02*
X35549D01*
X34749Y34033D02*
X35149D01*
X34849Y33933D02*
X35349D01*
X35049Y33833D02*
X36749D01*
X35249Y33733D02*
X36549D01*
X35749Y33633D02*
X36049D01*
X34149Y35133D02*
X34349D01*
X34149Y35033D02*
X34349D01*
X34149Y34933D02*
X34449D01*
X34249Y34833D02*
X34449D01*
X34249Y34733D02*
X34449D01*
X34249Y34633D02*
X34549D01*
X34349Y34533D02*
X34549D01*
X34149Y36233D02*
X35449D01*
X34649Y37133D02*
X35549D01*
X34549Y37033D02*
X35449D01*
X34549Y36933D02*
X35449D01*
X34449Y36833D02*
X35449D01*
X34349Y36733D02*
X35449D01*
X34349Y36633D02*
X35449D01*
X34249Y36533D02*
X35449D01*
X34249Y36433D02*
X35449D01*
X34249Y36333D02*
X35449D01*
X34149Y36133D02*
X35449D01*
X34349Y34433D02*
X34649D01*
X34449Y34333D02*
X34749D01*
X34549Y34233D02*
X34849D01*
X34649Y34133D02*
X34949D01*
X30549Y37533D02*
X31849D01*
X30449Y37433D02*
X31949D01*
X30449Y37333D02*
X32049D01*
X30849Y37733D02*
X31449D01*
X30649Y37633D02*
X31649D01*
X29149Y37433D02*
X29749D01*
X29449Y37333D02*
X29849D01*
X30349Y37233D02*
X31649D01*
X29549D02*
X29849D01*
X30349Y37133D02*
X31649D01*
X29649D02*
X29949D01*
X30349Y37033D02*
X31649D01*
X29649D02*
X30049D01*
X30449Y36933D02*
X31649D01*
X29649D02*
X30049D01*
X30449Y36833D02*
X31649D01*
X29649D02*
X30149D01*
X30449Y36733D02*
X31549D01*
X29649D02*
X30149D01*
X30549Y36633D02*
X31449D01*
X29649D02*
X30149D01*
X30749Y36533D02*
X31349D01*
X29549D02*
X30149D01*
X29249Y36433D02*
X30149D01*
X29949Y35033D02*
X30149D01*
X29849Y34933D02*
X30149D01*
X29849Y34833D02*
X30149D01*
X29849Y34733D02*
X30149D01*
X29749Y34633D02*
X30149D01*
X29749Y34533D02*
X30149D01*
X29649Y34433D02*
X30149D01*
X29549Y34333D02*
X30149D01*
X29449Y34233D02*
X30149D01*
X29349Y34133D02*
X30149D01*
X29149Y34033D02*
X30149D01*
X29749Y33833D02*
X30149D01*
X29849Y33733D02*
X30149D01*
X29949Y33633D02*
X30149D01*
X31849Y37233D02*
X32049D01*
X31949Y37133D02*
X32149D01*
X31949Y37033D02*
X32149D01*
X31449Y33933D02*
X34049D01*
X31449Y33833D02*
X34049D01*
X32149Y36233D02*
X33449D01*
X32249Y37533D02*
X34049D01*
X32249Y37433D02*
X34049D01*
X32249Y37333D02*
X33449D01*
X32249Y37233D02*
X33449D01*
X32249Y37133D02*
X33449D01*
X32249Y37033D02*
X33449D01*
X32049Y36933D02*
X33449D01*
X32049Y36833D02*
X33449D01*
X32049Y36733D02*
X33449D01*
X32149Y36633D02*
X33449D01*
X32149Y36533D02*
X33449D01*
X32149Y36433D02*
X33449D01*
X32149Y36333D02*
X33449D01*
X32249Y36133D02*
X33449D01*
X32249Y36033D02*
X33449D01*
X32249Y35933D02*
X33449D01*
X32249Y35833D02*
X33449D01*
X32249Y35733D02*
X33449D01*
X32249Y35633D02*
X33449D01*
X32249Y35533D02*
X33449D01*
X32249Y35433D02*
X33449D01*
X32249Y35333D02*
X33449D01*
X32249Y35233D02*
X33449D01*
X32249Y35133D02*
X33449D01*
X32249Y35033D02*
X33449D01*
X32249Y34933D02*
X33449D01*
X32249Y34833D02*
X33449D01*
X32249Y34733D02*
X33449D01*
X32249Y34633D02*
X33449D01*
X32249Y34533D02*
X33449D01*
X32249Y34433D02*
X33449D01*
X32249Y34333D02*
X33449D01*
X32249Y34233D02*
X33449D01*
X32249Y34133D02*
X33449D01*
X32249Y34033D02*
X33449D01*
X43249Y52233D02*
X44449D01*
X42849D02*
X43149D01*
X43249Y52333D02*
X44449D01*
X42749D02*
X43049D01*
X43249Y52133D02*
X44449D01*
X42949D02*
X43149D01*
X42949Y52033D02*
X44449D01*
X43049Y51933D02*
X44449D01*
X43049Y51833D02*
X44449D01*
X43149Y51733D02*
X44449D01*
X43149Y51633D02*
X44449D01*
X43149Y51533D02*
X44449D01*
X43249Y51433D02*
X44449D01*
X43249Y51333D02*
X44449D01*
X43249Y51233D02*
X44449D01*
X43249Y51133D02*
X44449D01*
X43249Y51033D02*
X44449D01*
X43249Y50933D02*
X44449D01*
X43249Y50833D02*
X44449D01*
X43249Y50733D02*
X44449D01*
X43249Y50633D02*
X44449D01*
X43249Y50533D02*
X44449D01*
X43249Y50433D02*
X44449D01*
X43249Y50333D02*
X44449D01*
X43249Y50233D02*
X44449D01*
X43249Y50133D02*
X44449D01*
X43249Y50033D02*
X44449D01*
X43249Y49933D02*
X44449D01*
X43249Y49833D02*
X44449D01*
X43249Y49733D02*
X44449D01*
X43249Y49633D02*
X44449D01*
X43249Y49533D02*
X44449D01*
X43249Y49433D02*
X44449D01*
X43249Y49333D02*
X44449D01*
X43249Y49233D02*
X44449D01*
X43249Y49133D02*
X44449D01*
X43249Y49033D02*
X44449D01*
X41849Y52733D02*
X42349D01*
X41549Y51633D02*
X42549D01*
X41749Y51533D02*
X42449D01*
X41449Y52233D02*
X42649D01*
X41649Y52633D02*
X42649D01*
X41549Y52533D02*
X42849D01*
X41449Y52433D02*
X42949D01*
X41449Y52333D02*
X42649D01*
X41349Y52133D02*
X42649D01*
X41349Y52033D02*
X42649D01*
X41449Y51933D02*
X42649D01*
X41449Y51833D02*
X42649D01*
X41549Y51733D02*
X42649D01*
X38849Y52233D02*
X39249D01*
X36949D02*
X38049D01*
X37649Y52733D02*
X38249D01*
X37349Y52633D02*
X38649D01*
X37149Y52533D02*
X38749D01*
X37049Y52433D02*
X38949D01*
X38749Y52333D02*
X39149D01*
X36949D02*
X38149D01*
X38949Y52133D02*
X39249D01*
X39049Y52033D02*
X39349D01*
X39449Y52233D02*
X40649D01*
X39449Y52533D02*
X41249D01*
X39449Y52433D02*
X41249D01*
X39449Y52333D02*
X40649D01*
X39449Y50833D02*
X40649D01*
X39449Y52133D02*
X40649D01*
X39449Y52033D02*
X40649D01*
X39049Y51933D02*
X40649D01*
X39149Y51833D02*
X40649D01*
X39249Y51733D02*
X40649D01*
X39249Y51633D02*
X40649D01*
X39349Y51533D02*
X40649D01*
X39349Y51433D02*
X40649D01*
X39349Y51333D02*
X40649D01*
X39449Y51233D02*
X40649D01*
X39449Y51133D02*
X40649D01*
X39449Y51033D02*
X40649D01*
X39449Y50933D02*
X40649D01*
X39449Y50733D02*
X40649D01*
X39449Y50633D02*
X40649D01*
X39449Y50533D02*
X40649D01*
X39449Y50433D02*
X40649D01*
X39449Y50333D02*
X40649D01*
X39449Y50233D02*
X40649D01*
X39449Y50133D02*
X40649D01*
X39449Y50033D02*
X40649D01*
X39449Y49933D02*
X40649D01*
X39449Y49833D02*
X40649D01*
X39449Y49733D02*
X40649D01*
X39449Y49633D02*
X40649D01*
X39449Y49533D02*
X40649D01*
X39449Y49433D02*
X40649D01*
X39449Y49333D02*
X40649D01*
X39449Y49233D02*
X40649D01*
X39449Y49133D02*
X40649D01*
X39449Y49033D02*
X40649D01*
X38849Y48933D02*
X41249D01*
X38849Y48833D02*
X41249D01*
X44149Y42533D02*
X44449D01*
X44249Y42433D02*
X44449D01*
X44249Y42333D02*
X44449D01*
X44249Y42233D02*
X44549D01*
X44349Y42133D02*
X44549D01*
X44349Y42033D02*
X44649D01*
X44349Y41933D02*
X44649D01*
X44449Y41833D02*
X44749D01*
X44549Y41733D02*
X44749D01*
X42349Y44233D02*
X43549D01*
X42349Y47233D02*
X44149D01*
X42349Y47133D02*
X44149D01*
X42349Y47033D02*
X43549D01*
X42349Y46933D02*
X43549D01*
X42349Y46833D02*
X43549D01*
X42349Y46733D02*
X43549D01*
X42349Y46633D02*
X43549D01*
X42349Y46533D02*
X43549D01*
X42349Y46433D02*
X43549D01*
X42349Y46333D02*
X43549D01*
X42349Y46233D02*
X43549D01*
X42349Y46133D02*
X43549D01*
X42349Y46033D02*
X43549D01*
X42349Y45933D02*
X43549D01*
X42349Y45833D02*
X43549D01*
X42349Y45733D02*
X43549D01*
X42349Y45633D02*
X43549D01*
X42349Y45533D02*
X43549D01*
X42349Y45433D02*
X43549D01*
X42349Y45333D02*
X43549D01*
X42349Y45233D02*
X43549D01*
X42349Y45133D02*
X43549D01*
X42349Y45033D02*
X43549D01*
X42349Y44933D02*
X43549D01*
X42349Y44833D02*
X43549D01*
X42349Y44733D02*
X43549D01*
X42349Y44633D02*
X43549D01*
X42349Y44533D02*
X43549D01*
X42349Y44433D02*
X43549D01*
X42349Y44333D02*
X43549D01*
X42349Y44133D02*
X43549D01*
X42349Y44033D02*
X43549D01*
X42349Y43933D02*
X43549D01*
X42349Y43833D02*
X43549D01*
X42349Y43733D02*
X43549D01*
X42349Y43633D02*
X43549D01*
X42349Y43533D02*
X43549D01*
X42349Y43433D02*
X43549D01*
X42349Y43333D02*
X43549D01*
X42349Y43233D02*
X43549D01*
X42349Y43133D02*
X43549D01*
X42349Y43033D02*
X43549D01*
X42349Y42933D02*
X43549D01*
X42349Y42833D02*
X43549D01*
X42349Y42733D02*
X43549D01*
X42349Y42633D02*
X43549D01*
X42349Y42533D02*
X43549D01*
X42349Y42433D02*
X43549D01*
X42349Y42333D02*
X43549D01*
X42349Y42233D02*
X43549D01*
X42349Y42133D02*
X43549D01*
X42349Y42033D02*
X43549D01*
X42349Y41933D02*
X43549D01*
X42349Y41833D02*
X43549D01*
X42349Y41733D02*
X43549D01*
X42349Y41633D02*
X43549D01*
X42349Y41533D02*
X43549D01*
X42349Y41433D02*
X43549D01*
X41749Y41333D02*
X44149D01*
X41749Y41233D02*
X44149D01*
X37749Y44233D02*
X38849D01*
X37049Y45133D02*
X37249D01*
X37349Y44833D02*
X38249D01*
X37549Y44733D02*
X38349D01*
X37649Y44633D02*
X38549D01*
X37649Y44533D02*
X38649D01*
X37749Y44433D02*
X38749D01*
X37749Y44333D02*
X38749D01*
X37849Y44133D02*
X38949D01*
X37849Y44033D02*
X38949D01*
X37849Y43933D02*
X39049D01*
X37849Y43833D02*
X39049D01*
X37849Y43733D02*
X39149D01*
X37849Y43633D02*
X39149D01*
X37849Y43533D02*
X39149D01*
X37849Y43433D02*
X39149D01*
X37849Y43333D02*
X39149D01*
X37849Y43233D02*
X39149D01*
X37849Y43133D02*
X39249D01*
X37849Y43033D02*
X39249D01*
X37849Y42933D02*
X39149D01*
X37849Y42833D02*
X39149D01*
X37849Y42733D02*
X39149D01*
X37849Y42633D02*
X39149D01*
X37849Y42533D02*
X39149D01*
X37849Y42433D02*
X39049D01*
X37849Y42333D02*
X39049D01*
X37849Y42233D02*
X39049D01*
X37849Y42133D02*
X38949D01*
X37849Y42033D02*
X38949D01*
X37749Y41933D02*
X38849D01*
X37749Y41833D02*
X38749D01*
X37749Y41733D02*
X38749D01*
X37649Y41633D02*
X38649D01*
X37649Y41533D02*
X38549D01*
X37549Y41433D02*
X38349D01*
X37349Y41333D02*
X38249D01*
X39749Y44233D02*
X41049D01*
X39749Y47233D02*
X41549D01*
X39749Y47133D02*
X41549D01*
X39749Y47033D02*
X41049D01*
X39749Y46933D02*
X41049D01*
X39749Y46833D02*
X41049D01*
X39749Y46733D02*
X41049D01*
X39749Y46633D02*
X41049D01*
X39749Y46533D02*
X41049D01*
X39749Y46433D02*
X41049D01*
X39749Y46333D02*
X41049D01*
X39749Y46233D02*
X41049D01*
X39749Y46133D02*
X41049D01*
X39749Y46033D02*
X41049D01*
X39749Y45933D02*
X41049D01*
X39749Y45833D02*
X41049D01*
X39749Y45733D02*
X41049D01*
X39749Y45633D02*
X41049D01*
X39749Y45533D02*
X41049D01*
X39749Y45433D02*
X41049D01*
X39749Y45333D02*
X41049D01*
X39749Y45233D02*
X41049D01*
X39749Y45133D02*
X41049D01*
X39749Y45033D02*
X41049D01*
X39749Y44933D02*
X41049D01*
X39749Y44833D02*
X41049D01*
X39749Y44733D02*
X41049D01*
X39749Y44633D02*
X41049D01*
X39749Y44533D02*
X41049D01*
X39749Y44433D02*
X41049D01*
X39749Y44333D02*
X41049D01*
X39749Y44133D02*
X41049D01*
X39749Y44033D02*
X41049D01*
X39749Y43933D02*
X41049D01*
X39749Y43833D02*
X41049D01*
X39749Y43733D02*
X41049D01*
X39749Y43633D02*
X41049D01*
X39749Y43533D02*
X41049D01*
X39749Y43433D02*
X41049D01*
X39749Y43333D02*
X41049D01*
X39749Y43233D02*
X41049D01*
X39749Y43133D02*
X41049D01*
X39749Y43033D02*
X41049D01*
X39749Y42933D02*
X41049D01*
X39749Y42833D02*
X41049D01*
X39749Y42733D02*
X41049D01*
X39749Y42633D02*
X41049D01*
X39749Y42533D02*
X41049D01*
X39749Y42433D02*
X41049D01*
X39749Y42333D02*
X41049D01*
X39749Y42233D02*
X41049D01*
X39749Y42133D02*
X41049D01*
X39749Y42033D02*
X41049D01*
X39749Y41933D02*
X41049D01*
X39749Y41833D02*
X41049D01*
X39749Y41733D02*
X41049D01*
X39749Y41633D02*
X41049D01*
X39749Y41533D02*
X41049D01*
X39749Y41433D02*
X41049D01*
X39149Y41333D02*
X41549D01*
X39149Y41233D02*
X41549D01*
X42249Y36233D02*
X43449D01*
X42549Y39333D02*
X43149D01*
X42349Y39233D02*
X43249D01*
X42349Y39133D02*
X43349D01*
X42249Y39033D02*
X43349D01*
X42249Y38933D02*
X43449D01*
X42249Y38833D02*
X43449D01*
X42249Y38733D02*
X43449D01*
X42249Y38633D02*
X43449D01*
X42249Y38533D02*
X43349D01*
X42349Y38433D02*
X43249D01*
X42449Y38333D02*
X43249D01*
X42649Y38233D02*
X43049D01*
X42249Y37533D02*
X44049D01*
X42249Y37433D02*
X44049D01*
X42249Y37333D02*
X43449D01*
X42249Y37233D02*
X43449D01*
X42249Y37133D02*
X43449D01*
X42249Y37033D02*
X43449D01*
X42249Y36933D02*
X43449D01*
X42249Y36833D02*
X43449D01*
X42249Y36733D02*
X43449D01*
X42249Y36633D02*
X43449D01*
X42249Y36533D02*
X43449D01*
X42249Y36433D02*
X43449D01*
X42249Y36333D02*
X43449D01*
X42249Y36133D02*
X43449D01*
X42249Y36033D02*
X43449D01*
X42249Y35933D02*
X43449D01*
X42249Y35833D02*
X43449D01*
X42249Y35733D02*
X43449D01*
X42249Y35633D02*
X43449D01*
X42249Y35533D02*
X43449D01*
X42249Y35433D02*
X43449D01*
X42249Y35333D02*
X43449D01*
X42249Y35233D02*
X43449D01*
X42249Y35133D02*
X43449D01*
X42249Y35033D02*
X43449D01*
X42249Y34933D02*
X43449D01*
X42249Y34833D02*
X43449D01*
X42249Y34733D02*
X43449D01*
X42249Y34633D02*
X43449D01*
X42249Y34533D02*
X43449D01*
X42249Y34433D02*
X43449D01*
X42249Y34333D02*
X43449D01*
X42249Y34233D02*
X43449D01*
X42249Y34133D02*
X43449D01*
X42249Y34033D02*
X43449D01*
X41649Y33933D02*
X44049D01*
X41649Y33833D02*
X44049D01*
X41649Y33733D02*
X44049D01*
X38949Y35233D02*
X40549D01*
X39049Y35133D02*
X40549D01*
X39049Y35033D02*
X40549D01*
X39049Y34933D02*
X40449D01*
X39149Y34833D02*
X40449D01*
X39149Y34733D02*
X40349D01*
X39249Y34633D02*
X40349D01*
X39249Y34533D02*
X40249D01*
X39349Y34433D02*
X40249D01*
X39349Y34333D02*
X40149D01*
X39449Y34233D02*
X40149D01*
X39449Y34133D02*
X40049D01*
X39449Y34033D02*
X40049D01*
X39549Y33933D02*
X40049D01*
X39549Y33833D02*
X39949D01*
X39649Y33733D02*
X39949D01*
X39649Y33633D02*
X39949D01*
X38549Y36233D02*
X38849D01*
X37649Y37533D02*
X39049D01*
X37649Y37433D02*
X39049D01*
X37849Y37333D02*
X38649D01*
X38049Y37233D02*
X38549D01*
X38149Y37133D02*
X38549D01*
X38149Y37033D02*
X38549D01*
X38249Y36933D02*
X38549D01*
X38249Y36833D02*
X38549D01*
X38349Y36733D02*
X38649D01*
X38349Y36633D02*
X38649D01*
X38449Y36533D02*
X38749D01*
X38449Y36433D02*
X38749D01*
X38549Y36333D02*
X38749D01*
X38649Y36133D02*
X38849D01*
X38649Y36033D02*
X38849D01*
X38649Y35933D02*
X38949D01*
X38749Y35833D02*
X38949D01*
X38749Y35733D02*
X39049D01*
X38749Y35633D02*
X39049D01*
X38849Y35533D02*
X39149D01*
X38849Y35433D02*
X39149D01*
X39749Y36233D02*
X41049D01*
X39749Y37533D02*
X41949D01*
X39749Y37433D02*
X41949D01*
X39749Y36433D02*
X41049D01*
X39749Y36333D02*
X41049D01*
X39649Y36133D02*
X40949D01*
X39649Y36033D02*
X40949D01*
X39549Y35933D02*
X40949D01*
X39549Y35833D02*
X40849D01*
X39449Y35733D02*
X40849D01*
X39449Y35633D02*
X40749D01*
X39349Y35533D02*
X40749D01*
X39349Y35433D02*
X40649D01*
X38949Y35333D02*
X40649D01*
X40149Y37333D02*
X41449D01*
X40149Y37233D02*
X41449D01*
X40049Y37133D02*
X41449D01*
X40049Y37033D02*
X41349D01*
X39949Y36933D02*
X41349D01*
X39949Y36833D02*
X41249D01*
X39949Y36733D02*
X41249D01*
X39849Y36633D02*
X41149D01*
X39849Y36533D02*
X41149D01*
X52049Y48633D02*
X52449D01*
X51849Y55133D02*
X52449D01*
X51049Y54833D02*
X51749D01*
X50749Y54733D02*
X51449D01*
X50749Y49033D02*
X51349D01*
X50949Y48933D02*
X51749D01*
X50049Y54933D02*
X50249D01*
X50049Y54833D02*
X50349D01*
X50049Y54733D02*
X50349D01*
X50049Y53733D02*
X50549D01*
X50049Y53633D02*
X50549D01*
X50049Y53533D02*
X50449D01*
X50049Y53433D02*
X50449D01*
X50049Y53333D02*
X50349D01*
X50049Y53233D02*
X50349D01*
X50049Y53133D02*
X50349D01*
X50049Y53033D02*
X50349D01*
X50049Y52933D02*
X50249D01*
X50049Y50933D02*
X50249D01*
X50049Y50833D02*
X50249D01*
X50049Y50733D02*
X50349D01*
X50049Y50633D02*
X50349D01*
X50049Y50533D02*
X50349D01*
X50049Y50433D02*
X50349D01*
X50049Y50333D02*
X50349D01*
X50049Y50233D02*
X50449D01*
X50049Y50133D02*
X50449D01*
X50049Y50033D02*
X50549D01*
X50049Y49933D02*
X50549D01*
X50049Y49033D02*
X50349D01*
X50049Y48933D02*
X50249D01*
X50049Y48833D02*
X50249D01*
X50049Y54633D02*
X51349D01*
X50049Y54533D02*
X51149D01*
X50049Y54433D02*
X51049D01*
X50049Y54333D02*
X50949D01*
X50049Y54233D02*
X50849D01*
X50049Y54133D02*
X50849D01*
X50049Y54033D02*
X50749D01*
X50049Y53933D02*
X50649D01*
X50049Y53833D02*
X50649D01*
X50049Y49833D02*
X50649D01*
X50049Y49733D02*
X50649D01*
X50049Y49633D02*
X50749D01*
X50049Y49533D02*
X50849D01*
X50049Y49433D02*
X50949D01*
X50049Y49333D02*
X51049D01*
X50049Y49233D02*
X51149D01*
X50049Y49133D02*
X51249D01*
X45649Y48733D02*
X46449D01*
X46749Y52633D02*
X48249D01*
X46549Y52533D02*
X48549D01*
X45749Y50933D02*
X47749D01*
X45749Y50833D02*
X48449D01*
X46049Y52233D02*
X47049D01*
X46349Y52433D02*
X47349D01*
X46149Y52333D02*
X47049D01*
X45949Y52133D02*
X46949D01*
X45949Y52033D02*
X46949D01*
X45849Y51933D02*
X46949D01*
X45849Y51833D02*
X46949D01*
X45849Y51733D02*
X46949D01*
X45749Y51633D02*
X46949D01*
X45749Y51533D02*
X46949D01*
X45749Y51433D02*
X46949D01*
X45749Y51333D02*
X46949D01*
X45749Y51233D02*
X46949D01*
X45749Y51133D02*
X46949D01*
X45749Y51033D02*
X46949D01*
X45749Y50733D02*
X46949D01*
X45749Y50633D02*
X46949D01*
X45749Y50533D02*
X46949D01*
X45749Y50433D02*
X46949D01*
X45749Y50333D02*
X46949D01*
X45749Y50233D02*
X46949D01*
X45749Y50133D02*
X46949D01*
X45749Y50033D02*
X46949D01*
X45749Y49933D02*
X46949D01*
X45749Y49833D02*
X46949D01*
X45749Y49733D02*
X46949D01*
X45749Y49633D02*
X46949D01*
X45749Y49533D02*
X46949D01*
X45749Y49433D02*
X47049D01*
X45149D02*
X45349D01*
X45749Y49333D02*
X47049D01*
X45149D02*
X45449D01*
X45749Y49233D02*
X47149D01*
X45149D02*
X45449D01*
X45749Y49133D02*
X47249D01*
X45249D02*
X45449D01*
X47049Y49033D02*
X47349D01*
X45649D02*
X46849D01*
X45249D02*
X45549D01*
X45349Y48933D02*
X46749D01*
X45449Y48833D02*
X46649D01*
X47649Y48733D02*
X48649D01*
X47149Y50733D02*
X48749D01*
X47249Y48933D02*
X49049D01*
X48449Y52233D02*
X48949D01*
X48049Y52433D02*
X48749D01*
X48449Y52333D02*
X48849D01*
X48249Y52133D02*
X49049D01*
X48149Y52033D02*
X49049D01*
X48049Y51933D02*
X49149D01*
X48049Y51833D02*
X49149D01*
X48049Y51733D02*
X49149D01*
X48049Y51633D02*
X49149D01*
X48049Y51533D02*
X49049D01*
X48149Y51433D02*
X49049D01*
X48249Y51333D02*
X48949D01*
X47849Y50633D02*
X48949D01*
X48049Y50533D02*
X49049D01*
X48149Y50433D02*
X49249D01*
X48149Y50333D02*
X49249D01*
X48249Y50233D02*
X49349D01*
X48249Y50133D02*
X49349D01*
X48249Y50033D02*
X49449D01*
X48249Y49933D02*
X49449D01*
X48249Y49833D02*
X49449D01*
X48249Y49733D02*
X49449D01*
X48249Y49633D02*
X49449D01*
X48249Y49533D02*
X49449D01*
X48249Y49433D02*
X49449D01*
X48149Y49333D02*
X49449D01*
X48149Y49233D02*
X49349D01*
X48049Y49133D02*
X49249D01*
X47949Y49033D02*
X49249D01*
X47349Y48833D02*
X48849D01*
X49149Y39833D02*
X50649D01*
X50849Y44233D02*
X51049D01*
X50749Y44433D02*
X51049D01*
X50749Y44333D02*
X51049D01*
X50849Y44133D02*
X51149D01*
X50849Y44033D02*
X51149D01*
X50949Y43933D02*
X51149D01*
X50949Y43833D02*
X51149D01*
X50949Y43733D02*
X51249D01*
X51049Y43633D02*
X51249D01*
X51049Y43533D02*
X51349D01*
X51049Y43433D02*
X51349D01*
X51149Y43333D02*
X51349D01*
X51149Y43133D02*
X52749D01*
X51249Y43033D02*
X52749D01*
X51249Y42933D02*
X52749D01*
X51249Y42833D02*
X52649D01*
X51349Y42733D02*
X52649D01*
X51349Y42633D02*
X52649D01*
X51349Y42533D02*
X52549D01*
X51449Y42433D02*
X52549D01*
X51449Y42333D02*
X52549D01*
X51449Y42233D02*
X52449D01*
X51549Y42133D02*
X52449D01*
X51549Y42033D02*
X52349D01*
X51549Y41933D02*
X52349D01*
X51649Y41833D02*
X52349D01*
X51649Y41733D02*
X52249D01*
X51749Y41633D02*
X52249D01*
X51749Y41533D02*
X52249D01*
X51749Y41433D02*
X52249D01*
X51849Y41333D02*
X52149D01*
X51849Y41233D02*
X52149D01*
X49949Y46733D02*
X50149D01*
X49949Y46633D02*
X50249D01*
X50049Y46533D02*
X50249D01*
X50049Y46433D02*
X50249D01*
X50049Y46333D02*
X50349D01*
X50049Y46233D02*
X50349D01*
X50149Y46133D02*
X50449D01*
X50149Y46033D02*
X50449D01*
X50149Y45933D02*
X50449D01*
X50249Y45833D02*
X50549D01*
X50249Y45733D02*
X50549D01*
X50249Y45633D02*
X50549D01*
X50349Y45533D02*
X50649D01*
X50349Y45433D02*
X50649D01*
X50449Y45333D02*
X50649D01*
X50449Y45233D02*
X50749D01*
X50449Y45133D02*
X50749D01*
X50549Y45033D02*
X50849D01*
X50549Y44933D02*
X50849D01*
X50549Y44833D02*
X50849D01*
X50649Y44733D02*
X50949D01*
X50649Y44633D02*
X50949D01*
X50649Y44533D02*
X50949D01*
X46649Y44033D02*
X47749D01*
X46649Y43933D02*
X47749D01*
X46649Y43833D02*
X47749D01*
X46649Y43733D02*
X47749D01*
X46649Y43633D02*
X47849D01*
X46649Y43533D02*
X47849D01*
X46649Y43233D02*
X47849D01*
X46649Y43133D02*
X47949D01*
X46649Y43033D02*
X47949D01*
X46649Y42933D02*
X47949D01*
X46649Y42833D02*
X47849D01*
X46649Y42733D02*
X47849D01*
X46649Y42633D02*
X47849D01*
X46649Y42533D02*
X47849D01*
X46649Y42433D02*
X47849D01*
X46649Y42333D02*
X47749D01*
X46549Y42233D02*
X47749D01*
X46549Y42133D02*
X47749D01*
X46649Y44233D02*
X47549D01*
X45849Y45133D02*
X46049D01*
X45449Y45033D02*
X46549D01*
X45249Y44933D02*
X46749D01*
X46249Y44833D02*
X46949D01*
X45049D02*
X45849D01*
X46449Y44733D02*
X47149D01*
X44949D02*
X45649D01*
X46449Y44633D02*
X47249D01*
X46549Y44533D02*
X47349D01*
X46549Y44433D02*
X47449D01*
X46549Y44333D02*
X47549D01*
X46649Y44133D02*
X47649D01*
X46549Y42033D02*
X47649D01*
X46549Y41933D02*
X47649D01*
X46549Y41833D02*
X47549D01*
X46449Y41733D02*
X47449D01*
X46449Y41633D02*
X47349D01*
X46349Y41533D02*
X47249D01*
X46149Y41433D02*
X47149D01*
X45849Y41333D02*
X46949D01*
X44949D02*
X45549D01*
X45049Y41233D02*
X46849D01*
X45449Y41133D02*
X46449D01*
X48549Y44233D02*
X49849D01*
X47949Y47233D02*
X50049D01*
X47949Y47133D02*
X50049D01*
X48549Y47033D02*
X50049D01*
X48549Y46933D02*
X50149D01*
X48549Y46833D02*
X50149D01*
X48549Y46733D02*
X49849D01*
X48549Y46633D02*
X49849D01*
X48549Y46533D02*
X49849D01*
X48549Y46433D02*
X49849D01*
X48549Y46333D02*
X49849D01*
X48549Y46233D02*
X49849D01*
X48549Y46133D02*
X49849D01*
X48549Y46033D02*
X49849D01*
X48549Y45933D02*
X49849D01*
X48549Y45833D02*
X49849D01*
X48549Y45733D02*
X49849D01*
X48549Y45633D02*
X49849D01*
X48549Y45533D02*
X49849D01*
X48549Y45433D02*
X49849D01*
X48549Y45333D02*
X49849D01*
X48549Y45233D02*
X49849D01*
X48549Y45133D02*
X49849D01*
X48549Y45033D02*
X49849D01*
X48549Y44933D02*
X49849D01*
X48549Y44833D02*
X49849D01*
X48549Y44733D02*
X49849D01*
X48549Y44633D02*
X49849D01*
X48549Y44533D02*
X49849D01*
X48549Y44433D02*
X49849D01*
X48549Y44333D02*
X49849D01*
X48549Y44133D02*
X49849D01*
X48549Y44033D02*
X49849D01*
X48549Y43933D02*
X49849D01*
X48549Y43833D02*
X49849D01*
X48549Y43733D02*
X49849D01*
X48549Y43633D02*
X49849D01*
X48549Y43533D02*
X49849D01*
X48549Y43433D02*
X49849D01*
X48549Y43333D02*
X49849D01*
X48549Y43233D02*
X49849D01*
X48549Y43133D02*
X49849D01*
X48549Y43033D02*
X49849D01*
X48549Y42933D02*
X49849D01*
X48549Y42833D02*
X49849D01*
X48549Y42733D02*
X49849D01*
X48549Y42633D02*
X49849D01*
X48549Y42533D02*
X49849D01*
X48549Y42433D02*
X49849D01*
X48549Y42333D02*
X49849D01*
X48549Y42233D02*
X49849D01*
X48549Y42133D02*
X49849D01*
X48549Y42033D02*
X49849D01*
X48549Y41933D02*
X49849D01*
X48549Y41833D02*
X49849D01*
X48549Y41733D02*
X49849D01*
X48549Y41633D02*
X49849D01*
X48549Y41533D02*
X49849D01*
X48549Y41433D02*
X49849D01*
X47949Y41333D02*
X50349D01*
X47949Y41233D02*
X50349D01*
X51549Y33633D02*
X52549D01*
X49749Y36233D02*
X50049D01*
X49549Y39633D02*
X50249D01*
X49649Y39533D02*
X50149D01*
X49749Y39433D02*
X50049D01*
X49749Y39333D02*
X50049D01*
X49749Y39233D02*
X50049D01*
X49749Y39133D02*
X50049D01*
X49749Y39033D02*
X50049D01*
X49749Y38933D02*
X50049D01*
X49749Y38833D02*
X50049D01*
X49749Y38733D02*
X50049D01*
X49749Y38633D02*
X50049D01*
X49749Y38533D02*
X50049D01*
X49749Y38433D02*
X50049D01*
X49749Y38333D02*
X50049D01*
X49749Y38233D02*
X50049D01*
X49749Y38133D02*
X50049D01*
X49749Y38033D02*
X50049D01*
X49749Y37933D02*
X50049D01*
X49749Y37833D02*
X50049D01*
X49749Y37733D02*
X50049D01*
X49749Y37633D02*
X50049D01*
X49749Y37533D02*
X50049D01*
X49749Y37433D02*
X50049D01*
X49749Y37333D02*
X50049D01*
X49749Y37233D02*
X50049D01*
X49749Y37133D02*
X50049D01*
X49749Y37033D02*
X50049D01*
X49749Y36933D02*
X50049D01*
X49749Y36833D02*
X50049D01*
X49749Y36733D02*
X50049D01*
X49749Y36633D02*
X50049D01*
X49749Y36533D02*
X50049D01*
X49749Y36433D02*
X50049D01*
X49749Y36333D02*
X50049D01*
X49749Y36133D02*
X50049D01*
X49749Y36033D02*
X50049D01*
X49749Y35933D02*
X50049D01*
X49749Y35833D02*
X50049D01*
X49749Y35733D02*
X50049D01*
X49749Y35633D02*
X50049D01*
X49749Y35533D02*
X50049D01*
X49749Y35433D02*
X50049D01*
X49749Y35333D02*
X50049D01*
X49849Y35233D02*
X50049D01*
X49849Y35133D02*
X50049D01*
X49849Y35033D02*
X50149D01*
X49849Y34933D02*
X50149D01*
X49949Y34833D02*
X50149D01*
X49949Y34733D02*
X50249D01*
X49949Y34633D02*
X50249D01*
X50049Y34533D02*
X50349D01*
X50049Y34433D02*
X50449D01*
X50149Y34333D02*
X50549D01*
X50249Y34233D02*
X50649D01*
X50349Y34133D02*
X50849D01*
X50449Y34033D02*
X51049D01*
X45749Y37733D02*
X46249D01*
X45449Y37633D02*
X46649D01*
X45249Y37533D02*
X46849D01*
X45149Y37433D02*
X46949D01*
X46649Y37333D02*
X47149D01*
X45049D02*
X46349D01*
X46849Y37233D02*
X47249D01*
X45049D02*
X46149D01*
X46949Y37133D02*
X47349D01*
X44949D02*
X46049D01*
X47049Y37033D02*
X47349D01*
X44949D02*
X46049D01*
X47449Y36233D02*
X48649D01*
X47449Y37533D02*
X49249D01*
X47449Y37433D02*
X49249D01*
X47449Y37333D02*
X48649D01*
X47449Y37233D02*
X48649D01*
X47449Y37133D02*
X48649D01*
X47449Y37033D02*
X48649D01*
X47149Y36933D02*
X48649D01*
X47149Y36833D02*
X48649D01*
X47249Y36733D02*
X48649D01*
X47349Y36633D02*
X48649D01*
X47349Y36533D02*
X48649D01*
X47449Y36433D02*
X48649D01*
X47449Y36333D02*
X48649D01*
X47449Y36133D02*
X48649D01*
X47449Y36033D02*
X48649D01*
X47449Y35933D02*
X48649D01*
X47449Y35833D02*
X48649D01*
X47449Y35733D02*
X48649D01*
X47449Y35633D02*
X48649D01*
X47449Y35533D02*
X48649D01*
X47449Y35433D02*
X48649D01*
X47449Y35333D02*
X48649D01*
X47449Y35233D02*
X48649D01*
X47449Y35133D02*
X48649D01*
X47449Y35033D02*
X48649D01*
X47449Y34933D02*
X48649D01*
X47449Y34833D02*
X48649D01*
X47449Y34733D02*
X48649D01*
X47449Y34633D02*
X48649D01*
X47449Y34533D02*
X48649D01*
X47449Y34433D02*
X48649D01*
X47449Y34333D02*
X48649D01*
X47449Y34233D02*
X48649D01*
X47449Y34133D02*
X48649D01*
X47449Y34033D02*
X48649D01*
X46949Y33933D02*
X49249D01*
X46949Y33833D02*
X49249D01*
X46949Y33733D02*
X49249D01*
X53549Y52233D02*
X55049D01*
X52949Y54533D02*
X53849D01*
X53049Y54433D02*
X53949D01*
X53149Y54333D02*
X54049D01*
X53149Y54233D02*
X54149D01*
X53249Y54133D02*
X54249D01*
X53249Y54033D02*
X54349D01*
X53349Y53933D02*
X54349D01*
X53349Y53833D02*
X54449D01*
X53349Y53733D02*
X54449D01*
X53349Y53633D02*
X54549D01*
X53349Y53533D02*
X54549D01*
X53449Y53433D02*
X54649D01*
X53449Y53333D02*
X54749D01*
X53449Y53233D02*
X54749D01*
X53449Y53133D02*
X54749D01*
X53449Y53033D02*
X54849D01*
X53449Y52933D02*
X54849D01*
X53449Y52833D02*
X54849D01*
X53549Y52733D02*
X54949D01*
X53549Y52633D02*
X54949D01*
X53549Y52533D02*
X54949D01*
X53549Y52433D02*
X54949D01*
X53549Y52333D02*
X55049D01*
X53549Y52133D02*
X55049D01*
X53549Y52033D02*
X55049D01*
X53549Y51933D02*
X55049D01*
X53549Y51833D02*
X55049D01*
X53549Y51733D02*
X55049D01*
X53549Y51633D02*
X55049D01*
X53549Y51533D02*
X55049D01*
X53549Y51433D02*
X55049D01*
X53549Y51333D02*
X55049D01*
X53549Y51233D02*
X54949D01*
X53549Y51133D02*
X54949D01*
X53549Y51033D02*
X54949D01*
X53449Y50933D02*
X54949D01*
X53449Y50833D02*
X54949D01*
X53449Y50733D02*
X54849D01*
X53449Y50633D02*
X54849D01*
X53449Y50533D02*
X54849D01*
X53449Y50433D02*
X54749D01*
X53449Y50333D02*
X54749D01*
X53449Y50233D02*
X54649D01*
X53349Y50133D02*
X54649D01*
X53349Y50033D02*
X54549D01*
X53349Y49933D02*
X54549D01*
X53349Y49833D02*
X54449D01*
X53349Y49733D02*
X54449D01*
X53249Y49633D02*
X54349D01*
X53249Y49533D02*
X54249D01*
X53149Y49433D02*
X54149D01*
X53149Y49333D02*
X54049D01*
X53049Y49233D02*
X53949D01*
X52949Y49133D02*
X53849D01*
X54249Y44233D02*
X54449D01*
X54249Y47033D02*
X54449D01*
X54249Y46933D02*
X54449D01*
X54249Y46833D02*
X54449D01*
X54249Y46733D02*
X54449D01*
X54249Y46633D02*
X54449D01*
X54249Y46533D02*
X54449D01*
X54249Y46433D02*
X54449D01*
X54249Y46333D02*
X54449D01*
X54249Y46233D02*
X54449D01*
X54249Y46133D02*
X54449D01*
X54249Y46033D02*
X54449D01*
X54249Y45933D02*
X54449D01*
X54249Y45833D02*
X54449D01*
X54249Y45733D02*
X54449D01*
X54249Y45633D02*
X54449D01*
X54249Y45533D02*
X54449D01*
X54249Y45433D02*
X54449D01*
X54249Y45333D02*
X54449D01*
X54249Y45233D02*
X54449D01*
X54249Y45133D02*
X54449D01*
X54249Y45033D02*
X54449D01*
X54249Y44933D02*
X54449D01*
X54249Y44833D02*
X54449D01*
X54249Y44733D02*
X54449D01*
X54249Y44633D02*
X54449D01*
X54249Y44533D02*
X54449D01*
X54249Y44433D02*
X54449D01*
X54249Y44333D02*
X54449D01*
X54249Y44133D02*
X54449D01*
X54249Y44033D02*
X54449D01*
X54249Y43933D02*
X54449D01*
X54249Y43833D02*
X54449D01*
X54249Y43733D02*
X54449D01*
X54249Y43633D02*
X54449D01*
X54249Y43533D02*
X54449D01*
X54249Y43433D02*
X54449D01*
X54249Y43333D02*
X54449D01*
X54249Y43233D02*
X54449D01*
X54249Y43133D02*
X54449D01*
X54249Y43033D02*
X54449D01*
X54249Y42933D02*
X54449D01*
X54249Y42833D02*
X54449D01*
X54249Y42733D02*
X54449D01*
X54249Y42633D02*
X54449D01*
X54249Y42533D02*
X54449D01*
X54249Y42433D02*
X54449D01*
X54249Y42333D02*
X54449D01*
X54249Y42233D02*
X54449D01*
X54249Y42133D02*
X54449D01*
X54249Y42033D02*
X54449D01*
X54249Y41933D02*
X54449D01*
X54149Y41833D02*
X54449D01*
X54149Y41733D02*
X54449D01*
X54149Y41633D02*
X54549D01*
X54049Y41533D02*
X54649D01*
X53849Y41433D02*
X54849D01*
X53549Y41333D02*
X55049D01*
X53549Y41233D02*
X55049D01*
X53149Y36233D02*
X54449D01*
X53149Y39633D02*
X54449D01*
X53149Y39533D02*
X54449D01*
X53149Y39433D02*
X54449D01*
X53149Y39333D02*
X54449D01*
X53149Y39233D02*
X54449D01*
X53149Y39133D02*
X54449D01*
X53149Y39033D02*
X54449D01*
X53149Y38933D02*
X54449D01*
X53149Y38833D02*
X54449D01*
X53149Y38733D02*
X54449D01*
X53149Y38633D02*
X54449D01*
X53149Y38533D02*
X54449D01*
X53149Y38433D02*
X54449D01*
X53149Y38333D02*
X54449D01*
X53149Y38233D02*
X54449D01*
X53149Y38133D02*
X54449D01*
X53149Y38033D02*
X54449D01*
X53149Y37933D02*
X54449D01*
X53149Y37833D02*
X54449D01*
X53149Y37733D02*
X54449D01*
X53149Y37633D02*
X54449D01*
X53149Y37533D02*
X54449D01*
X53149Y37433D02*
X54449D01*
X53149Y37333D02*
X54449D01*
X53149Y37233D02*
X54449D01*
X53149Y37133D02*
X54449D01*
X53149Y37033D02*
X54449D01*
X53149Y36933D02*
X54449D01*
X53149Y36833D02*
X54449D01*
X53149Y36733D02*
X54449D01*
X53149Y36633D02*
X54449D01*
X53149Y36533D02*
X54449D01*
X53149Y36433D02*
X54449D01*
X53149Y36333D02*
X54449D01*
X53149Y36133D02*
X54449D01*
X53149Y36033D02*
X54449D01*
X53149Y35933D02*
X54449D01*
X53149Y35833D02*
X54449D01*
X53149Y35733D02*
X54449D01*
X53149Y35633D02*
X54449D01*
X53149Y35533D02*
X54449D01*
X53049Y35433D02*
X54449D01*
X53049Y35333D02*
X54449D01*
X53049Y35233D02*
X54349D01*
X53049Y35133D02*
X54349D01*
X53049Y35033D02*
X54349D01*
X52949Y34933D02*
X54249D01*
X52949Y34833D02*
X54249D01*
X52949Y34733D02*
X54249D01*
D58*
X54318Y23054D02*
Y25186D01*
X53252Y26253D01*
X52185Y25186D01*
Y23054D01*
Y24653D01*
X54318D01*
X51119Y26253D02*
Y23054D01*
X49520D01*
X48987Y23587D01*
Y24120D01*
Y24653D01*
X49520Y25186D01*
X51119D01*
X47920Y23054D02*
X46321D01*
X45788Y23587D01*
X46321Y24120D01*
X47387D01*
X47920Y24653D01*
X47387Y25186D01*
X45788D01*
X44188Y25719D02*
Y25186D01*
X44721D01*
X43655D01*
X44188D01*
Y23587D01*
X43655Y23054D01*
X42055Y25186D02*
Y23054D01*
Y24120D01*
X41522Y24653D01*
X40989Y25186D01*
X40456D01*
X38323D02*
X37257D01*
X36724Y24653D01*
Y23054D01*
X38323D01*
X38856Y23587D01*
X38323Y24120D01*
X36724D01*
X33525Y25186D02*
X35124D01*
X35658Y24653D01*
Y23587D01*
X35124Y23054D01*
X33525D01*
X31925Y25719D02*
Y25186D01*
X32458D01*
X31392D01*
X31925D01*
Y23587D01*
X31392Y23054D01*
X26594Y26253D02*
Y23054D01*
X24461D01*
X22862Y25186D02*
X21795D01*
X21262Y24653D01*
Y23054D01*
X22862D01*
X23395Y23587D01*
X22862Y24120D01*
X21262D01*
X20196Y26253D02*
Y23054D01*
X18596D01*
X18063Y23587D01*
Y24120D01*
Y24653D01*
X18596Y25186D01*
X20196D01*
X54318Y20494D02*
Y17295D01*
Y18894D01*
X52185D01*
Y20494D01*
Y17295D01*
X51119Y20494D02*
Y17295D01*
X49520D01*
X48987Y17828D01*
Y19961D01*
X49520Y20494D01*
X51119D01*
X44721Y17295D02*
Y20494D01*
X43655Y19428D01*
X42589Y20494D01*
Y17295D01*
X41522D02*
Y20494D01*
X39390Y17295D01*
Y20494D01*
X35124D02*
Y17295D01*
X33525D01*
X32992Y17828D01*
Y18361D01*
X33525Y18894D01*
X35124D01*
X33525D01*
X32992Y19428D01*
Y19961D01*
X33525Y20494D01*
X35124D01*
X31925D02*
Y17295D01*
X29793D01*
X52185Y11536D02*
X54318D01*
X52185Y13669D01*
Y14202D01*
X52719Y14735D01*
X53785D01*
X54318Y14202D01*
X51119D02*
X50586Y14735D01*
X49520D01*
X48987Y14202D01*
Y12069D01*
X49520Y11536D01*
X50586D01*
X51119Y12069D01*
Y14202D01*
X47920Y11536D02*
X46854D01*
X47387D01*
Y14735D01*
X47920Y14202D01*
X45254Y12069D02*
X44721Y11536D01*
X43655D01*
X43122Y12069D01*
Y14202D01*
X43655Y14735D01*
X44721D01*
X45254Y14202D01*
Y13669D01*
X44721Y13136D01*
X43122D01*
M02*
