G04*
G04 #@! TF.GenerationSoftware,Altium Limited,Altium Designer,19.1.5 (86)*
G04*
G04 Layer_Color=8388736*
%FSLAX25Y25*%
%MOIN*%
G70*
G01*
G75*
%ADD20R,0.17323X0.05512*%
%ADD21R,0.17323X0.05512*%
%ADD22R,0.12611X0.06312*%
%ADD23R,0.02769X0.02650*%
%ADD24R,0.01745X0.02572*%
%ADD25R,0.04343X0.03950*%
%ADD26R,0.03950X0.04343*%
%ADD27C,0.04737*%
%ADD28R,0.04737X0.04737*%
%ADD29C,0.10642*%
D20*
X11416Y49272D02*
D03*
D21*
X11417Y4390D02*
D03*
D22*
X129528Y9449D02*
D03*
Y17323D02*
D03*
Y25197D02*
D03*
Y33071D02*
D03*
Y40945D02*
D03*
Y48819D02*
D03*
Y56693D02*
D03*
Y64567D02*
D03*
X68898D02*
D03*
Y56693D02*
D03*
Y48819D02*
D03*
Y40945D02*
D03*
Y33071D02*
D03*
Y25197D02*
D03*
Y17323D02*
D03*
Y9449D02*
D03*
D23*
X178150Y28524D02*
D03*
Y19508D02*
D03*
X154921D02*
D03*
Y28524D02*
D03*
D24*
X175197Y28642D02*
D03*
Y19390D02*
D03*
X173622Y28642D02*
D03*
Y19390D02*
D03*
X172047Y28642D02*
D03*
Y19390D02*
D03*
X170472Y28642D02*
D03*
Y19390D02*
D03*
X168898Y28642D02*
D03*
Y19390D02*
D03*
X167323Y28642D02*
D03*
Y19390D02*
D03*
X165748Y28642D02*
D03*
Y19390D02*
D03*
X164173Y28642D02*
D03*
Y19390D02*
D03*
X162598Y28642D02*
D03*
Y19390D02*
D03*
X161024Y28642D02*
D03*
Y19390D02*
D03*
X159449Y28642D02*
D03*
Y19390D02*
D03*
X157874Y28642D02*
D03*
Y19390D02*
D03*
D25*
X44094Y64567D02*
D03*
Y70079D02*
D03*
X25197Y64567D02*
D03*
Y70079D02*
D03*
D26*
X31890Y64567D02*
D03*
X37402D02*
D03*
D27*
X163661Y7874D02*
D03*
X158661D02*
D03*
X153661D02*
D03*
X148661D02*
D03*
D28*
X143661D02*
D03*
D29*
X187402D02*
D03*
Y70866D02*
D03*
X7874D02*
D03*
M02*
