G04*
G04 #@! TF.GenerationSoftware,Altium Limited,Altium Designer,19.1.5 (86)*
G04*
G04 Layer_Color=255*
%FSLAX25Y25*%
%MOIN*%
G70*
G01*
G75*
%ADD14R,0.11811X0.05512*%
%ADD15R,0.00945X0.01772*%
%ADD16R,0.01968X0.01850*%
%ADD17R,0.16535X0.04724*%
%ADD18R,0.03150X0.03543*%
%ADD19R,0.03543X0.03150*%
%ADD34R,0.03937X0.03937*%
%ADD35C,0.03937*%
%ADD36C,0.09843*%
D14*
X129528Y9449D02*
D03*
Y17323D02*
D03*
Y25197D02*
D03*
Y33071D02*
D03*
Y40945D02*
D03*
Y48819D02*
D03*
Y56693D02*
D03*
Y64567D02*
D03*
X68898D02*
D03*
Y56693D02*
D03*
Y48819D02*
D03*
Y40945D02*
D03*
Y33071D02*
D03*
Y25197D02*
D03*
Y17323D02*
D03*
Y9449D02*
D03*
D15*
X157874Y19390D02*
D03*
Y28642D02*
D03*
X159449Y19390D02*
D03*
Y28642D02*
D03*
X161024Y19390D02*
D03*
Y28642D02*
D03*
X162598Y19390D02*
D03*
Y28642D02*
D03*
X164173Y19390D02*
D03*
Y28642D02*
D03*
X165748Y19390D02*
D03*
Y28642D02*
D03*
X167323Y19390D02*
D03*
Y28642D02*
D03*
X168898Y19390D02*
D03*
Y28642D02*
D03*
X170472Y19390D02*
D03*
Y28642D02*
D03*
X172047Y19390D02*
D03*
Y28642D02*
D03*
X173622Y19390D02*
D03*
Y28642D02*
D03*
X175197Y19390D02*
D03*
Y28642D02*
D03*
D16*
X154921Y28524D02*
D03*
Y19508D02*
D03*
X178150D02*
D03*
Y28524D02*
D03*
D17*
X11417Y49331D02*
D03*
Y4331D02*
D03*
D18*
X37402Y64567D02*
D03*
X31890D02*
D03*
D19*
X25197Y70079D02*
D03*
Y64567D02*
D03*
X44094Y70079D02*
D03*
Y64567D02*
D03*
D34*
X143661Y7874D02*
D03*
D35*
X148661D02*
D03*
X153661D02*
D03*
X158661D02*
D03*
X163661D02*
D03*
D36*
X187402D02*
D03*
Y70866D02*
D03*
X7874D02*
D03*
M02*
