G04*
G04 #@! TF.GenerationSoftware,Altium Limited,Altium Designer,19.1.5 (86)*
G04*
G04 Layer_Color=128*
%FSLAX25Y25*%
%MOIN*%
G70*
G01*
G75*
%ADD18R,0.03543X0.03150*%
%ADD19R,0.03150X0.03543*%
%ADD39R,0.01575X0.04134*%
%ADD40R,0.01181X0.05807*%
%ADD41R,0.05807X0.01181*%
%ADD42R,0.02756X0.03543*%
%ADD43R,0.02000X0.07000*%
%ADD44R,0.10236X0.04331*%
%ADD45R,0.04134X0.01575*%
%ADD46R,0.03543X0.02756*%
D18*
X66929Y14173D02*
D03*
Y8661D02*
D03*
X66929Y33071D02*
D03*
Y38583D02*
D03*
X73228Y33071D02*
D03*
Y38583D02*
D03*
X175197Y69685D02*
D03*
Y75197D02*
D03*
X180709Y49606D02*
D03*
Y44095D02*
D03*
X186221Y49606D02*
D03*
Y44094D02*
D03*
X185039Y21901D02*
D03*
Y16389D02*
D03*
X190551Y21901D02*
D03*
Y16389D02*
D03*
D19*
X89370Y72047D02*
D03*
X83858D02*
D03*
X132677Y72047D02*
D03*
X138189D02*
D03*
X132677Y25984D02*
D03*
X138189D02*
D03*
X185039Y27559D02*
D03*
X190551D02*
D03*
D39*
X180118Y63583D02*
D03*
X177559D02*
D03*
X175000D02*
D03*
Y56102D02*
D03*
X177559D02*
D03*
X180118D02*
D03*
D40*
X125787Y71016D02*
D03*
X123819D02*
D03*
X121850D02*
D03*
X119882D02*
D03*
X117913D02*
D03*
X115945D02*
D03*
X113976D02*
D03*
X112008D02*
D03*
X110039D02*
D03*
X108071D02*
D03*
X106102D02*
D03*
X104134D02*
D03*
X102165D02*
D03*
X100197D02*
D03*
X98228D02*
D03*
X96260D02*
D03*
Y25835D02*
D03*
X98228D02*
D03*
X100197D02*
D03*
X102165D02*
D03*
X104134D02*
D03*
X106102D02*
D03*
X108071D02*
D03*
X110039D02*
D03*
X112008D02*
D03*
X113976D02*
D03*
X115945D02*
D03*
X117913D02*
D03*
X119882D02*
D03*
X121850D02*
D03*
X123819D02*
D03*
X125787D02*
D03*
D41*
X88433Y63189D02*
D03*
Y61221D02*
D03*
Y59252D02*
D03*
Y57284D02*
D03*
Y55315D02*
D03*
Y53347D02*
D03*
Y51378D02*
D03*
Y49409D02*
D03*
Y47441D02*
D03*
Y45472D02*
D03*
Y43504D02*
D03*
Y41535D02*
D03*
Y39567D02*
D03*
Y37598D02*
D03*
Y35630D02*
D03*
Y33661D02*
D03*
X133614D02*
D03*
Y35630D02*
D03*
Y37598D02*
D03*
Y39567D02*
D03*
Y41535D02*
D03*
Y43504D02*
D03*
Y45472D02*
D03*
Y47441D02*
D03*
Y49409D02*
D03*
Y51378D02*
D03*
Y53347D02*
D03*
Y55315D02*
D03*
Y57284D02*
D03*
Y59252D02*
D03*
Y61221D02*
D03*
Y63189D02*
D03*
D42*
X190748Y33071D02*
D03*
X184843D02*
D03*
X190748Y38583D02*
D03*
X184843D02*
D03*
D43*
X166142Y43319D02*
D03*
Y54319D02*
D03*
X162993Y43319D02*
D03*
Y54319D02*
D03*
X159843Y43319D02*
D03*
Y54319D02*
D03*
X156693Y43319D02*
D03*
Y54319D02*
D03*
X153542Y43319D02*
D03*
Y54319D02*
D03*
D44*
X70079Y62795D02*
D03*
Y73425D02*
D03*
D45*
X67126Y25787D02*
D03*
Y23228D02*
D03*
Y20669D02*
D03*
X74606D02*
D03*
Y23228D02*
D03*
Y25787D02*
D03*
D46*
X74410Y14370D02*
D03*
Y8465D02*
D03*
X174803Y49803D02*
D03*
Y43898D02*
D03*
X191732Y49803D02*
D03*
Y43898D02*
D03*
M02*
