M48
;Layer_Color=9474304
;FILE_FORMAT=2:5
INCH,TZ
;TYPE=PLATED
T1F00S00C0.01181
T2F00S00C0.01968
T3F00S00C0.02362
;TYPE=NON_PLATED
T4F00S00C0.09843
%
T01
X60630Y2362
Y5118
Y7874
Y10630
Y13386
Y16142
Y18898
Y21654
Y24409
Y27165
Y29921
Y32677
Y35433
Y38189
Y40945
Y43701
Y46457
Y49213
Y51968
Y54724
Y57480
Y60236
X57874Y60630
X55118
X52362
X49606
X46850
X44094
X41339
X38583
X35827
X33071
X30315
X27559
X24803
X22047
X19291
X16535
X16142Y68504
X18504
X20866
X24016Y73622
Y76378
X26772
Y73622
X30315Y68504
X33071
X35827
X38583
X42520Y73622
X45276
Y76378
X42520
X49213Y68504
X51968
X54724
X57480
X60236
X63779Y69291
X67323
X70866
X74410
X77953
Y75984
X83858
X103150
X102756Y63779
Y58268
Y53150
X96850Y49606
X97244Y46063
X93701Y43701
X95669Y41339
X97638Y39370
X100000Y37402
X105905
X103150Y33858
X111417Y40945
X110236Y48819
X109055Y58268
Y63779
X116929Y63386
X119685Y56693
X119291Y37008
X112992Y20866
X109843Y18110
X105512Y19685
X105118Y7480
X98032
X91732
X88976Y2756
X87402Y10630
X92520Y16142
X96457
X92520Y22441
X87402
X90551Y28346
X78347Y25591
X77953Y40945
Y48819
Y56693
X94095Y57480
X93307Y53937
X94488Y51575
X96850Y63779
X138583Y66142
X142126
X145669Y63386
X150000Y65354
X150394Y61417
X147638Y59055
X143701Y57087
X141338Y55118
X140551Y52362
X138583Y50787
X149606Y51181
Y42913
X149213Y39370
X148819Y32283
X146063Y31102
X144488Y28740
X143701Y20472
Y16929
X141339Y18898
X138976Y17323
X137795Y25197
X146457Y19291
X148819
X151181
X153150Y33071
X138583Y7087
X118110Y7480
X112205
X116142Y17323
X68898Y2362
X64567
X7480Y60630
X5118
X2756
X7874Y62992
X128740Y75984
X138189
X146457
X159055Y75197
Y71653
X162598
X166142
Y75197
X162598
X169685
Y71653
X180315Y69685
Y75197
X183858Y63386
Y59842
X187795
Y63386
X191732
Y59842
Y55512
X186221
X177559Y59842
X171260Y57874
X170472Y54724
Y51968
X169685Y40157
X172835
X177165Y40551
X180709Y36220
X181496Y31890
X177165
X173622Y33071
X171260Y35039
Y31102
X170472Y26378
X173622Y24409
X177953Y24803
X179134Y15354
Y11811
X171653Y11024
X167323
X169291Y7480
X170079Y15748
X173622Y15354
X163779Y15748
X169291Y22047
X163779Y34646
X160630Y32283
X157874Y32677
X159843Y40945
X162992Y45669
X166142Y43319
X161417Y60630
Y64961
X187795Y35827
X180709Y2756
X177953
X174409
T02
X78347Y33071
X93307Y72047
X128740
X153543
T03
X143661Y7874
X148661
X153661
X158661
X163661
T04
X7874Y70866
X187402
Y7874
M30
