G04*
G04 #@! TF.GenerationSoftware,Altium Limited,Altium Designer,19.1.5 (86)*
G04*
G04 Layer_Physical_Order=1*
G04 Layer_Color=255*
%FSLAX25Y25*%
%MOIN*%
G70*
G01*
G75*
%ADD10C,0.00787*%
%ADD14R,0.11811X0.05512*%
%ADD15R,0.16535X0.04724*%
%ADD16R,0.01968X0.01850*%
%ADD17R,0.00945X0.01772*%
%ADD18R,0.03543X0.03150*%
%ADD19R,0.03150X0.03543*%
%ADD30C,0.01000*%
%ADD31C,0.02953*%
%ADD32C,0.01968*%
%ADD33C,0.03898*%
%ADD34C,0.03937*%
%ADD35R,0.03937X0.03937*%
%ADD36C,0.09843*%
%ADD37C,0.01772*%
%ADD38C,0.02756*%
G36*
X194123Y1152D02*
X164345D01*
X164138Y1652D01*
X165180Y2694D01*
X165646Y3391D01*
X165809Y4213D01*
Y6404D01*
X165931Y6564D01*
X166193Y7196D01*
X166282Y7874D01*
X166193Y8552D01*
X165931Y9184D01*
X165515Y9727D01*
X164972Y10144D01*
X164340Y10406D01*
X163661Y10495D01*
X162983Y10406D01*
X162351Y10144D01*
X161808Y9727D01*
X161697Y9582D01*
X161658Y9563D01*
X161080Y9599D01*
X160779Y9991D01*
X160159Y10467D01*
X159436Y10766D01*
X159161Y10802D01*
Y7874D01*
X158161D01*
Y10802D01*
X157887Y10766D01*
X157164Y10467D01*
X156544Y9991D01*
X156243Y9599D01*
X155665Y9563D01*
X155626Y9582D01*
X155515Y9727D01*
X154972Y10144D01*
X154340Y10406D01*
X153661Y10495D01*
X152983Y10406D01*
X152351Y10144D01*
X151808Y9727D01*
X151444Y9253D01*
X151161Y9215D01*
X150879Y9253D01*
X150515Y9727D01*
X149972Y10144D01*
X149340Y10406D01*
X148661Y10495D01*
X147983Y10406D01*
X147351Y10144D01*
X146808Y9727D01*
X146760Y9664D01*
X146260Y9834D01*
Y10472D01*
X141063D01*
Y5276D01*
X140754Y4904D01*
X89590D01*
X84431Y10063D01*
Y67221D01*
X87110Y69900D01*
X121449D01*
X121545Y69400D01*
X121309Y69242D01*
X116987Y64920D01*
X116929Y64931D01*
X116338Y64814D01*
X115836Y64479D01*
X115501Y63977D01*
X115384Y63386D01*
X115501Y62794D01*
X115836Y62293D01*
X116338Y61958D01*
X116929Y61840D01*
X117520Y61958D01*
X118022Y62293D01*
X118357Y62794D01*
X118475Y63386D01*
X118463Y63444D01*
X122122Y67103D01*
X122622Y66896D01*
Y65067D01*
X129528D01*
Y64567D01*
D01*
Y65067D01*
X136433D01*
Y67460D01*
X169646D01*
X170216Y66891D01*
Y59000D01*
X170167Y58967D01*
X169832Y58465D01*
X169714Y57874D01*
X169832Y57283D01*
X170167Y56781D01*
X170668Y56446D01*
X171260Y56329D01*
X171851Y56446D01*
X172353Y56781D01*
X172688Y57283D01*
X172805Y57874D01*
X172688Y58465D01*
X172353Y58967D01*
X172303Y59000D01*
Y67323D01*
X172303Y67323D01*
X172224Y67722D01*
X171998Y68061D01*
X171998Y68061D01*
X170817Y69242D01*
X170478Y69468D01*
X170079Y69548D01*
X170079Y69548D01*
X154336D01*
X154287Y70048D01*
X154365Y70063D01*
X155062Y70529D01*
X155527Y71225D01*
X155691Y72047D01*
X155527Y72869D01*
X155062Y73566D01*
X154365Y74031D01*
X153543Y74195D01*
X86221D01*
X85399Y74031D01*
X84702Y73566D01*
X80765Y69629D01*
X80299Y68932D01*
X80136Y68110D01*
Y34838D01*
X79636Y34624D01*
X79130Y34962D01*
X78347Y35118D01*
X77563Y34962D01*
X77196Y34717D01*
X75433D01*
Y36457D01*
X62362D01*
Y29685D01*
X75433D01*
Y31425D01*
X77196D01*
X77563Y31179D01*
X78347Y31024D01*
X79130Y31179D01*
X79636Y31518D01*
X80136Y31303D01*
Y26541D01*
X79636Y26389D01*
X79439Y26683D01*
X78938Y27018D01*
X78347Y27136D01*
X77755Y27018D01*
X77342Y26743D01*
X75433D01*
Y28583D01*
X62362D01*
Y21811D01*
X75433D01*
Y24439D01*
X77342D01*
X77755Y24163D01*
X78347Y24045D01*
X78938Y24163D01*
X79439Y24498D01*
X79636Y24792D01*
X80136Y24640D01*
Y9173D01*
X80299Y8351D01*
X80765Y7655D01*
X86768Y1652D01*
X86560Y1152D01*
X59055D01*
Y59055D01*
X14018D01*
Y60340D01*
X15644Y61966D01*
X25197D01*
X25197Y61966D01*
X31496D01*
X32169Y62055D01*
X32437Y62165D01*
X34095D01*
Y64547D01*
X34097Y64567D01*
X34095Y64586D01*
Y66969D01*
X32437D01*
X32169Y67079D01*
X31496Y67168D01*
X28329D01*
X27968Y67504D01*
X27968Y67668D01*
Y69579D01*
X22425D01*
Y67668D01*
X22425Y67504D01*
X22064Y67168D01*
X14567D01*
X14567Y67168D01*
X13894Y67079D01*
X13266Y66819D01*
X12728Y66406D01*
X9578Y63257D01*
X9165Y62718D01*
X8905Y62090D01*
X8816Y61417D01*
Y59055D01*
X1152D01*
Y77588D01*
X194123D01*
Y1152D01*
D02*
G37*
%LPC*%
G36*
X46866Y72654D02*
X44594D01*
Y70579D01*
X46866D01*
Y72654D01*
D02*
G37*
G36*
X43595D02*
X41323D01*
Y70579D01*
X43595D01*
Y72654D01*
D02*
G37*
G36*
X27968D02*
X25697D01*
Y70579D01*
X27968D01*
Y72654D01*
D02*
G37*
G36*
X24697D02*
X22425D01*
Y70579D01*
X24697D01*
Y72654D01*
D02*
G37*
G36*
X187402Y76465D02*
X185952Y76274D01*
X184602Y75715D01*
X183442Y74825D01*
X182553Y73666D01*
X181993Y72315D01*
X181802Y70866D01*
X181993Y69417D01*
X182553Y68067D01*
X183442Y66907D01*
X184602Y66017D01*
X185952Y65458D01*
X187402Y65267D01*
X188851Y65458D01*
X190201Y66017D01*
X191361Y66907D01*
X192251Y68067D01*
X192810Y69417D01*
X193001Y70866D01*
X192810Y72315D01*
X192251Y73666D01*
X191361Y74825D01*
X190201Y75715D01*
X188851Y76274D01*
X187402Y76465D01*
D02*
G37*
G36*
X7874D02*
X6425Y76274D01*
X5074Y75715D01*
X3915Y74825D01*
X3025Y73666D01*
X2466Y72315D01*
X2275Y70866D01*
X2466Y69417D01*
X3025Y68067D01*
X3915Y66907D01*
X5074Y66017D01*
X6425Y65458D01*
X7874Y65267D01*
X9323Y65458D01*
X10674Y66017D01*
X11833Y66907D01*
X12723Y68067D01*
X13282Y69417D01*
X13473Y70866D01*
X13282Y72315D01*
X12723Y73666D01*
X11833Y74825D01*
X10674Y75715D01*
X9323Y76274D01*
X7874Y76465D01*
D02*
G37*
G36*
X46866Y69579D02*
X41323D01*
Y67668D01*
X41323Y67504D01*
X40962Y67168D01*
X37795D01*
X37122Y67079D01*
X36855Y66969D01*
X35197D01*
Y64586D01*
X35194Y64567D01*
X35197Y64547D01*
Y62165D01*
X36855D01*
X37122Y62055D01*
X37795Y61966D01*
X44094D01*
X44095Y61966D01*
X62362D01*
Y61181D01*
X75433D01*
Y67953D01*
X62362D01*
Y67168D01*
X47227D01*
X46866Y67504D01*
X46866Y67668D01*
Y69579D01*
D02*
G37*
G36*
X136433Y64067D02*
X130028D01*
Y60811D01*
X136433D01*
Y64067D01*
D02*
G37*
G36*
X129028D02*
X122622D01*
Y60811D01*
X129028D01*
Y64067D01*
D02*
G37*
G36*
X145669Y64931D02*
X145078Y64814D01*
X144577Y64479D01*
X144241Y63977D01*
X144124Y63386D01*
X144241Y62794D01*
X144577Y62293D01*
X144626Y62260D01*
Y58847D01*
X144126Y58548D01*
X143701Y58632D01*
X143109Y58514D01*
X142608Y58179D01*
X142273Y57678D01*
X142155Y57087D01*
X142179Y56967D01*
X142131Y56886D01*
X141746Y56582D01*
X141338Y56663D01*
X140747Y56546D01*
X140245Y56211D01*
X139910Y55709D01*
X139793Y55118D01*
X139910Y54527D01*
X140050Y54318D01*
X139962Y53801D01*
X139882Y53738D01*
X139458Y53455D01*
X139123Y52954D01*
X139006Y52362D01*
X138911Y52267D01*
X138583Y52333D01*
X137991Y52215D01*
X137490Y51880D01*
X137155Y51379D01*
X137037Y50787D01*
X137155Y50196D01*
X137490Y49695D01*
X137539Y49662D01*
Y27937D01*
X137539Y27937D01*
X137619Y27537D01*
X137845Y27198D01*
X142317Y22727D01*
X142317Y22727D01*
X142655Y22500D01*
X143055Y22421D01*
X143123Y22219D01*
X143109Y21900D01*
X142608Y21565D01*
X142273Y21064D01*
X142209Y20741D01*
X142010Y20444D01*
X141666Y20378D01*
X141339Y20443D01*
X140747Y20325D01*
X140246Y19990D01*
X139911Y19489D01*
X139847Y19166D01*
X139648Y18870D01*
X139303Y18803D01*
X138976Y18868D01*
X138385Y18751D01*
X137884Y18416D01*
X137549Y17914D01*
X137431Y17323D01*
X137549Y16731D01*
X137884Y16230D01*
X137933Y16197D01*
Y15354D01*
X137933Y15354D01*
X138012Y14955D01*
X138238Y14616D01*
X139990Y12864D01*
X140329Y12638D01*
X140728Y12559D01*
X140728Y12559D01*
X159272D01*
X159272Y12559D01*
X159671Y12638D01*
X160010Y12864D01*
X161762Y14616D01*
X161936Y14878D01*
X162319Y14957D01*
X162400Y14957D01*
X162495Y14942D01*
X162687Y14655D01*
X163188Y14320D01*
X163779Y14203D01*
X164371Y14320D01*
X164872Y14655D01*
X164905Y14704D01*
X167171D01*
X167171Y14704D01*
X167570Y14784D01*
X167909Y15010D01*
X168176Y15277D01*
X168696Y15090D01*
X168986Y14655D01*
X169487Y14320D01*
X170079Y14203D01*
X170670Y14320D01*
X171171Y14655D01*
X171507Y15157D01*
X171624Y15748D01*
X171507Y16339D01*
X171503Y16344D01*
X171516Y16408D01*
X171516Y16408D01*
Y17504D01*
X171547D01*
Y17874D01*
X171575D01*
Y19390D01*
Y20906D01*
X171547D01*
Y21276D01*
X171154D01*
X170782Y21776D01*
X170836Y22047D01*
X170719Y22639D01*
X170384Y23140D01*
X169882Y23475D01*
X169384Y23574D01*
X166294Y26664D01*
X166485Y27126D01*
X168593D01*
X168976Y26626D01*
X168927Y26378D01*
X169044Y25787D01*
X169379Y25285D01*
X169881Y24950D01*
X170472Y24833D01*
X171063Y24950D01*
X171565Y25285D01*
X171900Y25787D01*
X171937Y25972D01*
X172504Y26300D01*
X172578Y26273D01*
Y25535D01*
X172529Y25502D01*
X172194Y25001D01*
X172077Y24409D01*
X172194Y23818D01*
X172529Y23317D01*
X173031Y22982D01*
X173622Y22864D01*
X174214Y22982D01*
X174715Y23317D01*
X175050Y23818D01*
X175168Y24409D01*
X175116Y24670D01*
X175576Y24916D01*
X176427Y24065D01*
X176766Y23839D01*
X176775Y23837D01*
X176860Y23710D01*
X177361Y23375D01*
X177953Y23258D01*
X178544Y23375D01*
X179046Y23710D01*
X179381Y24212D01*
X179498Y24803D01*
X179381Y25395D01*
X179046Y25896D01*
X178743Y26098D01*
X178894Y26598D01*
X180134D01*
Y28024D01*
X178150D01*
Y28524D01*
X177650D01*
Y30449D01*
X176165D01*
Y30158D01*
X174666D01*
Y31945D01*
X174715Y31978D01*
X175050Y32480D01*
X175168Y33071D01*
X175156Y33129D01*
X186959Y44931D01*
X187185Y45270D01*
X187264Y45669D01*
X187264Y45669D01*
Y54386D01*
X187313Y54419D01*
X187648Y54920D01*
X187766Y55512D01*
X187648Y56103D01*
X187313Y56605D01*
X186812Y56940D01*
X186221Y57057D01*
X185629Y56940D01*
X185128Y56605D01*
X184793Y56103D01*
X184675Y55512D01*
X184793Y54920D01*
X185128Y54419D01*
X185177Y54386D01*
Y46102D01*
X179120Y40045D01*
X178659Y40291D01*
X178711Y40551D01*
X178593Y41143D01*
X178258Y41644D01*
X177757Y41979D01*
X177165Y42097D01*
X176574Y41979D01*
X176073Y41644D01*
X175738Y41143D01*
X175652Y40710D01*
X174838Y39897D01*
X174377Y40143D01*
X174380Y40157D01*
X174262Y40749D01*
X173927Y41250D01*
X173426Y41585D01*
X172835Y41703D01*
X172243Y41585D01*
X171742Y41250D01*
X171543Y40953D01*
X170976D01*
X170778Y41250D01*
X170276Y41585D01*
X169685Y41703D01*
X169094Y41585D01*
X168592Y41250D01*
X168257Y40749D01*
X168140Y40157D01*
X168151Y40099D01*
X166984Y38932D01*
X166379Y39034D01*
X151437Y53976D01*
Y60292D01*
X151487Y60325D01*
X151821Y60826D01*
X151939Y61417D01*
X151821Y62009D01*
X151487Y62510D01*
X150985Y62845D01*
X150394Y62963D01*
X149802Y62845D01*
X149301Y62510D01*
X148966Y62009D01*
X148848Y61417D01*
X148966Y60826D01*
X149132Y60577D01*
X149096Y60460D01*
X149067Y60435D01*
X148520Y60289D01*
X148229Y60483D01*
X147638Y60601D01*
X147213Y60516D01*
X146713Y60816D01*
Y62260D01*
X146762Y62293D01*
X147097Y62794D01*
X147215Y63386D01*
X147097Y63977D01*
X146762Y64479D01*
X146261Y64814D01*
X145669Y64931D01*
D02*
G37*
G36*
X75803Y60449D02*
X69398D01*
Y57193D01*
X75803D01*
Y60449D01*
D02*
G37*
G36*
X68398D02*
X61992D01*
Y57193D01*
X68398D01*
Y60449D01*
D02*
G37*
G36*
X136063Y60079D02*
X122992D01*
Y53307D01*
X136063D01*
Y60079D01*
D02*
G37*
G36*
X75803Y56193D02*
X69398D01*
Y52937D01*
X75803D01*
Y56193D01*
D02*
G37*
G36*
X68398D02*
X61992D01*
Y52937D01*
X68398D01*
Y56193D01*
D02*
G37*
G36*
X136063Y52205D02*
X122992D01*
Y49971D01*
X111240D01*
X110828Y50247D01*
X110236Y50364D01*
X109645Y50247D01*
X109143Y49912D01*
X108808Y49410D01*
X108691Y48819D01*
X108808Y48228D01*
X109143Y47726D01*
X109645Y47391D01*
X110236Y47273D01*
X110828Y47391D01*
X111240Y47667D01*
X122992D01*
Y45433D01*
X136063D01*
Y52205D01*
D02*
G37*
G36*
X75433D02*
X62362D01*
Y45433D01*
X75433D01*
Y52205D01*
D02*
G37*
G36*
X94095Y59026D02*
X93503Y58908D01*
X93002Y58573D01*
X92667Y58072D01*
X92593Y57703D01*
X90130Y55240D01*
X89881Y54866D01*
X89793Y54426D01*
Y29663D01*
X89458Y29439D01*
X89123Y28938D01*
X89006Y28346D01*
X89123Y27755D01*
X89458Y27254D01*
X89960Y26919D01*
X90551Y26801D01*
X91143Y26919D01*
X91644Y27254D01*
X91979Y27755D01*
X92097Y28346D01*
X92058Y28543D01*
X92097Y28740D01*
Y41913D01*
X92597Y42165D01*
X92657Y42120D01*
Y31496D01*
X92657Y31496D01*
X92737Y31097D01*
X92963Y30758D01*
X103978Y19743D01*
X103966Y19685D01*
X104084Y19094D01*
X104419Y18592D01*
X104920Y18257D01*
X105512Y18140D01*
X106103Y18257D01*
X106605Y18592D01*
X106940Y19094D01*
X106961Y19202D01*
X107504Y19367D01*
X108374Y18497D01*
X108297Y18110D01*
X108415Y17519D01*
X108750Y17017D01*
X109251Y16682D01*
X109843Y16565D01*
X110434Y16682D01*
X110935Y17017D01*
X111270Y17519D01*
X111301Y17673D01*
X111844Y17838D01*
X113097Y16585D01*
X113435Y16359D01*
X113835Y16279D01*
X113835Y16279D01*
X115016D01*
X115049Y16230D01*
X115550Y15895D01*
X116142Y15777D01*
X116733Y15895D01*
X117235Y16230D01*
X117569Y16731D01*
X117687Y17323D01*
X117569Y17914D01*
X117235Y18416D01*
X116733Y18751D01*
X116142Y18868D01*
X115550Y18751D01*
X115049Y18416D01*
X115016Y18367D01*
X114267D01*
X113653Y18981D01*
X113775Y19566D01*
X114085Y19773D01*
X114420Y20275D01*
X114537Y20866D01*
X114420Y21457D01*
X114085Y21959D01*
X113583Y22294D01*
X112992Y22411D01*
X112934Y22400D01*
X101044Y34290D01*
Y36276D01*
X101093Y36309D01*
X101299Y36617D01*
X101884Y36738D01*
X122115Y16508D01*
X122489Y16259D01*
X122929Y16171D01*
X122992D01*
Y13937D01*
X136063D01*
Y20709D01*
X122992D01*
Y19543D01*
X122530Y19351D01*
X95640Y46241D01*
Y47991D01*
X96140Y48258D01*
X96259Y48178D01*
X96746Y48082D01*
X120445Y24382D01*
X120819Y24133D01*
X121260Y24045D01*
X122992D01*
Y21811D01*
X136063D01*
Y28583D01*
X122992D01*
Y26349D01*
X121737D01*
X117455Y30631D01*
X117662Y31131D01*
X122992D01*
Y29685D01*
X136063D01*
Y36457D01*
X122992D01*
Y33435D01*
X117501D01*
X111907Y39029D01*
X112079Y39564D01*
X112421Y39793D01*
X122992D01*
Y37559D01*
X136063D01*
Y44331D01*
X122992D01*
Y42097D01*
X112421D01*
X112009Y42373D01*
X111417Y42490D01*
X110826Y42373D01*
X110325Y42038D01*
X110037Y41607D01*
X109502Y41435D01*
X96185Y54752D01*
X95811Y55001D01*
X95370Y55089D01*
X94375D01*
X94281Y55202D01*
X94191Y55687D01*
X94409Y55998D01*
X94686Y56053D01*
X95187Y56388D01*
X95522Y56889D01*
X95640Y57480D01*
X95522Y58072D01*
X95187Y58573D01*
X94686Y58908D01*
X94095Y59026D01*
D02*
G37*
G36*
X75433Y44331D02*
X62362D01*
Y37559D01*
X75433D01*
Y44331D01*
D02*
G37*
G36*
X180134Y30449D02*
X178650D01*
Y29024D01*
X180134D01*
Y30449D01*
D02*
G37*
G36*
Y21433D02*
X178650D01*
Y20008D01*
X180134D01*
Y21433D01*
D02*
G37*
G36*
Y19008D02*
X178650D01*
Y17583D01*
X180134D01*
Y19008D01*
D02*
G37*
G36*
X177650Y21433D02*
X176165D01*
Y21276D01*
X175697D01*
Y19390D01*
Y17504D01*
X176669D01*
Y17583D01*
X177650D01*
Y19508D01*
Y21433D01*
D02*
G37*
G36*
X75433Y20709D02*
X62362D01*
Y13937D01*
X75433D01*
Y20709D01*
D02*
G37*
G36*
X173520Y21276D02*
Y21276D01*
X172547D01*
Y20906D01*
X172520D01*
Y19390D01*
Y17874D01*
X172547D01*
Y17504D01*
X172578D01*
Y16480D01*
X172529Y16447D01*
X172194Y15946D01*
X172077Y15354D01*
X172194Y14763D01*
X172529Y14262D01*
X173031Y13927D01*
X173622Y13809D01*
X174214Y13927D01*
X174715Y14262D01*
X175050Y14763D01*
X175168Y15354D01*
X175050Y15946D01*
X174715Y16447D01*
X174666Y16480D01*
Y17504D01*
X174697D01*
Y17874D01*
X174725D01*
Y19390D01*
Y20906D01*
X174697D01*
Y21276D01*
X173724D01*
Y21276D01*
X173520D01*
D02*
G37*
G36*
X136433Y13205D02*
X130028D01*
Y9949D01*
X136433D01*
Y13205D01*
D02*
G37*
G36*
X129028D02*
X122622D01*
Y9949D01*
X129028D01*
Y13205D01*
D02*
G37*
G36*
X75433Y12835D02*
X62362D01*
Y6063D01*
X75433D01*
Y12835D01*
D02*
G37*
G36*
X136433Y8949D02*
X130028D01*
Y5693D01*
X136433D01*
Y8949D01*
D02*
G37*
G36*
X129028D02*
X122622D01*
Y5693D01*
X129028D01*
Y8949D01*
D02*
G37*
G36*
X187402Y13473D02*
X185952Y13282D01*
X184602Y12723D01*
X183442Y11833D01*
X182553Y10674D01*
X181993Y9323D01*
X181802Y7874D01*
X181993Y6425D01*
X182553Y5074D01*
X183442Y3915D01*
X184602Y3025D01*
X185952Y2466D01*
X187402Y2275D01*
X188851Y2466D01*
X190201Y3025D01*
X191361Y3915D01*
X192251Y5074D01*
X192810Y6425D01*
X193001Y7874D01*
X192810Y9323D01*
X192251Y10674D01*
X191361Y11833D01*
X190201Y12723D01*
X188851Y13282D01*
X187402Y13473D01*
D02*
G37*
%LPD*%
G36*
X149350Y57989D02*
Y53543D01*
X149350Y53543D01*
X149430Y53144D01*
X149656Y52805D01*
X162913Y39548D01*
X162604Y39153D01*
X162205Y39233D01*
X162205Y39233D01*
X154763D01*
X151140Y42856D01*
X151152Y42913D01*
X151034Y43505D01*
X150699Y44006D01*
X150198Y44341D01*
X149606Y44459D01*
X149015Y44341D01*
X148847Y44229D01*
X148347Y44496D01*
Y57706D01*
X148731Y57962D01*
X148850Y58141D01*
X149350Y57989D01*
D02*
G37*
G36*
X149213Y37825D02*
X149270Y37836D01*
X151073Y36034D01*
X151412Y35807D01*
X151811Y35728D01*
X158465D01*
X161555Y32639D01*
Y30528D01*
X161524D01*
Y30158D01*
X161496D01*
Y28642D01*
X160551D01*
Y30158D01*
X160524D01*
Y30528D01*
X160493D01*
Y30709D01*
X160413Y31108D01*
X160187Y31447D01*
X160187Y31447D01*
X159343Y32291D01*
X159420Y32677D01*
X159302Y33269D01*
X158967Y33770D01*
X158465Y34105D01*
X157874Y34223D01*
X157283Y34105D01*
X156781Y33770D01*
X156574Y33460D01*
X155989Y33338D01*
X155518Y33809D01*
X155179Y34035D01*
X154780Y34115D01*
X154780Y34115D01*
X154275D01*
X154242Y34164D01*
X153741Y34499D01*
X153150Y34616D01*
X152558Y34499D01*
X152057Y34164D01*
X151722Y33662D01*
X151604Y33071D01*
X151722Y32480D01*
X152057Y31978D01*
X152558Y31643D01*
X153150Y31525D01*
X153741Y31643D01*
X154242Y31978D01*
X154665Y31710D01*
X155464Y30911D01*
X155421Y30807D01*
Y28524D01*
X154921D01*
Y28024D01*
X152937D01*
Y27343D01*
X145957D01*
X145712Y27843D01*
X145916Y28149D01*
X146034Y28740D01*
X145969Y29067D01*
X146035Y29411D01*
X146331Y29610D01*
X146654Y29675D01*
X147155Y30009D01*
X147491Y30511D01*
X147532Y30719D01*
X148087Y30949D01*
X148227Y30856D01*
X148819Y30738D01*
X149410Y30856D01*
X149911Y31191D01*
X150246Y31692D01*
X150364Y32283D01*
X150246Y32875D01*
X149911Y33376D01*
X149410Y33711D01*
X148819Y33829D01*
X148761Y33817D01*
X148347Y34231D01*
Y37570D01*
X148847Y37897D01*
X149213Y37825D01*
D02*
G37*
G36*
X152937Y20008D02*
X154921D01*
Y19008D01*
X152937D01*
Y17583D01*
X152438Y17579D01*
X145089D01*
X144794Y18022D01*
X144292Y18357D01*
X143845Y18446D01*
Y18956D01*
X144292Y19045D01*
X144794Y19380D01*
X145129Y19881D01*
X145246Y20472D01*
X145233Y20537D01*
X145628Y21004D01*
X152937D01*
Y20008D01*
D02*
G37*
%LPC*%
G36*
X154421Y30449D02*
X152937D01*
Y29024D01*
X154421D01*
Y30449D01*
D02*
G37*
%LPD*%
D10*
X93701Y31496D02*
Y43701D01*
X145669Y31496D02*
Y63386D01*
X141338Y55118D02*
X142461Y53996D01*
Y28067D02*
Y53996D01*
X140551Y27972D02*
Y52362D01*
Y27972D02*
X143642Y24882D01*
X142461Y28067D02*
X144229Y26299D01*
X143701Y57087D02*
X143878Y56910D01*
Y29350D02*
Y56910D01*
Y29350D02*
X144488Y28740D01*
X138583Y27937D02*
Y50787D01*
Y27937D02*
X143055Y23465D01*
X145669Y31496D02*
X146063Y31102D01*
X170472Y26378D02*
X170472Y26378D01*
Y28642D01*
X170472Y28642D01*
X169291Y22047D02*
Y22191D01*
X173622Y24409D02*
X173622Y24409D01*
X177165Y24803D02*
X177953D01*
X153150Y33071D02*
X154780D01*
X157874Y29977D01*
X158898Y36772D02*
X162598Y33071D01*
X151811Y36772D02*
X158898D01*
X162598Y28642D02*
Y33071D01*
X163779Y34646D02*
Y36614D01*
X162205Y38189D02*
X163779Y36614D01*
X154331Y38189D02*
X162205D01*
X165748Y28642D02*
Y38189D01*
X167323Y28642D02*
Y37795D01*
X168898Y36220D02*
X172835Y40157D01*
X168898Y28642D02*
Y36220D01*
X167323Y37795D02*
X169685Y40157D01*
X150394Y53543D02*
X165748Y38189D01*
X150394Y53543D02*
Y61417D01*
X157874Y28642D02*
Y29977D01*
X157874Y32283D02*
Y32677D01*
Y32283D02*
X159449Y30709D01*
X171260Y30893D02*
X172047Y30106D01*
Y28642D02*
Y30106D01*
X163179Y26299D02*
X167323Y22155D01*
Y19390D02*
Y22155D01*
X162592Y24882D02*
X165748Y21725D01*
Y19390D02*
Y21725D01*
X162004Y23465D02*
X164173Y21296D01*
Y19390D02*
Y21296D01*
X159449Y28642D02*
Y30709D01*
X176969Y40551D02*
X177165D01*
X171457Y35039D02*
X176969Y40551D01*
X171260Y35039D02*
X171457D01*
X173622Y33071D02*
X186221Y45669D01*
Y55512D01*
X173622Y28642D02*
Y33071D01*
X175197Y26772D02*
Y28642D01*
Y26772D02*
X177165Y24803D01*
X173622Y24409D02*
Y28642D01*
X149213Y39370D02*
X151811Y36772D01*
X147303Y33799D02*
Y58454D01*
X147638Y58789D01*
X147303Y33799D02*
X148819Y32283D01*
X149606Y42913D02*
X154331Y38189D01*
X164173Y27309D02*
Y28642D01*
Y27309D02*
X169291Y22191D01*
X170079Y68504D02*
X171260Y67323D01*
Y57874D02*
Y67323D01*
X144229Y26299D02*
X163179D01*
X143642Y24882D02*
X162592D01*
X143055Y23465D02*
X162004D01*
X161417Y22047D02*
X162598Y20866D01*
X144882Y22047D02*
X161417D01*
X143701Y20472D02*
Y20866D01*
X144882Y22047D01*
X173622Y15354D02*
X173622Y15354D01*
X173622Y15354D02*
Y19390D01*
X157087Y16535D02*
X157874Y17323D01*
X144095Y16535D02*
X157087D01*
X143701Y16929D02*
X144095Y16535D01*
X157874Y17323D02*
Y19390D01*
X159449Y16142D02*
Y19390D01*
X158327Y15020D02*
X159449Y16142D01*
X142461Y15020D02*
X158327D01*
X161024Y15354D02*
Y19390D01*
X159272Y13602D02*
X161024Y15354D01*
X140728Y13602D02*
X159272D01*
X141339Y16142D02*
X142461Y15020D01*
X141339Y16142D02*
Y18898D01*
X138976Y15354D02*
X140728Y13602D01*
X138976Y15354D02*
Y17323D01*
X122047Y68504D02*
X170079D01*
X116929Y63386D02*
X122047Y68504D01*
X109843Y18110D02*
Y18504D01*
X97638Y33520D02*
X113835Y17323D01*
X100000Y33858D02*
X112992Y20866D01*
X95669Y32677D02*
X109843Y18504D01*
X97638Y33520D02*
Y39370D01*
X95669Y32677D02*
Y41339D01*
X113835Y17323D02*
X116142D01*
X93701Y31496D02*
X105512Y19685D01*
X100000Y33858D02*
Y37402D01*
X162598Y19390D02*
Y20866D01*
X147638Y58789D02*
Y59055D01*
X168898Y17475D02*
Y19390D01*
X167171Y15748D02*
X168898Y17475D01*
X163779Y15748D02*
X167171D01*
X170079D02*
Y16014D01*
X170472Y16408D01*
Y19390D01*
D14*
X129528Y9449D02*
D03*
Y17323D02*
D03*
Y25197D02*
D03*
Y33071D02*
D03*
Y40945D02*
D03*
Y48819D02*
D03*
Y56693D02*
D03*
Y64567D02*
D03*
X68898D02*
D03*
Y56693D02*
D03*
Y48819D02*
D03*
Y40945D02*
D03*
Y33071D02*
D03*
Y25197D02*
D03*
Y17323D02*
D03*
Y9449D02*
D03*
D15*
X11417Y4331D02*
D03*
Y49331D02*
D03*
D16*
X178150Y28524D02*
D03*
Y19508D02*
D03*
X154921D02*
D03*
Y28524D02*
D03*
D17*
X175197Y28642D02*
D03*
Y19390D02*
D03*
X173622Y28642D02*
D03*
Y19390D02*
D03*
X172047Y28642D02*
D03*
Y19390D02*
D03*
X170472Y28642D02*
D03*
Y19390D02*
D03*
X168898Y28642D02*
D03*
Y19390D02*
D03*
X167323Y28642D02*
D03*
Y19390D02*
D03*
X165748Y28642D02*
D03*
Y19390D02*
D03*
X164173Y28642D02*
D03*
Y19390D02*
D03*
X162598Y28642D02*
D03*
Y19390D02*
D03*
X161024Y28642D02*
D03*
Y19390D02*
D03*
X159449Y28642D02*
D03*
Y19390D02*
D03*
X157874Y28642D02*
D03*
Y19390D02*
D03*
D18*
X44094Y64567D02*
D03*
Y70079D02*
D03*
X25197Y64567D02*
D03*
Y70079D02*
D03*
D19*
X31890Y64567D02*
D03*
X37402D02*
D03*
D30*
X93307Y53937D02*
X95370D01*
X94488Y45764D02*
Y51575D01*
Y45764D02*
X122929Y17323D01*
X95370Y53937D02*
X117024Y32283D01*
X90945Y54426D02*
X94000Y57480D01*
X90945Y28740D02*
Y54426D01*
X96850Y49606D02*
X121260Y25197D01*
X117024Y32283D02*
X128740D01*
X121260Y25197D02*
X129528D01*
X111417Y40945D02*
X129528D01*
X128740Y32283D02*
X129528Y33071D01*
X129527Y48819D02*
X129528Y48819D01*
X68898Y25197D02*
X72047D01*
X72441Y25591D01*
X110236Y48819D02*
X129527D01*
X72441Y25591D02*
X78347D01*
X122929Y17323D02*
X129528D01*
X68898Y33071D02*
X68898Y33071D01*
X171260Y30893D02*
Y31102D01*
X90551Y28346D02*
X90945Y28740D01*
X94000Y57480D02*
X94095D01*
D31*
X163661Y4213D02*
Y7874D01*
X162205Y2756D02*
X163661Y4213D01*
X88976Y2756D02*
X162205D01*
X88701D02*
X88976D01*
X82284Y9173D02*
X88701Y2756D01*
X82284Y9173D02*
Y68110D01*
X86221Y72047D02*
X93307D01*
X82284Y68110D02*
X86221Y72047D01*
X93307D02*
X128740D01*
X153543D01*
D32*
X68898Y33071D02*
X78347D01*
X68504D02*
X68898D01*
D33*
X14567Y64567D02*
X25197D01*
X11417Y61417D02*
X14567Y64567D01*
X11417Y49331D02*
Y61417D01*
X25197Y64567D02*
X31496D01*
X37795D02*
X44094D01*
X44094Y64567D02*
X68898D01*
D34*
X163661Y7874D02*
D03*
X158661D02*
D03*
X153661D02*
D03*
X148661D02*
D03*
D35*
X143661D02*
D03*
D36*
X187402D02*
D03*
Y70866D02*
D03*
X7874D02*
D03*
D37*
X93307Y53937D02*
D03*
X94488Y51575D02*
D03*
X96850Y49606D02*
D03*
X97244Y46063D02*
D03*
X93701Y43701D02*
D03*
X145669Y63386D02*
D03*
X141338Y55118D02*
D03*
X140551Y52362D02*
D03*
X138583Y50787D02*
D03*
X77953Y75984D02*
D03*
Y69291D02*
D03*
X146457Y75984D02*
D03*
X138583Y7087D02*
D03*
X177953Y2756D02*
D03*
X174409D02*
D03*
X88976Y2756D02*
D03*
X179134Y11811D02*
D03*
X180709Y2756D02*
D03*
X169291Y7480D02*
D03*
X180709Y36220D02*
D03*
X160630Y32283D02*
D03*
X170472Y26378D02*
D03*
X179134Y15354D02*
D03*
X169291Y22047D02*
D03*
X173622Y24409D02*
D03*
X177953Y24803D02*
D03*
X149606Y51181D02*
D03*
X159843Y40945D02*
D03*
X91732Y7480D02*
D03*
X98032D02*
D03*
X105118D02*
D03*
X112205D02*
D03*
X118110D02*
D03*
X110236Y48819D02*
D03*
X78347Y25591D02*
D03*
X111417Y40945D02*
D03*
X177559Y59842D02*
D03*
X170472Y54724D02*
D03*
X159055Y75197D02*
D03*
Y71653D02*
D03*
X162598D02*
D03*
Y75197D02*
D03*
X166142D02*
D03*
Y71653D02*
D03*
X191732Y63386D02*
D03*
X187795D02*
D03*
X183858D02*
D03*
X87402Y10630D02*
D03*
X150000Y65354D02*
D03*
X142126Y66142D02*
D03*
X138583D02*
D03*
X7480Y60630D02*
D03*
X68898Y2362D02*
D03*
X60630D02*
D03*
Y5118D02*
D03*
X64567Y2362D02*
D03*
X119291Y37008D02*
D03*
X119685Y56693D02*
D03*
X162992Y45669D02*
D03*
X180315Y69685D02*
D03*
X169685Y71653D02*
D03*
Y75197D02*
D03*
X180315D02*
D03*
X177165Y31890D02*
D03*
X171653Y11024D02*
D03*
X167323D02*
D03*
X137795Y25197D02*
D03*
X146457Y19291D02*
D03*
X151181D02*
D03*
X166142Y43319D02*
D03*
X170472Y51968D02*
D03*
X187795Y35827D02*
D03*
X191732Y55512D02*
D03*
Y59842D02*
D03*
X187795D02*
D03*
X183858D02*
D03*
X161417Y64961D02*
D03*
Y60630D02*
D03*
X128740Y75984D02*
D03*
X103150D02*
D03*
X83858D02*
D03*
X138189D02*
D03*
X102756Y53150D02*
D03*
X109055Y58268D02*
D03*
X102756D02*
D03*
X109055Y63779D02*
D03*
X102756D02*
D03*
X96850D02*
D03*
X74410Y69291D02*
D03*
X70866D02*
D03*
X67323D02*
D03*
X63779D02*
D03*
X77953Y40945D02*
D03*
Y48819D02*
D03*
Y56693D02*
D03*
X105905Y37402D02*
D03*
X103150Y33858D02*
D03*
X92520Y22441D02*
D03*
X87402D02*
D03*
X96457Y16142D02*
D03*
X92520D02*
D03*
X153150Y33071D02*
D03*
X163779Y34646D02*
D03*
X157874Y32677D02*
D03*
X171260Y31102D02*
D03*
X181496Y31890D02*
D03*
X171260Y35039D02*
D03*
X169685Y40157D02*
D03*
X177165Y40551D02*
D03*
X173622Y33071D02*
D03*
X172835Y40157D02*
D03*
X186221Y55512D02*
D03*
X149213Y39370D02*
D03*
X149606Y42913D02*
D03*
X171260Y57874D02*
D03*
X148819Y19291D02*
D03*
X143701Y20472D02*
D03*
X173622Y15354D02*
D03*
X143701Y16929D02*
D03*
X141339Y18898D02*
D03*
X138976Y17323D02*
D03*
X116929Y63386D02*
D03*
X109843Y18110D02*
D03*
X112992Y20866D02*
D03*
X116142Y17323D02*
D03*
X105512Y19685D02*
D03*
X90551Y28346D02*
D03*
X94095Y57480D02*
D03*
X95669Y41339D02*
D03*
X97638Y39370D02*
D03*
X100000Y37402D02*
D03*
X150394Y61417D02*
D03*
X147638Y59055D02*
D03*
X148819Y32283D02*
D03*
X146063Y31102D02*
D03*
X144488Y28740D02*
D03*
X143701Y57087D02*
D03*
X163779Y15748D02*
D03*
X170079D02*
D03*
X60630Y57480D02*
D03*
Y54724D02*
D03*
X27559Y60630D02*
D03*
X22047D02*
D03*
X19291D02*
D03*
X35827Y68504D02*
D03*
X30315D02*
D03*
X26772Y73622D02*
D03*
X24016Y73622D02*
D03*
Y76378D02*
D03*
X45276Y73622D02*
D03*
X42520Y76378D02*
D03*
Y73622D02*
D03*
X45276Y76378D02*
D03*
X26772D02*
D03*
X30315Y60630D02*
D03*
X24803D02*
D03*
X16142Y68504D02*
D03*
X18504D02*
D03*
X20866D02*
D03*
X7874Y62992D02*
D03*
X38583Y68504D02*
D03*
X33071D02*
D03*
X49213D02*
D03*
X51968D02*
D03*
X54724D02*
D03*
X57480D02*
D03*
X60236D02*
D03*
X2756Y60630D02*
D03*
X5118D02*
D03*
X16535D02*
D03*
X33071D02*
D03*
X35827D02*
D03*
X38583D02*
D03*
X41339D02*
D03*
X44094D02*
D03*
X46850D02*
D03*
X49606D02*
D03*
X52362D02*
D03*
X55118D02*
D03*
X57874D02*
D03*
X60630Y60236D02*
D03*
Y51968D02*
D03*
Y49213D02*
D03*
Y46457D02*
D03*
Y43701D02*
D03*
Y40945D02*
D03*
Y38189D02*
D03*
Y35433D02*
D03*
Y32677D02*
D03*
Y29921D02*
D03*
Y27165D02*
D03*
Y24409D02*
D03*
Y21654D02*
D03*
Y18898D02*
D03*
Y16142D02*
D03*
Y13386D02*
D03*
Y10630D02*
D03*
Y7874D02*
D03*
D38*
X78347Y33071D02*
D03*
X153543Y72047D02*
D03*
X93307D02*
D03*
X128740D02*
D03*
M02*
