G04*
G04 #@! TF.GenerationSoftware,Altium Limited,Altium Designer,19.1.5 (86)*
G04*
G04 Layer_Color=255*
%FSLAX25Y25*%
%MOIN*%
G70*
G01*
G75*
%ADD18R,0.03150X0.03543*%
%ADD19R,0.03543X0.03150*%
%ADD34R,0.03937X0.03937*%
%ADD35C,0.03937*%
%ADD36C,0.09843*%
%ADD39R,0.02756X0.03543*%
%ADD40R,0.10236X0.04331*%
%ADD41R,0.04528X0.01575*%
%ADD42R,0.01575X0.04134*%
%ADD43R,0.03543X0.02756*%
%ADD44R,0.02000X0.07000*%
%ADD45R,0.05807X0.01181*%
%ADD46R,0.01181X0.05807*%
%ADD47R,0.04134X0.01575*%
D18*
X176378Y6299D02*
D03*
X170866D02*
D03*
X109055Y5906D02*
D03*
X103543D02*
D03*
X190551Y27559D02*
D03*
X185039D02*
D03*
X138189Y25984D02*
D03*
X132677D02*
D03*
X138189Y72047D02*
D03*
X132677D02*
D03*
X83858Y72047D02*
D03*
X89370D02*
D03*
D19*
X185039Y16389D02*
D03*
Y21901D02*
D03*
X190551Y16389D02*
D03*
Y21901D02*
D03*
X180709Y44095D02*
D03*
Y49606D02*
D03*
X186221Y44094D02*
D03*
Y49606D02*
D03*
X98032Y5512D02*
D03*
Y11024D02*
D03*
X92520Y11024D02*
D03*
Y5512D02*
D03*
X175197Y75197D02*
D03*
Y69685D02*
D03*
X73228Y38583D02*
D03*
Y33071D02*
D03*
X66929Y38583D02*
D03*
Y33071D02*
D03*
X66929Y8661D02*
D03*
Y14173D02*
D03*
D34*
X143661Y7874D02*
D03*
D35*
X148661D02*
D03*
X153661D02*
D03*
X158661D02*
D03*
X163661D02*
D03*
D36*
X187402D02*
D03*
Y70866D02*
D03*
X7874D02*
D03*
D39*
X184843Y33071D02*
D03*
X190748D02*
D03*
X184843Y38583D02*
D03*
X190748D02*
D03*
D40*
X83465Y15945D02*
D03*
Y5315D02*
D03*
D41*
X115551Y3347D02*
D03*
Y5906D02*
D03*
Y8465D02*
D03*
X123031D02*
D03*
Y3347D02*
D03*
D42*
X180118Y56102D02*
D03*
X177559D02*
D03*
X175000D02*
D03*
Y63583D02*
D03*
X177559D02*
D03*
X180118D02*
D03*
D43*
X174803Y43898D02*
D03*
Y49803D02*
D03*
X191732Y43898D02*
D03*
Y49803D02*
D03*
X74410Y8465D02*
D03*
Y14370D02*
D03*
D44*
X153542Y54319D02*
D03*
Y43319D02*
D03*
X156693Y54319D02*
D03*
Y43319D02*
D03*
X159843Y54319D02*
D03*
Y43319D02*
D03*
X162993Y54319D02*
D03*
Y43319D02*
D03*
X166142Y54319D02*
D03*
Y43319D02*
D03*
D45*
X133614Y63189D02*
D03*
Y61221D02*
D03*
Y59252D02*
D03*
Y57284D02*
D03*
Y55315D02*
D03*
Y53347D02*
D03*
Y51378D02*
D03*
Y49409D02*
D03*
Y47441D02*
D03*
Y45472D02*
D03*
Y43504D02*
D03*
Y41535D02*
D03*
Y39567D02*
D03*
Y37598D02*
D03*
Y35630D02*
D03*
Y33661D02*
D03*
X88433D02*
D03*
Y35630D02*
D03*
Y37598D02*
D03*
Y39567D02*
D03*
Y41535D02*
D03*
Y43504D02*
D03*
Y45472D02*
D03*
Y47441D02*
D03*
Y49409D02*
D03*
Y51378D02*
D03*
Y53347D02*
D03*
Y55315D02*
D03*
Y57284D02*
D03*
Y59252D02*
D03*
Y61221D02*
D03*
Y63189D02*
D03*
D46*
X125787Y25835D02*
D03*
X123819D02*
D03*
X121850D02*
D03*
X119882D02*
D03*
X117913D02*
D03*
X115945D02*
D03*
X113976D02*
D03*
X112008D02*
D03*
X110039D02*
D03*
X108071D02*
D03*
X106102D02*
D03*
X104134D02*
D03*
X102165D02*
D03*
X100197D02*
D03*
X98228D02*
D03*
X96260D02*
D03*
Y71016D02*
D03*
X98228D02*
D03*
X100197D02*
D03*
X102165D02*
D03*
X104134D02*
D03*
X106102D02*
D03*
X108071D02*
D03*
X110039D02*
D03*
X112008D02*
D03*
X113976D02*
D03*
X115945D02*
D03*
X117913D02*
D03*
X119882D02*
D03*
X121850D02*
D03*
X123819D02*
D03*
X125787D02*
D03*
D47*
X74606Y25787D02*
D03*
Y23228D02*
D03*
Y20669D02*
D03*
X67126D02*
D03*
Y23228D02*
D03*
Y25787D02*
D03*
M02*
