G04*
G04 #@! TF.GenerationSoftware,Altium Limited,Altium Designer,19.1.5 (86)*
G04*
G04 Layer_Color=8421504*
%FSLAX25Y25*%
%MOIN*%
G70*
G01*
G75*
%ADD14R,0.11811X0.05512*%
%ADD15R,0.16535X0.04724*%
%ADD16R,0.01968X0.01850*%
%ADD17R,0.00945X0.01772*%
%ADD18R,0.03543X0.03150*%
%ADD19R,0.03150X0.03543*%
D14*
X129528Y9449D02*
D03*
Y17323D02*
D03*
Y25197D02*
D03*
Y33071D02*
D03*
Y40945D02*
D03*
Y48819D02*
D03*
Y56693D02*
D03*
Y64567D02*
D03*
X68898D02*
D03*
Y56693D02*
D03*
Y48819D02*
D03*
Y40945D02*
D03*
Y33071D02*
D03*
Y25197D02*
D03*
Y17323D02*
D03*
Y9449D02*
D03*
D15*
X11417Y4331D02*
D03*
Y49331D02*
D03*
D16*
X178150Y28524D02*
D03*
Y19508D02*
D03*
X154921D02*
D03*
Y28524D02*
D03*
D17*
X175197Y28642D02*
D03*
Y19390D02*
D03*
X173622Y28642D02*
D03*
Y19390D02*
D03*
X172047Y28642D02*
D03*
Y19390D02*
D03*
X170472Y28642D02*
D03*
Y19390D02*
D03*
X168898Y28642D02*
D03*
Y19390D02*
D03*
X167323Y28642D02*
D03*
Y19390D02*
D03*
X165748Y28642D02*
D03*
Y19390D02*
D03*
X164173Y28642D02*
D03*
Y19390D02*
D03*
X162598Y28642D02*
D03*
Y19390D02*
D03*
X161024Y28642D02*
D03*
Y19390D02*
D03*
X159449Y28642D02*
D03*
Y19390D02*
D03*
X157874Y28642D02*
D03*
Y19390D02*
D03*
D18*
X44094Y64567D02*
D03*
Y70079D02*
D03*
X25197Y64567D02*
D03*
Y70079D02*
D03*
D19*
X31890Y64567D02*
D03*
X37402D02*
D03*
M02*
