G04*
G04 #@! TF.GenerationSoftware,Altium Limited,Altium Designer,19.1.5 (86)*
G04*
G04 Layer_Physical_Order=2*
G04 Layer_Color=16711680*
%FSLAX25Y25*%
%MOIN*%
G70*
G01*
G75*
%ADD10C,0.00787*%
%ADD18R,0.03543X0.03150*%
%ADD19R,0.03150X0.03543*%
%ADD30C,0.01000*%
%ADD31C,0.02953*%
%ADD32C,0.01968*%
%ADD34C,0.03937*%
%ADD35R,0.03937X0.03937*%
%ADD36C,0.09843*%
%ADD37C,0.01772*%
%ADD38C,0.02756*%
%ADD39R,0.01575X0.04134*%
%ADD40R,0.01181X0.05807*%
%ADD41R,0.05807X0.01181*%
%ADD42R,0.02756X0.03543*%
%ADD43R,0.02000X0.07000*%
%ADD44R,0.10236X0.04331*%
%ADD45R,0.04134X0.01575*%
%ADD46R,0.03543X0.02756*%
%ADD47C,0.01181*%
G36*
X194123Y52181D02*
X192232D01*
Y49803D01*
Y47425D01*
X194123D01*
Y45906D01*
X189331D01*
Y45138D01*
X188622D01*
Y46299D01*
X183819D01*
Y45138D01*
X183111D01*
Y46299D01*
X178308D01*
Y43477D01*
X178075Y43294D01*
X177851Y43398D01*
X174803D01*
Y43898D01*
X174303D01*
Y46276D01*
X172146D01*
Y46311D01*
X172067Y46711D01*
X171840Y47049D01*
X171840Y47049D01*
X168892Y49998D01*
X168553Y50224D01*
X168154Y50304D01*
X167772Y50604D01*
Y58449D01*
X167295D01*
Y60154D01*
X169572Y62431D01*
X173583D01*
Y60886D01*
X175772D01*
Y60516D01*
X177059D01*
Y63583D01*
Y66650D01*
X176152D01*
Y67480D01*
X177598D01*
Y71890D01*
X172795D01*
Y67480D01*
X173848D01*
Y66280D01*
X173583D01*
Y64735D01*
X169095D01*
X168654Y64647D01*
X168280Y64397D01*
X165328Y61445D01*
X165078Y61072D01*
X164990Y60631D01*
Y58449D01*
X157266D01*
Y70472D01*
X157102Y71294D01*
X156637Y71991D01*
X155062Y73566D01*
X154365Y74031D01*
X153543Y74195D01*
X152722Y74031D01*
X152025Y73566D01*
X151559Y72869D01*
X151396Y72047D01*
X151559Y71225D01*
X152025Y70529D01*
X152971Y69583D01*
Y58449D01*
X151913D01*
Y50304D01*
X146318D01*
X145918Y50224D01*
X145580Y49998D01*
X145580Y49998D01*
X144066Y48485D01*
X137148D01*
Y49368D01*
X137162Y49382D01*
X137648Y49589D01*
X137991Y49360D01*
X138583Y49242D01*
X139174Y49360D01*
X139675Y49695D01*
X140010Y50196D01*
X140052Y50406D01*
X140551Y50817D01*
X141143Y50934D01*
X141644Y51269D01*
X141979Y51771D01*
X142097Y52362D01*
X141979Y52954D01*
X141839Y53162D01*
X141928Y53679D01*
X142008Y53742D01*
X142431Y54025D01*
X142766Y54527D01*
X142884Y55118D01*
X142860Y55237D01*
X142908Y55319D01*
X143293Y55622D01*
X143701Y55541D01*
X144292Y55659D01*
X144794Y55994D01*
X145129Y56495D01*
X145246Y57087D01*
X145129Y57678D01*
X145082Y57748D01*
X145349Y58248D01*
X146354D01*
X146545Y57962D01*
X147046Y57627D01*
X147638Y57510D01*
X148229Y57627D01*
X148731Y57962D01*
X149066Y58464D01*
X149183Y59055D01*
X149066Y59646D01*
X149384Y60070D01*
X149611Y60117D01*
X149802Y59990D01*
X150394Y59872D01*
X150985Y59990D01*
X151487Y60325D01*
X151821Y60826D01*
X151939Y61417D01*
X151821Y62009D01*
X151487Y62510D01*
X150985Y62845D01*
X150394Y62963D01*
X149802Y62845D01*
X149301Y62510D01*
X149268Y62461D01*
X147430D01*
X147130Y62961D01*
X147215Y63386D01*
X147097Y63977D01*
X146762Y64479D01*
X146261Y64814D01*
X145669Y64931D01*
X145078Y64814D01*
X144577Y64479D01*
X144412Y64233D01*
X137148D01*
Y64409D01*
X130081D01*
X129984Y64870D01*
Y69617D01*
X130473Y69646D01*
Y69646D01*
X134882D01*
Y74449D01*
X130472D01*
Y73693D01*
X129891D01*
X129524Y73939D01*
X128740Y74094D01*
X127957Y73939D01*
X127589Y73693D01*
X127008D01*
Y74549D01*
X125409D01*
Y74919D01*
X124319D01*
Y71016D01*
Y67112D01*
X125409D01*
Y67482D01*
X127008D01*
Y67482D01*
X127496Y67453D01*
Y34646D01*
X127591Y34170D01*
X127860Y33766D01*
X128844Y32781D01*
X129248Y32512D01*
X129724Y32417D01*
X131433D01*
Y28386D01*
X130472D01*
Y23583D01*
X130037Y23426D01*
X127008D01*
Y29368D01*
X113051D01*
Y30079D01*
X115699Y32726D01*
X115699Y32727D01*
X115925Y33065D01*
X116004Y33465D01*
Y60985D01*
X116871Y61852D01*
X116929Y61840D01*
X117520Y61958D01*
X118022Y62293D01*
X118357Y62794D01*
X118475Y63386D01*
X118357Y63977D01*
X118022Y64479D01*
X117520Y64814D01*
X116929Y64931D01*
X116338Y64814D01*
X115836Y64479D01*
X115501Y63977D01*
X115384Y63386D01*
X115395Y63328D01*
X114223Y62155D01*
X113996Y61817D01*
X113917Y61417D01*
X113917Y61417D01*
Y33897D01*
X111691Y31671D01*
X111191Y31878D01*
Y38881D01*
X111783Y39472D01*
X112009Y39517D01*
X112510Y39852D01*
X112845Y40354D01*
X112963Y40945D01*
X112845Y41536D01*
X112510Y42038D01*
X112009Y42373D01*
X111417Y42490D01*
X110826Y42373D01*
X110325Y42038D01*
X109990Y41536D01*
X109910Y41135D01*
X109723Y41001D01*
X109231Y41253D01*
X109223Y41266D01*
Y46176D01*
X110341Y47294D01*
X110828Y47391D01*
X111329Y47726D01*
X111664Y48228D01*
X111782Y48819D01*
X111664Y49410D01*
X111329Y49912D01*
X110828Y50247D01*
X110236Y50364D01*
X109645Y50247D01*
X109143Y49912D01*
X108808Y49410D01*
X108712Y48924D01*
X107256Y47468D01*
X107007Y47094D01*
X106919Y46654D01*
Y31244D01*
X106419Y31037D01*
X105933Y31523D01*
X105559Y31773D01*
X105118Y31861D01*
X83465D01*
X83024Y31773D01*
X82650Y31523D01*
X78242Y27115D01*
X77803Y27028D01*
X77743Y27038D01*
X77303Y27205D01*
X77303Y27205D01*
X77303Y27205D01*
X75661D01*
Y31425D01*
X77196D01*
X77563Y31179D01*
X78347Y31024D01*
X79130Y31179D01*
X79794Y31623D01*
X80238Y32287D01*
X80394Y33071D01*
X80238Y33854D01*
X79794Y34519D01*
X79130Y34962D01*
X78347Y35118D01*
X77563Y34962D01*
X77196Y34717D01*
X75630D01*
Y35276D01*
X73978D01*
X73819Y35307D01*
X73660Y35276D01*
X70827D01*
Y35218D01*
X69331D01*
Y35276D01*
X64527D01*
Y30866D01*
X69331D01*
Y30923D01*
X70827D01*
Y30866D01*
X72370D01*
Y27205D01*
X71909D01*
Y25016D01*
X71539D01*
Y23728D01*
X74606D01*
Y22728D01*
X71539D01*
Y21441D01*
X71909D01*
Y19252D01*
X73454D01*
Y16378D01*
X72008D01*
Y14437D01*
X71546Y14246D01*
X70455Y15337D01*
X69921Y15694D01*
X69331Y15811D01*
Y16378D01*
X68772D01*
Y19252D01*
X69823D01*
Y21441D01*
X70193D01*
Y22728D01*
X67126D01*
X64059D01*
Y21441D01*
X64429D01*
Y19252D01*
X65480D01*
Y16378D01*
X64528D01*
Y11969D01*
X69169D01*
X69220Y11917D01*
Y11236D01*
X67429D01*
Y8661D01*
Y6087D01*
X69318D01*
X69346Y5946D01*
X69702Y5412D01*
X73462Y1652D01*
X73421Y1407D01*
X73281Y1152D01*
X59055D01*
Y59055D01*
X1152D01*
Y77588D01*
X172425D01*
Y75697D01*
X175197D01*
X177969D01*
Y77588D01*
X194123D01*
Y52181D01*
D02*
G37*
G36*
X189331Y41890D02*
X194123D01*
Y34380D01*
X193640Y34103D01*
X193623Y34106D01*
X193239Y34182D01*
X193239Y34182D01*
X192756D01*
Y35472D01*
X191792D01*
Y36181D01*
X192756D01*
Y40984D01*
X188740D01*
Y36181D01*
X189704D01*
Y35472D01*
X188740D01*
Y30669D01*
X188380Y30331D01*
X187976D01*
Y28059D01*
X190551D01*
Y27559D01*
X191051D01*
Y24787D01*
X192657D01*
Y24105D01*
X188150D01*
Y23091D01*
X187441D01*
Y24105D01*
X182637D01*
Y23091D01*
X179418D01*
X179185Y23591D01*
X179326Y23760D01*
X179921D01*
X179921Y23760D01*
X180321Y23839D01*
X180659Y24065D01*
X182373Y25779D01*
X182835Y25587D01*
Y25157D01*
X187244D01*
Y29961D01*
X182835D01*
Y28406D01*
X182480D01*
X182081Y28326D01*
X181742Y28100D01*
X179539Y25897D01*
X179045Y25896D01*
X178544Y26231D01*
X177953Y26349D01*
X177361Y26231D01*
X176860Y25896D01*
X176525Y25395D01*
X176407Y24803D01*
X176525Y24212D01*
X176860Y23710D01*
X177039Y23591D01*
X176887Y23091D01*
X176417D01*
X175156Y24351D01*
X175168Y24409D01*
X175050Y25001D01*
X174715Y25502D01*
X174214Y25837D01*
X173622Y25955D01*
X173031Y25837D01*
X172529Y25502D01*
X172194Y25001D01*
X172083Y24442D01*
X171953Y24358D01*
X171660Y24235D01*
X171297Y24557D01*
X171370Y25155D01*
X171565Y25285D01*
X171900Y25787D01*
X172018Y26378D01*
X171900Y26969D01*
X171565Y27471D01*
X171063Y27806D01*
X170472Y27923D01*
X170414Y27912D01*
X165012Y33314D01*
Y33761D01*
X165079Y33863D01*
X165665Y33985D01*
X167317Y32333D01*
X167317Y32333D01*
X167655Y32107D01*
X168055Y32027D01*
X172496D01*
X172529Y31978D01*
X173031Y31643D01*
X173622Y31525D01*
X174214Y31643D01*
X174715Y31978D01*
X175050Y32480D01*
X175168Y33071D01*
X175650Y33208D01*
X182835D01*
Y30669D01*
X186850D01*
Y35472D01*
X182835D01*
Y35296D01*
X176023D01*
X174200Y37118D01*
X174293Y37414D01*
X174427Y37598D01*
X182835D01*
Y36181D01*
X186850D01*
Y40984D01*
X182835D01*
Y39685D01*
X178965D01*
X178638Y40185D01*
X178711Y40551D01*
X178667Y40773D01*
X179784Y41890D01*
X183111D01*
Y43051D01*
X183819D01*
Y41890D01*
X188622D01*
Y43051D01*
X189331D01*
Y41890D01*
D02*
G37*
G36*
X151913Y39369D02*
X151147Y38603D01*
X150668Y38779D01*
X150647Y38810D01*
X150758Y39370D01*
X150640Y39961D01*
X150305Y40463D01*
X149804Y40798D01*
X149919Y41277D01*
X150026Y41451D01*
X150198Y41486D01*
X150699Y41821D01*
X151034Y42322D01*
X151152Y42913D01*
X151034Y43505D01*
X150699Y44006D01*
X150198Y44341D01*
X149606Y44459D01*
X149015Y44341D01*
X148513Y44006D01*
X148179Y43505D01*
X148061Y42913D01*
X147702Y42579D01*
X137148D01*
Y44429D01*
X144534D01*
X144534Y44429D01*
X144934Y44508D01*
X145272Y44734D01*
X147337Y46799D01*
X151913D01*
Y39369D01*
D02*
G37*
G36*
X144461Y36193D02*
X144835Y35943D01*
X145276Y35856D01*
X150748D01*
X150955Y35356D01*
X150319Y34720D01*
X150069Y34347D01*
X149982Y33906D01*
X149482Y33663D01*
X149410Y33711D01*
X148819Y33829D01*
X148227Y33711D01*
X147726Y33376D01*
X147391Y32875D01*
X147349Y32667D01*
X146794Y32437D01*
X146654Y32530D01*
X146063Y32648D01*
X145471Y32530D01*
X144970Y32195D01*
X144635Y31694D01*
X144517Y31102D01*
X144582Y30775D01*
X144516Y30431D01*
X144220Y30232D01*
X143897Y30168D01*
X143395Y29833D01*
X143060Y29332D01*
X142943Y28740D01*
X143060Y28149D01*
X143395Y27647D01*
X143897Y27312D01*
X144488Y27195D01*
X144546Y27206D01*
X147865Y23888D01*
X147673Y23426D01*
X140764D01*
Y25484D01*
X138189D01*
X135614D01*
Y23780D01*
X135382Y23649D01*
X134882Y23942D01*
Y28386D01*
X133922D01*
Y32441D01*
X137148D01*
Y34039D01*
X137518D01*
Y35130D01*
X133614D01*
Y36130D01*
X137518D01*
Y36446D01*
X144208D01*
X144461Y36193D01*
D02*
G37*
G36*
X160188Y36467D02*
X157932Y34211D01*
X157874Y34223D01*
X157283Y34105D01*
X156781Y33770D01*
X156446Y33269D01*
X156329Y32677D01*
X156446Y32086D01*
X156781Y31584D01*
X157283Y31249D01*
X157874Y31132D01*
X158465Y31249D01*
X158967Y31584D01*
X159302Y32086D01*
X159420Y32677D01*
X159408Y32735D01*
X161825Y35152D01*
X162286Y34906D01*
X162234Y34646D01*
X162352Y34054D01*
X162687Y33553D01*
X162924Y33394D01*
Y32882D01*
X162924Y32882D01*
X163004Y32483D01*
X163230Y32144D01*
X168938Y26436D01*
X168927Y26378D01*
X168997Y26026D01*
X168706Y25622D01*
X168214Y25588D01*
X166216Y27586D01*
X165842Y27836D01*
X165401Y27924D01*
X156776D01*
X154752Y29948D01*
X154378Y30198D01*
X153937Y30286D01*
X153627D01*
X152834Y31078D01*
X153081Y31539D01*
X153150Y31525D01*
X153741Y31643D01*
X154242Y31978D01*
X154577Y32480D01*
X154695Y33071D01*
X154683Y33129D01*
X158484Y36929D01*
X159996D01*
X160188Y36467D01*
D02*
G37*
G36*
X95039Y29368D02*
Y22301D01*
X95108D01*
Y21177D01*
X95196Y20736D01*
X95445Y20363D01*
X105993Y9815D01*
X106366Y9566D01*
X106807Y9478D01*
X140428D01*
X141063Y8843D01*
Y5276D01*
X146260D01*
Y5914D01*
X146760Y6084D01*
X146808Y6021D01*
X147351Y5604D01*
X147509Y5539D01*
Y4933D01*
X147597Y4492D01*
X147847Y4118D01*
X150024Y1941D01*
X150398Y1692D01*
X150596Y1652D01*
X150547Y1152D01*
X90381D01*
X90249Y1394D01*
X90180Y1652D01*
X90497Y2126D01*
X90622Y2756D01*
X90497Y3386D01*
X90140Y3920D01*
X89606Y4276D01*
X88976Y4402D01*
X75367D01*
X74144Y5625D01*
X74336Y6087D01*
X77181D01*
Y7965D01*
X74410D01*
Y8465D01*
X73909D01*
Y10842D01*
X72512D01*
Y12362D01*
X76811D01*
Y16378D01*
X75758D01*
Y19252D01*
X77303D01*
Y19517D01*
X77756D01*
X78197Y19605D01*
X78570Y19855D01*
X85910Y27194D01*
X89547D01*
X89960Y26919D01*
X90551Y26801D01*
X91143Y26919D01*
X91644Y27254D01*
X91979Y27755D01*
X92097Y28346D01*
X91979Y28938D01*
X91900Y29057D01*
X92167Y29557D01*
X94617D01*
X95039Y29368D01*
D02*
G37*
G36*
X175620Y16940D02*
Y15644D01*
X175120Y15595D01*
X175050Y15946D01*
X174715Y16447D01*
X174214Y16782D01*
X173622Y16900D01*
X173031Y16782D01*
X172529Y16447D01*
X172194Y15946D01*
X172154Y15744D01*
X172101Y15719D01*
X172075Y15720D01*
X171570Y16021D01*
X171507Y16339D01*
X171171Y16841D01*
X170670Y17176D01*
X170079Y17293D01*
X170021Y17282D01*
X168907Y18395D01*
X168569Y18622D01*
X168169Y18701D01*
X168169Y18701D01*
X160764D01*
X158923Y20542D01*
X159114Y21003D01*
X168165D01*
X168198Y20954D01*
X168700Y20619D01*
X169291Y20502D01*
X169882Y20619D01*
X170384Y20954D01*
X170590Y21263D01*
X171176Y21384D01*
X175620Y16940D01*
D02*
G37*
G36*
X159403Y13101D02*
X159403Y13101D01*
X159742Y12874D01*
X160141Y12795D01*
X172106D01*
X172106Y12795D01*
X172506Y12874D01*
X172844Y13101D01*
X173564Y13820D01*
X173622Y13809D01*
X174214Y13927D01*
X174715Y14262D01*
X175050Y14763D01*
X175120Y15113D01*
X175620Y15064D01*
Y10713D01*
X168814Y3908D01*
X151316D01*
X150105Y5118D01*
X150081Y5209D01*
X150173Y5758D01*
X150515Y6021D01*
X150879Y6495D01*
X151161Y6533D01*
X151444Y6495D01*
X151808Y6021D01*
X152351Y5604D01*
X152983Y5342D01*
X153661Y5253D01*
X154340Y5342D01*
X154972Y5604D01*
X155515Y6021D01*
X155626Y6166D01*
X155665Y6185D01*
X156243Y6149D01*
X156544Y5757D01*
X157164Y5281D01*
X157887Y4982D01*
X158161Y4946D01*
Y7874D01*
Y10802D01*
X157887Y10766D01*
X157164Y10467D01*
X156544Y9991D01*
X156243Y9599D01*
X155665Y9563D01*
X155626Y9582D01*
X155515Y9727D01*
X155089Y10054D01*
Y11417D01*
X155001Y11858D01*
X154752Y12232D01*
X152279Y14704D01*
X151905Y14954D01*
X151465Y15042D01*
X144739D01*
X144655Y15143D01*
X144752Y15809D01*
X144794Y15836D01*
X145129Y16338D01*
X145246Y16929D01*
X145129Y17521D01*
X144794Y18022D01*
X144292Y18357D01*
X143845Y18446D01*
Y18956D01*
X144292Y19045D01*
X144794Y19380D01*
X145129Y19881D01*
X145246Y20472D01*
X145174Y20838D01*
X145501Y21338D01*
X151166D01*
X159403Y13101D01*
D02*
G37*
G36*
X174028Y22527D02*
X175246Y21309D01*
X175585Y21083D01*
X175984Y21004D01*
X175984Y21004D01*
X182637D01*
Y19696D01*
X187441D01*
Y21004D01*
X188150D01*
Y19696D01*
X192953D01*
Y20493D01*
X193240Y20857D01*
X193623Y20933D01*
X193640Y20936D01*
X194123Y20659D01*
Y1152D01*
X169583D01*
X169534Y1652D01*
X169732Y1692D01*
X170106Y1941D01*
X177586Y9422D01*
X177836Y9795D01*
X177924Y10236D01*
Y17417D01*
X177836Y17858D01*
X177586Y18232D01*
X173834Y21984D01*
X173999Y22526D01*
X174022Y22530D01*
X174028Y22527D01*
D02*
G37*
%LPC*%
G36*
X123319Y74919D02*
X122228D01*
Y74549D01*
X119504D01*
Y74919D01*
X118413D01*
Y71016D01*
Y67112D01*
X119504D01*
Y67482D01*
X122228D01*
Y67112D01*
X123319D01*
Y71016D01*
Y74919D01*
D02*
G37*
G36*
X117413D02*
X116323D01*
Y74549D01*
X113598D01*
Y74919D01*
X112508D01*
Y71016D01*
Y67112D01*
X113598D01*
Y67482D01*
X116323D01*
Y67112D01*
X117413D01*
Y71016D01*
Y74919D01*
D02*
G37*
G36*
X76197Y76591D02*
X70579D01*
Y73925D01*
X76197D01*
Y76591D01*
D02*
G37*
G36*
X69579D02*
X63961D01*
Y73925D01*
X69579D01*
Y76591D01*
D02*
G37*
G36*
X111508Y74919D02*
X110417D01*
Y74549D01*
X95039D01*
Y73693D01*
X94458D01*
X94090Y73939D01*
X93307Y74094D01*
X92524Y73939D01*
X92156Y73693D01*
X91575D01*
Y74449D01*
X87165D01*
Y69646D01*
X87628D01*
X87684Y69146D01*
X87114Y68575D01*
X81890D01*
X81260Y68450D01*
X80726Y68093D01*
X77271Y64638D01*
X75827D01*
Y65591D01*
X64331D01*
Y60000D01*
X75827D01*
Y61346D01*
X77953D01*
X78583Y61472D01*
X79116Y61828D01*
X82572Y65283D01*
X87795D01*
X88425Y65409D01*
X88959Y65765D01*
X90534Y67340D01*
X90891Y67874D01*
X91016Y68504D01*
Y69646D01*
X91575D01*
Y70401D01*
X92156D01*
X92524Y70156D01*
X93307Y70000D01*
X94090Y70156D01*
X94458Y70401D01*
X95039D01*
Y67482D01*
X110417D01*
Y67112D01*
X111508D01*
Y71016D01*
Y74919D01*
D02*
G37*
G36*
X177969Y74697D02*
X175697D01*
Y72622D01*
X177969D01*
Y74697D01*
D02*
G37*
G36*
X174697D02*
X172425D01*
Y72622D01*
X174697D01*
Y74697D01*
D02*
G37*
G36*
X140764Y74819D02*
X138689D01*
Y72547D01*
X140764D01*
Y74819D01*
D02*
G37*
G36*
X137689D02*
X135614D01*
Y72547D01*
X137689D01*
Y74819D01*
D02*
G37*
G36*
X86433Y74819D02*
X84358D01*
Y72547D01*
X86433D01*
Y74819D01*
D02*
G37*
G36*
X83358D02*
X81283D01*
Y72547D01*
X83358D01*
Y74819D01*
D02*
G37*
G36*
X76197Y72925D02*
X70579D01*
Y70260D01*
X76197D01*
Y72925D01*
D02*
G37*
G36*
X69579D02*
X63961D01*
Y70260D01*
X69579D01*
Y72925D01*
D02*
G37*
G36*
X140764Y71547D02*
X138689D01*
Y69276D01*
X140764D01*
Y71547D01*
D02*
G37*
G36*
X137689D02*
X135614D01*
Y69276D01*
X137689D01*
Y71547D01*
D02*
G37*
G36*
X86433Y71547D02*
X84358D01*
Y69276D01*
X86433D01*
Y71547D01*
D02*
G37*
G36*
X83358D02*
X81283D01*
Y69276D01*
X83358D01*
Y71547D01*
D02*
G37*
G36*
X187402Y76465D02*
X185952Y76274D01*
X184602Y75715D01*
X183442Y74825D01*
X182553Y73666D01*
X181993Y72315D01*
X181802Y70866D01*
X181993Y69417D01*
X182553Y68067D01*
X183442Y66907D01*
X184602Y66017D01*
X185952Y65458D01*
X187402Y65267D01*
X188851Y65458D01*
X190201Y66017D01*
X191361Y66907D01*
X192251Y68067D01*
X192810Y69417D01*
X193001Y70866D01*
X192810Y72315D01*
X192251Y73666D01*
X191361Y74825D01*
X190201Y75715D01*
X188851Y76274D01*
X187402Y76465D01*
D02*
G37*
G36*
X7874D02*
X6425Y76274D01*
X5074Y75715D01*
X3915Y74825D01*
X3025Y73666D01*
X2466Y72315D01*
X2275Y70866D01*
X2466Y69417D01*
X3025Y68067D01*
X3915Y66907D01*
X5074Y66017D01*
X6425Y65458D01*
X7874Y65267D01*
X9323Y65458D01*
X10674Y66017D01*
X11833Y66907D01*
X12723Y68067D01*
X13282Y69417D01*
X13473Y70866D01*
X13282Y72315D01*
X12723Y73666D01*
X11833Y74825D01*
X10674Y75715D01*
X9323Y76274D01*
X7874Y76465D01*
D02*
G37*
G36*
X92337Y64780D02*
X88933D01*
Y63689D01*
X92337D01*
Y64780D01*
D02*
G37*
G36*
X87933D02*
X84530D01*
Y63689D01*
X87933D01*
Y64780D01*
D02*
G37*
G36*
X179347Y66650D02*
X178059D01*
Y63583D01*
Y60516D01*
X179347D01*
Y60886D01*
X181535D01*
Y66280D01*
X179347D01*
Y66650D01*
D02*
G37*
G36*
X92337Y62689D02*
X88433D01*
X84530D01*
Y61598D01*
X84900D01*
Y60000D01*
Y56063D01*
Y52126D01*
Y48189D01*
Y44252D01*
Y40315D01*
Y36378D01*
Y32441D01*
X91966D01*
Y36417D01*
X98835D01*
X98907Y36309D01*
X99409Y35974D01*
X100000Y35856D01*
X100591Y35974D01*
X101093Y36309D01*
X101428Y36810D01*
X101545Y37402D01*
X101428Y37993D01*
X101093Y38494D01*
X100591Y38829D01*
X100000Y38947D01*
X99593Y38866D01*
X99207Y39170D01*
X99159Y39251D01*
X99183Y39370D01*
X99065Y39961D01*
X98730Y40463D01*
X98229Y40798D01*
X97640Y40915D01*
X97506Y40944D01*
X97243Y41207D01*
X97214Y41341D01*
X97097Y41930D01*
X96762Y42431D01*
X96261Y42766D01*
X95669Y42884D01*
X95550Y42860D01*
X95469Y42908D01*
X95165Y43294D01*
X95246Y43701D01*
X95129Y44292D01*
X94794Y44794D01*
X94292Y45129D01*
X93701Y45246D01*
X93109Y45129D01*
X92608Y44794D01*
X92444Y44548D01*
X91966D01*
Y48257D01*
X96141D01*
X96259Y48178D01*
X96850Y48061D01*
X97442Y48178D01*
X97943Y48513D01*
X98278Y49015D01*
X98396Y49606D01*
X98278Y50198D01*
X97943Y50699D01*
X97442Y51034D01*
X96850Y51152D01*
X96443Y51071D01*
X96058Y51375D01*
X96010Y51456D01*
X96034Y51575D01*
X95916Y52166D01*
X95581Y52668D01*
X95099Y52990D01*
X94767Y53269D01*
X94735Y53346D01*
X94853Y53937D01*
X94735Y54528D01*
X94400Y55030D01*
X93898Y55365D01*
X93307Y55482D01*
X92716Y55365D01*
X92466Y55198D01*
X91966Y55466D01*
Y56131D01*
X93385D01*
X93503Y56053D01*
X94095Y55935D01*
X94686Y56053D01*
X95187Y56388D01*
X95522Y56889D01*
X95640Y57480D01*
X95522Y58072D01*
X95187Y58573D01*
X94686Y58908D01*
X94095Y59026D01*
X93503Y58908D01*
X93002Y58573D01*
X92910Y58435D01*
X91966D01*
Y61598D01*
X92337D01*
Y62689D01*
D02*
G37*
G36*
X171260Y59420D02*
X170668Y59302D01*
X170167Y58967D01*
X169832Y58465D01*
X169714Y57874D01*
X169832Y57283D01*
X170167Y56781D01*
X170668Y56446D01*
X171260Y56329D01*
X171318Y56340D01*
X172293Y55364D01*
X172293Y55364D01*
X172632Y55138D01*
X173031Y55059D01*
X173031Y55059D01*
X173583D01*
Y53405D01*
X173956D01*
Y51811D01*
X172402D01*
Y47795D01*
X177205D01*
Y51811D01*
X176044D01*
Y53035D01*
X177059D01*
Y56102D01*
Y59169D01*
X175772D01*
Y58799D01*
X173583D01*
Y57804D01*
X173134Y57610D01*
X173036Y57688D01*
X172801Y57898D01*
X172688Y58465D01*
X172353Y58967D01*
X171851Y59302D01*
X171260Y59420D01*
D02*
G37*
G36*
X179347Y59169D02*
X178059D01*
Y56102D01*
Y53035D01*
X179075D01*
Y51811D01*
X178308D01*
Y47402D01*
X183111D01*
Y48563D01*
X183819D01*
Y47402D01*
X188470D01*
X188622Y47402D01*
X189112Y47425D01*
X191232D01*
Y49803D01*
Y52181D01*
X188961D01*
Y52171D01*
X188622Y51811D01*
X188461Y51811D01*
X187264D01*
Y54386D01*
X187313Y54419D01*
X187648Y54920D01*
X187766Y55512D01*
X187648Y56103D01*
X187313Y56605D01*
X186812Y56940D01*
X186221Y57057D01*
X185629Y56940D01*
X185128Y56605D01*
X184793Y56103D01*
X184675Y55512D01*
X184793Y54920D01*
X185128Y54419D01*
X185177Y54386D01*
Y51811D01*
X183819D01*
Y50650D01*
X183111D01*
Y51811D01*
X181162D01*
Y53405D01*
X181535D01*
Y58799D01*
X179347D01*
Y59169D01*
D02*
G37*
G36*
X177575Y46276D02*
X175303D01*
Y44398D01*
X177575D01*
Y46276D01*
D02*
G37*
G36*
X76000Y41157D02*
X73728D01*
Y39083D01*
X76000D01*
Y41157D01*
D02*
G37*
G36*
X69701D02*
X67429D01*
Y39083D01*
X69701D01*
Y41157D01*
D02*
G37*
G36*
X72728D02*
X70457D01*
Y39083D01*
X72728D01*
Y41157D01*
D02*
G37*
G36*
X66429D02*
X64157D01*
Y39083D01*
X66429D01*
Y41157D01*
D02*
G37*
G36*
X76000Y38083D02*
X73728D01*
Y36008D01*
X76000D01*
Y38083D01*
D02*
G37*
G36*
X72728D02*
X70457D01*
Y36008D01*
X72728D01*
Y38083D01*
D02*
G37*
G36*
X69701D02*
X67429D01*
Y36008D01*
X69701D01*
Y38083D01*
D02*
G37*
G36*
X66429D02*
X64157D01*
Y36008D01*
X66429D01*
Y38083D01*
D02*
G37*
G36*
X69823Y27205D02*
X64429D01*
Y25016D01*
X64059D01*
Y23728D01*
X67126D01*
X70193D01*
Y25016D01*
X69823D01*
Y27205D01*
D02*
G37*
G36*
X66429Y11236D02*
X64157D01*
Y9161D01*
X66429D01*
Y11236D01*
D02*
G37*
G36*
Y8161D02*
X64157D01*
Y6087D01*
X66429D01*
Y8161D01*
D02*
G37*
G36*
X190051Y27059D02*
X187976D01*
Y24787D01*
X190051D01*
Y27059D01*
D02*
G37*
G36*
X140764Y28756D02*
X138689D01*
Y26484D01*
X140764D01*
Y28756D01*
D02*
G37*
G36*
X137689D02*
X135614D01*
Y26484D01*
X137689D01*
Y28756D01*
D02*
G37*
G36*
X77181Y10842D02*
X74910D01*
Y8965D01*
X77181D01*
Y10842D01*
D02*
G37*
G36*
X159161Y10802D02*
Y7874D01*
Y4946D01*
X159436Y4982D01*
X160159Y5281D01*
X160779Y5757D01*
X161080Y6149D01*
X161658Y6185D01*
X161697Y6166D01*
X161808Y6021D01*
X162351Y5604D01*
X162983Y5342D01*
X163661Y5253D01*
X164340Y5342D01*
X164972Y5604D01*
X165515Y6021D01*
X165931Y6564D01*
X166193Y7196D01*
X166282Y7874D01*
X166193Y8552D01*
X165931Y9184D01*
X165515Y9727D01*
X164972Y10144D01*
X164340Y10406D01*
X163661Y10495D01*
X162983Y10406D01*
X162351Y10144D01*
X161808Y9727D01*
X161697Y9582D01*
X161658Y9563D01*
X161080Y9599D01*
X160779Y9991D01*
X160159Y10467D01*
X159436Y10766D01*
X159161Y10802D01*
D02*
G37*
G36*
X193323Y18964D02*
X191051D01*
Y16889D01*
X193323D01*
Y18964D01*
D02*
G37*
G36*
X184539Y18963D02*
X182267D01*
Y16889D01*
X184539D01*
Y18963D01*
D02*
G37*
G36*
X193323Y15889D02*
X191051D01*
Y13814D01*
X193323D01*
Y15889D01*
D02*
G37*
G36*
X184539Y15889D02*
X182267D01*
Y13814D01*
X184539D01*
Y15889D01*
D02*
G37*
G36*
X190051Y18964D02*
X187779D01*
Y18963D01*
X185539D01*
Y16389D01*
Y13814D01*
X186160D01*
X186192Y13314D01*
X185952Y13282D01*
X184602Y12723D01*
X183442Y11833D01*
X182553Y10674D01*
X181993Y9323D01*
X181802Y7874D01*
X181993Y6425D01*
X182553Y5074D01*
X183442Y3915D01*
X184602Y3025D01*
X185952Y2466D01*
X187402Y2275D01*
X188851Y2466D01*
X190201Y3025D01*
X191361Y3915D01*
X192251Y5074D01*
X192810Y6425D01*
X193001Y7874D01*
X192810Y9323D01*
X192251Y10674D01*
X191361Y11833D01*
X190201Y12723D01*
X188851Y13282D01*
X188610Y13314D01*
X188643Y13814D01*
X190051D01*
Y16389D01*
Y18964D01*
D02*
G37*
%LPD*%
D10*
X93504Y43504D02*
X93701Y43701D01*
X88433Y43504D02*
X93504D01*
X88433Y41535D02*
X95472D01*
X95669Y41339D01*
X133614Y63189D02*
X145472D01*
X145669Y63386D01*
X133811Y61417D02*
X150394D01*
X143504Y57284D02*
X143701Y57087D01*
X133614Y57284D02*
X143504D01*
X141141Y55315D02*
X141338Y55118D01*
X133614Y55315D02*
X141141D01*
X139567Y53347D02*
X140551Y52362D01*
X133614Y53347D02*
X139567D01*
X137992Y51378D02*
X138583Y50787D01*
X133614Y51378D02*
X137992D01*
X147402Y59291D02*
X147638Y59055D01*
X135039Y59291D02*
X147402D01*
X163779Y34646D02*
X163968Y34457D01*
Y32882D02*
Y34457D01*
Y32882D02*
X170472Y26378D01*
X158268Y22047D02*
X169291D01*
X175984Y22047D02*
X190798D01*
X173622Y24409D02*
X175984Y22047D01*
X177953Y24803D02*
X179921D01*
X190551Y21901D02*
X190945D01*
X190798Y22047D02*
X190945Y21901D01*
X158051Y37972D02*
X165157D01*
X153150Y33071D02*
X158051Y37972D01*
X161752Y36555D02*
X164570D01*
X157874Y32677D02*
X161752Y36555D01*
X164570D02*
X168055Y33071D01*
X173622D01*
X165157Y37972D02*
X168091Y35039D01*
X171260D01*
X180709Y44095D02*
X191535D01*
X190748Y33465D02*
X191074Y33138D01*
X190748Y33465D02*
Y38583D01*
X190945Y21901D02*
X193239D01*
Y33138D02*
X193701Y32677D01*
X191074Y33138D02*
X193239D01*
X193701Y22362D02*
Y32677D01*
X193239Y21901D02*
X193701Y22362D01*
X174350Y38642D02*
X185295D01*
X185630Y38976D01*
X171102Y41890D02*
X174350Y38642D01*
X169685Y40157D02*
Y45724D01*
Y40157D02*
X175591Y34252D01*
X171102Y41890D02*
Y46311D01*
X168154Y49260D02*
X171102Y46311D01*
X167567Y47842D02*
X169685Y45724D01*
X175591Y34252D02*
X185236D01*
X146318Y49260D02*
X168154D01*
X177165Y40551D02*
Y40747D01*
X180512Y44095D01*
X180709D01*
X186221Y49606D02*
X186221Y49606D01*
X186221Y49606D02*
Y55512D01*
X180709Y49606D02*
X186221D01*
X180709Y49606D02*
X180709Y49606D01*
X180118Y50197D02*
X180709Y49606D01*
X180118Y50197D02*
Y56102D01*
X191535Y44095D02*
X191732Y43898D01*
X182480Y27362D02*
X185039D01*
X179921Y24803D02*
X182480Y27362D01*
X185039D02*
Y27559D01*
X144499Y47441D02*
X146318Y49260D01*
X133614Y47441D02*
X144499D01*
X146905Y47842D02*
X167567D01*
X144534Y45472D02*
X146905Y47842D01*
X133614Y45472D02*
X144534D01*
X149114Y39469D02*
X149213Y39370D01*
X133713Y39469D02*
X149114D01*
X148228Y41535D02*
X149606Y42913D01*
X153307Y27008D02*
X158268Y22047D01*
X174803Y49803D02*
X175000Y50000D01*
Y56102D01*
X171260Y57874D02*
X173031Y56102D01*
X175000D01*
X133614Y39567D02*
X133713Y39469D01*
X143307Y20866D02*
X143701Y20472D01*
X112992Y20866D02*
X143307D01*
X151598Y22382D02*
X160141Y13839D01*
X126043Y22382D02*
X151598D01*
X125787Y22638D02*
X126043Y22382D01*
X150994Y27008D02*
X153307D01*
X148819Y29183D02*
X150994Y27008D01*
X148819Y29183D02*
Y32283D01*
X172106Y13839D02*
X173622Y15354D01*
X160141Y13839D02*
X172106D01*
X150394Y25591D02*
X152398D01*
X146063Y29922D02*
X150394Y25591D01*
X146063Y29922D02*
Y31102D01*
X152398Y25591D02*
X160331Y17658D01*
X168169D01*
X152185Y23799D02*
X160236Y15748D01*
X149429Y23799D02*
X152185D01*
X144488Y28740D02*
X149429Y23799D01*
X142185Y15413D02*
X143701Y16929D01*
X109783Y15413D02*
X142185D01*
X141004Y19232D02*
X141339Y18898D01*
X114058Y19232D02*
X141004D01*
X112936Y18110D02*
X114058Y19232D01*
X116142Y17323D02*
X138976D01*
X114961Y33465D02*
Y61417D01*
X112008Y30512D02*
X114961Y33465D01*
X112008Y25835D02*
Y30512D01*
X114961Y61417D02*
X116929Y63386D01*
X125787Y22638D02*
Y25835D01*
X105512Y19685D02*
X109783Y15413D01*
X109843Y18110D02*
X112936D01*
X88571Y37461D02*
X99941D01*
X88433Y37598D02*
X88571Y37461D01*
X99941D02*
X100000Y37402D01*
X88571Y39429D02*
X97579D01*
X97638Y39370D01*
X133614Y41535D02*
X148228D01*
X133614Y61221D02*
X133811Y61417D01*
X133614Y61221D02*
X133713Y61122D01*
X168169Y17658D02*
X170079Y15748D01*
X160236D02*
X163779D01*
X88433Y39567D02*
X88571Y39429D01*
D18*
X66929Y14173D02*
D03*
Y8661D02*
D03*
X66929Y33071D02*
D03*
Y38583D02*
D03*
X73228Y33071D02*
D03*
Y38583D02*
D03*
X175197Y69685D02*
D03*
Y75197D02*
D03*
X180709Y49606D02*
D03*
Y44095D02*
D03*
X186221Y49606D02*
D03*
Y44094D02*
D03*
X185039Y21901D02*
D03*
Y16389D02*
D03*
X190551Y21901D02*
D03*
Y16389D02*
D03*
D19*
X89370Y72047D02*
D03*
X83858D02*
D03*
X132677Y72047D02*
D03*
X138189D02*
D03*
X132677Y25984D02*
D03*
X138189D02*
D03*
X185039Y27559D02*
D03*
X190551D02*
D03*
D30*
X92716Y53347D02*
X93307Y53937D01*
X88433Y53347D02*
X92716D01*
X94291Y51378D02*
X94488Y51575D01*
X88433Y49409D02*
X96653D01*
X96850Y49606D01*
X88433Y51378D02*
X94291D01*
X93898Y57284D02*
X94095Y57480D01*
X88433Y57284D02*
X93898D01*
X166142Y54331D02*
Y60631D01*
X154331Y55107D02*
X155118Y55895D01*
X106807Y10630D02*
X140905D01*
X96260Y21177D02*
X106807Y10630D01*
X140905D02*
X143661Y7874D01*
X85433Y28346D02*
X90551D01*
X77756Y20669D02*
X85433Y28346D01*
X74606Y20669D02*
X77756D01*
X126819Y72047D02*
X126819Y72047D01*
X156299Y26772D02*
X165401D01*
X167811Y24362D02*
X169827D01*
X165401Y26772D02*
X167811Y24362D01*
X169291Y2756D02*
X176772Y10236D01*
X150839Y2756D02*
X169291D01*
X176772Y10236D02*
Y17417D01*
X151134Y31150D02*
Y33906D01*
Y31150D02*
X153150Y29134D01*
X151134Y33906D02*
X156693Y39465D01*
X169827Y24362D02*
X176772Y17417D01*
X153937Y29134D02*
X156299Y26772D01*
X153150Y29134D02*
X153937D01*
X156693Y39465D02*
Y43319D01*
X148661Y4933D02*
Y7874D01*
Y4933D02*
X150839Y2756D01*
X151181Y37008D02*
X153542Y39369D01*
X145276Y37008D02*
X151181D01*
X144685Y37598D02*
X145276Y37008D01*
X175000Y63583D02*
Y69488D01*
X175197Y69685D01*
X169095Y63583D02*
X175000D01*
X166142Y60631D02*
X169095Y63583D01*
X108158Y13890D02*
X151465D01*
X107482Y12260D02*
X147583D01*
X148819Y11024D01*
X151465Y13890D02*
X153937Y11417D01*
Y9843D02*
Y11417D01*
X98228Y21514D02*
X107482Y12260D01*
X100197Y21850D02*
X108158Y13890D01*
X96260Y21177D02*
Y25835D01*
X98228Y21514D02*
Y25835D01*
X100197Y21850D02*
Y25835D01*
X148819Y8032D02*
Y11024D01*
X148661Y7874D02*
X148819Y8032D01*
X111417Y40736D02*
Y40945D01*
X110039Y39358D02*
X111417Y40736D01*
X110039Y25835D02*
Y39358D01*
X108071Y46654D02*
X110236Y48819D01*
X108071Y25835D02*
Y46654D01*
X83465Y30709D02*
X105118D01*
X78347Y25591D02*
X83465Y30709D01*
X105118D02*
X106102Y29724D01*
Y25835D02*
Y29724D01*
X95228Y72047D02*
X95228Y72047D01*
X88433Y49409D02*
X88524Y49319D01*
X153542Y39369D02*
Y43319D01*
X133614Y37598D02*
X144685D01*
X88350Y51295D02*
X88433Y51378D01*
X66929Y14173D02*
X66929Y14173D01*
X73244Y33071D02*
X74016Y32299D01*
Y26378D02*
X74606Y25787D01*
X73228Y33071D02*
X73228Y33071D01*
X73244Y33071D02*
X73244Y33071D01*
X73228Y33071D02*
X73244D01*
X66929Y14173D02*
X67126Y14370D01*
X74410Y14370D02*
X74606Y14567D01*
Y20669D01*
D31*
X162993Y54319D02*
X165354D01*
X159843D02*
X162993D01*
X154331D02*
Y55107D01*
Y54319D02*
X156693D01*
X153543Y72047D02*
X155118Y70472D01*
Y55895D02*
Y70472D01*
X156693Y54319D02*
X159843D01*
X66929Y33071D02*
X73228D01*
D32*
X126819Y72047D02*
X132677D01*
X89370Y72047D02*
X95228D01*
X70079Y63583D02*
X70669Y62992D01*
X126378Y72047D02*
X126819D01*
X77953Y62992D02*
X81890Y66929D01*
X70669Y62992D02*
X77953D01*
X81890Y66929D02*
X87795D01*
X89370Y68504D02*
Y72047D01*
X87795Y66929D02*
X89370Y68504D01*
X74686Y2756D02*
X88976D01*
X70866Y6576D02*
X74686Y2756D01*
X70866Y6576D02*
Y12598D01*
X73819Y33661D02*
X73819Y33661D01*
X74409Y33071D01*
X162993Y43319D02*
X166142D01*
X159843D02*
X162993D01*
X74409Y33071D02*
X78347D01*
X73228D02*
X73819Y33661D01*
X95228Y72047D02*
X95669D01*
X69291Y14173D02*
X70866Y12598D01*
X66929Y14173D02*
X69291D01*
X74016Y26378D02*
Y32299D01*
X73244Y33071D02*
X73425D01*
X73228D02*
X73244D01*
X67126Y14370D02*
Y20079D01*
D34*
X163661Y7874D02*
D03*
X158661D02*
D03*
X153661D02*
D03*
X148661D02*
D03*
D35*
X143661D02*
D03*
D36*
X187402D02*
D03*
Y70866D02*
D03*
X7874D02*
D03*
D37*
X93307Y53937D02*
D03*
X94488Y51575D02*
D03*
X96850Y49606D02*
D03*
X97244Y46063D02*
D03*
X93701Y43701D02*
D03*
X145669Y63386D02*
D03*
X141338Y55118D02*
D03*
X140551Y52362D02*
D03*
X138583Y50787D02*
D03*
X77953Y75984D02*
D03*
Y69291D02*
D03*
X146457Y75984D02*
D03*
X138583Y7087D02*
D03*
X177953Y2756D02*
D03*
X174409D02*
D03*
X88976Y2756D02*
D03*
X179134Y11811D02*
D03*
X180709Y2756D02*
D03*
X169291Y7480D02*
D03*
X180709Y36220D02*
D03*
X160630Y32283D02*
D03*
X170472Y26378D02*
D03*
X179134Y15354D02*
D03*
X169291Y22047D02*
D03*
X173622Y24409D02*
D03*
X177953Y24803D02*
D03*
X149606Y51181D02*
D03*
X159843Y40945D02*
D03*
X91732Y7480D02*
D03*
X98032D02*
D03*
X105118D02*
D03*
X112205D02*
D03*
X118110D02*
D03*
X110236Y48819D02*
D03*
X78347Y25591D02*
D03*
X111417Y40945D02*
D03*
X177559Y59842D02*
D03*
X170472Y54724D02*
D03*
X159055Y75197D02*
D03*
Y71653D02*
D03*
X162598D02*
D03*
Y75197D02*
D03*
X166142D02*
D03*
Y71653D02*
D03*
X191732Y63386D02*
D03*
X187795D02*
D03*
X183858D02*
D03*
X87402Y10630D02*
D03*
X150000Y65354D02*
D03*
X142126Y66142D02*
D03*
X138583D02*
D03*
X7480Y60630D02*
D03*
X68898Y2362D02*
D03*
X60630D02*
D03*
Y5118D02*
D03*
X64567Y2362D02*
D03*
X119291Y37008D02*
D03*
X119685Y56693D02*
D03*
X162992Y45669D02*
D03*
X180315Y69685D02*
D03*
X169685Y71653D02*
D03*
Y75197D02*
D03*
X180315D02*
D03*
X177165Y31890D02*
D03*
X171653Y11024D02*
D03*
X167323D02*
D03*
X137795Y25197D02*
D03*
X146457Y19291D02*
D03*
X151181D02*
D03*
X166142Y43319D02*
D03*
X170472Y51968D02*
D03*
X187795Y35827D02*
D03*
X191732Y55512D02*
D03*
Y59842D02*
D03*
X187795D02*
D03*
X183858D02*
D03*
X161417Y64961D02*
D03*
Y60630D02*
D03*
X128740Y75984D02*
D03*
X103150D02*
D03*
X83858D02*
D03*
X138189D02*
D03*
X102756Y53150D02*
D03*
X109055Y58268D02*
D03*
X102756D02*
D03*
X109055Y63779D02*
D03*
X102756D02*
D03*
X96850D02*
D03*
X74410Y69291D02*
D03*
X70866D02*
D03*
X67323D02*
D03*
X63779D02*
D03*
X77953Y40945D02*
D03*
Y48819D02*
D03*
Y56693D02*
D03*
X105905Y37402D02*
D03*
X103150Y33858D02*
D03*
X92520Y22441D02*
D03*
X87402D02*
D03*
X96457Y16142D02*
D03*
X92520D02*
D03*
X153150Y33071D02*
D03*
X163779Y34646D02*
D03*
X157874Y32677D02*
D03*
X171260Y31102D02*
D03*
X181496Y31890D02*
D03*
X171260Y35039D02*
D03*
X169685Y40157D02*
D03*
X177165Y40551D02*
D03*
X173622Y33071D02*
D03*
X172835Y40157D02*
D03*
X186221Y55512D02*
D03*
X149213Y39370D02*
D03*
X149606Y42913D02*
D03*
X171260Y57874D02*
D03*
X148819Y19291D02*
D03*
X143701Y20472D02*
D03*
X173622Y15354D02*
D03*
X143701Y16929D02*
D03*
X141339Y18898D02*
D03*
X138976Y17323D02*
D03*
X116929Y63386D02*
D03*
X109843Y18110D02*
D03*
X112992Y20866D02*
D03*
X116142Y17323D02*
D03*
X105512Y19685D02*
D03*
X90551Y28346D02*
D03*
X94095Y57480D02*
D03*
X95669Y41339D02*
D03*
X97638Y39370D02*
D03*
X100000Y37402D02*
D03*
X150394Y61417D02*
D03*
X147638Y59055D02*
D03*
X148819Y32283D02*
D03*
X146063Y31102D02*
D03*
X144488Y28740D02*
D03*
X143701Y57087D02*
D03*
X163779Y15748D02*
D03*
X170079D02*
D03*
X60630Y57480D02*
D03*
Y54724D02*
D03*
X27559Y60630D02*
D03*
X22047D02*
D03*
X19291D02*
D03*
X35827Y68504D02*
D03*
X30315D02*
D03*
X26772Y73622D02*
D03*
X24016Y73622D02*
D03*
Y76378D02*
D03*
X45276Y73622D02*
D03*
X42520Y76378D02*
D03*
Y73622D02*
D03*
X45276Y76378D02*
D03*
X26772D02*
D03*
X30315Y60630D02*
D03*
X24803D02*
D03*
X16142Y68504D02*
D03*
X18504D02*
D03*
X20866D02*
D03*
X7874Y62992D02*
D03*
X38583Y68504D02*
D03*
X33071D02*
D03*
X49213D02*
D03*
X51968D02*
D03*
X54724D02*
D03*
X57480D02*
D03*
X60236D02*
D03*
X2756Y60630D02*
D03*
X5118D02*
D03*
X16535D02*
D03*
X33071D02*
D03*
X35827D02*
D03*
X38583D02*
D03*
X41339D02*
D03*
X44094D02*
D03*
X46850D02*
D03*
X49606D02*
D03*
X52362D02*
D03*
X55118D02*
D03*
X57874D02*
D03*
X60630Y60236D02*
D03*
Y51968D02*
D03*
Y49213D02*
D03*
Y46457D02*
D03*
Y43701D02*
D03*
Y40945D02*
D03*
Y38189D02*
D03*
Y35433D02*
D03*
Y32677D02*
D03*
Y29921D02*
D03*
Y27165D02*
D03*
Y24409D02*
D03*
Y21654D02*
D03*
Y18898D02*
D03*
Y16142D02*
D03*
Y13386D02*
D03*
Y10630D02*
D03*
Y7874D02*
D03*
D38*
X78347Y33071D02*
D03*
X153543Y72047D02*
D03*
X93307D02*
D03*
X128740D02*
D03*
D39*
X180118Y63583D02*
D03*
X177559D02*
D03*
X175000D02*
D03*
Y56102D02*
D03*
X177559D02*
D03*
X180118D02*
D03*
D40*
X125787Y71016D02*
D03*
X123819D02*
D03*
X121850D02*
D03*
X119882D02*
D03*
X117913D02*
D03*
X115945D02*
D03*
X113976D02*
D03*
X112008D02*
D03*
X110039D02*
D03*
X108071D02*
D03*
X106102D02*
D03*
X104134D02*
D03*
X102165D02*
D03*
X100197D02*
D03*
X98228D02*
D03*
X96260D02*
D03*
Y25835D02*
D03*
X98228D02*
D03*
X100197D02*
D03*
X102165D02*
D03*
X104134D02*
D03*
X106102D02*
D03*
X108071D02*
D03*
X110039D02*
D03*
X112008D02*
D03*
X113976D02*
D03*
X115945D02*
D03*
X117913D02*
D03*
X119882D02*
D03*
X121850D02*
D03*
X123819D02*
D03*
X125787D02*
D03*
D41*
X88433Y63189D02*
D03*
Y61221D02*
D03*
Y59252D02*
D03*
Y57284D02*
D03*
Y55315D02*
D03*
Y53347D02*
D03*
Y51378D02*
D03*
Y49409D02*
D03*
Y47441D02*
D03*
Y45472D02*
D03*
Y43504D02*
D03*
Y41535D02*
D03*
Y39567D02*
D03*
Y37598D02*
D03*
Y35630D02*
D03*
Y33661D02*
D03*
X133614D02*
D03*
Y35630D02*
D03*
Y37598D02*
D03*
Y39567D02*
D03*
Y41535D02*
D03*
Y43504D02*
D03*
Y45472D02*
D03*
Y47441D02*
D03*
Y49409D02*
D03*
Y51378D02*
D03*
Y53347D02*
D03*
Y55315D02*
D03*
Y57284D02*
D03*
Y59252D02*
D03*
Y61221D02*
D03*
Y63189D02*
D03*
D42*
X190748Y33071D02*
D03*
X184843D02*
D03*
X190748Y38583D02*
D03*
X184843D02*
D03*
D43*
X166142Y43319D02*
D03*
Y54319D02*
D03*
X162993Y43319D02*
D03*
Y54319D02*
D03*
X159843Y43319D02*
D03*
Y54319D02*
D03*
X156693Y43319D02*
D03*
Y54319D02*
D03*
X153542Y43319D02*
D03*
Y54319D02*
D03*
D44*
X70079Y62795D02*
D03*
Y73425D02*
D03*
D45*
X67126Y25787D02*
D03*
Y23228D02*
D03*
Y20669D02*
D03*
X74606D02*
D03*
Y23228D02*
D03*
Y25787D02*
D03*
D46*
X74410Y14370D02*
D03*
Y8465D02*
D03*
X174803Y49803D02*
D03*
Y43898D02*
D03*
X191732Y49803D02*
D03*
Y43898D02*
D03*
D47*
X132677Y25984D02*
Y33661D01*
X129724D02*
X132677D01*
X133614D01*
X128740Y34646D02*
X129724Y33661D01*
X128740Y34646D02*
Y72047D01*
M02*
