G04*
G04 #@! TF.GenerationSoftware,Altium Limited,Altium Designer,19.1.5 (86)*
G04*
G04 Layer_Color=16711935*
%FSLAX25Y25*%
%MOIN*%
G70*
G01*
G75*
%ADD25R,0.04343X0.03950*%
%ADD26R,0.03950X0.04343*%
%ADD27C,0.04737*%
%ADD28R,0.04737X0.04737*%
%ADD29C,0.10642*%
%ADD48R,0.02375X0.04934*%
%ADD49R,0.01981X0.06607*%
%ADD50R,0.06607X0.01981*%
%ADD51R,0.03556X0.04343*%
%ADD52R,0.02400X0.07400*%
%ADD53R,0.11036X0.05131*%
%ADD54R,0.04934X0.02375*%
%ADD55R,0.04343X0.03556*%
D25*
X66929Y14173D02*
D03*
Y8661D02*
D03*
X66929Y33071D02*
D03*
Y38583D02*
D03*
X73228Y33071D02*
D03*
Y38583D02*
D03*
X175197Y69685D02*
D03*
Y75197D02*
D03*
X180709Y49606D02*
D03*
Y44095D02*
D03*
X186221Y49606D02*
D03*
Y44094D02*
D03*
X185039Y21901D02*
D03*
Y16389D02*
D03*
X190551Y21901D02*
D03*
Y16389D02*
D03*
D26*
X89370Y72047D02*
D03*
X83858D02*
D03*
X132677Y72047D02*
D03*
X138189D02*
D03*
X132677Y25984D02*
D03*
X138189D02*
D03*
X185039Y27559D02*
D03*
X190551D02*
D03*
D27*
X163661Y7874D02*
D03*
X158661D02*
D03*
X153661D02*
D03*
X148661D02*
D03*
D28*
X143661D02*
D03*
D29*
X187402D02*
D03*
Y70866D02*
D03*
X7874D02*
D03*
D48*
X180118Y63583D02*
D03*
X177559D02*
D03*
X175000D02*
D03*
Y56102D02*
D03*
X177559D02*
D03*
X180118D02*
D03*
D49*
X125787Y71016D02*
D03*
X123819D02*
D03*
X121850D02*
D03*
X119882D02*
D03*
X117913D02*
D03*
X115945D02*
D03*
X113976D02*
D03*
X112008D02*
D03*
X110039D02*
D03*
X108071D02*
D03*
X106102D02*
D03*
X104134D02*
D03*
X102165D02*
D03*
X100197D02*
D03*
X98228D02*
D03*
X96260D02*
D03*
Y25835D02*
D03*
X98228D02*
D03*
X100197D02*
D03*
X102165D02*
D03*
X104134D02*
D03*
X106102D02*
D03*
X108071D02*
D03*
X110039D02*
D03*
X112008D02*
D03*
X113976D02*
D03*
X115945D02*
D03*
X117913D02*
D03*
X119882D02*
D03*
X121850D02*
D03*
X123819D02*
D03*
X125787D02*
D03*
D50*
X88433Y63189D02*
D03*
Y61221D02*
D03*
Y59252D02*
D03*
Y57284D02*
D03*
Y55315D02*
D03*
Y53347D02*
D03*
Y51378D02*
D03*
Y49409D02*
D03*
Y47441D02*
D03*
Y45472D02*
D03*
Y43504D02*
D03*
Y41535D02*
D03*
Y39567D02*
D03*
Y37598D02*
D03*
Y35630D02*
D03*
Y33661D02*
D03*
X133614D02*
D03*
Y35630D02*
D03*
Y37598D02*
D03*
Y39567D02*
D03*
Y41535D02*
D03*
Y43504D02*
D03*
Y45472D02*
D03*
Y47441D02*
D03*
Y49409D02*
D03*
Y51378D02*
D03*
Y53347D02*
D03*
Y55315D02*
D03*
Y57284D02*
D03*
Y59252D02*
D03*
Y61221D02*
D03*
Y63189D02*
D03*
D51*
X190748Y33071D02*
D03*
X184843D02*
D03*
X190748Y38583D02*
D03*
X184843D02*
D03*
D52*
X166142Y43319D02*
D03*
Y54319D02*
D03*
X162993Y43319D02*
D03*
Y54319D02*
D03*
X159843Y43319D02*
D03*
Y54319D02*
D03*
X156693Y43319D02*
D03*
Y54319D02*
D03*
X153542Y43319D02*
D03*
Y54319D02*
D03*
D53*
X70079Y62795D02*
D03*
Y73425D02*
D03*
D54*
X67126Y25787D02*
D03*
Y23228D02*
D03*
Y20669D02*
D03*
X74606D02*
D03*
Y23228D02*
D03*
Y25787D02*
D03*
D55*
X74410Y14370D02*
D03*
Y8465D02*
D03*
X174803Y49803D02*
D03*
Y43898D02*
D03*
X191732Y49803D02*
D03*
Y43898D02*
D03*
M02*
