G04*
G04 #@! TF.GenerationSoftware,Altium Limited,Altium Designer,19.1.5 (86)*
G04*
G04 Layer_Color=32768*
%FSLAX25Y25*%
%MOIN*%
G70*
G01*
G75*
%ADD42C,0.00394*%
%ADD45C,0.00197*%
D42*
X90748Y5906D02*
X95079D01*
X90748Y15354D02*
X95079D01*
X90748Y5906D02*
Y15354D01*
X95079Y5906D02*
Y15354D01*
X92913Y8760D02*
Y12500D01*
X91043Y10630D02*
X94784D01*
X72441Y5315D02*
Y9646D01*
X62992Y5315D02*
Y9646D01*
Y5315D02*
X72441D01*
X62992Y9646D02*
X72441D01*
X65847Y7480D02*
X69587D01*
X67716Y5610D02*
Y9350D01*
X62992Y11614D02*
Y15945D01*
X72441Y11614D02*
Y15945D01*
X62992D02*
X72441D01*
X62992Y11614D02*
X72441D01*
X65847Y13780D02*
X69587D01*
X67716Y11909D02*
Y15650D01*
X97441Y15354D02*
X101772D01*
X97441Y5906D02*
X101772D01*
Y15354D01*
X97441Y5906D02*
Y15354D01*
X99606Y8760D02*
Y12500D01*
X97736Y10630D02*
X101476D01*
X125591Y59842D02*
X129528D01*
X127559Y57874D02*
Y61811D01*
X60236Y34843D02*
Y39173D01*
X69685Y34843D02*
Y39173D01*
X60236Y34843D02*
X69685D01*
X60236Y39173D02*
X69685D01*
X63091Y37008D02*
X66831D01*
X64961Y35138D02*
Y38878D01*
X60236Y40354D02*
Y44685D01*
X69685Y40354D02*
Y44685D01*
X60236Y40354D02*
X69685D01*
X60236Y44685D02*
X69685D01*
X63091Y42520D02*
X66831D01*
X64961Y40650D02*
Y44390D01*
X70878Y69370D02*
X181878D01*
X70878Y9370D02*
Y69370D01*
Y9370D02*
X181878D01*
Y69370D01*
X104724Y61417D02*
X108661D01*
X106693Y59449D02*
Y63386D01*
X101181Y53543D02*
Y69291D01*
X112205Y53543D02*
Y69291D01*
X101181Y53543D02*
X112205D01*
X101181Y69291D02*
X112205D01*
X126378Y44291D02*
Y48622D01*
X116929Y44291D02*
Y48622D01*
Y44291D02*
X126378D01*
X116929Y48622D02*
X126378D01*
X119783Y46457D02*
X123524D01*
X121653Y44587D02*
Y48327D01*
X138189Y44291D02*
Y48622D01*
X128740Y44291D02*
Y48622D01*
Y44291D02*
X138189D01*
X128740Y48622D02*
X138189D01*
X131595Y46457D02*
X135335D01*
X133465Y44587D02*
Y48327D01*
X142323Y56299D02*
X146653D01*
X142323Y65748D02*
X146653D01*
X142323Y56299D02*
Y65748D01*
X146653Y56299D02*
Y65748D01*
X144488Y59154D02*
Y62894D01*
X142618Y61024D02*
X146358D01*
X124409Y71063D02*
Y75394D01*
X114961Y71063D02*
Y75394D01*
Y71063D02*
X124409D01*
X114961Y75394D02*
X124409D01*
X117815Y73228D02*
X121555D01*
X119685Y71358D02*
Y75098D01*
X126378Y38386D02*
Y42717D01*
X116929Y38386D02*
Y42717D01*
Y38386D02*
X126378D01*
X116929Y42717D02*
X126378D01*
X119783Y40551D02*
X123524D01*
X121653Y38681D02*
Y42421D01*
X105512Y44291D02*
Y48622D01*
X114961Y44291D02*
Y48622D01*
X105512D02*
X114961D01*
X105512Y44291D02*
X114961D01*
X108366Y46457D02*
X112106D01*
X110236Y44587D02*
Y48327D01*
X128346Y17717D02*
X132283D01*
X130315Y15749D02*
Y19686D01*
X135827Y9843D02*
Y25591D01*
X124803Y9843D02*
Y25591D01*
X135827D01*
X124803Y9843D02*
X135827D01*
X99606Y19094D02*
Y23425D01*
X90158Y19094D02*
Y23425D01*
Y19094D02*
X99606D01*
X90158Y23425D02*
X99606D01*
X93012Y21260D02*
X96752D01*
X94882Y19390D02*
Y23130D01*
X99213Y37598D02*
Y41929D01*
X89764Y37598D02*
Y41929D01*
Y37598D02*
X99213D01*
X89764Y41929D02*
X99213D01*
X92618Y39764D02*
X96358D01*
X94488Y37894D02*
Y41634D01*
X104528Y28740D02*
X108858D01*
X104528Y19291D02*
X108858D01*
Y28740D01*
X104528Y19291D02*
Y28740D01*
X106693Y22146D02*
Y25886D01*
X104823Y24016D02*
X108563D01*
X154921Y24410D02*
X159252D01*
X154921Y33859D02*
X159252D01*
X154921Y24410D02*
Y33859D01*
X159252Y24410D02*
Y33859D01*
X157086Y27264D02*
Y31005D01*
X155216Y29135D02*
X158957D01*
X154921Y12993D02*
X159252D01*
X154921Y22442D02*
X159252D01*
X154921Y12993D02*
Y22442D01*
X159252Y12993D02*
Y22442D01*
X157086Y15847D02*
Y19587D01*
X155216Y17717D02*
X158957D01*
X132086Y39371D02*
X136417D01*
X132086Y29922D02*
X136417D01*
Y39371D01*
X132086Y29922D02*
Y39371D01*
X134252Y32776D02*
Y36516D01*
X132382Y34646D02*
X136122D01*
X137598Y39371D02*
X141929D01*
X137598Y29922D02*
X141929D01*
Y39371D01*
X137598Y29922D02*
Y39371D01*
X139764Y32776D02*
Y36516D01*
X137893Y34646D02*
X141634D01*
X149409Y39371D02*
X153740D01*
X149409Y29923D02*
X153740D01*
Y39371D01*
X149409Y29923D02*
Y39371D01*
X151574Y32777D02*
Y36517D01*
X149704Y34647D02*
X153445D01*
X143504Y39371D02*
X147834D01*
X143504Y29922D02*
X147834D01*
Y39371D01*
X143504Y29922D02*
Y39371D01*
X145669Y32776D02*
Y36516D01*
X143799Y34646D02*
X147539D01*
D45*
X74114Y5610D02*
X88090D01*
X74114D02*
Y16437D01*
X88090D01*
Y5610D02*
Y16437D01*
X138681Y9350D02*
Y26083D01*
X152657D01*
Y9350D02*
Y26083D01*
X138681Y9350D02*
X152657D01*
X140059Y50591D02*
Y69095D01*
X115059Y50591D02*
Y69095D01*
Y50591D02*
X140059D01*
X115059Y69095D02*
X140059D01*
X88681Y25295D02*
X102657D01*
X88681D02*
Y36122D01*
X102657D01*
Y25295D02*
Y36122D01*
M02*
