G04*
G04 #@! TF.GenerationSoftware,Altium Limited,Altium Designer,19.1.5 (86)*
G04*
G04 Layer_Color=32896*
%FSLAX25Y25*%
%MOIN*%
G70*
G01*
G75*
%ADD41C,0.00100*%
%ADD42C,0.00394*%
%ADD43C,0.00800*%
D41*
X26283Y54192D02*
X27283D01*
X42283Y46192D02*
X43483D01*
X26283Y54292D02*
X27283D01*
X26383Y54392D02*
X27083D01*
X32383Y50992D02*
X36083D01*
X32383Y51092D02*
X36083D01*
X32383Y51192D02*
X36083D01*
X25583Y48892D02*
X27983D01*
X25583Y48992D02*
X27983D01*
X26183Y49092D02*
X27383D01*
X26183Y49192D02*
X27383D01*
X26183Y49292D02*
X27383D01*
X26183Y49392D02*
X27383D01*
X26183Y49492D02*
X27383D01*
X26183Y49592D02*
X27383D01*
X26183Y49692D02*
X27383D01*
X26183Y49792D02*
X27383D01*
X26183Y49892D02*
X27383D01*
X26183Y49992D02*
X27383D01*
X26183Y50092D02*
X27383D01*
X26183Y50192D02*
X27383D01*
X26183Y50292D02*
X27383D01*
X26183Y50392D02*
X27383D01*
X26183Y50492D02*
X27383D01*
X26183Y50592D02*
X27383D01*
X26183Y50692D02*
X27383D01*
X26183Y50792D02*
X27383D01*
X26183Y50892D02*
X27383D01*
X26183Y50992D02*
X27383D01*
X26183Y51092D02*
X27383D01*
X26183Y51192D02*
X27383D01*
X26183Y51292D02*
X27383D01*
X26183Y51392D02*
X27383D01*
X26183Y51492D02*
X27383D01*
X26183Y51592D02*
X27383D01*
X26183Y51692D02*
X27383D01*
X26183Y51792D02*
X27383D01*
X26183Y51892D02*
X27383D01*
X26183Y51992D02*
X27383D01*
X26183Y52092D02*
X27383D01*
X26183Y52192D02*
X27383D01*
X26183Y52392D02*
X27383D01*
X26183Y52492D02*
X27883D01*
X26183Y52592D02*
X27883D01*
X26383Y53392D02*
X27083D01*
X26283Y53492D02*
X27183D01*
X26283Y53592D02*
X27283D01*
X26183Y53692D02*
X27383D01*
X26183Y53792D02*
X27383D01*
X26183Y53892D02*
X27383D01*
X26183Y53992D02*
X27383D01*
X26183Y54092D02*
X27383D01*
X26183Y52292D02*
X27383D01*
X33283Y48892D02*
X34983D01*
X33083Y48992D02*
X35183D01*
X34383Y49092D02*
X35383D01*
X34483Y49192D02*
X35383D01*
X34583Y49292D02*
X35483D01*
X34583Y49392D02*
X35583D01*
X34583Y52392D02*
X35283D01*
X34383Y52492D02*
X35183D01*
X33383Y52592D02*
X34983D01*
X34683Y49492D02*
X35683D01*
X34683Y49592D02*
X35783D01*
X34683Y49692D02*
X35783D01*
X34783Y49792D02*
X35883D01*
X34783Y49892D02*
X35883D01*
X34783Y49992D02*
X35983D01*
X34783Y50092D02*
X35983D01*
X34783Y50192D02*
X35983D01*
X34783Y50292D02*
X36083D01*
X34783Y50392D02*
X36083D01*
X34783Y50492D02*
X36083D01*
X34783Y50592D02*
X36083D01*
X34783Y50692D02*
X36083D01*
X34783Y50792D02*
X36083D01*
X34783Y50892D02*
X36083D01*
X34783Y51292D02*
X35983D01*
X34783Y51392D02*
X35983D01*
X34783Y51492D02*
X35983D01*
X34783Y51592D02*
X35883D01*
X34783Y51692D02*
X35883D01*
X34783Y51792D02*
X35783D01*
X34783Y51892D02*
X35783D01*
X34783Y51992D02*
X35683D01*
X34683Y52092D02*
X35583D01*
X34683Y52192D02*
X35483D01*
X34683Y52292D02*
X35383D01*
X42383Y48892D02*
X44983D01*
X42383Y48992D02*
X44983D01*
X42983Y51892D02*
X44383D01*
X42983Y51992D02*
X44383D01*
X42883Y52092D02*
X44383D01*
X42883Y52192D02*
X43083D01*
X42683Y52392D02*
X42983D01*
X42783Y52292D02*
X43083D01*
X42283Y46292D02*
X43483D01*
X42283Y46392D02*
X43483D01*
X42283Y46492D02*
X43483D01*
X42283Y46592D02*
X43483D01*
X42283Y46692D02*
X43483D01*
X42283Y46792D02*
X43483D01*
X42283Y46892D02*
X43483D01*
X42283Y46992D02*
X43483D01*
X42283Y47092D02*
X43483D01*
X42283Y47192D02*
X44083D01*
X42283Y47292D02*
X44083D01*
X32683Y41292D02*
X34983D01*
X32683Y41392D02*
X34983D01*
X33183Y44892D02*
X34983D01*
X33183Y44992D02*
X34983D01*
Y42692D02*
X36383D01*
X34983Y42792D02*
X36383D01*
X34983Y42892D02*
X36383D01*
X34983Y42992D02*
X36383D01*
X34983Y43092D02*
X36383D01*
X34983Y43192D02*
X36383D01*
X34983Y43292D02*
X36383D01*
X34983Y43392D02*
X36383D01*
X34983Y43492D02*
X36383D01*
X34983Y43592D02*
X36383D01*
X41683Y41292D02*
X44083D01*
X41683Y41392D02*
X44083D01*
X42283Y41492D02*
X43483D01*
X42283Y41592D02*
X43483D01*
X42283Y41692D02*
X43483D01*
X42283Y41792D02*
X43483D01*
X42283Y41892D02*
X43483D01*
X42283Y41992D02*
X43483D01*
X42283Y42092D02*
X43483D01*
X42283Y42192D02*
X43483D01*
X42283Y42292D02*
X43483D01*
X42283Y42392D02*
X43483D01*
X42283Y42492D02*
X43483D01*
X42283Y42592D02*
X43483D01*
X42283Y42692D02*
X43483D01*
X42283Y42792D02*
X43483D01*
X42283Y42892D02*
X43483D01*
X42283Y42992D02*
X43483D01*
X42283Y43092D02*
X43483D01*
X42283Y43192D02*
X43483D01*
X42283Y43292D02*
X43483D01*
X42283Y43392D02*
X43483D01*
X42283Y43492D02*
X43483D01*
X42283Y43592D02*
X43483D01*
X42283Y43692D02*
X43483D01*
X42283Y43792D02*
X43483D01*
X42283Y43892D02*
X43483D01*
X42283Y43992D02*
X43483D01*
X42283Y44092D02*
X43483D01*
X42283Y44192D02*
X43483D01*
X42283Y44392D02*
X43483D01*
X42283Y44492D02*
X43483D01*
X42283Y44592D02*
X43483D01*
X42283Y44692D02*
X43483D01*
X42283Y44792D02*
X43483D01*
X42283Y44892D02*
X43483D01*
X42283Y44992D02*
X43483D01*
X42283Y45092D02*
X43483D01*
X42283Y45192D02*
X43483D01*
X42283Y45292D02*
X43483D01*
X42283Y45392D02*
X43483D01*
X42283Y45492D02*
X43483D01*
X42283Y45592D02*
X43483D01*
X42283Y45692D02*
X43483D01*
X42283Y45792D02*
X43483D01*
X42283Y45892D02*
X43483D01*
X42283Y45992D02*
X43483D01*
X42283Y46092D02*
X43483D01*
X42283Y44292D02*
X43483D01*
X42583Y38292D02*
X42983D01*
X42383Y38392D02*
X43183D01*
X42283Y38492D02*
X43183D01*
X42183Y38592D02*
X43283D01*
X42183Y38692D02*
X43383D01*
X42183Y38792D02*
X43383D01*
X42183Y38892D02*
X43383D01*
X42183Y38992D02*
X43383D01*
X42183Y39092D02*
X43283D01*
X42283Y39192D02*
X43283D01*
X42283Y39292D02*
X43183D01*
X42483Y39392D02*
X43083D01*
X24583Y33892D02*
X27083D01*
X24583Y33992D02*
X27083D01*
X18183Y37392D02*
X19083D01*
X17983Y37492D02*
X19383D01*
X17983Y37592D02*
X19383D01*
X18983Y35992D02*
X19283D01*
X18983Y36092D02*
X19283D01*
X18883Y36192D02*
X19183D01*
X18783Y36392D02*
X19083D01*
X18783Y36492D02*
X19083D01*
X18783Y36592D02*
X18983D01*
X18683Y36692D02*
X18983D01*
X18883Y36292D02*
X19183D01*
X24683Y33792D02*
X27083D01*
X25283Y37492D02*
X27083D01*
X25283Y37592D02*
X27083D01*
X34083Y35992D02*
X37783D01*
X34083Y36092D02*
X37783D01*
X34083Y36192D02*
X35383D01*
X34183Y36392D02*
X35383D01*
X34183Y36492D02*
X35383D01*
X34183Y36592D02*
X35383D01*
X34283Y36692D02*
X35383D01*
X34283Y36792D02*
X35383D01*
X34383Y36892D02*
X35383D01*
X34483Y36992D02*
X35383D01*
X34483Y37092D02*
X35383D01*
X34583Y37192D02*
X35483D01*
X34083Y36292D02*
X35383D01*
X34983Y33892D02*
X36683D01*
X34783Y33992D02*
X35283D01*
X34683Y34092D02*
X35083D01*
X34683Y37292D02*
X35483D01*
X34883Y37392D02*
X35583D01*
X34983Y37492D02*
X35783D01*
X41583Y33792D02*
X43983D01*
X41583Y33892D02*
X43983D01*
X41583Y33992D02*
X43983D01*
X42183Y34092D02*
X43383D01*
X42183Y34192D02*
X43383D01*
X42183Y34292D02*
X43383D01*
X42183Y34392D02*
X43383D01*
X42183Y34492D02*
X43383D01*
X42183Y34592D02*
X43383D01*
X42183Y34692D02*
X43383D01*
X42183Y34792D02*
X43383D01*
X42183Y34892D02*
X43383D01*
X42183Y34992D02*
X43383D01*
X42183Y35092D02*
X43383D01*
X42183Y35192D02*
X43383D01*
X42183Y35292D02*
X43383D01*
X42183Y35392D02*
X43383D01*
X42183Y35492D02*
X43383D01*
X42183Y35592D02*
X43383D01*
X42183Y35692D02*
X43383D01*
X42183Y35792D02*
X43383D01*
X42183Y35892D02*
X43383D01*
X42183Y35992D02*
X43383D01*
X42183Y36092D02*
X43383D01*
X42183Y36192D02*
X43383D01*
X42183Y36392D02*
X43383D01*
X42183Y36492D02*
X43383D01*
X42183Y36592D02*
X43383D01*
X42183Y36692D02*
X43383D01*
X42183Y36792D02*
X43383D01*
X42183Y36892D02*
X43383D01*
X42183Y36992D02*
X43383D01*
X42183Y37092D02*
X43383D01*
X42183Y37192D02*
X43383D01*
X42183Y37292D02*
X43383D01*
X42183Y37392D02*
X43383D01*
X42183Y37492D02*
X43983D01*
X42183Y37592D02*
X43983D01*
X42183Y36292D02*
X43383D01*
X49983Y54492D02*
X50983D01*
X49983Y54592D02*
X51083D01*
X49983Y54692D02*
X51283D01*
X50683Y54792D02*
X51383D01*
X50983Y54892D02*
X51683D01*
X49983Y49192D02*
X51183D01*
X49983Y49292D02*
X51083D01*
X49983Y49392D02*
X50983D01*
X50883Y48992D02*
X51683D01*
X50683Y49092D02*
X51283D01*
X50983Y43492D02*
X51283D01*
X50983Y43592D02*
X51283D01*
X50983Y43692D02*
X51183D01*
X50883Y43792D02*
X51183D01*
X50883Y43892D02*
X51083D01*
X50883Y43992D02*
X51083D01*
X50783Y44092D02*
X51083D01*
X50783Y44192D02*
X51083D01*
X50683Y44392D02*
X50983D01*
X50683Y44492D02*
X50983D01*
X50783Y44292D02*
X50983D01*
X50583Y33992D02*
X53383D01*
X50383Y34092D02*
X50983D01*
X50783Y33892D02*
X53183D01*
X22983Y38192D02*
X23683D01*
X39683Y46192D02*
X40983D01*
X49983Y54192D02*
X50783D01*
X48483Y46192D02*
X49783D01*
X50083D02*
X50383D01*
X49683Y38192D02*
X49983D01*
X53183Y54192D02*
X54183D01*
X52383Y46192D02*
X53783D01*
X54183D02*
X54383D01*
X53083Y38192D02*
X54383D01*
X18583Y36892D02*
X18883D01*
X18583Y36992D02*
X18883D01*
X18483Y37092D02*
X18883D01*
X18483Y37192D02*
X18783D01*
X18383Y37292D02*
X18883D01*
X18683Y36792D02*
X18883D01*
X26683Y54492D02*
X26883D01*
X23783Y49092D02*
X24783D01*
X23983Y49192D02*
X24883D01*
X23983Y49292D02*
X24983D01*
X24083Y49392D02*
X25083D01*
X24083Y49492D02*
X25183D01*
X24183Y49592D02*
X25283D01*
X24183Y49692D02*
X25283D01*
X24183Y49792D02*
X25283D01*
X24183Y49892D02*
X25383D01*
X24183Y49992D02*
X25383D01*
X24183Y50092D02*
X25383D01*
X24183Y50192D02*
X25483D01*
X24183Y50292D02*
X25483D01*
X24183Y50392D02*
X25483D01*
X24183Y50492D02*
X25483D01*
X24183Y50592D02*
X25483D01*
X24183Y50692D02*
X25483D01*
X24183Y50792D02*
X25483D01*
X24183Y50892D02*
X25483D01*
X24183Y51292D02*
X25483D01*
X24183Y51392D02*
X25383D01*
X24183Y51492D02*
X25383D01*
X24183Y51592D02*
X25383D01*
X24183Y51692D02*
X25283D01*
X24183Y51792D02*
X25283D01*
X24183Y51892D02*
X25183D01*
X24183Y51992D02*
X25183D01*
X24183Y52092D02*
X25083D01*
X24183Y52192D02*
X24983D01*
X24083Y52392D02*
X24783D01*
X23883Y52492D02*
X24583D01*
X24083Y52292D02*
X24883D01*
X22583Y48992D02*
X24583D01*
X21783Y50992D02*
X25483D01*
X21783Y51092D02*
X25483D01*
X21783Y51192D02*
X25483D01*
X22783Y48892D02*
X24383D01*
X22383Y49092D02*
X22783D01*
X22283Y49192D02*
X22583D01*
X22183Y49292D02*
X22483D01*
X22083Y49392D02*
X22383D01*
X22083Y49492D02*
X22383D01*
X21983Y49592D02*
X22283D01*
X21983Y49692D02*
X22183D01*
X21883Y49792D02*
X22183D01*
X21883Y49892D02*
X22083D01*
X21883Y49992D02*
X22083D01*
X21783Y50092D02*
X22083D01*
X21783Y50192D02*
X21983D01*
X21883Y51292D02*
X23083D01*
X21883Y51392D02*
X23083D01*
X21883Y51492D02*
X23083D01*
X21883Y51592D02*
X23083D01*
X21983Y51692D02*
X23083D01*
X21983Y51792D02*
X23083D01*
X22083Y51892D02*
X23083D01*
X22183Y51992D02*
X23083D01*
X22183Y52092D02*
X23183D01*
X22283Y52192D02*
X23183D01*
X22483Y52392D02*
X23283D01*
X22683Y52492D02*
X23483D01*
X22383Y52292D02*
X23183D01*
X22883Y52592D02*
X24383D01*
X23083Y52692D02*
X24183D01*
X22983Y48792D02*
X24083D01*
X26683Y53292D02*
X26883D01*
X22983Y38292D02*
X23583D01*
X22983Y38392D02*
X23483D01*
X22983Y38492D02*
X23483D01*
X22983Y38592D02*
X23383D01*
X22983Y38692D02*
X23383D01*
X22983Y38792D02*
X23283D01*
X22983Y38892D02*
X23283D01*
X22983Y38992D02*
X23283D01*
X22983Y39092D02*
X23283D01*
X22983Y39192D02*
X23183D01*
X22983Y39292D02*
X23183D01*
X22983Y39392D02*
X23183D01*
X22983Y39492D02*
X23183D01*
X25583Y38292D02*
X26083D01*
X25483Y38392D02*
X26183D01*
X25383Y38492D02*
X26283D01*
X25283Y38592D02*
X26383D01*
X25283Y38692D02*
X26383D01*
X25283Y38792D02*
X26383D01*
X25283Y38892D02*
X26483D01*
X25283Y38992D02*
X26383D01*
X25283Y39092D02*
X26383D01*
X25283Y39192D02*
X26383D01*
X25383Y39292D02*
X26283D01*
X25483Y39392D02*
X26183D01*
X19983Y37492D02*
X24683D01*
X19983Y37592D02*
X24683D01*
X20683Y32192D02*
X22083D01*
X20283Y32892D02*
X20583D01*
X20283Y32992D02*
X20583D01*
X20283Y33092D02*
X20483D01*
X20183Y33192D02*
X20483D01*
X20183Y33292D02*
X20383D01*
X20083Y33392D02*
X20383D01*
X20083Y33492D02*
X20283D01*
X19983Y33592D02*
X20283D01*
X19983Y33692D02*
X20283D01*
X23183D02*
X23283D01*
X19883Y33792D02*
X20283D01*
X19883Y33892D02*
X20283D01*
X19883Y33992D02*
X20383D01*
X19783Y34092D02*
X20383D01*
X19783Y34192D02*
X20483D01*
X22283D02*
X22583D01*
X19683Y34292D02*
X20483D01*
X22183D02*
X22483D01*
X19683Y34392D02*
X20483D01*
X22083D02*
X22383D01*
X19683Y34492D02*
X20583D01*
X19583Y34592D02*
X20583D01*
X19583Y34692D02*
X20683D01*
X19483Y34792D02*
X20683D01*
X19483Y34892D02*
X20783D01*
X19483Y34992D02*
X20783D01*
X19383Y35092D02*
X20783D01*
X19383Y35192D02*
X20883D01*
X19283Y35292D02*
X20883D01*
X19283Y35392D02*
X20983D01*
X19183Y35492D02*
X19483D01*
X19683D02*
X20983D01*
X19183Y35592D02*
X19483D01*
X19683D02*
X21083D01*
X19083Y35692D02*
X19383D01*
X19783D02*
X21083D01*
X19083Y35792D02*
X19383D01*
X19783D02*
X21083D01*
X19083Y35892D02*
X19283D01*
X19783D02*
X21183D01*
X19883Y35992D02*
X21183D01*
X19883Y36092D02*
X21283D01*
X19983Y36192D02*
X21283D01*
X20083Y36392D02*
X21383D01*
X20083Y36492D02*
X21383D01*
X20183Y36592D02*
X21483D01*
X20183Y36692D02*
X21483D01*
X20283Y36792D02*
X21583D01*
X20283Y36892D02*
X21583D01*
X20383Y36992D02*
X21683D01*
X20383Y37092D02*
X21683D01*
X20383Y37192D02*
X21783D01*
X20483Y37292D02*
X21783D01*
X20483Y37392D02*
X21783D01*
X19983Y36292D02*
X21383D01*
X22783Y33792D02*
X23683D01*
X22583Y33892D02*
X23883D01*
X22383Y33992D02*
X23983D01*
X22283Y34092D02*
X24083D01*
X22983Y34192D02*
X24183D01*
X22983Y34292D02*
X24183D01*
X22983Y34392D02*
X24183D01*
X22983Y34492D02*
X24183D01*
X22983Y34592D02*
X24283D01*
X22983Y34692D02*
X24283D01*
X22983Y34792D02*
X24283D01*
X22983Y34892D02*
X24283D01*
X22983Y34992D02*
X24283D01*
X22983Y35092D02*
X24283D01*
X22983Y35192D02*
X24283D01*
X22983Y35292D02*
X24283D01*
X22983Y35392D02*
X24283D01*
X22983Y35492D02*
X24283D01*
X22983Y35592D02*
X24283D01*
X22983Y35692D02*
X24283D01*
X22983Y35792D02*
X24283D01*
X22983Y35892D02*
X24283D01*
X22983Y35992D02*
X24283D01*
X22983Y36092D02*
X24283D01*
X22983Y36192D02*
X24283D01*
X22983Y36392D02*
X24283D01*
X22983Y36492D02*
X24283D01*
X22983Y36592D02*
X24283D01*
X22983Y36692D02*
X24283D01*
X22983Y36792D02*
X24283D01*
X22983Y36892D02*
X24283D01*
X22983Y36992D02*
X24283D01*
X22983Y37092D02*
X24283D01*
X22983Y37192D02*
X24283D01*
X22983Y37292D02*
X24283D01*
X22983Y37392D02*
X24283D01*
X22983Y37692D02*
X24483D01*
X22983Y37792D02*
X24183D01*
X22983Y37892D02*
X23983D01*
X22983Y37992D02*
X23883D01*
X22983Y38092D02*
X23783D01*
X22983Y36292D02*
X24283D01*
X20583Y32292D02*
X22083D01*
X20483Y32392D02*
X20783D01*
X20883D02*
X22083D01*
X20483Y32492D02*
X20783D01*
X20883D02*
X22083D01*
X20483Y32592D02*
X20683D01*
X20983D02*
X21983D01*
X20383Y32692D02*
X20683D01*
X21083D02*
X21883D01*
X20383Y32792D02*
X20683D01*
X21183D02*
X21783D01*
X21183Y31692D02*
X21683D01*
X20983Y31792D02*
X21883D01*
X20883Y31892D02*
X21983D01*
X20783Y31992D02*
X21983D01*
X20683Y32092D02*
X22083D01*
X25283Y34092D02*
X26483D01*
X25283Y34192D02*
X26483D01*
X25283Y34292D02*
X26483D01*
X25283Y34392D02*
X26483D01*
X25283Y34492D02*
X26483D01*
X25283Y34592D02*
X26483D01*
X25283Y34692D02*
X26483D01*
X25283Y34792D02*
X26483D01*
X25283Y34892D02*
X26483D01*
X25283Y34992D02*
X26483D01*
X25283Y35092D02*
X26483D01*
X25283Y35192D02*
X26483D01*
X25283Y35292D02*
X26483D01*
X25283Y35392D02*
X26483D01*
X25283Y35492D02*
X26483D01*
X25283Y35592D02*
X26483D01*
X25283Y35692D02*
X26483D01*
X25283Y35792D02*
X26483D01*
X25283Y35892D02*
X26483D01*
X25283Y35992D02*
X26483D01*
X25283Y36092D02*
X26483D01*
X25283Y36192D02*
X26483D01*
X25283Y36392D02*
X26483D01*
X25283Y36492D02*
X26483D01*
X25283Y36592D02*
X26483D01*
X25283Y36692D02*
X26483D01*
X25283Y36792D02*
X26483D01*
X25283Y36892D02*
X26483D01*
X25283Y36992D02*
X26483D01*
X25283Y37092D02*
X26483D01*
X25283Y37192D02*
X26483D01*
X25283Y37292D02*
X26483D01*
X25283Y37392D02*
X26483D01*
X25283Y36292D02*
X26483D01*
X32583Y49492D02*
X32883D01*
X32583Y49592D02*
X32883D01*
X32483Y49692D02*
X32783D01*
X32483Y49792D02*
X32783D01*
X32383Y49892D02*
X32683D01*
X32383Y49992D02*
X32683D01*
X32383Y50092D02*
X32583D01*
X32283Y50192D02*
X32583D01*
X32383Y51292D02*
X33683D01*
X32383Y51392D02*
X33683D01*
X32483Y51492D02*
X33683D01*
X32483Y51592D02*
X33683D01*
X32483Y51692D02*
X33683D01*
X32583Y51792D02*
X33683D01*
X28583Y48192D02*
X28983D01*
X31583D02*
X32083D01*
X28583Y48892D02*
X31983D01*
X30283Y50192D02*
X30583D01*
X29783Y50292D02*
X30883D01*
X29583Y50392D02*
X31383D01*
X29383Y50492D02*
X30183D01*
X30683D02*
X31383D01*
X29283Y50592D02*
X30083D01*
X30783D02*
X31483D01*
X29183Y50692D02*
X29983D01*
X29083Y50792D02*
X29983D01*
X29083Y50892D02*
X29883D01*
X28983Y50992D02*
X29883D01*
X28983Y51092D02*
X29883D01*
X28883Y51192D02*
X29883D01*
X28883Y51292D02*
X29883D01*
X28883Y51392D02*
X29883D01*
X28883Y51492D02*
X29883D01*
X28883Y51592D02*
X29883D01*
X28883Y51692D02*
X29883D01*
X28883Y51792D02*
X29883D01*
X28983Y51892D02*
X29883D01*
X28283Y51992D02*
X28683D01*
X28983D02*
X29883D01*
X28183Y52092D02*
X28783D01*
X29083D02*
X29883D01*
X28183Y52192D02*
X28883D01*
X29083D02*
X29883D01*
X28083Y52392D02*
X28883D01*
X29183D02*
X29983D01*
X30883D02*
X31583D01*
X28183Y52492D02*
X28783D01*
X28883D02*
X29283D01*
X29383D02*
X30183D01*
X30683D02*
X31383D01*
X28283Y52592D02*
X29183D01*
X29583D02*
X31183D01*
X28483Y52692D02*
X28983D01*
X29783D02*
X30983D01*
X28083Y52292D02*
X28883D01*
X29183D02*
X29983D01*
X28683Y48992D02*
X31983D01*
X28683Y49092D02*
X32083D01*
X28783Y49192D02*
X32083D01*
X28783Y49292D02*
X32083D01*
X28983Y49392D02*
X32083D01*
X29083Y49492D02*
X32083D01*
X29383Y49592D02*
X32083D01*
X31583Y49692D02*
X32083D01*
X31683Y49792D02*
X32083D01*
X31683Y49892D02*
X31983D01*
X31583Y49992D02*
X31983D01*
X31583Y50092D02*
X31883D01*
X31383Y50192D02*
X31783D01*
X31083Y50292D02*
X31683D01*
X30883Y50692D02*
X31683D01*
X30883Y50792D02*
X31783D01*
X30883Y50892D02*
X31783D01*
X30883Y50992D02*
X31883D01*
X30883Y51092D02*
X31883D01*
X30983Y51192D02*
X31983D01*
X30983Y51292D02*
X31983D01*
X30983Y51392D02*
X31983D01*
X30983Y51492D02*
X31983D01*
X30983Y51592D02*
X31983D01*
X30983Y51692D02*
X31983D01*
X30983Y51792D02*
X31983D01*
X30983Y51892D02*
X31883D01*
X30883Y51992D02*
X31883D01*
X30883Y52092D02*
X31783D01*
X30883Y52192D02*
X31783D01*
X30883Y52292D02*
X31683D01*
X28583Y48292D02*
X28983D01*
X28583Y48392D02*
X29083D01*
X28583Y48492D02*
X29483D01*
X31483Y48292D02*
X31983D01*
X31483Y48392D02*
X31883D01*
X31383Y48492D02*
X31683D01*
X28583Y48592D02*
X31683D01*
X28583Y48692D02*
X31883D01*
X28583Y48792D02*
X31983D01*
X31783Y47492D02*
X32283D01*
X31783Y47592D02*
X32283D01*
X31783Y47692D02*
X32283D01*
X31783Y47792D02*
X32283D01*
X31783Y47892D02*
X32283D01*
X29983Y46592D02*
X31183D01*
X29683Y46692D02*
X31483D01*
X29483Y46792D02*
X30183D01*
X29283Y46892D02*
X29783D01*
X29183Y46992D02*
X29583D01*
X29083Y47092D02*
X29483D01*
X28983Y47192D02*
X29283D01*
X28883Y47292D02*
X29183D01*
X28783Y47392D02*
X29183D01*
X28783Y47492D02*
X29083D01*
X28683Y47592D02*
X28983D01*
X28683Y47692D02*
X28983D01*
X28683Y47792D02*
X28983D01*
X28683Y47892D02*
X28883D01*
X28583Y47992D02*
X28883D01*
X28583Y48092D02*
X28983D01*
X30983Y46792D02*
X31683D01*
X31283Y46892D02*
X31883D01*
X31483Y46992D02*
X31983D01*
X31583Y47092D02*
X32083D01*
X31583Y47192D02*
X32183D01*
X31683Y47292D02*
X32183D01*
X31683Y47392D02*
X32283D01*
X31683Y47992D02*
X32183D01*
X31683Y48092D02*
X32183D01*
X33583Y52692D02*
X34683D01*
X33583Y48792D02*
X34683D01*
X32983Y49092D02*
X33283D01*
X32883Y49192D02*
X33183D01*
X32783Y49292D02*
X33083D01*
X32683Y49392D02*
X32983D01*
X32683Y51892D02*
X33683D01*
X32683Y51992D02*
X33683D01*
X32783Y52092D02*
X33683D01*
X32883Y52192D02*
X33683D01*
X33083Y52392D02*
X33783D01*
X33183Y52492D02*
X33983D01*
X32983Y52292D02*
X33783D01*
X32583Y44692D02*
X32983D01*
X32383Y44792D02*
X32883D01*
X30883Y44892D02*
X32783D01*
X30883Y44992D02*
X32583D01*
X29883Y41292D02*
X32183D01*
X29883Y41392D02*
X32183D01*
X30483Y41492D02*
X31783D01*
X30483Y41592D02*
X31783D01*
X30483Y41692D02*
X31783D01*
X30483Y41792D02*
X31783D01*
X30483Y41892D02*
X31783D01*
X30483Y41992D02*
X31783D01*
X30483Y42092D02*
X31783D01*
X30483Y42192D02*
X31783D01*
X30483Y42292D02*
X31783D01*
X30483Y42392D02*
X31783D01*
X30483Y42492D02*
X31783D01*
X30483Y42592D02*
X31783D01*
X30483Y42692D02*
X31783D01*
X30483Y42792D02*
X31783D01*
X30483Y42892D02*
X31783D01*
X30483Y42992D02*
X31783D01*
X30483Y43092D02*
X31783D01*
X30483Y43192D02*
X31783D01*
X30483Y43292D02*
X31783D01*
X30483Y43392D02*
X31783D01*
X30483Y43492D02*
X31783D01*
X30483Y43592D02*
X31783D01*
X30483Y43692D02*
X31783D01*
X30483Y43792D02*
X31783D01*
X30483Y43892D02*
X31783D01*
X30483Y43992D02*
X31783D01*
X30483Y44092D02*
X31783D01*
X30583Y44192D02*
X31783D01*
X30583Y44392D02*
X31783D01*
X30583Y44492D02*
X31783D01*
X30683Y44592D02*
X31783D01*
X30683Y44692D02*
X31883D01*
X30783Y44792D02*
X31983D01*
X31083Y45092D02*
X32383D01*
X31383Y45192D02*
X32083D01*
X30583Y44292D02*
X31783D01*
X33183Y41492D02*
X34383D01*
X33183Y41592D02*
X34383D01*
X33183Y41692D02*
X34383D01*
X33183Y41792D02*
X34383D01*
X33183Y41892D02*
X34383D01*
X33183Y41992D02*
X34383D01*
X33183Y42092D02*
X34383D01*
X33183Y42192D02*
X34383D01*
X33183Y42292D02*
X34383D01*
X33183Y42392D02*
X34383D01*
X33183Y42492D02*
X34383D01*
X33183Y42592D02*
X34383D01*
X33183Y42692D02*
X34383D01*
X33183Y42792D02*
X34383D01*
X33183Y42892D02*
X34383D01*
X33183Y42992D02*
X34383D01*
X33183Y43092D02*
X34383D01*
X33183Y43192D02*
X34383D01*
X33183Y43292D02*
X34383D01*
X33183Y43392D02*
X34383D01*
X33183Y43492D02*
X34383D01*
X33183Y43592D02*
X34383D01*
X33183Y43692D02*
X34383D01*
X33183Y43792D02*
X34383D01*
X33083Y43892D02*
X34383D01*
X33083Y43992D02*
X34383D01*
X33083Y44092D02*
X34383D01*
X32983Y44192D02*
X34383D01*
X32883Y44392D02*
X34383D01*
X32783Y44492D02*
X33083D01*
X33183D02*
X34383D01*
X32683Y44592D02*
X33083D01*
X33183D02*
X34383D01*
X33183Y44692D02*
X34383D01*
X33183Y44792D02*
X34383D01*
X32983Y44292D02*
X34383D01*
X32183Y34092D02*
X33383D01*
X32183Y34192D02*
X33383D01*
X32183Y34292D02*
X33383D01*
X32183Y34392D02*
X33383D01*
X32183Y34492D02*
X33383D01*
X32183Y34592D02*
X33383D01*
X32183Y34692D02*
X33383D01*
X32183Y34792D02*
X33383D01*
X32183Y34892D02*
X33383D01*
X32183Y34992D02*
X33383D01*
X32183Y35092D02*
X33383D01*
X32183Y35192D02*
X33383D01*
X32183Y35292D02*
X33383D01*
X32183Y35392D02*
X33383D01*
X32183Y35492D02*
X33383D01*
X32183Y35592D02*
X33383D01*
X32183Y35692D02*
X33383D01*
X32183Y35792D02*
X33383D01*
X32183Y35892D02*
X33383D01*
X32183Y35992D02*
X33383D01*
X32183Y36092D02*
X33383D01*
X32183Y36192D02*
X33383D01*
X32083Y36392D02*
X33383D01*
X32083Y36492D02*
X33383D01*
X32083Y36592D02*
X33383D01*
X32083Y36692D02*
X33383D01*
X31983Y36792D02*
X33383D01*
X31983Y36892D02*
X33383D01*
X31983Y36992D02*
X33383D01*
X32183Y37092D02*
X33383D01*
X32183Y37192D02*
X33383D01*
X32183Y37292D02*
X33383D01*
X32183Y37392D02*
X33383D01*
X32183Y37492D02*
X33983D01*
X32183Y37592D02*
X33983D01*
X32083Y36292D02*
X33383D01*
X31383Y33892D02*
X33983D01*
X31383Y33992D02*
X33983D01*
X31883Y37092D02*
X32083D01*
X31883Y37192D02*
X32083D01*
X31783Y37292D02*
X31983D01*
X28483Y33692D02*
X28683D01*
X29883D02*
X30083D01*
X28083Y33792D02*
X29183D01*
X29783D02*
X30083D01*
X27883Y33892D02*
X29483D01*
X29683D02*
X30083D01*
X27683Y33992D02*
X28383D01*
X28783D02*
X30083D01*
X27583Y34092D02*
X28083D01*
X29083D02*
X30083D01*
X27483Y34192D02*
X27883D01*
X29283D02*
X30083D01*
X27483Y34292D02*
X27883D01*
X29383D02*
X30083D01*
X27383Y34392D02*
X27783D01*
X29483D02*
X30083D01*
X27383Y34492D02*
X27783D01*
X29583D02*
X30083D01*
X27283Y34592D02*
X27783D01*
X29683D02*
X30083D01*
X27283Y34692D02*
X27783D01*
X29683D02*
X30083D01*
X27183Y34792D02*
X27783D01*
X29783D02*
X30083D01*
X27183Y34892D02*
X27783D01*
X29783D02*
X30083D01*
X27183Y34992D02*
X27883D01*
X29783D02*
X30083D01*
X27183Y35092D02*
X28183D01*
X29883D02*
X30083D01*
X27183Y35192D02*
X28883D01*
X27183Y35292D02*
X29383D01*
X27183Y35392D02*
X29583D01*
X27183Y35492D02*
X29783D01*
X27283Y35592D02*
X29883D01*
X27283Y35692D02*
X29883D01*
X27383Y35792D02*
X29983D01*
X27383Y35892D02*
X29983D01*
X27483Y35992D02*
X30083D01*
X27583Y36092D02*
X30083D01*
X27783Y36192D02*
X30083D01*
X28583Y36392D02*
X30083D01*
X29183Y36492D02*
X30083D01*
X27483Y36592D02*
X27683D01*
X29483D02*
X30083D01*
X30683D02*
X31283D01*
X27483Y36692D02*
X27683D01*
X29583D02*
X30083D01*
X30483D02*
X31383D01*
X27483Y36792D02*
X27783D01*
X29583D02*
X30083D01*
X30383D02*
X31483D01*
X27483Y36892D02*
X27783D01*
X29583D02*
X30083D01*
X30383D02*
X31583D01*
X27483Y36992D02*
X27883D01*
X29583D02*
X29983D01*
X30383D02*
X31583D01*
X27483Y37092D02*
X27983D01*
X29583D02*
X29983D01*
X30283D02*
X31583D01*
X27483Y37192D02*
X27983D01*
X29583D02*
X29883D01*
X30283D02*
X31583D01*
X27483Y37292D02*
X28183D01*
X29483D02*
X29783D01*
X30283D02*
X31583D01*
X27483Y37392D02*
X28283D01*
X29383D02*
X29783D01*
X27483Y37492D02*
X28483D01*
X29083D02*
X29683D01*
X27483Y37592D02*
X27783D01*
X27983D02*
X29483D01*
X27483Y37692D02*
X27683D01*
X28383D02*
X29283D01*
X30583D02*
X31583D01*
X30783Y37792D02*
X31383D01*
X28083Y36292D02*
X30083D01*
X30383Y37392D02*
X31983D01*
X30383Y37492D02*
X31883D01*
X30483Y37592D02*
X31783D01*
X34583Y34192D02*
X34883D01*
X34483Y34292D02*
X34783D01*
X34383Y34392D02*
X34683D01*
X34283Y34492D02*
X34583D01*
X34283Y34592D02*
X34483D01*
X34183Y34692D02*
X34483D01*
X34183Y34792D02*
X34383D01*
X34183Y34892D02*
X34383D01*
X34083Y34992D02*
X34383D01*
X34083Y35092D02*
X34283D01*
X34083Y35192D02*
X34283D01*
X38783Y48892D02*
X41183D01*
X38783Y48992D02*
X41183D01*
X39383Y49092D02*
X40583D01*
X39383Y49192D02*
X40583D01*
X39383Y49292D02*
X40583D01*
X39383Y49392D02*
X40583D01*
X39383Y49492D02*
X40583D01*
X39383Y49592D02*
X40583D01*
X39383Y49692D02*
X40583D01*
X39383Y49792D02*
X40583D01*
X39383Y49892D02*
X40583D01*
X39383Y49992D02*
X40583D01*
X39383Y50092D02*
X40583D01*
X39383Y50192D02*
X40583D01*
X39383Y50292D02*
X40583D01*
X39383Y50392D02*
X40583D01*
X39383Y50492D02*
X40583D01*
X39383Y50592D02*
X40583D01*
X39383Y50692D02*
X40583D01*
X39383Y50792D02*
X40583D01*
X39383Y50992D02*
X40583D01*
X39383Y51092D02*
X40583D01*
X39383Y51192D02*
X40583D01*
X39383Y51292D02*
X40583D01*
X39283Y51392D02*
X40583D01*
X39283Y51492D02*
X40583D01*
X39283Y51592D02*
X40583D01*
X39183Y51692D02*
X40583D01*
X39183Y51792D02*
X40583D01*
X39083Y51892D02*
X40583D01*
X38983Y51992D02*
X40583D01*
X39383Y52092D02*
X40583D01*
X39383Y52192D02*
X40583D01*
X39383Y50892D02*
X40583D01*
X39383Y52392D02*
X40583D01*
X39383Y52492D02*
X41183D01*
X39383Y52592D02*
X41183D01*
X39383Y52292D02*
X40583D01*
X39683Y46292D02*
X40983D01*
X39683Y46392D02*
X40983D01*
X39683Y46492D02*
X40983D01*
X39683Y46592D02*
X40983D01*
X39683Y46692D02*
X40983D01*
X39683Y46792D02*
X40983D01*
X39683Y46892D02*
X40983D01*
X39683Y46992D02*
X40983D01*
X39683Y47092D02*
X40983D01*
X39683Y47192D02*
X41483D01*
X39683Y47292D02*
X41483D01*
X36083Y48892D02*
X38383D01*
X36083Y48992D02*
X38383D01*
X36683Y49092D02*
X37883D01*
X36683Y49192D02*
X37883D01*
X36683Y49292D02*
X37883D01*
X36683Y49392D02*
X37883D01*
X36683Y49492D02*
X37883D01*
X36683Y49592D02*
X37883D01*
X36683Y49692D02*
X37883D01*
X36683Y49792D02*
X37883D01*
X36683Y49892D02*
X37883D01*
X36683Y49992D02*
X37883D01*
X36683Y50092D02*
X37883D01*
X36683Y50192D02*
X37883D01*
X36683Y50292D02*
X37883D01*
X36683Y50392D02*
X37883D01*
X36683Y50492D02*
X37883D01*
X36683Y50592D02*
X37883D01*
X36683Y50692D02*
X37883D01*
X36683Y50792D02*
X37883D01*
X36683Y50892D02*
X37883D01*
X36683Y50992D02*
X37883D01*
X36683Y51092D02*
X37883D01*
X36683Y51192D02*
X37883D01*
X36683Y51292D02*
X37883D01*
X36683Y51392D02*
X37883D01*
X36683Y51492D02*
X37883D01*
X36683Y51592D02*
X37883D01*
X36683Y51692D02*
X37883D01*
X36683Y51792D02*
X37883D01*
X36683Y51892D02*
X37883D01*
X36783Y51992D02*
X37883D01*
X36783Y52092D02*
X37883D01*
X38983D02*
X39283D01*
X36783Y52192D02*
X37983D01*
X38883D02*
X39183D01*
X36883Y52392D02*
X38083D01*
X38683D02*
X39083D01*
X36983Y52492D02*
X38883D01*
X37083Y52592D02*
X38683D01*
X37283Y52692D02*
X38583D01*
X37583Y52792D02*
X38183D01*
X36883Y52292D02*
X37983D01*
X38783D02*
X39183D01*
X41483Y51792D02*
X42583D01*
X41383Y51892D02*
X42583D01*
X41383Y51992D02*
X42583D01*
X41283Y52092D02*
X42583D01*
X41283Y52192D02*
X42583D01*
X41383Y52392D02*
X42583D01*
X41383Y52492D02*
X42883D01*
X41483Y52592D02*
X42783D01*
X41583Y52692D02*
X42583D01*
X41383Y52292D02*
X42583D01*
X41683Y51592D02*
X42383D01*
X41483Y51692D02*
X42483D01*
X41783Y52792D02*
X42283D01*
X39083Y41292D02*
X41483D01*
X39083Y41392D02*
X41483D01*
X39683Y41492D02*
X40983D01*
X39683Y41592D02*
X40983D01*
X39683Y41692D02*
X40983D01*
X39683Y41792D02*
X40983D01*
X39683Y41892D02*
X40983D01*
X39683Y41992D02*
X40983D01*
X39683Y42092D02*
X40983D01*
X39683Y42192D02*
X40983D01*
X39683Y42292D02*
X40983D01*
X39683Y42392D02*
X40983D01*
X39683Y42492D02*
X40983D01*
X39683Y42592D02*
X40983D01*
X39683Y42692D02*
X40983D01*
X39683Y42792D02*
X40983D01*
X39683Y42892D02*
X40983D01*
X39683Y42992D02*
X40983D01*
X39683Y43092D02*
X40983D01*
X39683Y43192D02*
X40983D01*
X39683Y43292D02*
X40983D01*
X39683Y43392D02*
X40983D01*
X39683Y43492D02*
X40983D01*
X39683Y43592D02*
X40983D01*
X39683Y43692D02*
X40983D01*
X39683Y43792D02*
X40983D01*
X39683Y43892D02*
X40983D01*
X39683Y43992D02*
X40983D01*
X39683Y44092D02*
X40983D01*
X39683Y44192D02*
X40983D01*
X39683Y44392D02*
X40983D01*
X39683Y44492D02*
X40983D01*
X39683Y44592D02*
X40983D01*
X39683Y44692D02*
X40983D01*
X39683Y44792D02*
X40983D01*
X39683Y44892D02*
X40983D01*
X39683Y44992D02*
X40983D01*
X39683Y45092D02*
X40983D01*
X39683Y45192D02*
X40983D01*
X39683Y45292D02*
X40983D01*
X39683Y45392D02*
X40983D01*
X39683Y45492D02*
X40983D01*
X39683Y45592D02*
X40983D01*
X39683Y45692D02*
X40983D01*
X39683Y45792D02*
X40983D01*
X39683Y45892D02*
X40983D01*
X39683Y45992D02*
X40983D01*
X39683Y46092D02*
X40983D01*
X39683Y44292D02*
X40983D01*
X36583Y41192D02*
X37583D01*
X36183Y41292D02*
X37983D01*
X35983Y41392D02*
X36783D01*
X37283D02*
X38183D01*
X35783Y41492D02*
X36583D01*
X37483D02*
X38283D01*
X35683Y41592D02*
X36483D01*
X37583D02*
X38483D01*
X35583Y41692D02*
X36483D01*
X37583D02*
X38583D01*
X35483Y41792D02*
X36383D01*
X37683D02*
X38683D01*
X35383Y41892D02*
X36383D01*
X37683D02*
X38683D01*
X35383Y41992D02*
X36383D01*
X37683D02*
X38783D01*
X35283Y42092D02*
X36383D01*
X37783D02*
X38883D01*
X35183Y42192D02*
X36383D01*
X37783D02*
X38883D01*
X35183Y42292D02*
X36383D01*
X37783D02*
X38983D01*
X35083Y42392D02*
X36383D01*
X37783D02*
X38983D01*
X35083Y42492D02*
X36383D01*
X37783D02*
X38983D01*
X35083Y42592D02*
X36383D01*
X37783D02*
X39083D01*
X37783Y42692D02*
X39083D01*
X37783Y42792D02*
X39083D01*
X37783Y42892D02*
X39083D01*
X37783Y42992D02*
X39083D01*
X37783Y43092D02*
X39183D01*
X37783Y43192D02*
X39183D01*
X37783Y43292D02*
X39083D01*
X37783Y43392D02*
X39083D01*
X37783Y43492D02*
X39083D01*
X37783Y43592D02*
X39083D01*
X35083Y43692D02*
X36383D01*
X37783D02*
X39083D01*
X35083Y43792D02*
X36383D01*
X37783D02*
X39083D01*
X35083Y43892D02*
X36383D01*
X37783D02*
X38983D01*
X35183Y43992D02*
X36383D01*
X37783D02*
X38983D01*
X35183Y44092D02*
X36383D01*
X37783D02*
X38883D01*
X35283Y44192D02*
X36383D01*
X37783D02*
X38883D01*
X35383Y44392D02*
X36383D01*
X37683D02*
X38683D01*
X35383Y44492D02*
X36383D01*
X37683D02*
X38683D01*
X35583Y44592D02*
X36483D01*
X37583D02*
X38583D01*
X35683Y44692D02*
X36483D01*
X37583D02*
X38483D01*
X35783Y44792D02*
X36583D01*
X37483D02*
X38283D01*
X35983Y44892D02*
X36783D01*
X37283D02*
X38183D01*
X36183Y44992D02*
X37983D01*
X36383Y45092D02*
X37683D01*
X36983Y45192D02*
X37183D01*
X35283Y44292D02*
X36383D01*
X37683D02*
X38783D01*
X39783Y36592D02*
X41083D01*
X39783Y36692D02*
X41083D01*
X39883Y36792D02*
X41183D01*
X39883Y36892D02*
X41183D01*
X39883Y36992D02*
X41283D01*
X39983Y37092D02*
X41283D01*
X39983Y37192D02*
X41383D01*
X40083Y37292D02*
X41383D01*
X40083Y37392D02*
X41383D01*
X38883Y35392D02*
X40583D01*
X39283Y35492D02*
X40583D01*
X39283Y35592D02*
X40683D01*
X39383Y35692D02*
X40683D01*
X39383Y35792D02*
X40783D01*
X39483Y35892D02*
X40783D01*
X39483Y35992D02*
X40883D01*
X39583Y36092D02*
X40883D01*
X39583Y36192D02*
X40883D01*
X39683Y36392D02*
X40983D01*
X39683Y36492D02*
X40983D01*
X39683Y37492D02*
X41883D01*
X39683Y37592D02*
X41883D01*
X39683Y36292D02*
X40983D01*
X35683Y33692D02*
X35983D01*
X35183Y33792D02*
X36483D01*
X35883Y33992D02*
X36883D01*
X36083Y34092D02*
X37083D01*
X36183Y34192D02*
X37183D01*
X36283Y34292D02*
X37283D01*
X36383Y34392D02*
X37383D01*
X36383Y34492D02*
X37483D01*
X36483Y34592D02*
X37483D01*
X36483Y34692D02*
X37583D01*
X36483Y34792D02*
X37583D01*
X36483Y34892D02*
X37683D01*
X36483Y34992D02*
X37683D01*
X36483Y35092D02*
X37683D01*
X36483Y35192D02*
X37783D01*
X36483Y35292D02*
X37783D01*
X36483Y35392D02*
X37783D01*
X36483Y35492D02*
X37783D01*
X38783D02*
X39083D01*
X36483Y35592D02*
X37783D01*
X38783D02*
X39083D01*
X36483Y35692D02*
X37783D01*
X38683D02*
X38983D01*
X36483Y35792D02*
X37783D01*
X38683D02*
X38983D01*
X36483Y35892D02*
X37783D01*
X38683D02*
X38883D01*
X38583Y35992D02*
X38883D01*
X38583Y36092D02*
X38783D01*
X36483Y36192D02*
X37783D01*
X38583D02*
X38783D01*
X36483Y36392D02*
X37683D01*
X38483D02*
X38683D01*
X36483Y36492D02*
X37683D01*
X38383D02*
X38683D01*
X36483Y36592D02*
X37583D01*
X38383D02*
X38683D01*
X36483Y36692D02*
X37583D01*
X38283D02*
X38583D01*
X36483Y36792D02*
X37483D01*
X38283D02*
X38583D01*
X36483Y36892D02*
X37483D01*
X38183D02*
X38483D01*
X36483Y36992D02*
X37383D01*
X38183D02*
X38483D01*
X36483Y37092D02*
X37283D01*
X38083D02*
X38483D01*
X36383Y37192D02*
X37183D01*
X38083D02*
X38483D01*
X36383Y37292D02*
X37083D01*
X37983D02*
X38483D01*
X36283Y37392D02*
X36983D01*
X37783D02*
X38583D01*
X36083Y37492D02*
X36783D01*
X37583D02*
X38983D01*
X35183Y37592D02*
X36683D01*
X37583D02*
X38983D01*
X35383Y37692D02*
X36383D01*
X36483Y36292D02*
X37683D01*
X38483D02*
X38783D01*
X39583Y33692D02*
X39883D01*
X39583Y33792D02*
X39883D01*
X39483Y33892D02*
X39883D01*
X39483Y33992D02*
X39983D01*
X39383Y34092D02*
X39983D01*
X39383Y34192D02*
X39983D01*
X39383Y34292D02*
X40083D01*
X39283Y34392D02*
X40083D01*
X39283Y34492D02*
X40183D01*
X39183Y34592D02*
X40183D01*
X39183Y34692D02*
X40283D01*
X39083Y34792D02*
X40283D01*
X39083Y34892D02*
X40383D01*
X38983Y34992D02*
X40383D01*
X38983Y35092D02*
X40483D01*
X38983Y35192D02*
X40483D01*
X38883Y35292D02*
X40483D01*
X49983Y54292D02*
X50783D01*
X49983Y54392D02*
X50883D01*
X49983Y54792D02*
X50283D01*
X49983Y54892D02*
X50283D01*
X49983Y54992D02*
X50183D01*
X47283Y48892D02*
X48783D01*
X47883Y49092D02*
X49183D01*
X47983Y49192D02*
X49183D01*
X48083Y49292D02*
X49283D01*
X48083Y49392D02*
X49383D01*
X48183Y49492D02*
X49383D01*
X48183Y49592D02*
X49383D01*
X48183Y49692D02*
X49383D01*
X48183Y49792D02*
X49383D01*
X48183Y49892D02*
X49383D01*
X48183Y49992D02*
X49383D01*
X48183Y50092D02*
X49383D01*
X48183Y50192D02*
X49283D01*
X48183Y50292D02*
X49283D01*
X48083Y50392D02*
X49183D01*
X48083Y50492D02*
X49183D01*
X47983Y50592D02*
X48983D01*
X47783Y50692D02*
X48883D01*
X48183Y51392D02*
X48883D01*
X48083Y51492D02*
X48983D01*
X47983Y51592D02*
X48983D01*
X47983Y51692D02*
X49083D01*
X47983Y51792D02*
X49083D01*
X47983Y51892D02*
X49083D01*
X47983Y51992D02*
X49083D01*
X48083Y52092D02*
X48983D01*
X48183Y52192D02*
X48983D01*
X48383Y52392D02*
X48783D01*
X47983Y52492D02*
X48683D01*
X48383Y52292D02*
X48883D01*
X47183Y48992D02*
X48983D01*
X47083Y50792D02*
X48683D01*
X47583Y48792D02*
X48583D01*
X48483Y46292D02*
X49783D01*
X48483Y46392D02*
X49783D01*
X48483Y46492D02*
X49783D01*
X48483Y46592D02*
X49783D01*
X48483Y46692D02*
X49783D01*
X48483Y46792D02*
X49783D01*
X48483Y46892D02*
X50083D01*
X48483Y46992D02*
X50083D01*
X48483Y47092D02*
X49983D01*
X47883Y47192D02*
X49983D01*
X47883Y47292D02*
X49983D01*
X45383Y48892D02*
X46583D01*
X45283Y48992D02*
X46683D01*
X43183Y49092D02*
X44383D01*
X45183D02*
X45483D01*
X45583D02*
X46783D01*
X46983D02*
X47283D01*
X43183Y49192D02*
X44383D01*
X45183D02*
X45383D01*
X45683D02*
X47183D01*
X43183Y49292D02*
X44383D01*
X45083D02*
X45383D01*
X45683D02*
X47083D01*
X43183Y49392D02*
X44383D01*
X45083D02*
X45383D01*
X45683D02*
X46983D01*
X43183Y49492D02*
X44383D01*
X45083D02*
X45283D01*
X45683D02*
X46983D01*
X43183Y49592D02*
X44383D01*
X45683D02*
X46883D01*
X43183Y49692D02*
X44383D01*
X45683D02*
X46883D01*
X43183Y49792D02*
X44383D01*
X45683D02*
X46883D01*
X43183Y49892D02*
X44383D01*
X45683D02*
X46883D01*
X43183Y49992D02*
X44383D01*
X45683D02*
X46883D01*
X43183Y50092D02*
X44383D01*
X45683D02*
X46883D01*
X43183Y50192D02*
X44383D01*
X45683D02*
X46883D01*
X43183Y50292D02*
X44383D01*
X45683D02*
X46883D01*
X43183Y50392D02*
X44383D01*
X45683D02*
X46883D01*
X43183Y50492D02*
X44383D01*
X45683D02*
X46883D01*
X43183Y50592D02*
X44383D01*
X45683D02*
X46883D01*
X43183Y50692D02*
X44383D01*
X45683D02*
X46883D01*
X43183Y50792D02*
X44383D01*
X45683D02*
X46883D01*
X43183Y50892D02*
X44383D01*
X43183Y50992D02*
X44383D01*
X43183Y51092D02*
X44383D01*
X45683D02*
X46883D01*
X43183Y51192D02*
X44383D01*
X45683D02*
X46883D01*
X43183Y51292D02*
X44383D01*
X45683D02*
X46883D01*
X43183Y51392D02*
X44383D01*
X45683D02*
X46883D01*
X43183Y51492D02*
X44383D01*
X45683D02*
X46883D01*
X43083Y51592D02*
X44383D01*
X45683D02*
X46883D01*
X43083Y51692D02*
X44383D01*
X45683D02*
X46883D01*
X43083Y51792D02*
X44383D01*
X45783D02*
X46883D01*
X45783Y51892D02*
X46883D01*
X45783Y51992D02*
X46883D01*
X45883Y52092D02*
X46883D01*
X43183Y52192D02*
X44383D01*
X45883D02*
X46883D01*
X43183Y52392D02*
X44383D01*
X46083D02*
X46983D01*
X43183Y52492D02*
X44983D01*
X46283D02*
X47283D01*
X43183Y52592D02*
X44983D01*
X43183Y52292D02*
X44383D01*
X45983D02*
X46983D01*
X45683Y50892D02*
X48383D01*
X45683Y50992D02*
X47683D01*
X46483Y52592D02*
X48483D01*
X46683Y52692D02*
X48183D01*
X45583Y48792D02*
X46383D01*
X49983Y49492D02*
X50883D01*
X49983Y49592D02*
X50783D01*
X49983Y49692D02*
X50683D01*
X49983Y49792D02*
X50583D01*
X49983Y49892D02*
X50583D01*
X49983Y53892D02*
X50583D01*
X49983Y53992D02*
X50583D01*
X49983Y54092D02*
X50683D01*
X49983Y48892D02*
X50183D01*
X49983Y48992D02*
X50183D01*
X49983Y49092D02*
X50283D01*
X49983Y49992D02*
X50483D01*
X49983Y50092D02*
X50483D01*
X49983Y50192D02*
X50383D01*
X49983Y50292D02*
X50383D01*
X49983Y50392D02*
X50283D01*
X49983Y50492D02*
X50283D01*
X49983Y50592D02*
X50283D01*
X49983Y50692D02*
X50283D01*
X49983Y50792D02*
X50283D01*
X49983Y50892D02*
X50183D01*
X49983Y50992D02*
X50183D01*
X49983Y52992D02*
X50183D01*
X49983Y53092D02*
X50283D01*
X49983Y53192D02*
X50283D01*
X49983Y53292D02*
X50283D01*
X49983Y53392D02*
X50283D01*
X49983Y53492D02*
X50383D01*
X49983Y53592D02*
X50383D01*
X49983Y53692D02*
X50483D01*
X49983Y53792D02*
X50483D01*
X49983Y46292D02*
X50283D01*
X49983Y46392D02*
X50283D01*
X49983Y46492D02*
X50183D01*
X49983Y46592D02*
X50183D01*
X49883Y46692D02*
X50183D01*
X49883Y46792D02*
X50083D01*
X47883Y41292D02*
X50283D01*
X47883Y41392D02*
X50283D01*
X48483Y41492D02*
X49783D01*
X48483Y41592D02*
X49783D01*
X48483Y41692D02*
X49783D01*
X48483Y41792D02*
X49783D01*
X48483Y41892D02*
X49783D01*
X48483Y41992D02*
X49783D01*
X48483Y42092D02*
X49783D01*
X48483Y42192D02*
X49783D01*
X48483Y42292D02*
X49783D01*
X48483Y42392D02*
X49783D01*
X48483Y42492D02*
X49783D01*
X48483Y42592D02*
X49783D01*
X48483Y42692D02*
X49783D01*
X48483Y42792D02*
X49783D01*
X48483Y42892D02*
X49783D01*
X48483Y42992D02*
X49783D01*
X48483Y43092D02*
X49783D01*
X48483Y43192D02*
X49783D01*
X48483Y43292D02*
X49783D01*
X48483Y43392D02*
X49783D01*
X48483Y43492D02*
X49783D01*
X48483Y43592D02*
X49783D01*
X48483Y43692D02*
X49783D01*
X48483Y43792D02*
X49783D01*
X48483Y43892D02*
X49783D01*
X48483Y43992D02*
X49783D01*
X48483Y44092D02*
X49783D01*
X48483Y44192D02*
X49783D01*
X48483Y44392D02*
X49783D01*
X48483Y44492D02*
X49783D01*
X48483Y44592D02*
X49783D01*
X48483Y44692D02*
X49783D01*
X48483Y44792D02*
X49783D01*
X48483Y44892D02*
X49783D01*
X48483Y44992D02*
X49783D01*
X48483Y45092D02*
X49783D01*
X48483Y45192D02*
X49783D01*
X48483Y45292D02*
X49783D01*
X48483Y45392D02*
X49783D01*
X48483Y45492D02*
X49783D01*
X48483Y45592D02*
X49783D01*
X48483Y45692D02*
X49783D01*
X48483Y45792D02*
X49783D01*
X48483Y45892D02*
X49783D01*
X48483Y45992D02*
X49783D01*
X48483Y46092D02*
X49783D01*
X48483Y44292D02*
X49783D01*
X45383Y41192D02*
X46383D01*
X44983Y41292D02*
X46783D01*
X44883Y41392D02*
X45483D01*
X45783D02*
X46883D01*
X44683Y41492D02*
X45083D01*
X46083D02*
X47083D01*
X44583Y41592D02*
X44983D01*
X46283D02*
X47183D01*
X44483Y41692D02*
X44783D01*
X46383D02*
X47283D01*
X44483Y41792D02*
X44683D01*
X46383D02*
X47383D01*
X44383Y41892D02*
X44683D01*
X46483D02*
X47483D01*
X44283Y41992D02*
X44583D01*
X46483D02*
X47583D01*
X44283Y42092D02*
X44583D01*
X46483D02*
X47583D01*
X44283Y42192D02*
X44483D01*
X44183Y42292D02*
X44483D01*
X44183Y42392D02*
X44383D01*
X44183Y42492D02*
X44383D01*
X44083Y42592D02*
X44383D01*
X44183Y43592D02*
X45483D01*
X44183Y43692D02*
X45483D01*
X44183Y43792D02*
X45483D01*
X44183Y43892D02*
X45483D01*
X44283Y43992D02*
X45483D01*
X44283Y44092D02*
X45483D01*
X44283Y44192D02*
X45483D01*
X46583D02*
X47583D01*
X44483Y44392D02*
X45483D01*
X46483D02*
X47483D01*
X44483Y44492D02*
X45483D01*
X46483D02*
X47383D01*
X44683Y44592D02*
X45483D01*
X46483D02*
X47283D01*
X44783Y44692D02*
X45483D01*
X46383D02*
X47183D01*
X44883Y44792D02*
X45583D01*
X46383D02*
X47083D01*
X44983Y44892D02*
X45783D01*
X46183D02*
X46883D01*
X45183Y44992D02*
X46683D01*
X45383Y45092D02*
X46483D01*
X45783Y45192D02*
X45983D01*
X44383Y44292D02*
X45483D01*
X46583D02*
X47483D01*
X46483Y42192D02*
X47683D01*
X46483Y42292D02*
X47683D01*
X46583Y42392D02*
X47683D01*
X46583Y42492D02*
X47783D01*
X46583Y42592D02*
X47783D01*
X46583Y42692D02*
X47783D01*
X46583Y42792D02*
X47783D01*
X46583Y42892D02*
X47783D01*
X46583Y42992D02*
X47883D01*
X46583Y43092D02*
X47883D01*
X46583Y43192D02*
X47883D01*
X46583Y43292D02*
X47783D01*
X44083Y43392D02*
X47783D01*
X44083Y43492D02*
X47783D01*
X46583Y43592D02*
X47783D01*
X46583Y43692D02*
X47783D01*
X46583Y43792D02*
X47683D01*
X46583Y43892D02*
X47683D01*
X46583Y43992D02*
X47683D01*
X46583Y44092D02*
X47683D01*
X50583Y44592D02*
X50883D01*
X50583Y44692D02*
X50883D01*
X50583Y44792D02*
X50883D01*
X50483Y44892D02*
X50783D01*
X50483Y44992D02*
X50783D01*
X50483Y45092D02*
X50783D01*
X50383Y45192D02*
X50683D01*
X50383Y45292D02*
X50683D01*
X50383Y45392D02*
X50583D01*
X50283Y45492D02*
X50583D01*
X50283Y45592D02*
X50583D01*
X50183Y45692D02*
X50483D01*
X50183Y45792D02*
X50483D01*
X50183Y45892D02*
X50483D01*
X50083Y45992D02*
X50383D01*
X50083Y46092D02*
X50383D01*
X49083Y39792D02*
X50583D01*
X49083Y39892D02*
X50583D01*
X49683Y38292D02*
X49983D01*
X49683Y38392D02*
X49983D01*
X49683Y38492D02*
X49983D01*
X49683Y38592D02*
X49983D01*
X49683Y38692D02*
X49983D01*
X49683Y38792D02*
X49983D01*
X49683Y38892D02*
X49983D01*
X49683Y38992D02*
X49983D01*
X49683Y39092D02*
X49983D01*
X49683Y39192D02*
X49983D01*
X49683Y39292D02*
X49983D01*
X49683Y39392D02*
X49983D01*
X49683Y39492D02*
X49983D01*
X49583Y39592D02*
X50083D01*
X49483Y39692D02*
X50183D01*
X46883Y33792D02*
X49183D01*
X46883Y33892D02*
X49183D01*
X46883Y33992D02*
X49183D01*
X47383Y34092D02*
X48583D01*
X47383Y34192D02*
X48583D01*
X47383Y34292D02*
X48583D01*
X47383Y34392D02*
X48583D01*
X47383Y34492D02*
X48583D01*
X47383Y34592D02*
X48583D01*
X47383Y34692D02*
X48583D01*
X47383Y34792D02*
X48583D01*
X47383Y34892D02*
X48583D01*
X47383Y34992D02*
X48583D01*
X47383Y35092D02*
X48583D01*
X47383Y35192D02*
X48583D01*
X47383Y35292D02*
X48583D01*
X47383Y35392D02*
X48583D01*
X47383Y35492D02*
X48583D01*
X47383Y35592D02*
X48583D01*
X47383Y35692D02*
X48583D01*
X47383Y35792D02*
X48583D01*
X47383Y35892D02*
X48583D01*
X47383Y35992D02*
X48583D01*
X47383Y36092D02*
X48583D01*
X47383Y36192D02*
X48583D01*
X47383Y36392D02*
X48583D01*
X47383Y36492D02*
X48583D01*
X47283Y36592D02*
X48583D01*
X47283Y36692D02*
X48583D01*
X47183Y36792D02*
X48583D01*
X47083Y36892D02*
X48583D01*
X47083Y36992D02*
X48583D01*
X47383Y37092D02*
X48583D01*
X47383Y37192D02*
X48583D01*
X47383Y37292D02*
X48583D01*
X47383Y37392D02*
X48583D01*
X47383Y37492D02*
X49183D01*
X47383Y37592D02*
X49183D01*
X47383Y36292D02*
X48583D01*
X44183Y33792D02*
X46483D01*
X44183Y33892D02*
X46483D01*
X44183Y33992D02*
X46483D01*
X44783Y34092D02*
X45983D01*
X44783Y34192D02*
X45983D01*
X44783Y34292D02*
X45983D01*
X44783Y34392D02*
X45983D01*
X44783Y34492D02*
X45983D01*
X44783Y34592D02*
X45983D01*
X44783Y34692D02*
X45983D01*
X44783Y34792D02*
X45983D01*
X44783Y34892D02*
X45983D01*
X44783Y34992D02*
X45983D01*
X44783Y35092D02*
X45983D01*
X44783Y35192D02*
X45983D01*
X44783Y35292D02*
X45983D01*
X44783Y35392D02*
X45983D01*
X44783Y35492D02*
X45983D01*
X44783Y35592D02*
X45983D01*
X44783Y35692D02*
X45983D01*
X44783Y35792D02*
X45983D01*
X44783Y35892D02*
X45983D01*
X44783Y35992D02*
X45983D01*
X44783Y36092D02*
X45983D01*
X44783Y36192D02*
X45983D01*
X44783Y36392D02*
X45983D01*
X44783Y36492D02*
X45983D01*
X44783Y36592D02*
X45983D01*
X44783Y36692D02*
X45983D01*
X44783Y36792D02*
X45983D01*
X44783Y36892D02*
X45983D01*
X44783Y36992D02*
X45983D01*
X44883Y37092D02*
X45983D01*
X46983D02*
X47283D01*
X44883Y37192D02*
X45983D01*
X46883D02*
X47283D01*
X44983Y37292D02*
X46083D01*
X46783D02*
X47183D01*
X44983Y37392D02*
X46283D01*
X46583D02*
X47083D01*
X45083Y37492D02*
X46883D01*
X45183Y37592D02*
X46783D01*
X45383Y37692D02*
X46583D01*
X45683Y37792D02*
X46183D01*
X44783Y36292D02*
X45983D01*
X50283Y34192D02*
X50783D01*
X50183Y34292D02*
X50583D01*
X50083Y34392D02*
X50483D01*
X49983Y34492D02*
X50383D01*
X49983Y34592D02*
X50283D01*
X49883Y34692D02*
X50183D01*
X49883Y34792D02*
X50183D01*
X49883Y34892D02*
X50083D01*
X49783Y34992D02*
X50083D01*
X49783Y35092D02*
X50083D01*
X49783Y35192D02*
X49983D01*
X49783Y35292D02*
X49983D01*
X49683Y35392D02*
X49983D01*
X49683Y35492D02*
X49983D01*
X49683Y35592D02*
X49983D01*
X49683Y35692D02*
X49983D01*
X49683Y35792D02*
X49983D01*
X49683Y35892D02*
X49983D01*
X49683Y35992D02*
X49983D01*
X49683Y36092D02*
X49983D01*
X49683Y36192D02*
X49983D01*
X49683Y36392D02*
X49983D01*
X49683Y36492D02*
X49983D01*
X49683Y36592D02*
X49983D01*
X49683Y36692D02*
X49983D01*
X49683Y36792D02*
X49983D01*
X49683Y36892D02*
X49983D01*
X49683Y36992D02*
X49983D01*
X49683Y37092D02*
X49983D01*
X49683Y37192D02*
X49983D01*
X49683Y37292D02*
X49983D01*
X49683Y37392D02*
X49983D01*
X49683Y37492D02*
X49983D01*
X49683Y37592D02*
X49983D01*
X49683Y37692D02*
X49983D01*
X49683Y37792D02*
X49983D01*
X49683Y37892D02*
X49983D01*
X49683Y37992D02*
X49983D01*
X49683Y38092D02*
X49983D01*
X49683Y36292D02*
X49983D01*
X53083Y54292D02*
X54083D01*
X53083Y54392D02*
X53983D01*
X52983Y54492D02*
X53883D01*
X52883Y54592D02*
X53783D01*
X52783Y54692D02*
X53583D01*
X52683Y54792D02*
X53483D01*
X52483Y54892D02*
X53283D01*
X51183Y54992D02*
X53083D01*
X51383Y55092D02*
X52883D01*
X51783Y55192D02*
X52383D01*
X51083Y48892D02*
X53183D01*
X52483Y48992D02*
X53383D01*
X52783Y49092D02*
X53583D01*
X52883Y49192D02*
X53783D01*
X52983Y49292D02*
X53883D01*
X53083Y49392D02*
X53983D01*
X53083Y49492D02*
X54083D01*
X53183Y49592D02*
X54183D01*
X53183Y49692D02*
X54283D01*
X53283Y49792D02*
X54383D01*
X53283Y49892D02*
X54383D01*
X53283Y49992D02*
X54483D01*
X53283Y50092D02*
X54483D01*
X53283Y50192D02*
X54583D01*
X53383Y50292D02*
X54583D01*
X53383Y50392D02*
X54683D01*
X53383Y50492D02*
X54683D01*
X53383Y50592D02*
X54783D01*
X53383Y50692D02*
X54783D01*
X53383Y50792D02*
X54783D01*
X53383Y50892D02*
X54883D01*
X53383Y50992D02*
X54883D01*
X53483Y51092D02*
X54883D01*
X53483Y51192D02*
X54883D01*
X53483Y51292D02*
X54883D01*
X53483Y51392D02*
X54983D01*
X53483Y51492D02*
X54983D01*
X53483Y51592D02*
X54983D01*
X53483Y51692D02*
X54983D01*
X53483Y51792D02*
X54983D01*
X53483Y51892D02*
X54983D01*
X53483Y51992D02*
X54983D01*
X53483Y52092D02*
X54983D01*
X53483Y52192D02*
X54983D01*
X53483Y52392D02*
X54983D01*
X53483Y52492D02*
X54883D01*
X53483Y52592D02*
X54883D01*
X53483Y52692D02*
X54883D01*
X53483Y52792D02*
X54883D01*
X53383Y52892D02*
X54783D01*
X53383Y52992D02*
X54783D01*
X53383Y53092D02*
X54783D01*
X53383Y53192D02*
X54683D01*
X53383Y53292D02*
X54683D01*
X53383Y53392D02*
X54683D01*
X53383Y53492D02*
X54583D01*
X53283Y53592D02*
X54483D01*
X53283Y53692D02*
X54483D01*
X53283Y53792D02*
X54383D01*
X53283Y53892D02*
X54383D01*
X53283Y53992D02*
X54283D01*
X53183Y54092D02*
X54283D01*
X53483Y52292D02*
X54983D01*
X51983Y48692D02*
X52383D01*
X51383Y48792D02*
X52883D01*
X52383Y46292D02*
X53783D01*
X54183D02*
X54383D01*
X52383Y46392D02*
X53883D01*
X54183D02*
X54383D01*
X52483Y46492D02*
X53883D01*
X54183D02*
X54383D01*
X52483Y46592D02*
X53883D01*
X54183D02*
X54383D01*
X52483Y46692D02*
X53983D01*
X54183D02*
X54383D01*
X52583Y46792D02*
X53983D01*
X54183D02*
X54383D01*
X52583Y46892D02*
X54083D01*
X54183D02*
X54383D01*
X52683Y46992D02*
X54083D01*
X54183D02*
X54383D01*
X52683Y47092D02*
X54083D01*
X54183D02*
X54383D01*
X52683Y47192D02*
X54983D01*
X52783Y47292D02*
X54983D01*
X52783Y47392D02*
X54983D01*
X51783Y41292D02*
X52083D01*
X53483D02*
X54983D01*
X51783Y41392D02*
X52083D01*
X53483D02*
X54983D01*
X51683Y41492D02*
X52183D01*
X53783D02*
X54783D01*
X51683Y41592D02*
X52183D01*
X53983D02*
X54583D01*
X51683Y41692D02*
X52183D01*
X54083D02*
X54483D01*
X51583Y41792D02*
X52183D01*
X54083D02*
X54383D01*
X51583Y41892D02*
X52283D01*
X54083D02*
X54383D01*
X51483Y41992D02*
X52283D01*
X54183D02*
X54383D01*
X51483Y42092D02*
X52283D01*
X54183D02*
X54383D01*
X51483Y42192D02*
X52383D01*
X54183D02*
X54383D01*
X51383Y42292D02*
X52383D01*
X54183D02*
X54383D01*
X51383Y42392D02*
X52483D01*
X54183D02*
X54383D01*
X51383Y42492D02*
X52483D01*
X54183D02*
X54383D01*
X51283Y42592D02*
X52483D01*
X54183D02*
X54383D01*
X51283Y42692D02*
X52583D01*
X54183D02*
X54383D01*
X51283Y42792D02*
X52583D01*
X54183D02*
X54383D01*
X51183Y42892D02*
X52583D01*
X54183D02*
X54383D01*
X51183Y42992D02*
X52683D01*
X54183D02*
X54383D01*
X51183Y43092D02*
X52683D01*
X54183D02*
X54383D01*
X51083Y43192D02*
X52683D01*
X54183D02*
X54383D01*
X51083Y43292D02*
X52783D01*
X54183D02*
X54383D01*
X51083Y43392D02*
X51283D01*
X51383D02*
X52783D01*
X54183D02*
X54383D01*
X51483Y43492D02*
X52883D01*
X54183D02*
X54383D01*
X51483Y43592D02*
X52883D01*
X54183D02*
X54383D01*
X51483Y43692D02*
X52883D01*
X54183D02*
X54383D01*
X51583Y43792D02*
X52983D01*
X54183D02*
X54383D01*
X51583Y43892D02*
X52983D01*
X54183D02*
X54383D01*
X51583Y43992D02*
X52983D01*
X54183D02*
X54383D01*
X51683Y44092D02*
X53083D01*
X54183D02*
X54383D01*
X51683Y44192D02*
X53083D01*
X54183D02*
X54383D01*
X51783Y44392D02*
X53183D01*
X54183D02*
X54383D01*
X51783Y44492D02*
X53183D01*
X54183D02*
X54383D01*
X51883Y44592D02*
X53283D01*
X54183D02*
X54383D01*
X51883Y44692D02*
X53283D01*
X54183D02*
X54383D01*
X51883Y44792D02*
X53283D01*
X54183D02*
X54383D01*
X51983Y44892D02*
X53283D01*
X54183D02*
X54383D01*
X51983Y44992D02*
X53383D01*
X54183D02*
X54383D01*
X51983Y45092D02*
X53383D01*
X54183D02*
X54383D01*
X52083Y45192D02*
X53383D01*
X54183D02*
X54383D01*
X52083Y45292D02*
X53483D01*
X54183D02*
X54383D01*
X52083Y45392D02*
X53483D01*
X54183D02*
X54383D01*
X52183Y45492D02*
X53483D01*
X54183D02*
X54383D01*
X52183Y45592D02*
X53583D01*
X54183D02*
X54383D01*
X52183Y45692D02*
X53583D01*
X54183D02*
X54383D01*
X52183Y45792D02*
X53683D01*
X54183D02*
X54383D01*
X52283Y45892D02*
X53683D01*
X54183D02*
X54383D01*
X52283Y45992D02*
X53683D01*
X54183D02*
X54383D01*
X52283Y46092D02*
X53783D01*
X54183D02*
X54383D01*
X51683Y44292D02*
X53083D01*
X54183D02*
X54383D01*
X53083Y38292D02*
X54383D01*
X53083Y38392D02*
X54383D01*
X53083Y38492D02*
X54383D01*
X53083Y38592D02*
X54383D01*
X53083Y38692D02*
X54383D01*
X53083Y38792D02*
X54383D01*
X53083Y38892D02*
X54383D01*
X53083Y38992D02*
X54383D01*
X53083Y39092D02*
X54383D01*
X53083Y39192D02*
X54383D01*
X53083Y39292D02*
X54383D01*
X53083Y39392D02*
X54383D01*
X53083Y39492D02*
X54383D01*
X53083Y39592D02*
X54383D01*
X53083Y39692D02*
X54383D01*
X52483Y39792D02*
X54983D01*
X52483Y39892D02*
X54983D01*
X51483Y33692D02*
X52483D01*
X51083Y33792D02*
X52883D01*
X52083Y34092D02*
X53483D01*
X52283Y34192D02*
X53683D01*
X52483Y34292D02*
X53783D01*
X52583Y34392D02*
X53883D01*
X52683Y34492D02*
X53983D01*
X52783Y34592D02*
X53983D01*
X52783Y34692D02*
X54083D01*
X52883Y34792D02*
X54183D01*
X52883Y34892D02*
X54183D01*
X52883Y34992D02*
X54183D01*
X52983Y35092D02*
X54283D01*
X52983Y35192D02*
X54283D01*
X52983Y35292D02*
X54283D01*
X52983Y35392D02*
X54383D01*
X52983Y35492D02*
X54383D01*
X53083Y35592D02*
X54383D01*
X53083Y35692D02*
X54383D01*
X53083Y35792D02*
X54383D01*
X53083Y35892D02*
X54383D01*
X53083Y35992D02*
X54383D01*
X53083Y36092D02*
X54383D01*
X53083Y36192D02*
X54383D01*
X53083Y36392D02*
X54383D01*
X53083Y36492D02*
X54383D01*
X53083Y36592D02*
X54383D01*
X53083Y36692D02*
X54383D01*
X53083Y36792D02*
X54383D01*
X53083Y36892D02*
X54383D01*
X53083Y36992D02*
X54383D01*
X53083Y37092D02*
X54383D01*
X53083Y37192D02*
X54383D01*
X53083Y37292D02*
X54383D01*
X53083Y37392D02*
X54383D01*
X53083Y37492D02*
X54383D01*
X53083Y37592D02*
X54383D01*
X53083Y37692D02*
X54383D01*
X53083Y37792D02*
X54383D01*
X53083Y37892D02*
X54383D01*
X53083Y37992D02*
X54383D01*
X53083Y38092D02*
X54383D01*
X53083Y36292D02*
X54383D01*
D42*
X87106Y68898D02*
X165847D01*
X87106Y9843D02*
Y68898D01*
Y9843D02*
X165847D01*
Y68898D01*
D43*
X54318Y23054D02*
Y25186D01*
X53252Y26253D01*
X52185Y25186D01*
Y23054D01*
Y24653D01*
X54318D01*
X51119Y26253D02*
Y23054D01*
X49520D01*
X48987Y23587D01*
Y24120D01*
Y24653D01*
X49520Y25186D01*
X51119D01*
X47920Y23054D02*
X46321D01*
X45788Y23587D01*
X46321Y24120D01*
X47387D01*
X47920Y24653D01*
X47387Y25186D01*
X45788D01*
X44188Y25719D02*
Y25186D01*
X44721D01*
X43655D01*
X44188D01*
Y23587D01*
X43655Y23054D01*
X42055Y25186D02*
Y23054D01*
Y24120D01*
X41522Y24653D01*
X40989Y25186D01*
X40456D01*
X38323D02*
X37257D01*
X36724Y24653D01*
Y23054D01*
X38323D01*
X38856Y23587D01*
X38323Y24120D01*
X36724D01*
X33525Y25186D02*
X35124D01*
X35658Y24653D01*
Y23587D01*
X35124Y23054D01*
X33525D01*
X31925Y25719D02*
Y25186D01*
X32458D01*
X31392D01*
X31925D01*
Y23587D01*
X31392Y23054D01*
X26594Y26253D02*
Y23054D01*
X24461D01*
X22862Y25186D02*
X21795D01*
X21262Y24653D01*
Y23054D01*
X22862D01*
X23395Y23587D01*
X22862Y24120D01*
X21262D01*
X20196Y26253D02*
Y23054D01*
X18596D01*
X18063Y23587D01*
Y24120D01*
Y24653D01*
X18596Y25186D01*
X20196D01*
X54318Y20494D02*
Y17295D01*
Y18894D01*
X52185D01*
Y20494D01*
Y17295D01*
X51119Y20494D02*
Y17295D01*
X49520D01*
X48987Y17828D01*
Y19961D01*
X49520Y20494D01*
X51119D01*
X44721Y17295D02*
Y20494D01*
X43655Y19428D01*
X42589Y20494D01*
Y17295D01*
X41522D02*
Y20494D01*
X39390Y17295D01*
Y20494D01*
X35124D02*
Y17295D01*
X33525D01*
X32992Y17828D01*
Y18361D01*
X33525Y18894D01*
X35124D01*
X33525D01*
X32992Y19428D01*
Y19961D01*
X33525Y20494D01*
X35124D01*
X31925D02*
Y17295D01*
X29793D01*
X52185Y11536D02*
X54318D01*
X52185Y13669D01*
Y14202D01*
X52719Y14735D01*
X53785D01*
X54318Y14202D01*
X51119D02*
X50586Y14735D01*
X49520D01*
X48987Y14202D01*
Y12069D01*
X49520Y11536D01*
X50586D01*
X51119Y12069D01*
Y14202D01*
X47920Y11536D02*
X46854D01*
X47387D01*
Y14735D01*
X47920Y14202D01*
X45254Y12069D02*
X44721Y11536D01*
X43655D01*
X43122Y12069D01*
Y14202D01*
X43655Y14735D01*
X44721D01*
X45254Y14202D01*
Y13669D01*
X44721Y13136D01*
X43122D01*
M02*
