M48
;Layer_Color=9474304
;FILE_FORMAT=2:5
INCH,TZ
;TYPE=PLATED
T1F00S00C0.01181
T2F00S00C0.01968
;TYPE=NON_PLATED
T3F00S00C0.09843
%
T01
X60630Y2756
X63779
X67323
X70866
X74410
X77953
X77559Y5512
X81496Y2756
X85039
X88189
X91732
X95276
X98819
X102362
X105905
X109449
X112598
X116142
X119685
X123228
X126772
X130315
X133858
X137008
X140551
X144095
X147638
X151181
X154724
X152756Y17717
X145669
X138189
X133071
X127165
X121653
Y12598
X105905Y13386
Y7874
X89370Y11024
X83071Y21260
X68110Y19685
X60630
Y32283
X69291Y32677
X66142Y48819
X62992
Y62205
X66142
X69685
X73228
X76772
X80315
X79921Y73228
X83465
X87008
X90551
X93701
X97244
X100787
X104331
X106693Y61417
X107480Y51181
X103150Y46457
X97244
X87795Y48819
X103150Y40157
X109449
X127559Y35827
X124803Y32677
X134252Y41732
X139764
X145669
X151575
X150394Y58268
X144488Y52756
X145276Y73228
X141732
X149213
X152362
X155905
X135827Y70079
X127953Y66142
Y58661
X126772Y73228
X76378
X72835
X69291
X66142
X62598
X59055
X55512
X51968
X48425
X44882
X41732
X38189
X34646
X31102
X27559
X24016
X20472
X17323
X52756Y62205
X56299
X59449
X64961Y7480
X101969Y23622
X113386Y21260
X138189Y8661
X157087Y10236
X158661Y2756
X161811
X165354
X168898
X172441
X175984
X179528
Y6693
X175591
X171653
X164567Y15748
Y19685
Y23622
X171653Y32677
X175591
X179528
Y46063
X175591
X171653
X165354Y55118
Y59055
Y62992
X162992Y73228
X159449
X172441Y71260
X175591
X178740
X185827Y62992
Y59055
Y55118
Y23622
Y19685
Y15748
X157087Y37402
T02
X64567Y27953
X118898Y35039
X145669Y27953
T03
X7874Y70866
X187402
Y7874
M30
