G04*
G04 #@! TF.GenerationSoftware,Altium Limited,Altium Designer,19.1.5 (86)*
G04*
G04 Layer_Physical_Order=1*
G04 Layer_Color=255*
%FSLAX25Y25*%
%MOIN*%
G70*
G01*
G75*
%ADD14C,0.01000*%
%ADD15R,0.04528X0.01575*%
%ADD16R,0.03543X0.03150*%
%ADD17R,0.03150X0.03543*%
%ADD18R,0.02362X0.04921*%
%ADD19O,0.06299X0.01772*%
%ADD20R,0.10236X0.04331*%
%ADD21R,0.02000X0.07000*%
%ADD30C,0.01772*%
%ADD31C,0.03937*%
%ADD32C,0.02362*%
%ADD33C,0.02953*%
%ADD34C,0.09843*%
%ADD35C,0.01772*%
%ADD36C,0.02756*%
G36*
X194123Y1152D02*
X59055D01*
Y59055D01*
X1152D01*
Y77588D01*
X194123D01*
Y1152D01*
D02*
G37*
%LPC*%
G36*
X125016Y76000D02*
X122941D01*
Y73728D01*
X125016D01*
Y76000D01*
D02*
G37*
G36*
X121941D02*
X119866D01*
Y73728D01*
X121941D01*
Y76000D01*
D02*
G37*
G36*
X119134Y75630D02*
X114724D01*
Y74380D01*
X110630D01*
X110189Y74293D01*
X109815Y74043D01*
X109230Y73457D01*
X108980Y73083D01*
X108892Y72643D01*
Y69528D01*
X100945D01*
Y68880D01*
X91535D01*
X90714Y68716D01*
X90017Y68251D01*
X78233Y56467D01*
X77221D01*
Y58449D01*
X68141D01*
Y58819D01*
X66641D01*
Y54319D01*
Y49819D01*
X68141D01*
Y50189D01*
X77221D01*
Y52171D01*
X79122D01*
X79944Y52335D01*
X80641Y52800D01*
X92425Y64585D01*
X100945D01*
Y63937D01*
X112224D01*
X113348Y62813D01*
X113352Y62242D01*
X113304Y62167D01*
X112687Y61550D01*
X112352Y61048D01*
X112234Y60457D01*
Y58898D01*
X100945D01*
Y53307D01*
X111663D01*
X111931Y52807D01*
X111928Y52803D01*
X111840Y52362D01*
Y48858D01*
X110787D01*
Y44055D01*
X115197D01*
Y48858D01*
X114144D01*
Y51885D01*
X114650Y52391D01*
X115712D01*
X115738Y52352D01*
X116239Y52017D01*
X116831Y51899D01*
X118706D01*
X118816Y51738D01*
X118899Y51399D01*
X117805Y50305D01*
X117470Y49804D01*
X117352Y49213D01*
Y48858D01*
X116693D01*
Y44055D01*
X116750D01*
Y42953D01*
X116693D01*
Y41703D01*
X115354D01*
X114913Y41616D01*
X114540Y41366D01*
X107594Y34420D01*
X102303D01*
Y34685D01*
X96516D01*
Y34420D01*
X96260D01*
X95819Y34332D01*
X95445Y34082D01*
X95323Y33960D01*
X94823Y34167D01*
Y34685D01*
X92884D01*
Y37362D01*
X93937D01*
Y42165D01*
X89528D01*
Y40916D01*
X82761D01*
X79949Y43728D01*
X79575Y43978D01*
X79134Y44065D01*
X77221D01*
Y47449D01*
X71291D01*
Y47819D01*
X69791D01*
Y43319D01*
Y38819D01*
X71289D01*
Y20163D01*
X69658Y18531D01*
X69408Y18157D01*
X69320Y17717D01*
Y16181D01*
X68268D01*
Y11378D01*
X71891D01*
X72082Y10916D01*
X71048Y9882D01*
X68268D01*
Y5079D01*
X72677D01*
Y8253D01*
X73968Y9544D01*
X74468Y9337D01*
Y7047D01*
X76407D01*
Y6516D01*
X76131Y6103D01*
X76013Y5512D01*
X76131Y4920D01*
X76466Y4419D01*
X76968Y4084D01*
X77559Y3966D01*
X78150Y4084D01*
X78652Y4419D01*
X78987Y4920D01*
X79104Y5512D01*
X78987Y6103D01*
X78711Y6516D01*
Y7047D01*
X80256D01*
Y9882D01*
X80256Y9882D01*
X80386Y10328D01*
X81117Y11059D01*
X81579Y10868D01*
Y9236D01*
X81949D01*
Y7047D01*
X87736D01*
Y7312D01*
X90512D01*
Y5669D01*
X95315D01*
Y7312D01*
X97205D01*
Y5669D01*
X102008D01*
Y10079D01*
X97205D01*
Y9617D01*
X95315D01*
Y10079D01*
X90512D01*
Y9617D01*
X88106D01*
Y10524D01*
X84842D01*
Y11524D01*
X88106D01*
Y12431D01*
X90512D01*
Y11181D01*
X95315D01*
Y15590D01*
X90512D01*
Y14735D01*
X87736D01*
Y15000D01*
X81949D01*
Y14722D01*
X81571Y14647D01*
X81197Y14397D01*
X80718Y13918D01*
X80256Y14110D01*
Y15000D01*
X74468D01*
Y14735D01*
X72677D01*
Y16181D01*
X71624D01*
Y17239D01*
X73256Y18871D01*
X73506Y19245D01*
X73593Y19685D01*
Y39189D01*
X74439D01*
Y21260D01*
X74527Y20819D01*
X74777Y20445D01*
X78320Y16902D01*
X78694Y16652D01*
X79135Y16565D01*
X106609D01*
X118477Y4697D01*
X118851Y4447D01*
X119291Y4360D01*
X148824D01*
X149265Y4447D01*
X149638Y4697D01*
X150224Y5283D01*
X150474Y5657D01*
X150561Y6098D01*
Y9705D01*
X151221D01*
Y15886D01*
X147850D01*
Y16256D01*
X146169D01*
Y12795D01*
Y9335D01*
X147850D01*
X148257Y9110D01*
Y6664D01*
X119769D01*
X107901Y18531D01*
X107865Y18555D01*
X108017Y19055D01*
X109095D01*
Y23464D01*
X104291D01*
Y22412D01*
X99865D01*
Y26732D01*
X102303D01*
Y28921D01*
X102673D01*
Y30209D01*
X99410D01*
Y31209D01*
X102673D01*
Y32116D01*
X108071D01*
X108512Y32203D01*
X108886Y32453D01*
X115831Y39399D01*
X116693D01*
Y38150D01*
X116750D01*
Y35039D01*
Y24409D01*
X116914Y23588D01*
X117379Y22891D01*
X118756Y21514D01*
X119453Y21048D01*
X120275Y20885D01*
X124567D01*
Y20237D01*
X136063D01*
Y20490D01*
X140118D01*
Y19547D01*
X143358D01*
X143740Y19547D01*
X144240Y19547D01*
X147098D01*
X147480Y19547D01*
X147980Y19547D01*
X151221D01*
Y20108D01*
X154685D01*
Y18269D01*
X159488D01*
Y22678D01*
X158238D01*
Y24174D01*
X159488D01*
Y28583D01*
X154685D01*
Y24174D01*
X155934D01*
Y22678D01*
X154685D01*
Y22412D01*
X151221D01*
Y25728D01*
X147598Y25728D01*
X147516Y26194D01*
Y27102D01*
X147561Y27169D01*
X147716Y27953D01*
X147561Y28736D01*
X147516Y28803D01*
Y29686D01*
X148071D01*
Y30044D01*
X149173D01*
Y29686D01*
X153976D01*
Y30044D01*
X154685D01*
Y29686D01*
X159488D01*
Y34095D01*
X154685D01*
Y33737D01*
X153976D01*
Y34096D01*
X149173D01*
Y33737D01*
X148071D01*
Y34095D01*
X143268D01*
Y33737D01*
X142165D01*
Y34095D01*
X137362D01*
Y33737D01*
X136653D01*
Y34095D01*
X131850D01*
Y29686D01*
X136653D01*
Y30044D01*
X137362D01*
Y29686D01*
X142165D01*
Y30044D01*
X143268D01*
Y29686D01*
X143823D01*
Y28803D01*
X143778Y28736D01*
X143622Y27953D01*
X143778Y27169D01*
X143823Y27102D01*
Y26194D01*
X143740Y25728D01*
X143323Y25728D01*
X140118D01*
Y24785D01*
X136063D01*
Y25828D01*
X124567D01*
Y25180D01*
X121164D01*
X121045Y25299D01*
Y35039D01*
Y38150D01*
X121102D01*
Y42953D01*
X121045D01*
Y44055D01*
X121102D01*
Y48848D01*
X121995D01*
X122205Y48848D01*
X122205Y48456D01*
Y44055D01*
X126614D01*
Y45305D01*
X128504D01*
Y44055D01*
X132913D01*
Y48858D01*
X131467D01*
Y51909D01*
X131851Y52293D01*
X132756D01*
X133168Y52017D01*
X133760Y51899D01*
X138287D01*
X138879Y52017D01*
X139380Y52352D01*
X139715Y52854D01*
X139833Y53445D01*
X139715Y54036D01*
X139380Y54538D01*
Y54911D01*
X139715Y55413D01*
X139833Y56004D01*
X139715Y56595D01*
X139413Y57047D01*
X139647Y57203D01*
X140064Y57827D01*
X140111Y58063D01*
X136024D01*
X131937D01*
X131983Y57827D01*
X132400Y57203D01*
X132634Y57047D01*
X132332Y56595D01*
X132214Y56004D01*
X132332Y55413D01*
X132543Y55097D01*
X132306Y54597D01*
X131374D01*
X130933Y54509D01*
X130559Y54260D01*
X129500Y53201D01*
X129251Y52827D01*
X129163Y52386D01*
Y48858D01*
X128504D01*
Y47609D01*
X126614D01*
Y48858D01*
X123771D01*
X123629Y49123D01*
X123591Y49358D01*
X124853Y50620D01*
X126290Y52057D01*
X126625Y52558D01*
X126742Y53150D01*
Y56004D01*
X126625Y56595D01*
X126290Y57097D01*
X125788Y57432D01*
X125197Y57549D01*
X123031D01*
X122802Y58049D01*
X122904Y58563D01*
X122786Y59154D01*
X122451Y59656D01*
Y60029D01*
X122786Y60531D01*
X122904Y61122D01*
X122786Y61713D01*
X122451Y62215D01*
Y62588D01*
X122786Y63090D01*
X122904Y63681D01*
X122786Y64272D01*
X122484Y64724D01*
X122718Y64881D01*
X123135Y65504D01*
X123182Y65740D01*
X119095D01*
Y66240D01*
X118595D01*
Y68163D01*
X116831D01*
X116095Y68017D01*
X115471Y67600D01*
X115054Y66976D01*
X114923Y66316D01*
X114681Y66178D01*
X114425Y66107D01*
X112707Y67825D01*
X112441Y68003D01*
Y69528D01*
X111196D01*
Y72076D01*
X114724D01*
Y70827D01*
X119134D01*
Y75630D01*
D02*
G37*
G36*
X125016Y72728D02*
X122941D01*
Y70457D01*
X125016D01*
Y72728D01*
D02*
G37*
G36*
X121941D02*
X119866D01*
Y70457D01*
X121941D01*
Y72728D01*
D02*
G37*
G36*
X138287Y68163D02*
X136524D01*
Y66740D01*
X140111D01*
X140064Y66976D01*
X139647Y67600D01*
X139023Y68017D01*
X138287Y68163D01*
D02*
G37*
G36*
X121358D02*
X119595D01*
Y66740D01*
X123182D01*
X123135Y66976D01*
X122718Y67600D01*
X122094Y68017D01*
X121358Y68163D01*
D02*
G37*
G36*
X135524D02*
X133760D01*
X133024Y68017D01*
X132400Y67600D01*
X131983Y66976D01*
X131937Y66740D01*
X135524D01*
Y68163D01*
D02*
G37*
G36*
X187402Y76465D02*
X185952Y76274D01*
X184602Y75715D01*
X183442Y74825D01*
X182553Y73666D01*
X181993Y72315D01*
X181802Y70866D01*
X181993Y69417D01*
X182553Y68067D01*
X183442Y66907D01*
X184602Y66017D01*
X185952Y65458D01*
X187402Y65267D01*
X188851Y65458D01*
X190201Y66017D01*
X191361Y66907D01*
X192251Y68067D01*
X192810Y69417D01*
X193001Y70866D01*
X192810Y72315D01*
X192251Y73666D01*
X191361Y74825D01*
X190201Y75715D01*
X188851Y76274D01*
X187402Y76465D01*
D02*
G37*
G36*
X7874D02*
X6425Y76274D01*
X5074Y75715D01*
X3915Y74825D01*
X3025Y73666D01*
X2466Y72315D01*
X2275Y70866D01*
X2466Y69417D01*
X3025Y68067D01*
X3915Y66907D01*
X5074Y66017D01*
X6425Y65458D01*
X7874Y65267D01*
X9323Y65458D01*
X10674Y66017D01*
X11833Y66907D01*
X12723Y68067D01*
X13282Y69417D01*
X13473Y70866D01*
X13282Y72315D01*
X12723Y73666D01*
X11833Y74825D01*
X10674Y75715D01*
X9323Y76274D01*
X7874Y76465D01*
D02*
G37*
G36*
X146890Y65984D02*
X142087D01*
Y64833D01*
X140217D01*
X139949Y65333D01*
X140064Y65504D01*
X140111Y65740D01*
X136024D01*
X131937D01*
X131983Y65504D01*
X132400Y64881D01*
X132634Y64724D01*
X132332Y64272D01*
X132214Y63681D01*
X132332Y63090D01*
X132667Y62588D01*
Y62215D01*
X132332Y61713D01*
X132214Y61122D01*
X132332Y60531D01*
X132634Y60079D01*
X132400Y59923D01*
X131983Y59299D01*
X131937Y59063D01*
X136024D01*
X140111D01*
X140064Y59299D01*
X139647Y59923D01*
X139413Y60079D01*
X139715Y60531D01*
X139833Y61122D01*
X139715Y61713D01*
X139504Y62029D01*
X139741Y62529D01*
X142087D01*
Y61575D01*
X146890D01*
Y65984D01*
D02*
G37*
G36*
X147260Y60843D02*
X144988D01*
Y58768D01*
X147260D01*
Y60843D01*
D02*
G37*
G36*
X143988D02*
X141717D01*
Y58768D01*
X143988D01*
Y60843D01*
D02*
G37*
G36*
X147260Y57768D02*
X144988D01*
Y55693D01*
X147260D01*
Y57768D01*
D02*
G37*
G36*
X143988D02*
X141717D01*
Y55693D01*
X143988D01*
Y57768D01*
D02*
G37*
G36*
X62491Y58819D02*
X60991D01*
Y54819D01*
X62491D01*
Y58819D01*
D02*
G37*
G36*
X65641D02*
X63491D01*
Y54319D01*
Y49819D01*
X65641D01*
Y54319D01*
Y58819D01*
D02*
G37*
G36*
X62491Y53819D02*
X60991D01*
Y49819D01*
X62491D01*
Y53819D01*
D02*
G37*
G36*
X110055Y49228D02*
X107980D01*
Y46957D01*
X110055D01*
Y49228D01*
D02*
G37*
G36*
X106980D02*
X104905D01*
Y46957D01*
X106980D01*
Y49228D01*
D02*
G37*
G36*
X138795Y49228D02*
X136721D01*
Y46957D01*
X138795D01*
Y49228D01*
D02*
G37*
G36*
X135721D02*
X133646D01*
Y46957D01*
X135721D01*
Y49228D01*
D02*
G37*
G36*
X110055Y45957D02*
X107980D01*
Y43685D01*
X110055D01*
Y45957D01*
D02*
G37*
G36*
X106980D02*
X104905D01*
Y43685D01*
X106980D01*
Y45957D01*
D02*
G37*
G36*
X138795Y45957D02*
X136721D01*
Y43685D01*
X138795D01*
Y45957D01*
D02*
G37*
G36*
X135721D02*
X133646D01*
Y43685D01*
X135721D01*
Y45957D01*
D02*
G37*
G36*
X126984Y43323D02*
X124909D01*
Y41051D01*
X126984D01*
Y43323D01*
D02*
G37*
G36*
X123909D02*
X121835D01*
Y41051D01*
X123909D01*
Y43323D01*
D02*
G37*
G36*
X99819Y42535D02*
X97744D01*
Y40264D01*
X99819D01*
Y42535D01*
D02*
G37*
G36*
X96744D02*
X94669D01*
Y40264D01*
X96744D01*
Y42535D01*
D02*
G37*
G36*
X152074Y39978D02*
Y37903D01*
X154346D01*
Y39978D01*
X152074D01*
D02*
G37*
G36*
X133752Y39977D02*
X131480D01*
Y37902D01*
X133752D01*
Y39977D01*
D02*
G37*
G36*
X126984Y40051D02*
X124909D01*
Y37780D01*
X126984D01*
Y40051D01*
D02*
G37*
G36*
X123909D02*
X121835D01*
Y37780D01*
X123909D01*
Y40051D01*
D02*
G37*
G36*
X99819Y39264D02*
X97744D01*
Y36992D01*
X99819D01*
Y39264D01*
D02*
G37*
G36*
X96744D02*
X94669D01*
Y36992D01*
X96744D01*
Y39264D01*
D02*
G37*
G36*
X154346Y36903D02*
X152074D01*
Y34828D01*
X154346D01*
Y36903D01*
D02*
G37*
G36*
X133752Y36902D02*
X131480D01*
Y34828D01*
X133752D01*
Y36902D01*
D02*
G37*
G36*
X142897Y39977D02*
X142535D01*
X142397Y39977D01*
X140264D01*
Y37402D01*
Y34828D01*
X142397D01*
X142535Y34828D01*
X142897D01*
X143035Y34828D01*
X145169D01*
Y37402D01*
Y39977D01*
X143035D01*
X142897Y39977D01*
D02*
G37*
G36*
X139264Y39977D02*
X134752D01*
Y37402D01*
Y34828D01*
X139264D01*
Y37402D01*
Y39977D01*
D02*
G37*
G36*
X148803Y39978D02*
X148306Y39977D01*
X146169D01*
Y37402D01*
Y34828D01*
X148303D01*
X148441Y34828D01*
X148937Y34828D01*
X151074D01*
Y37403D01*
Y39978D01*
X148941D01*
X148803Y39978D01*
D02*
G37*
G36*
X109465Y29346D02*
X107193D01*
Y27272D01*
X109465D01*
Y29346D01*
D02*
G37*
G36*
X106193D02*
X103921D01*
Y27272D01*
X106193D01*
Y29346D01*
D02*
G37*
G36*
X68791Y47819D02*
X67291D01*
Y47449D01*
X61361D01*
Y39189D01*
X61946D01*
Y27953D01*
X62035Y27275D01*
X62297Y26643D01*
X62713Y26100D01*
X62714Y26100D01*
X63257Y25683D01*
X63889Y25421D01*
X64567Y25332D01*
X65245Y25421D01*
X65877Y25683D01*
X66420Y26100D01*
X66837Y26642D01*
X67098Y27274D01*
X67188Y27953D01*
X67187Y27956D01*
Y38362D01*
X67291Y38819D01*
X68791D01*
Y43319D01*
Y47819D01*
D02*
G37*
G36*
X109465Y26272D02*
X107193D01*
Y24197D01*
X109465D01*
Y26272D01*
D02*
G37*
G36*
X106193D02*
X103921D01*
Y24197D01*
X106193D01*
Y26272D01*
D02*
G37*
G36*
X159858Y17536D02*
X157586D01*
Y15461D01*
X159858D01*
Y17536D01*
D02*
G37*
G36*
X156586D02*
X154315D01*
Y15461D01*
X156586D01*
Y17536D01*
D02*
G37*
G36*
X145169Y16256D02*
X143488D01*
Y15886D01*
X140118D01*
Y14943D01*
X136063D01*
Y15198D01*
X124567D01*
Y9607D01*
X136063D01*
Y10648D01*
X140118D01*
Y9705D01*
X143488D01*
Y9335D01*
X145169D01*
Y12795D01*
Y16256D01*
D02*
G37*
G36*
X67535Y16551D02*
X65461D01*
Y14279D01*
X67535D01*
Y16551D01*
D02*
G37*
G36*
X64461D02*
X62386D01*
Y14279D01*
X64461D01*
Y16551D01*
D02*
G37*
G36*
X102378Y15961D02*
X100106D01*
Y13886D01*
X102378D01*
Y15961D01*
D02*
G37*
G36*
X99106D02*
X96835D01*
Y13886D01*
X99106D01*
Y15961D01*
D02*
G37*
G36*
X159858Y14461D02*
X157586D01*
Y12387D01*
X159858D01*
Y14461D01*
D02*
G37*
G36*
X156586D02*
X154315D01*
Y12387D01*
X156586D01*
Y14461D01*
D02*
G37*
G36*
X67535Y13280D02*
X65461D01*
Y11008D01*
X67535D01*
Y13280D01*
D02*
G37*
G36*
X64461D02*
X62386D01*
Y11008D01*
X64461D01*
Y13280D01*
D02*
G37*
G36*
X102378Y12886D02*
X100106D01*
Y10811D01*
X102378D01*
Y12886D01*
D02*
G37*
G36*
X99106D02*
X96835D01*
Y10811D01*
X99106D01*
Y12886D01*
D02*
G37*
G36*
X67165Y9882D02*
X62756D01*
Y5079D01*
X67165D01*
Y9882D01*
D02*
G37*
G36*
X187402Y13473D02*
X185952Y13282D01*
X184602Y12723D01*
X183442Y11833D01*
X182553Y10674D01*
X181993Y9323D01*
X181802Y7874D01*
X181993Y6425D01*
X182553Y5074D01*
X183442Y3915D01*
X184602Y3025D01*
X185952Y2466D01*
X187402Y2275D01*
X188851Y2466D01*
X190201Y3025D01*
X191361Y3915D01*
X192251Y5074D01*
X192810Y6425D01*
X193001Y7874D01*
X192810Y9323D01*
X192251Y10674D01*
X191361Y11833D01*
X190201Y12723D01*
X188851Y13282D01*
X187402Y13473D01*
D02*
G37*
%LPD*%
G36*
X81469Y38949D02*
X81843Y38699D01*
X82284Y38612D01*
X89528D01*
Y37362D01*
X90580D01*
Y34685D01*
X89035D01*
Y31850D01*
X94517D01*
Y29611D01*
X94473Y29567D01*
X89035D01*
Y26732D01*
X90777D01*
Y23661D01*
X89921D01*
Y18869D01*
X79612D01*
X76743Y21737D01*
Y39189D01*
X77221D01*
Y41761D01*
X78657D01*
X81469Y38949D01*
D02*
G37*
D14*
X79452Y11024D02*
X82011Y13583D01*
X73819Y11024D02*
X79452D01*
X82011Y13583D02*
X84842D01*
X79135Y17717D02*
X107087D01*
X119291Y5512D01*
X148824D01*
X149409Y6098D01*
Y12795D01*
X70472Y7677D02*
X73819Y11024D01*
X70473Y17717D02*
X72441Y19685D01*
X70473Y13780D02*
Y17717D01*
X72441Y19685D02*
Y43319D01*
X77362Y8465D02*
X77559Y8268D01*
Y5512D02*
Y8268D01*
X70669Y13583D02*
X77362D01*
X70473Y13780D02*
X70669Y13583D01*
X70472Y7480D02*
Y7677D01*
X92716Y13583D02*
X92913Y13386D01*
X84842Y13583D02*
X92716D01*
X84842Y8465D02*
X99016D01*
X99606Y7874D01*
X75591Y21260D02*
Y43319D01*
Y21260D02*
X79135Y17717D01*
X144291Y31890D02*
X145669Y30512D01*
X124409Y46457D02*
X130709D01*
X115354Y40551D02*
X118898D01*
X118898Y40551D01*
X108071Y33268D02*
X115354Y40551D01*
X99410Y33268D02*
X108071D01*
X75997Y42913D02*
X79134D01*
X75591Y43319D02*
X75997Y42913D01*
X79134D02*
X82284Y39764D01*
X91732D01*
X156300Y21260D02*
X157086Y20473D01*
X150379Y21260D02*
X156300D01*
X149409Y22229D02*
X150379Y21260D01*
X144291Y31890D02*
X145669D01*
X130315Y12402D02*
X130708Y12795D01*
X130315Y23032D02*
X130709Y22638D01*
X149409Y22229D02*
Y22638D01*
X157086Y20473D02*
Y26379D01*
X157086Y31890D02*
X157086Y31890D01*
X130315Y52386D02*
X131374Y53445D01*
X130315Y46850D02*
Y52386D01*
Y46850D02*
X130709Y46457D01*
X131374Y53445D02*
X136024D01*
X144390Y63681D02*
X144488Y63779D01*
X136024Y63681D02*
X144390D01*
X110044Y72643D02*
X110630Y73228D01*
X110044Y68398D02*
Y72643D01*
X108379Y66732D02*
X110044Y68398D01*
X106693Y66732D02*
X108379D01*
X110630Y73228D02*
X116929D01*
X106693Y56102D02*
X106698Y56107D01*
X114173Y53543D02*
X118996D01*
X119095Y53445D01*
X112992Y52362D02*
X114173Y53543D01*
X112992Y46457D02*
Y52362D01*
X95669Y32677D02*
X96260Y33268D01*
X95669Y29134D02*
Y32677D01*
X94685Y28150D02*
X95669Y29134D01*
X96260Y33268D02*
X99410D01*
X91929Y28150D02*
X94685D01*
X91929Y21457D02*
X92126Y21260D01*
X91929Y21457D02*
Y28150D01*
X99000D02*
X99410D01*
X98713Y27862D02*
X99000Y28150D01*
X98713Y22335D02*
Y27862D01*
X97638Y21260D02*
X98713Y22335D01*
X97638Y21260D02*
X106693D01*
X91732Y33465D02*
X91929Y33268D01*
X91732Y33465D02*
Y39764D01*
D15*
X84842Y8465D02*
D03*
Y11024D02*
D03*
Y13583D02*
D03*
X77362D02*
D03*
Y8465D02*
D03*
X99410Y28150D02*
D03*
Y30709D02*
D03*
Y33268D02*
D03*
X91929D02*
D03*
Y28150D02*
D03*
D16*
X92913Y7874D02*
D03*
Y13386D02*
D03*
X99606Y13386D02*
D03*
Y7874D02*
D03*
X144488Y58268D02*
D03*
Y63779D02*
D03*
X106693Y26772D02*
D03*
Y21260D02*
D03*
X157086Y26379D02*
D03*
Y31890D02*
D03*
Y14961D02*
D03*
Y20473D02*
D03*
X134252Y37402D02*
D03*
Y31890D02*
D03*
X139764Y37402D02*
D03*
Y31890D02*
D03*
X151574Y37403D02*
D03*
Y31891D02*
D03*
X145669Y37402D02*
D03*
Y31890D02*
D03*
D17*
X70472Y7480D02*
D03*
X64961D02*
D03*
X64961Y13780D02*
D03*
X70473D02*
D03*
X124409Y46457D02*
D03*
X118898D02*
D03*
X136221D02*
D03*
X130709D02*
D03*
X122441Y73228D02*
D03*
X116929D02*
D03*
X124409Y40551D02*
D03*
X118898D02*
D03*
X107480Y46457D02*
D03*
X112992D02*
D03*
X97638Y21260D02*
D03*
X92126D02*
D03*
X97244Y39764D02*
D03*
X91732D02*
D03*
D18*
X141929Y12795D02*
D03*
X145669D02*
D03*
X149409D02*
D03*
Y22638D02*
D03*
X145669D02*
D03*
X141929D02*
D03*
D19*
X136024Y53445D02*
D03*
Y56004D02*
D03*
Y58563D02*
D03*
Y61122D02*
D03*
Y63681D02*
D03*
Y66240D02*
D03*
X119095Y53445D02*
D03*
Y56004D02*
D03*
Y58563D02*
D03*
Y61122D02*
D03*
Y63681D02*
D03*
Y66240D02*
D03*
D20*
X106693Y56102D02*
D03*
Y66732D02*
D03*
X130315Y23032D02*
D03*
Y12402D02*
D03*
D21*
X75591Y54319D02*
D03*
Y43319D02*
D03*
X72441Y54319D02*
D03*
Y43319D02*
D03*
X69291Y54319D02*
D03*
Y43319D02*
D03*
X66141Y54319D02*
D03*
Y43319D02*
D03*
X62991Y54319D02*
D03*
Y43319D02*
D03*
D30*
X119095Y56004D02*
X125197D01*
Y53150D02*
Y56004D01*
X122441Y50394D02*
X123760Y51713D01*
X120079Y50394D02*
X122441D01*
X118898Y49213D02*
X120079Y50394D01*
X113779Y56693D02*
Y60457D01*
X113194Y56107D02*
X113779Y56693D01*
Y60457D02*
X114445Y61122D01*
X108379Y66732D02*
X111614D01*
X114665Y63681D01*
X119095D01*
X123760Y51713D02*
X125197Y53150D01*
X118898Y46457D02*
Y49213D01*
X106698Y56107D02*
X113194D01*
X114445Y61122D02*
X119095D01*
D31*
X64566Y27953D02*
Y43319D01*
Y27953D02*
X64567Y27953D01*
D32*
X145866Y31890D02*
X157086D01*
X145669Y27953D02*
Y30512D01*
Y22638D02*
Y27953D01*
X139764Y31890D02*
X144291D01*
X134252D02*
X139764D01*
D33*
X118898Y35039D02*
Y40551D01*
Y24409D02*
Y35039D01*
X79122Y54319D02*
X91535Y66732D01*
X75591Y54319D02*
X79122D01*
X91535Y66732D02*
X106693D01*
X72441Y54319D02*
X75591D01*
X70079Y54331D02*
X72441Y54319D01*
X118898Y24409D02*
X120275Y23032D01*
X130315D01*
X130708Y12795D02*
X141339D01*
X130709Y22638D02*
X141339D01*
X118898Y40551D02*
Y46457D01*
D34*
X187402Y7874D02*
D03*
Y70866D02*
D03*
X7874D02*
D03*
D35*
X89370Y11024D02*
D03*
X121653Y17717D02*
D03*
Y12598D02*
D03*
X138189Y8661D02*
D03*
X152756Y17717D02*
D03*
X145669D02*
D03*
X138189D02*
D03*
X133071D02*
D03*
X127165D02*
D03*
X69291Y32677D02*
D03*
X87795Y48819D02*
D03*
X83071Y21260D02*
D03*
X101969Y23622D02*
D03*
X113386Y21260D02*
D03*
X105905Y7874D02*
D03*
Y13386D02*
D03*
X64961Y7480D02*
D03*
X77559Y5512D02*
D03*
X68110Y19685D02*
D03*
X178740Y71260D02*
D03*
X172441D02*
D03*
X175591D02*
D03*
X62992Y48819D02*
D03*
X66142D02*
D03*
X60630Y32283D02*
D03*
X124803Y32677D02*
D03*
X127559Y35827D02*
D03*
X157087Y37402D02*
D03*
X151575Y41732D02*
D03*
X145669D02*
D03*
X139764D02*
D03*
X134252D02*
D03*
X157087Y10236D02*
D03*
X106693Y61417D02*
D03*
X150394Y58268D02*
D03*
X144488Y52756D02*
D03*
X127953Y58661D02*
D03*
Y66142D02*
D03*
X135827Y70079D02*
D03*
X126772Y73228D02*
D03*
X107480Y51181D02*
D03*
X103150Y46457D02*
D03*
X109449Y40157D02*
D03*
X97244Y46457D02*
D03*
X103150Y40157D02*
D03*
X185827Y55118D02*
D03*
Y62992D02*
D03*
Y59055D02*
D03*
X165354Y55118D02*
D03*
Y62992D02*
D03*
Y59055D02*
D03*
X179528Y46063D02*
D03*
X171653D02*
D03*
X175591D02*
D03*
X179528Y6693D02*
D03*
X171653D02*
D03*
X175591D02*
D03*
X185827Y15748D02*
D03*
Y23622D02*
D03*
X164567Y15748D02*
D03*
Y23622D02*
D03*
X185827Y19685D02*
D03*
X164567D02*
D03*
X179528Y32677D02*
D03*
X171653D02*
D03*
X175591D02*
D03*
X80315Y62205D02*
D03*
X76772D02*
D03*
X73228D02*
D03*
X69685D02*
D03*
X52756D02*
D03*
X56299D02*
D03*
X59449D02*
D03*
X60630Y19685D02*
D03*
X62992Y62205D02*
D03*
X66142D02*
D03*
X17323Y73228D02*
D03*
X20472D02*
D03*
X24016D02*
D03*
X27559D02*
D03*
X31102D02*
D03*
X34646D02*
D03*
X38189D02*
D03*
X62598D02*
D03*
X59055D02*
D03*
X55512D02*
D03*
X51968D02*
D03*
X48425D02*
D03*
X44882D02*
D03*
X41732D02*
D03*
X87008D02*
D03*
X83465D02*
D03*
X79921D02*
D03*
X76378D02*
D03*
X72835D02*
D03*
X69291D02*
D03*
X66142D02*
D03*
X145276D02*
D03*
X141732D02*
D03*
X104331D02*
D03*
X100787D02*
D03*
X97244D02*
D03*
X93701D02*
D03*
X90551D02*
D03*
X162992D02*
D03*
X159449D02*
D03*
X155905D02*
D03*
X152362D02*
D03*
X149213D02*
D03*
X158661Y2756D02*
D03*
X161811D02*
D03*
X165354D02*
D03*
X168898D02*
D03*
X172441D02*
D03*
X175984D02*
D03*
X179528D02*
D03*
X133858D02*
D03*
X137008D02*
D03*
X140551D02*
D03*
X144095D02*
D03*
X147638D02*
D03*
X151181D02*
D03*
X154724D02*
D03*
X109449D02*
D03*
X112598D02*
D03*
X116142D02*
D03*
X119685D02*
D03*
X123228D02*
D03*
X126772D02*
D03*
X130315D02*
D03*
X85039D02*
D03*
X88189D02*
D03*
X91732D02*
D03*
X95276D02*
D03*
X98819D02*
D03*
X102362D02*
D03*
X105905D02*
D03*
X81496D02*
D03*
X77953D02*
D03*
X74410D02*
D03*
X70866D02*
D03*
X67323D02*
D03*
X63779D02*
D03*
X60630D02*
D03*
D36*
X64567Y27953D02*
D03*
X118898Y35039D02*
D03*
X145669Y27953D02*
D03*
M02*
