G04*
G04 #@! TF.GenerationSoftware,Altium Limited,Altium Designer,19.1.5 (86)*
G04*
G04 Layer_Color=8388736*
%FSLAX25Y25*%
%MOIN*%
G70*
G01*
G75*
%ADD22R,0.05328X0.02375*%
%ADD23R,0.04343X0.03950*%
%ADD24R,0.03950X0.04343*%
%ADD25R,0.03162X0.05721*%
%ADD26O,0.07099X0.02572*%
%ADD27R,0.11036X0.05131*%
%ADD28R,0.02400X0.07400*%
%ADD29C,0.10642*%
D22*
X84842Y8465D02*
D03*
Y11024D02*
D03*
Y13583D02*
D03*
X77362D02*
D03*
Y8465D02*
D03*
X99410Y28150D02*
D03*
Y30709D02*
D03*
Y33268D02*
D03*
X91929D02*
D03*
Y28150D02*
D03*
D23*
X92913Y7874D02*
D03*
Y13386D02*
D03*
X99606Y13386D02*
D03*
Y7874D02*
D03*
X144488Y58268D02*
D03*
Y63779D02*
D03*
X106693Y26772D02*
D03*
Y21260D02*
D03*
X157086Y26379D02*
D03*
Y31890D02*
D03*
Y14961D02*
D03*
Y20473D02*
D03*
X134252Y37402D02*
D03*
Y31890D02*
D03*
X139764Y37402D02*
D03*
Y31890D02*
D03*
X151574Y37403D02*
D03*
Y31891D02*
D03*
X145669Y37402D02*
D03*
Y31890D02*
D03*
D24*
X70472Y7480D02*
D03*
X64961D02*
D03*
X64961Y13780D02*
D03*
X70473D02*
D03*
X124409Y46457D02*
D03*
X118898D02*
D03*
X136221D02*
D03*
X130709D02*
D03*
X122441Y73228D02*
D03*
X116929D02*
D03*
X124409Y40551D02*
D03*
X118898D02*
D03*
X107480Y46457D02*
D03*
X112992D02*
D03*
X97638Y21260D02*
D03*
X92126D02*
D03*
X97244Y39764D02*
D03*
X91732D02*
D03*
D25*
X141929Y12795D02*
D03*
X145669D02*
D03*
X149409D02*
D03*
Y22638D02*
D03*
X145669D02*
D03*
X141929D02*
D03*
D26*
X136024Y53445D02*
D03*
Y56004D02*
D03*
Y58563D02*
D03*
Y61122D02*
D03*
Y63681D02*
D03*
Y66240D02*
D03*
X119095Y53445D02*
D03*
Y56004D02*
D03*
Y58563D02*
D03*
Y61122D02*
D03*
Y63681D02*
D03*
Y66240D02*
D03*
D27*
X106693Y56102D02*
D03*
Y66732D02*
D03*
X130315Y23032D02*
D03*
Y12402D02*
D03*
D28*
X75591Y54319D02*
D03*
Y43319D02*
D03*
X72441Y54319D02*
D03*
Y43319D02*
D03*
X69291Y54319D02*
D03*
Y43319D02*
D03*
X66141Y54319D02*
D03*
Y43319D02*
D03*
X62991Y54319D02*
D03*
Y43319D02*
D03*
D29*
X187402Y7874D02*
D03*
Y70866D02*
D03*
X7874D02*
D03*
M02*
