G04*
G04 #@! TF.GenerationSoftware,Altium Limited,Altium Designer,19.1.5 (86)*
G04*
G04 Layer_Color=16711935*
%FSLAX25Y25*%
%MOIN*%
G70*
G01*
G75*
%ADD13C,0.00787*%
%ADD42C,0.00394*%
D13*
X87106Y68898D02*
X165847D01*
X87106Y9843D02*
Y68898D01*
Y9843D02*
X165847D01*
Y68898D01*
D42*
X132087Y55315D02*
X131823Y56299D01*
X131102Y57020D01*
X130118Y57284D01*
X129134Y57020D01*
X128413Y56299D01*
X128150Y55315D01*
X128413Y54331D01*
X129134Y53610D01*
X130118Y53347D01*
X131102Y53610D01*
X131823Y54331D01*
X132087Y55315D01*
X78642Y7039D02*
X83563D01*
X78642D02*
Y15008D01*
X83563D01*
Y7039D02*
Y15008D01*
X81004Y7039D02*
X83563Y9598D01*
X91043Y7185D02*
X94784D01*
X91043Y14075D02*
X94784D01*
X91043Y7185D02*
Y14075D01*
X94784Y7185D02*
Y14075D01*
X71161Y5610D02*
Y9350D01*
X64272Y5610D02*
Y9350D01*
Y5610D02*
X71161D01*
X64272Y9350D02*
X71161D01*
X64272Y11909D02*
Y15650D01*
X71161Y11909D02*
Y15650D01*
X64272D02*
X71161D01*
X64272Y11909D02*
X71161D01*
X97736Y14075D02*
X101476D01*
X97736Y7185D02*
X101476D01*
Y14075D01*
X97736Y7185D02*
Y14075D01*
X139961Y14567D02*
Y20866D01*
X151378D01*
Y14567D02*
Y20866D01*
X139961Y14567D02*
X151378D01*
X139961Y18307D02*
X143701Y14567D01*
X133661Y51772D02*
Y67913D01*
X121457Y51772D02*
Y67913D01*
Y51772D02*
X133661D01*
X121457Y67913D02*
X133661D01*
X61516Y35138D02*
Y38878D01*
X68405Y35138D02*
Y38878D01*
X61516Y35138D02*
X68405D01*
X61516Y38878D02*
X68405D01*
X61516Y40650D02*
Y44390D01*
X68405Y40650D02*
Y44390D01*
X61516Y40650D02*
X68405D01*
X61516Y44390D02*
X68405D01*
X101378Y54724D02*
Y68110D01*
X112008Y54724D02*
Y68110D01*
X101378Y54724D02*
X112008D01*
X101378Y68110D02*
X112008D01*
X125098Y44587D02*
Y48327D01*
X118209Y44587D02*
Y48327D01*
Y44587D02*
X125098D01*
X118209Y48327D02*
X125098D01*
X136909Y44587D02*
Y48327D01*
X130020Y44587D02*
Y48327D01*
Y44587D02*
X136909D01*
X130020Y48327D02*
X136909D01*
X142618Y57579D02*
X146358D01*
X142618Y64468D02*
X146358D01*
X142618Y57579D02*
Y64468D01*
X146358Y57579D02*
Y64468D01*
X123130Y71358D02*
Y75098D01*
X116240Y71358D02*
Y75098D01*
Y71358D02*
X123130D01*
X116240Y75098D02*
X123130D01*
X125098Y38681D02*
Y42421D01*
X118209Y38681D02*
Y42421D01*
Y38681D02*
X125098D01*
X118209Y42421D02*
X125098D01*
X106791Y44587D02*
Y48327D01*
X113681Y44587D02*
Y48327D01*
X106791D02*
X113681D01*
X106791Y44587D02*
X113681D01*
X135630Y11024D02*
Y24410D01*
X125000Y11024D02*
Y24410D01*
X135630D01*
X125000Y11024D02*
X135630D01*
X93209Y26724D02*
X98130D01*
X93209D02*
Y34693D01*
X98130D01*
Y26724D02*
Y34693D01*
X95571Y26724D02*
X98130Y29283D01*
X98327Y19390D02*
Y23130D01*
X91437Y19390D02*
Y23130D01*
Y19390D02*
X98327D01*
X91437Y23130D02*
X98327D01*
X97933Y37894D02*
Y41634D01*
X91043Y37894D02*
Y41634D01*
Y37894D02*
X97933D01*
X91043Y41634D02*
X97933D01*
X104823Y27461D02*
X108563D01*
X104823Y20571D02*
X108563D01*
Y27461D01*
X104823Y20571D02*
Y27461D01*
X155216Y25690D02*
X158957D01*
X155216Y32579D02*
X158957D01*
X155216Y25690D02*
Y32579D01*
X158957Y25690D02*
Y32579D01*
X155216Y14272D02*
X158957D01*
X155216Y21162D02*
X158957D01*
X155216Y14272D02*
Y21162D01*
X158957Y14272D02*
Y21162D01*
X132382Y38091D02*
X136122D01*
X132382Y31201D02*
X136122D01*
Y38091D01*
X132382Y31201D02*
Y38091D01*
X137893D02*
X141634D01*
X137893Y31201D02*
X141634D01*
Y38091D01*
X137893Y31201D02*
Y38091D01*
X149704Y38092D02*
X153445D01*
X149704Y31202D02*
X153445D01*
Y38092D01*
X149704Y31202D02*
Y38092D01*
X143799Y38091D02*
X147539D01*
X143799Y31201D02*
X147539D01*
Y38091D01*
X143799Y31201D02*
Y38091D01*
M02*
