G04*
G04 #@! TF.GenerationSoftware,Altium Limited,Altium Designer,19.1.5 (86)*
G04*
G04 Layer_Physical_Order=2*
G04 Layer_Color=16711680*
%FSLAX25Y25*%
%MOIN*%
G70*
G01*
G75*
%ADD14C,0.01000*%
%ADD17R,0.03150X0.03543*%
%ADD31C,0.03937*%
%ADD33C,0.02953*%
%ADD34C,0.09843*%
%ADD35C,0.01772*%
%ADD36C,0.02756*%
%ADD37R,0.11417X0.17717*%
%ADD38R,0.11811X0.17717*%
G36*
X194123Y1152D02*
X59055D01*
Y59055D01*
X1152D01*
Y77588D01*
X194123D01*
Y1152D01*
D02*
G37*
%LPC*%
G36*
X187402Y76465D02*
X185952Y76274D01*
X184602Y75715D01*
X183442Y74825D01*
X182553Y73666D01*
X181993Y72315D01*
X181802Y70866D01*
X181993Y69417D01*
X182030Y69329D01*
X181752Y68913D01*
X176673D01*
Y60039D01*
X182398D01*
Y67447D01*
X182898Y67617D01*
X183442Y66907D01*
X184602Y66017D01*
X185952Y65458D01*
X187402Y65267D01*
X188851Y65458D01*
X190201Y66017D01*
X191361Y66907D01*
X192251Y68067D01*
X192810Y69417D01*
X193001Y70866D01*
X192810Y72315D01*
X192251Y73666D01*
X191361Y74825D01*
X190201Y75715D01*
X188851Y76274D01*
X187402Y76465D01*
D02*
G37*
G36*
X7874D02*
X6425Y76274D01*
X5074Y75715D01*
X3915Y74825D01*
X3025Y73666D01*
X2466Y72315D01*
X2275Y70866D01*
X2466Y69417D01*
X3025Y68067D01*
X3915Y66907D01*
X5074Y66017D01*
X6425Y65458D01*
X7874Y65267D01*
X9323Y65458D01*
X10674Y66017D01*
X11833Y66907D01*
X12723Y68067D01*
X13282Y69417D01*
X13473Y70866D01*
X13282Y72315D01*
X12723Y73666D01*
X11833Y74825D01*
X10674Y75715D01*
X9323Y76274D01*
X7874Y76465D01*
D02*
G37*
G36*
X174705Y68913D02*
X168980D01*
Y60039D01*
X174705D01*
Y68913D01*
D02*
G37*
G36*
X182398Y58071D02*
X176673D01*
Y49197D01*
X182398D01*
Y58071D01*
D02*
G37*
G36*
X174705D02*
X168980D01*
Y49197D01*
X174705D01*
Y58071D01*
D02*
G37*
G36*
X83799Y49173D02*
X70728D01*
Y44667D01*
X69921D01*
Y44921D01*
X65512D01*
Y40118D01*
X65569D01*
Y39409D01*
X65512D01*
Y34606D01*
X69921D01*
Y34860D01*
X70728D01*
Y30574D01*
X64567D01*
X63889Y30484D01*
X63257Y30222D01*
X62714Y29806D01*
X62297Y29263D01*
X62035Y28631D01*
X61946Y27953D01*
X62035Y27274D01*
X62297Y26642D01*
X62714Y26100D01*
X63257Y25683D01*
X63415Y25618D01*
Y7672D01*
X63434Y7576D01*
X63415Y7480D01*
X63533Y6889D01*
X63868Y6387D01*
X64369Y6053D01*
X64604Y6006D01*
X65913Y4697D01*
X66287Y4447D01*
X66728Y4360D01*
X76555D01*
X76968Y4084D01*
X77559Y3966D01*
X78150Y4084D01*
X78652Y4419D01*
X78987Y4920D01*
X79104Y5512D01*
X78987Y6103D01*
X78652Y6605D01*
X78150Y6940D01*
X77559Y7057D01*
X76968Y6940D01*
X76555Y6664D01*
X67205D01*
X66487Y7382D01*
X66506Y7480D01*
X66388Y8072D01*
X66053Y8573D01*
X65719Y8797D01*
Y25332D01*
X145669D01*
X146348Y25421D01*
X146980Y25683D01*
X147522Y26100D01*
X147939Y26642D01*
X148201Y27274D01*
X148290Y27953D01*
X148201Y28631D01*
X147939Y29263D01*
X147522Y29806D01*
X146980Y30222D01*
X146348Y30484D01*
X145669Y30574D01*
X83799D01*
Y32419D01*
X118898D01*
X119576Y32508D01*
X120208Y32770D01*
X120751Y33186D01*
X121167Y33729D01*
X121429Y34361D01*
X121519Y35039D01*
X121429Y35718D01*
X121167Y36350D01*
X120751Y36893D01*
X120208Y37309D01*
X119576Y37571D01*
X118898Y37660D01*
X83799D01*
Y49173D01*
D02*
G37*
G36*
X64780Y45291D02*
X62705D01*
Y43020D01*
X64780D01*
Y45291D01*
D02*
G37*
G36*
X61705D02*
X59630D01*
Y43020D01*
X61705D01*
Y45291D01*
D02*
G37*
G36*
X64780Y42020D02*
X62205D01*
X59630D01*
Y39748D01*
Y37508D01*
X62205D01*
X64780D01*
Y39748D01*
Y42020D01*
D02*
G37*
G36*
Y36508D02*
X62705D01*
Y34236D01*
X64780D01*
Y36508D01*
D02*
G37*
G36*
X61705D02*
X59630D01*
Y34236D01*
X61705D01*
Y36508D01*
D02*
G37*
G36*
X182398Y29543D02*
X176673D01*
Y20669D01*
X182398D01*
Y29543D01*
D02*
G37*
G36*
X174705D02*
X168980D01*
Y20669D01*
X174705D01*
Y29543D01*
D02*
G37*
G36*
Y18701D02*
X168980D01*
Y9827D01*
X174705D01*
Y18701D01*
D02*
G37*
G36*
X182398D02*
X176673D01*
Y9827D01*
X181752D01*
X182030Y9411D01*
X181993Y9323D01*
X181802Y7874D01*
X181993Y6425D01*
X182553Y5074D01*
X183442Y3915D01*
X184602Y3025D01*
X185952Y2466D01*
X187402Y2275D01*
X188851Y2466D01*
X190201Y3025D01*
X191361Y3915D01*
X192251Y5074D01*
X192810Y6425D01*
X193001Y7874D01*
X192810Y9323D01*
X192251Y10674D01*
X191361Y11833D01*
X190201Y12723D01*
X188851Y13282D01*
X187402Y13473D01*
X185952Y13282D01*
X184602Y12723D01*
X183442Y11833D01*
X182898Y11123D01*
X182398Y11293D01*
Y18701D01*
D02*
G37*
%LPD*%
D14*
X64567Y7672D02*
X66728Y5512D01*
X77559D01*
X64567Y7672D02*
Y27953D01*
X77264Y39685D02*
X81910Y35039D01*
X74587Y37008D02*
X77264Y39685D01*
X74429Y42520D02*
X77264Y39685D01*
D17*
X62205Y37008D02*
D03*
X67716D02*
D03*
X62205Y42520D02*
D03*
X67716D02*
D03*
D31*
X64567Y27953D02*
X145669D01*
X81910Y35039D02*
X118898D01*
D33*
X67716Y37008D02*
X74587D01*
X67716D02*
Y42520D01*
X74429D01*
D34*
X187402Y7874D02*
D03*
Y70866D02*
D03*
X7874D02*
D03*
D35*
X89370Y11024D02*
D03*
X121653Y17717D02*
D03*
Y12598D02*
D03*
X138189Y8661D02*
D03*
X152756Y17717D02*
D03*
X145669D02*
D03*
X138189D02*
D03*
X133071D02*
D03*
X127165D02*
D03*
X69291Y32677D02*
D03*
X87795Y48819D02*
D03*
X83071Y21260D02*
D03*
X101969Y23622D02*
D03*
X113386Y21260D02*
D03*
X105905Y7874D02*
D03*
Y13386D02*
D03*
X64961Y7480D02*
D03*
X77559Y5512D02*
D03*
X68110Y19685D02*
D03*
X178740Y71260D02*
D03*
X172441D02*
D03*
X175591D02*
D03*
X62992Y48819D02*
D03*
X66142D02*
D03*
X60630Y32283D02*
D03*
X124803Y32677D02*
D03*
X127559Y35827D02*
D03*
X157087Y37402D02*
D03*
X151575Y41732D02*
D03*
X145669D02*
D03*
X139764D02*
D03*
X134252D02*
D03*
X157087Y10236D02*
D03*
X106693Y61417D02*
D03*
X150394Y58268D02*
D03*
X144488Y52756D02*
D03*
X127953Y58661D02*
D03*
Y66142D02*
D03*
X135827Y70079D02*
D03*
X126772Y73228D02*
D03*
X107480Y51181D02*
D03*
X103150Y46457D02*
D03*
X109449Y40157D02*
D03*
X97244Y46457D02*
D03*
X103150Y40157D02*
D03*
X185827Y55118D02*
D03*
Y62992D02*
D03*
Y59055D02*
D03*
X165354Y55118D02*
D03*
Y62992D02*
D03*
Y59055D02*
D03*
X179528Y46063D02*
D03*
X171653D02*
D03*
X175591D02*
D03*
X179528Y6693D02*
D03*
X171653D02*
D03*
X175591D02*
D03*
X185827Y15748D02*
D03*
Y23622D02*
D03*
X164567Y15748D02*
D03*
Y23622D02*
D03*
X185827Y19685D02*
D03*
X164567D02*
D03*
X179528Y32677D02*
D03*
X171653D02*
D03*
X175591D02*
D03*
X80315Y62205D02*
D03*
X76772D02*
D03*
X73228D02*
D03*
X69685D02*
D03*
X52756D02*
D03*
X56299D02*
D03*
X59449D02*
D03*
X60630Y19685D02*
D03*
X62992Y62205D02*
D03*
X66142D02*
D03*
X17323Y73228D02*
D03*
X20472D02*
D03*
X24016D02*
D03*
X27559D02*
D03*
X31102D02*
D03*
X34646D02*
D03*
X38189D02*
D03*
X62598D02*
D03*
X59055D02*
D03*
X55512D02*
D03*
X51968D02*
D03*
X48425D02*
D03*
X44882D02*
D03*
X41732D02*
D03*
X87008D02*
D03*
X83465D02*
D03*
X79921D02*
D03*
X76378D02*
D03*
X72835D02*
D03*
X69291D02*
D03*
X66142D02*
D03*
X145276D02*
D03*
X141732D02*
D03*
X104331D02*
D03*
X100787D02*
D03*
X97244D02*
D03*
X93701D02*
D03*
X90551D02*
D03*
X162992D02*
D03*
X159449D02*
D03*
X155905D02*
D03*
X152362D02*
D03*
X149213D02*
D03*
X158661Y2756D02*
D03*
X161811D02*
D03*
X165354D02*
D03*
X168898D02*
D03*
X172441D02*
D03*
X175984D02*
D03*
X179528D02*
D03*
X133858D02*
D03*
X137008D02*
D03*
X140551D02*
D03*
X144095D02*
D03*
X147638D02*
D03*
X151181D02*
D03*
X154724D02*
D03*
X109449D02*
D03*
X112598D02*
D03*
X116142D02*
D03*
X119685D02*
D03*
X123228D02*
D03*
X126772D02*
D03*
X130315D02*
D03*
X85039D02*
D03*
X88189D02*
D03*
X91732D02*
D03*
X95276D02*
D03*
X98819D02*
D03*
X102362D02*
D03*
X105905D02*
D03*
X81496D02*
D03*
X77953D02*
D03*
X74410D02*
D03*
X70866D02*
D03*
X67323D02*
D03*
X63779D02*
D03*
X60630D02*
D03*
D36*
X64567Y27953D02*
D03*
X118898Y35039D02*
D03*
X145669Y27953D02*
D03*
D37*
X175689Y19685D02*
D03*
Y59055D02*
D03*
D38*
X77264Y39685D02*
D03*
M02*
