G04*
G04 #@! TF.GenerationSoftware,Altium Limited,Altium Designer,19.0.12 (326)*
G04*
G04 Layer_Physical_Order=1*
G04 Layer_Color=255*
%FSLAX25Y25*%
%MOIN*%
G70*
G01*
G75*
%ADD10C,0.01000*%
%ADD12C,0.00800*%
%ADD16R,0.05118X0.02756*%
%ADD17R,0.08661X0.03150*%
%ADD18R,0.02756X0.05118*%
%ADD19R,0.03937X0.05118*%
%ADD20R,0.01575X0.01968*%
%ADD21R,0.01575X0.03622*%
%ADD22O,0.06299X0.01772*%
%ADD23R,0.06200X0.02200*%
%ADD24R,0.03150X0.08661*%
%ADD38C,0.05906*%
%ADD39R,0.05906X0.05906*%
%ADD40R,0.05906X0.05906*%
%ADD41C,0.05000*%
G36*
X227500Y9167D02*
X226803Y8466D01*
X220207Y1870D01*
X219508Y1871D01*
X219383Y1996D01*
X1529D01*
X1529Y112177D01*
X2029Y112384D01*
X21316Y93098D01*
X21039Y92427D01*
X20917Y91500D01*
X21039Y90573D01*
X21397Y89708D01*
X21966Y88966D01*
X22708Y88397D01*
X23573Y88039D01*
X24500Y87917D01*
X25427Y88039D01*
X26292Y88397D01*
X27034Y88966D01*
X27603Y89708D01*
X27961Y90573D01*
X28083Y91500D01*
X27961Y92427D01*
X27603Y93292D01*
X27034Y94034D01*
X26292Y94603D01*
X25427Y94961D01*
X24500Y95083D01*
X23573Y94961D01*
X22902Y94684D01*
X3621Y113965D01*
Y187035D01*
X11550Y194964D01*
X79121D01*
X83378Y190707D01*
Y189381D01*
X82708Y189103D01*
X81966Y188534D01*
X81402Y187799D01*
X81379Y187796D01*
X80902Y187905D01*
Y189719D01*
X80902Y189719D01*
X80817Y190148D01*
X80574Y190512D01*
X80574Y190512D01*
X77207Y193879D01*
X76843Y194122D01*
X76414Y194207D01*
X76414Y194207D01*
X16586D01*
X16586Y194207D01*
X16157Y194122D01*
X15793Y193879D01*
X7207Y185293D01*
X6964Y184929D01*
X6878Y184500D01*
X6878Y184500D01*
Y118000D01*
X6878Y118000D01*
X6964Y117571D01*
X7207Y117207D01*
X21316Y103098D01*
X21039Y102427D01*
X20917Y101500D01*
X21039Y100573D01*
X21397Y99708D01*
X21966Y98966D01*
X22708Y98397D01*
X23573Y98039D01*
X24500Y97917D01*
X25427Y98039D01*
X26292Y98397D01*
X27034Y98966D01*
X27603Y99708D01*
X27961Y100573D01*
X28083Y101500D01*
X27961Y102427D01*
X27603Y103292D01*
X27034Y104034D01*
X26292Y104603D01*
X25427Y104961D01*
X24500Y105083D01*
X23573Y104961D01*
X22902Y104684D01*
X9122Y118465D01*
Y184035D01*
X17050Y191964D01*
X48980D01*
Y191218D01*
X44841D01*
Y187262D01*
X51159D01*
Y191218D01*
X51020D01*
Y191964D01*
X64456D01*
X64556Y191464D01*
X63937Y191208D01*
X63289Y190711D01*
X62792Y190063D01*
X62567Y189520D01*
X61159D01*
Y191218D01*
X54841D01*
Y187262D01*
X61159D01*
Y187480D01*
X62567D01*
X62792Y186937D01*
X63289Y186289D01*
X63937Y185792D01*
X64691Y185480D01*
X65500Y185373D01*
X66309Y185480D01*
X67063Y185792D01*
X67711Y186289D01*
X68208Y186937D01*
X68520Y187691D01*
X68627Y188500D01*
X68520Y189309D01*
X68208Y190063D01*
X67711Y190711D01*
X67063Y191208D01*
X66444Y191464D01*
X66544Y191964D01*
X75950D01*
X78659Y189255D01*
Y184422D01*
X78659Y184422D01*
X78745Y183993D01*
X78988Y183629D01*
X82629Y179988D01*
Y179042D01*
X81966Y178534D01*
X81397Y177792D01*
X81039Y176927D01*
X80917Y176000D01*
X81039Y175073D01*
X81397Y174208D01*
X81966Y173466D01*
X82708Y172897D01*
X83573Y172539D01*
X84500Y172417D01*
X85427Y172539D01*
X86292Y172897D01*
X87034Y173466D01*
X87603Y174208D01*
X87961Y175073D01*
X88083Y176000D01*
X87961Y176927D01*
X87603Y177792D01*
X87034Y178534D01*
X86292Y179103D01*
X85427Y179461D01*
X84872Y179534D01*
Y180453D01*
X84872Y180453D01*
X84786Y180882D01*
X84543Y181246D01*
X83782Y182007D01*
X84016Y182480D01*
X84500Y182417D01*
X85427Y182539D01*
X86292Y182897D01*
X87034Y183466D01*
X87603Y184208D01*
X87961Y185073D01*
X88083Y186000D01*
X87961Y186927D01*
X87603Y187792D01*
X87034Y188534D01*
X86292Y189103D01*
X85622Y189381D01*
Y191172D01*
X85536Y191601D01*
X85293Y191965D01*
X85293Y191965D01*
X80379Y196879D01*
X80015Y197122D01*
X79586Y197207D01*
X79586Y197207D01*
X11086D01*
X11086Y197207D01*
X10657Y197122D01*
X10293Y196879D01*
X2029Y188616D01*
X1529Y188823D01*
Y200971D01*
X227500D01*
Y9167D01*
D02*
G37*
%LPC*%
G36*
X74900Y189531D02*
Y186400D01*
X78031D01*
X77961Y186927D01*
X77603Y187792D01*
X77034Y188534D01*
X76292Y189103D01*
X75427Y189461D01*
X74900Y189531D01*
D02*
G37*
G36*
X74100D02*
X73573Y189461D01*
X72708Y189103D01*
X71966Y188534D01*
X71397Y187792D01*
X71039Y186927D01*
X70969Y186400D01*
X74100D01*
Y189531D01*
D02*
G37*
G36*
X61159Y183738D02*
X54841D01*
Y182779D01*
X51159D01*
Y183738D01*
X44841D01*
Y179782D01*
X51159D01*
Y180740D01*
X54841D01*
Y179782D01*
X57558D01*
Y178705D01*
X57004Y178151D01*
X54900D01*
Y175740D01*
Y173329D01*
X58447D01*
Y174619D01*
X70947D01*
Y172447D01*
X73378D01*
Y167553D01*
X70947D01*
Y160447D01*
X78053D01*
Y167553D01*
X75622D01*
Y172447D01*
X78053D01*
Y179553D01*
X70947D01*
Y176862D01*
X59252D01*
X59061Y177324D01*
X59299Y177562D01*
X59520Y177892D01*
X59597Y178283D01*
Y179782D01*
X61159D01*
Y183738D01*
D02*
G37*
G36*
X78031Y185600D02*
X74900D01*
Y182469D01*
X75427Y182539D01*
X76292Y182897D01*
X77034Y183466D01*
X77603Y184208D01*
X77961Y185073D01*
X78031Y185600D01*
D02*
G37*
G36*
X74100D02*
X70969D01*
X71039Y185073D01*
X71397Y184208D01*
X71966Y183466D01*
X72708Y182897D01*
X73573Y182539D01*
X74100Y182469D01*
Y185600D01*
D02*
G37*
G36*
X154500Y189583D02*
X153573Y189461D01*
X152708Y189103D01*
X151966Y188534D01*
X151397Y187792D01*
X151039Y186927D01*
X150917Y186000D01*
X151039Y185073D01*
X151397Y184208D01*
X151966Y183466D01*
X152708Y182897D01*
X153573Y182539D01*
X154500Y182417D01*
X155427Y182539D01*
X156292Y182897D01*
X157034Y183466D01*
X157603Y184208D01*
X157961Y185073D01*
X158083Y186000D01*
X157961Y186927D01*
X157603Y187792D01*
X157034Y188534D01*
X156292Y189103D01*
X155427Y189461D01*
X154500Y189583D01*
D02*
G37*
G36*
X144500D02*
X143573Y189461D01*
X142708Y189103D01*
X141966Y188534D01*
X141397Y187792D01*
X141039Y186927D01*
X140917Y186000D01*
X141039Y185073D01*
X141316Y184402D01*
X138707Y181793D01*
X138464Y181429D01*
X138378Y181000D01*
X138378Y181000D01*
Y177227D01*
X137878Y177128D01*
X137603Y177792D01*
X137034Y178534D01*
X136292Y179103D01*
X135427Y179461D01*
X134500Y179583D01*
X133573Y179461D01*
X132708Y179103D01*
X131966Y178534D01*
X131397Y177792D01*
X131039Y176927D01*
X130917Y176000D01*
X131039Y175073D01*
X131397Y174208D01*
X131966Y173466D01*
X132708Y172897D01*
X133573Y172539D01*
X134500Y172417D01*
X135427Y172539D01*
X136292Y172897D01*
X137034Y173466D01*
X137603Y174208D01*
X137878Y174873D01*
X138378Y174773D01*
Y169000D01*
X138378Y169000D01*
X138464Y168571D01*
X138707Y168207D01*
X141316Y165598D01*
X141039Y164927D01*
X140917Y164000D01*
X141039Y163073D01*
X141397Y162208D01*
X141966Y161466D01*
X142708Y160897D01*
X143372Y160622D01*
X143273Y160122D01*
X139965D01*
X137684Y162402D01*
X137961Y163073D01*
X138083Y164000D01*
X137961Y164927D01*
X137603Y165792D01*
X137034Y166534D01*
X136292Y167103D01*
X135427Y167461D01*
X134500Y167583D01*
X133573Y167461D01*
X132708Y167103D01*
X131966Y166534D01*
X131397Y165792D01*
X131039Y164927D01*
X130917Y164000D01*
X131039Y163073D01*
X131397Y162208D01*
X131966Y161466D01*
X132708Y160897D01*
X133573Y160539D01*
X134500Y160417D01*
X135427Y160539D01*
X136098Y160816D01*
X138707Y158207D01*
X138707Y158207D01*
X139071Y157964D01*
X139500Y157878D01*
X139500Y157878D01*
X182000D01*
X182000Y157878D01*
X182429Y157964D01*
X182793Y158207D01*
X192902Y168316D01*
X193573Y168039D01*
X194500Y167917D01*
X195427Y168039D01*
X196292Y168397D01*
X197034Y168966D01*
X197603Y169708D01*
X197961Y170573D01*
X198083Y171500D01*
X197961Y172427D01*
X197603Y173292D01*
X197034Y174034D01*
X196292Y174603D01*
X195427Y174961D01*
X194500Y175083D01*
X193573Y174961D01*
X192708Y174603D01*
X191966Y174034D01*
X191397Y173292D01*
X191039Y172427D01*
X190917Y171500D01*
X191039Y170573D01*
X191316Y169902D01*
X181535Y160122D01*
X155727D01*
X155628Y160622D01*
X156292Y160897D01*
X157034Y161466D01*
X157603Y162208D01*
X157961Y163073D01*
X158031Y163600D01*
X150969D01*
X151039Y163073D01*
X151397Y162208D01*
X151966Y161466D01*
X152708Y160897D01*
X153373Y160622D01*
X153273Y160122D01*
X145727D01*
X145627Y160622D01*
X146292Y160897D01*
X147034Y161466D01*
X147603Y162208D01*
X147961Y163073D01*
X148083Y164000D01*
X147961Y164927D01*
X147603Y165792D01*
X147034Y166534D01*
X146292Y167103D01*
X145427Y167461D01*
X144500Y167583D01*
X143573Y167461D01*
X142902Y167184D01*
X140622Y169465D01*
Y174773D01*
X141122Y174873D01*
X141397Y174208D01*
X141966Y173466D01*
X142708Y172897D01*
X143573Y172539D01*
X144500Y172417D01*
X145427Y172539D01*
X146292Y172897D01*
X147034Y173466D01*
X147603Y174208D01*
X147961Y175073D01*
X148083Y176000D01*
X147961Y176927D01*
X147603Y177792D01*
X147034Y178534D01*
X146292Y179103D01*
X145427Y179461D01*
X144500Y179583D01*
X143573Y179461D01*
X142708Y179103D01*
X141966Y178534D01*
X141397Y177792D01*
X141122Y177128D01*
X140622Y177227D01*
Y180535D01*
X142902Y182816D01*
X143573Y182539D01*
X144500Y182417D01*
X145427Y182539D01*
X146292Y182897D01*
X147034Y183466D01*
X147603Y184208D01*
X147961Y185073D01*
X148083Y186000D01*
X147961Y186927D01*
X147603Y187792D01*
X147034Y188534D01*
X146292Y189103D01*
X145427Y189461D01*
X144500Y189583D01*
D02*
G37*
G36*
X134500D02*
X133573Y189461D01*
X132708Y189103D01*
X131966Y188534D01*
X131397Y187792D01*
X131039Y186927D01*
X130917Y186000D01*
X131039Y185073D01*
X131397Y184208D01*
X131966Y183466D01*
X132708Y182897D01*
X133573Y182539D01*
X134500Y182417D01*
X135427Y182539D01*
X136292Y182897D01*
X137034Y183466D01*
X137603Y184208D01*
X137961Y185073D01*
X138083Y186000D01*
X137961Y186927D01*
X137603Y187792D01*
X137034Y188534D01*
X136292Y189103D01*
X135427Y189461D01*
X134500Y189583D01*
D02*
G37*
G36*
X204900Y185031D02*
Y181900D01*
X208031D01*
X207961Y182427D01*
X207603Y183292D01*
X207034Y184034D01*
X206292Y184603D01*
X205427Y184961D01*
X204900Y185031D01*
D02*
G37*
G36*
X204100D02*
X203573Y184961D01*
X202708Y184603D01*
X201966Y184034D01*
X201397Y183292D01*
X201039Y182427D01*
X200969Y181900D01*
X204100D01*
Y185031D01*
D02*
G37*
G36*
X208031Y181100D02*
X204900D01*
Y177969D01*
X205427Y178039D01*
X206292Y178397D01*
X207034Y178966D01*
X207603Y179708D01*
X207961Y180573D01*
X208031Y181100D01*
D02*
G37*
G36*
X204100D02*
X200969D01*
X201039Y180573D01*
X201397Y179708D01*
X201966Y178966D01*
X202708Y178397D01*
X203573Y178039D01*
X204100Y177969D01*
Y181100D01*
D02*
G37*
G36*
X28053Y185053D02*
X20947D01*
Y177947D01*
X28053D01*
Y185053D01*
D02*
G37*
G36*
X34500Y185083D02*
X33573Y184961D01*
X32708Y184603D01*
X31966Y184034D01*
X31397Y183292D01*
X31039Y182427D01*
X30917Y181500D01*
X31039Y180573D01*
X31397Y179708D01*
X31966Y178966D01*
X32708Y178397D01*
X33573Y178039D01*
X34500Y177917D01*
X35427Y178039D01*
X36292Y178397D01*
X37034Y178966D01*
X37603Y179708D01*
X37961Y180573D01*
X38083Y181500D01*
X37961Y182427D01*
X37603Y183292D01*
X37034Y184034D01*
X36292Y184603D01*
X35427Y184961D01*
X34500Y185083D01*
D02*
G37*
G36*
X154500Y179583D02*
X153573Y179461D01*
X152708Y179103D01*
X151966Y178534D01*
X151397Y177792D01*
X151039Y176927D01*
X150917Y176000D01*
X151039Y175073D01*
X151397Y174208D01*
X151966Y173466D01*
X152708Y172897D01*
X153573Y172539D01*
X154500Y172417D01*
X155427Y172539D01*
X156292Y172897D01*
X157034Y173466D01*
X157603Y174208D01*
X157881Y174878D01*
X180109D01*
X180292Y174437D01*
X180789Y173789D01*
X181437Y173292D01*
X182191Y172980D01*
X183000Y172873D01*
X183809Y172980D01*
X184563Y173292D01*
X185211Y173789D01*
X185708Y174437D01*
X186020Y175191D01*
X186127Y176000D01*
X186020Y176809D01*
X185708Y177563D01*
X185211Y178211D01*
X184563Y178708D01*
X183809Y179020D01*
X183000Y179127D01*
X182191Y179020D01*
X181437Y178708D01*
X180789Y178211D01*
X180292Y177563D01*
X180109Y177122D01*
X157881D01*
X157603Y177792D01*
X157034Y178534D01*
X156292Y179103D01*
X155427Y179461D01*
X154500Y179583D01*
D02*
G37*
G36*
X99500Y198127D02*
X98691Y198020D01*
X97937Y197708D01*
X97289Y197211D01*
X96792Y196563D01*
X96480Y195809D01*
X96373Y195000D01*
X96480Y194191D01*
X96792Y193437D01*
X97289Y192789D01*
X97937Y192292D01*
X98378Y192109D01*
Y187227D01*
X97878Y187127D01*
X97603Y187792D01*
X97034Y188534D01*
X96292Y189103D01*
X95427Y189461D01*
X94500Y189583D01*
X93573Y189461D01*
X92708Y189103D01*
X91966Y188534D01*
X91397Y187792D01*
X91039Y186927D01*
X90917Y186000D01*
X91039Y185073D01*
X91397Y184208D01*
X91966Y183466D01*
X92708Y182897D01*
X93573Y182539D01*
X94500Y182417D01*
X95427Y182539D01*
X96292Y182897D01*
X97034Y183466D01*
X97603Y184208D01*
X97878Y184872D01*
X98378Y184773D01*
Y181465D01*
X96098Y179184D01*
X95427Y179461D01*
X94500Y179583D01*
X93573Y179461D01*
X92708Y179103D01*
X91966Y178534D01*
X91397Y177792D01*
X91039Y176927D01*
X90917Y176000D01*
X91039Y175073D01*
X91397Y174208D01*
X91966Y173466D01*
X92372Y173155D01*
X92375Y173107D01*
X92229Y172634D01*
X91976Y172583D01*
X91612Y172340D01*
X91612Y172340D01*
X88325Y169053D01*
X88082Y168689D01*
X87997Y168260D01*
X87997Y168260D01*
Y166101D01*
X87497Y165931D01*
X87034Y166534D01*
X86292Y167103D01*
X85427Y167461D01*
X84500Y167583D01*
X83573Y167461D01*
X82708Y167103D01*
X81966Y166534D01*
X81397Y165792D01*
X81039Y164927D01*
X80917Y164000D01*
X81039Y163073D01*
X81397Y162208D01*
X81966Y161466D01*
X82708Y160897D01*
X83378Y160619D01*
Y157293D01*
X78707Y152622D01*
X76162D01*
X75993Y153122D01*
X76211Y153289D01*
X76708Y153937D01*
X77020Y154691D01*
X77127Y155500D01*
X77020Y156309D01*
X76708Y157063D01*
X76211Y157711D01*
X75563Y158208D01*
X74809Y158520D01*
X74000Y158627D01*
X73191Y158520D01*
X72437Y158208D01*
X71789Y157711D01*
X71292Y157063D01*
X71109Y156622D01*
X46465D01*
X40793Y162293D01*
X40429Y162536D01*
X40000Y162622D01*
X40000Y162622D01*
X37881D01*
X37603Y163292D01*
X37034Y164034D01*
X36292Y164603D01*
X35427Y164961D01*
X34553Y165076D01*
X34424Y165234D01*
X34262Y165557D01*
X34288Y165598D01*
X41144D01*
X41144Y165598D01*
X41574Y165683D01*
X41938Y165926D01*
X49319Y173308D01*
X51653D01*
X51653Y173308D01*
X51762Y173329D01*
X54100D01*
Y175740D01*
Y178151D01*
X50554D01*
Y175551D01*
X48854D01*
X48854Y175551D01*
X48425Y175465D01*
X48061Y175222D01*
X48061Y175222D01*
X40680Y167841D01*
X36256D01*
X36157Y168341D01*
X36292Y168397D01*
X37034Y168966D01*
X37603Y169708D01*
X37961Y170573D01*
X38031Y171100D01*
X34500D01*
X30969D01*
X31039Y170573D01*
X31397Y169708D01*
X31966Y168966D01*
X32708Y168397D01*
X33015Y168270D01*
X32997Y167844D01*
X32976Y167744D01*
X32629Y167512D01*
X28488Y163372D01*
X27542D01*
X27034Y164034D01*
X26292Y164603D01*
X25427Y164961D01*
X24500Y165083D01*
X23573Y164961D01*
X22708Y164603D01*
X21966Y164034D01*
X21397Y163292D01*
X21039Y162427D01*
X20917Y161500D01*
X21039Y160573D01*
X21397Y159708D01*
X21966Y158966D01*
X22708Y158397D01*
X23573Y158039D01*
X24500Y157917D01*
X25427Y158039D01*
X26292Y158397D01*
X27034Y158966D01*
X27603Y159708D01*
X27961Y160573D01*
X28034Y161128D01*
X28953D01*
X28953Y161128D01*
X29382Y161214D01*
X29746Y161457D01*
X30507Y162218D01*
X30980Y161984D01*
X30917Y161500D01*
X31039Y160573D01*
X31397Y159708D01*
X31966Y158966D01*
X32708Y158397D01*
X33573Y158039D01*
X34500Y157917D01*
X35427Y158039D01*
X36292Y158397D01*
X37034Y158966D01*
X37603Y159708D01*
X37881Y160378D01*
X39535D01*
X45207Y154707D01*
X45207Y154707D01*
X45571Y154464D01*
X46000Y154378D01*
X46000Y154378D01*
X71109D01*
X71292Y153937D01*
X71789Y153289D01*
X72007Y153122D01*
X71838Y152622D01*
X37881D01*
X37603Y153292D01*
X37034Y154034D01*
X36292Y154603D01*
X35427Y154961D01*
X34500Y155083D01*
X33573Y154961D01*
X32708Y154603D01*
X31966Y154034D01*
X31397Y153292D01*
X31039Y152427D01*
X30917Y151500D01*
X31039Y150573D01*
X31397Y149708D01*
X31966Y148966D01*
X32708Y148397D01*
X33573Y148039D01*
X34500Y147917D01*
X35427Y148039D01*
X36292Y148397D01*
X37034Y148966D01*
X37603Y149708D01*
X37881Y150378D01*
X79172D01*
X79172Y150378D01*
X79601Y150464D01*
X79965Y150707D01*
X85293Y156035D01*
X85293Y156035D01*
X85536Y156399D01*
X85622Y156828D01*
Y160619D01*
X86292Y160897D01*
X87034Y161466D01*
X87497Y162069D01*
X87997Y161899D01*
Y152560D01*
X87691Y152520D01*
X86937Y152208D01*
X86289Y151711D01*
X85792Y151063D01*
X85480Y150309D01*
X85373Y149500D01*
X85480Y148691D01*
X85792Y147937D01*
X86289Y147289D01*
X86507Y147122D01*
X86338Y146622D01*
X67787D01*
X65785Y148624D01*
X65421Y148867D01*
X64992Y148952D01*
X64992Y148952D01*
X40831D01*
X40831Y148952D01*
X40402Y148867D01*
X40038Y148624D01*
X40038Y148624D01*
X36098Y144684D01*
X35427Y144961D01*
X34500Y145083D01*
X33573Y144961D01*
X32708Y144603D01*
X31966Y144034D01*
X31397Y143292D01*
X31039Y142427D01*
X30917Y141500D01*
X31039Y140573D01*
X31397Y139708D01*
X31966Y138966D01*
X32708Y138397D01*
X33573Y138039D01*
X34500Y137917D01*
X35427Y138039D01*
X36292Y138397D01*
X37034Y138966D01*
X37603Y139708D01*
X37961Y140573D01*
X38083Y141500D01*
X37961Y142427D01*
X37684Y143098D01*
X41295Y146709D01*
X46888D01*
Y137069D01*
X47878D01*
Y136000D01*
X47878Y136000D01*
X47964Y135571D01*
X48207Y135207D01*
X54967Y128447D01*
X54967Y128447D01*
X55331Y128204D01*
X55760Y128119D01*
X57346D01*
X57700Y127765D01*
X57700Y127200D01*
X57700Y127040D01*
Y125900D01*
X65100D01*
Y127040D01*
X65100Y127540D01*
X65100Y127700D01*
Y130940D01*
X57700D01*
Y130362D01*
X56225D01*
X50122Y136465D01*
Y137069D01*
X51238D01*
Y146709D01*
X54762D01*
Y137069D01*
X59112D01*
Y140878D01*
X64035D01*
X64663Y140251D01*
X64480Y139809D01*
X64373Y139000D01*
X64480Y138191D01*
X64792Y137437D01*
X65289Y136789D01*
X65937Y136292D01*
X66691Y135980D01*
X67500Y135873D01*
X68309Y135980D01*
X68751Y136163D01*
X69478Y135435D01*
Y130940D01*
X66900D01*
Y127700D01*
X66900Y127200D01*
X66900Y127040D01*
Y123960D01*
X66900Y123460D01*
X66900Y123300D01*
Y120060D01*
X74300D01*
Y120638D01*
X82078D01*
X82078Y120638D01*
X82507Y120724D01*
X82871Y120967D01*
X85345Y123440D01*
X85655Y123648D01*
X87848Y125841D01*
X90218D01*
Y129938D01*
X93091D01*
Y129782D01*
X99409D01*
Y133738D01*
X93091D01*
Y132181D01*
X89118D01*
X89010Y132159D01*
X86262D01*
Y127427D01*
X84277Y125442D01*
X83966Y125234D01*
X83966Y125234D01*
X81614Y122881D01*
X74654D01*
X74300Y123235D01*
X74300Y123800D01*
Y123878D01*
X74497Y124378D01*
X79882D01*
X79882Y124378D01*
X80311Y124464D01*
X80675Y124707D01*
X81553Y125585D01*
X81553Y125585D01*
X81724Y125841D01*
X82738D01*
Y132159D01*
X81881D01*
Y135841D01*
X82738D01*
Y142159D01*
X78782D01*
Y139122D01*
X77391D01*
X77208Y139563D01*
X76711Y140211D01*
X76063Y140708D01*
X75309Y141020D01*
X74500Y141127D01*
X73691Y141020D01*
X72937Y140708D01*
X72289Y140211D01*
X71792Y139563D01*
X71480Y138809D01*
X71373Y138000D01*
X71461Y137332D01*
X71016Y137070D01*
X70337Y137749D01*
X70520Y138191D01*
X70627Y139000D01*
X70520Y139809D01*
X70208Y140563D01*
X69711Y141211D01*
X69063Y141708D01*
X68309Y142020D01*
X67500Y142127D01*
X66691Y142020D01*
X66249Y141837D01*
X65293Y142793D01*
X64929Y143036D01*
X64500Y143122D01*
X64500Y143122D01*
X59112D01*
Y146709D01*
X64528D01*
X66530Y144707D01*
X66530Y144707D01*
X66894Y144464D01*
X67323Y144378D01*
X67323Y144378D01*
X90157D01*
X90157Y144378D01*
X90586Y144464D01*
X90950Y144707D01*
X95293Y149050D01*
X95293Y149050D01*
X95536Y149414D01*
X95622Y149843D01*
X95622Y149843D01*
Y160619D01*
X96292Y160897D01*
X97034Y161466D01*
X97603Y162208D01*
X97961Y163073D01*
X98083Y164000D01*
X97961Y164927D01*
X97603Y165792D01*
X97034Y166534D01*
X96292Y167103D01*
X95427Y167461D01*
X94500Y167583D01*
X93573Y167461D01*
X92708Y167103D01*
X91966Y166534D01*
X91397Y165792D01*
X91039Y164927D01*
X90917Y164000D01*
X91039Y163073D01*
X91397Y162208D01*
X91966Y161466D01*
X92708Y160897D01*
X93378Y160619D01*
Y150308D01*
X92064Y148994D01*
X91591Y149227D01*
X91627Y149500D01*
X91520Y150309D01*
X91208Y151063D01*
X90711Y151711D01*
X90240Y152073D01*
Y167795D01*
X92870Y170426D01*
X96344D01*
X96344Y170426D01*
X96774Y170511D01*
X97137Y170754D01*
X100512Y174128D01*
X101458D01*
X101966Y173466D01*
X102708Y172897D01*
X103573Y172539D01*
X104500Y172417D01*
X105427Y172539D01*
X106292Y172897D01*
X107034Y173466D01*
X107603Y174208D01*
X107878Y174873D01*
X108378Y174773D01*
Y169000D01*
X108378Y169000D01*
X108464Y168571D01*
X108707Y168207D01*
X111316Y165598D01*
X111039Y164927D01*
X110917Y164000D01*
X111039Y163073D01*
X111397Y162208D01*
X111966Y161466D01*
X112708Y160897D01*
X113573Y160539D01*
X114500Y160417D01*
X115427Y160539D01*
X116098Y160816D01*
X126207Y150707D01*
X126571Y150464D01*
X127000Y150378D01*
X127000Y150378D01*
X191119D01*
X191397Y149708D01*
X191966Y148966D01*
X192415Y148622D01*
X192245Y148122D01*
X179500D01*
X179071Y148036D01*
X178707Y147793D01*
X178707Y147793D01*
X146098Y115184D01*
X145427Y115461D01*
X144500Y115583D01*
X143573Y115461D01*
X142708Y115103D01*
X141966Y114534D01*
X141397Y113792D01*
X141039Y112927D01*
X140917Y112000D01*
X141039Y111073D01*
X141397Y110208D01*
X141966Y109466D01*
X142708Y108897D01*
X143573Y108539D01*
X144500Y108417D01*
X145427Y108539D01*
X146292Y108897D01*
X147034Y109466D01*
X147603Y110208D01*
X147961Y111073D01*
X148083Y112000D01*
X147961Y112927D01*
X147684Y113598D01*
X179965Y145878D01*
X200000D01*
X200000Y145878D01*
X200429Y145964D01*
X200793Y146207D01*
X202902Y148316D01*
X203573Y148039D01*
X204500Y147917D01*
X205427Y148039D01*
X206292Y148397D01*
X207034Y148966D01*
X207603Y149708D01*
X207961Y150573D01*
X208083Y151500D01*
X207961Y152427D01*
X207603Y153292D01*
X207034Y154034D01*
X206292Y154603D01*
X205427Y154961D01*
X204500Y155083D01*
X203573Y154961D01*
X202708Y154603D01*
X201966Y154034D01*
X201397Y153292D01*
X201039Y152427D01*
X200917Y151500D01*
X201039Y150573D01*
X201316Y149902D01*
X199535Y148122D01*
X196755D01*
X196585Y148622D01*
X197034Y148966D01*
X197603Y149708D01*
X197961Y150573D01*
X198083Y151500D01*
X197961Y152427D01*
X197603Y153292D01*
X197034Y154034D01*
X196292Y154603D01*
X195427Y154961D01*
X194500Y155083D01*
X193573Y154961D01*
X192708Y154603D01*
X191966Y154034D01*
X191397Y153292D01*
X191119Y152622D01*
X127465D01*
X117684Y162402D01*
X117961Y163073D01*
X118083Y164000D01*
X117961Y164927D01*
X117603Y165792D01*
X117034Y166534D01*
X116292Y167103D01*
X115427Y167461D01*
X114500Y167583D01*
X113573Y167461D01*
X112902Y167184D01*
X110622Y169465D01*
Y174773D01*
X111122Y174873D01*
X111397Y174208D01*
X111966Y173466D01*
X112708Y172897D01*
X113573Y172539D01*
X114500Y172417D01*
X115427Y172539D01*
X116292Y172897D01*
X117034Y173466D01*
X117603Y174208D01*
X117961Y175073D01*
X118083Y176000D01*
X117961Y176927D01*
X117684Y177598D01*
X119512Y179426D01*
X122307D01*
X122477Y178926D01*
X121966Y178534D01*
X121397Y177792D01*
X121039Y176927D01*
X120917Y176000D01*
X121039Y175073D01*
X121397Y174208D01*
X121966Y173466D01*
X122708Y172897D01*
X123378Y172619D01*
Y167381D01*
X122708Y167103D01*
X121966Y166534D01*
X121397Y165792D01*
X121039Y164927D01*
X120917Y164000D01*
X121039Y163073D01*
X121397Y162208D01*
X121966Y161466D01*
X122708Y160897D01*
X123573Y160539D01*
X124500Y160417D01*
X125427Y160539D01*
X126098Y160816D01*
X131707Y155207D01*
X131707Y155207D01*
X132071Y154964D01*
X132500Y154878D01*
X132500Y154878D01*
X189000D01*
X189000Y154878D01*
X189429Y154964D01*
X189793Y155207D01*
X192902Y158316D01*
X193573Y158039D01*
X194500Y157917D01*
X195427Y158039D01*
X196292Y158397D01*
X197034Y158966D01*
X197603Y159708D01*
X197961Y160573D01*
X198083Y161500D01*
X197961Y162427D01*
X197603Y163292D01*
X197034Y164034D01*
X196292Y164603D01*
X195427Y164961D01*
X194500Y165083D01*
X193573Y164961D01*
X192708Y164603D01*
X191966Y164034D01*
X191397Y163292D01*
X191039Y162427D01*
X190917Y161500D01*
X191039Y160573D01*
X191316Y159902D01*
X188535Y157122D01*
X132965D01*
X127684Y162402D01*
X127961Y163073D01*
X128083Y164000D01*
X127961Y164927D01*
X127603Y165792D01*
X127034Y166534D01*
X126292Y167103D01*
X125622Y167381D01*
Y172619D01*
X126292Y172897D01*
X127034Y173466D01*
X127603Y174208D01*
X127961Y175073D01*
X128083Y176000D01*
X127961Y176927D01*
X127603Y177792D01*
X127034Y178534D01*
X126292Y179103D01*
X126151Y179162D01*
X126095Y179726D01*
X126137Y179754D01*
X129746Y183362D01*
X129746Y183363D01*
X129989Y183726D01*
X130074Y184156D01*
X130074Y184156D01*
Y189988D01*
X132965Y192878D01*
X181535D01*
X190947Y183467D01*
Y177947D01*
X198053D01*
Y185053D01*
X192533D01*
X182793Y194793D01*
X182429Y195036D01*
X182000Y195122D01*
X182000Y195122D01*
X132500D01*
X132071Y195036D01*
X131707Y194793D01*
X131707Y194793D01*
X128160Y191246D01*
X127917Y190882D01*
X127831Y190453D01*
X127831Y190453D01*
Y188316D01*
X127331Y188146D01*
X127034Y188534D01*
X126292Y189103D01*
X125622Y189381D01*
Y192000D01*
X125622Y192000D01*
X125536Y192429D01*
X125293Y192793D01*
X125293Y192793D01*
X123293Y194793D01*
X122929Y195036D01*
X122500Y195122D01*
X122500Y195122D01*
X112500D01*
X112500Y195122D01*
X112071Y195036D01*
X111707Y194793D01*
X108707Y191793D01*
X108464Y191429D01*
X108378Y191000D01*
X108378Y191000D01*
Y187227D01*
X107878Y187127D01*
X107603Y187792D01*
X107034Y188534D01*
X106292Y189103D01*
X105622Y189381D01*
Y192035D01*
X109465Y195878D01*
X197535D01*
X212878Y180535D01*
Y175965D01*
X209450Y172536D01*
X209430D01*
X209429Y172536D01*
X209000Y172622D01*
X209000Y172622D01*
X207881D01*
X207603Y173292D01*
X207034Y174034D01*
X206292Y174603D01*
X205427Y174961D01*
X204500Y175083D01*
X203573Y174961D01*
X202708Y174603D01*
X201966Y174034D01*
X201397Y173292D01*
X201039Y172427D01*
X200917Y171500D01*
X201039Y170573D01*
X201397Y169708D01*
X201966Y168966D01*
X202708Y168397D01*
X203573Y168039D01*
X204500Y167917D01*
X205427Y168039D01*
X206292Y168397D01*
X207034Y168966D01*
X207603Y169708D01*
X207881Y170378D01*
X208656D01*
X208657Y170378D01*
X209086Y170293D01*
X209086Y170293D01*
X209914D01*
X209914Y170293D01*
X210343Y170378D01*
X210707Y170621D01*
X214793Y174707D01*
X215036Y175071D01*
X215122Y175500D01*
X215122Y175500D01*
Y181000D01*
X215122Y181000D01*
X215036Y181429D01*
X214793Y181793D01*
X214793Y181793D01*
X198793Y197793D01*
X198429Y198036D01*
X198000Y198122D01*
X198000Y198122D01*
X109000D01*
X109000Y198122D01*
X108571Y198036D01*
X108207Y197793D01*
X108207Y197793D01*
X103707Y193293D01*
X103464Y192929D01*
X103378Y192500D01*
X103378Y192500D01*
Y189381D01*
X102708Y189103D01*
X101966Y188534D01*
X101397Y187792D01*
X101122Y187127D01*
X100622Y187227D01*
Y192109D01*
X101063Y192292D01*
X101711Y192789D01*
X102208Y193437D01*
X102520Y194191D01*
X102627Y195000D01*
X102520Y195809D01*
X102208Y196563D01*
X101711Y197211D01*
X101063Y197708D01*
X100309Y198020D01*
X99500Y198127D01*
D02*
G37*
G36*
X34900Y175031D02*
Y171900D01*
X38031D01*
X37961Y172427D01*
X37603Y173292D01*
X37034Y174034D01*
X36292Y174603D01*
X35427Y174961D01*
X34900Y175031D01*
D02*
G37*
G36*
X34100D02*
X33573Y174961D01*
X32708Y174603D01*
X31966Y174034D01*
X31397Y173292D01*
X31039Y172427D01*
X30969Y171900D01*
X34100D01*
Y175031D01*
D02*
G37*
G36*
X58447Y170671D02*
X54900D01*
Y168260D01*
X54100D01*
Y170671D01*
X50554D01*
Y165849D01*
X50616D01*
X51091Y165828D01*
X51176Y165398D01*
X51420Y165034D01*
X55747Y160707D01*
X55747Y160707D01*
X56111Y160464D01*
X56540Y160378D01*
X56540Y160378D01*
X62109D01*
X62292Y159937D01*
X62789Y159289D01*
X63437Y158792D01*
X64191Y158480D01*
X65000Y158373D01*
X65809Y158480D01*
X66563Y158792D01*
X67211Y159289D01*
X67708Y159937D01*
X68020Y160691D01*
X68127Y161500D01*
X68020Y162309D01*
X67708Y163063D01*
X67211Y163711D01*
X66563Y164208D01*
X65809Y164520D01*
X65000Y164627D01*
X64191Y164520D01*
X63437Y164208D01*
X62789Y163711D01*
X62292Y163063D01*
X62109Y162622D01*
X57005D01*
X54239Y165387D01*
X54431Y165849D01*
X58447D01*
Y170671D01*
D02*
G37*
G36*
X24500Y175083D02*
X23573Y174961D01*
X22708Y174603D01*
X21966Y174034D01*
X21397Y173292D01*
X21039Y172427D01*
X20917Y171500D01*
X21039Y170573D01*
X21397Y169708D01*
X21966Y168966D01*
X22708Y168397D01*
X23573Y168039D01*
X24500Y167917D01*
X25427Y168039D01*
X26292Y168397D01*
X27034Y168966D01*
X27603Y169708D01*
X27961Y170573D01*
X28083Y171500D01*
X27961Y172427D01*
X27603Y173292D01*
X27034Y174034D01*
X26292Y174603D01*
X25427Y174961D01*
X24500Y175083D01*
D02*
G37*
G36*
X154900Y167531D02*
Y164400D01*
X158031D01*
X157961Y164927D01*
X157603Y165792D01*
X157034Y166534D01*
X156292Y167103D01*
X155427Y167461D01*
X154900Y167531D01*
D02*
G37*
G36*
X154100D02*
X153573Y167461D01*
X152708Y167103D01*
X151966Y166534D01*
X151397Y165792D01*
X151039Y164927D01*
X150969Y164400D01*
X154100D01*
Y167531D01*
D02*
G37*
G36*
X204500Y165083D02*
X203573Y164961D01*
X202708Y164603D01*
X201966Y164034D01*
X201397Y163292D01*
X201039Y162427D01*
X200917Y161500D01*
X201039Y160573D01*
X201397Y159708D01*
X201966Y158966D01*
X202708Y158397D01*
X203573Y158039D01*
X204500Y157917D01*
X205427Y158039D01*
X206292Y158397D01*
X207034Y158966D01*
X207603Y159708D01*
X207961Y160573D01*
X208083Y161500D01*
X207961Y162427D01*
X207603Y163292D01*
X207034Y164034D01*
X206292Y164603D01*
X205427Y164961D01*
X204500Y165083D01*
D02*
G37*
G36*
X24500Y155083D02*
X23573Y154961D01*
X22708Y154603D01*
X21966Y154034D01*
X21397Y153292D01*
X21039Y152427D01*
X20917Y151500D01*
X21039Y150573D01*
X21397Y149708D01*
X21966Y148966D01*
X22708Y148397D01*
X23573Y148039D01*
X24500Y147917D01*
X25427Y148039D01*
X26292Y148397D01*
X27034Y148966D01*
X27603Y149708D01*
X27961Y150573D01*
X28083Y151500D01*
X27961Y152427D01*
X27603Y153292D01*
X27034Y154034D01*
X26292Y154603D01*
X25427Y154961D01*
X24500Y155083D01*
D02*
G37*
G36*
X104500Y167583D02*
X103573Y167461D01*
X102708Y167103D01*
X101966Y166534D01*
X101397Y165792D01*
X101039Y164927D01*
X100917Y164000D01*
X101039Y163073D01*
X101397Y162208D01*
X101966Y161466D01*
X102708Y160897D01*
X103378Y160619D01*
Y123965D01*
X100535Y121122D01*
X91351D01*
X91260Y121809D01*
X90948Y122563D01*
X90451Y123211D01*
X89803Y123708D01*
X89049Y124020D01*
X88240Y124127D01*
X87431Y124020D01*
X86677Y123708D01*
X86029Y123211D01*
X85532Y122563D01*
X85220Y121809D01*
X85113Y121000D01*
X85220Y120191D01*
X85532Y119437D01*
X86029Y118789D01*
X86677Y118292D01*
X87203Y118074D01*
X87103Y117574D01*
X46137D01*
X46038Y118074D01*
X46563Y118292D01*
X47211Y118789D01*
X47708Y119437D01*
X48020Y120191D01*
X48127Y121000D01*
X48020Y121809D01*
X47708Y122563D01*
X47211Y123211D01*
X46563Y123708D01*
X45809Y124020D01*
X45000Y124127D01*
X44191Y124020D01*
X43749Y123837D01*
X37684Y129902D01*
X37961Y130573D01*
X38083Y131500D01*
X37961Y132427D01*
X37603Y133292D01*
X37034Y134034D01*
X36292Y134603D01*
X35427Y134961D01*
X34500Y135083D01*
X33573Y134961D01*
X32708Y134603D01*
X31966Y134034D01*
X31397Y133292D01*
X31039Y132427D01*
X30917Y131500D01*
X31039Y130573D01*
X31397Y129708D01*
X31966Y128966D01*
X32708Y128397D01*
X33573Y128039D01*
X34500Y127917D01*
X35427Y128039D01*
X36098Y128316D01*
X42163Y122251D01*
X41980Y121809D01*
X41873Y121000D01*
X41980Y120191D01*
X42292Y119437D01*
X42789Y118789D01*
X43437Y118292D01*
X43962Y118074D01*
X43863Y117574D01*
X39453D01*
X39453Y117574D01*
X39024Y117489D01*
X38660Y117246D01*
X36098Y114684D01*
X35427Y114961D01*
X34500Y115083D01*
X33573Y114961D01*
X32708Y114603D01*
X31966Y114034D01*
X31622Y113585D01*
X31122Y113754D01*
Y117035D01*
X32581Y118495D01*
X32708Y118397D01*
X33573Y118039D01*
X34500Y117917D01*
X35427Y118039D01*
X36292Y118397D01*
X37034Y118966D01*
X37603Y119708D01*
X37961Y120573D01*
X38083Y121500D01*
X37961Y122427D01*
X37603Y123292D01*
X37034Y124034D01*
X36292Y124603D01*
X35427Y124961D01*
X34500Y125083D01*
X33573Y124961D01*
X32708Y124603D01*
X31966Y124034D01*
X31397Y123292D01*
X31039Y122427D01*
X30917Y121500D01*
X31039Y120573D01*
X31170Y120256D01*
X29207Y118293D01*
X28964Y117929D01*
X28878Y117500D01*
X28878Y117500D01*
Y99703D01*
X28878Y99703D01*
X28964Y99274D01*
X29207Y98910D01*
X32895Y95222D01*
X32898Y94939D01*
X32820Y94650D01*
X32708Y94603D01*
X31966Y94034D01*
X31397Y93292D01*
X31039Y92427D01*
X30917Y91500D01*
X31039Y90573D01*
X31397Y89708D01*
X31966Y88966D01*
X32708Y88397D01*
X33573Y88039D01*
X34500Y87917D01*
X35427Y88039D01*
X36292Y88397D01*
X37034Y88966D01*
X37603Y89708D01*
X37961Y90573D01*
X38083Y91500D01*
X37961Y92427D01*
X37603Y93292D01*
X37034Y94034D01*
X36646Y94331D01*
X36816Y94831D01*
X38842D01*
X41163Y92511D01*
X40980Y92069D01*
X40873Y91260D01*
X40980Y90451D01*
X41292Y89697D01*
X41789Y89049D01*
X42437Y88552D01*
X43191Y88240D01*
X44000Y88133D01*
X44809Y88240D01*
X45563Y88552D01*
X46211Y89049D01*
X46708Y89697D01*
X47020Y90451D01*
X47127Y91260D01*
X47020Y92069D01*
X46708Y92823D01*
X46211Y93471D01*
X45563Y93968D01*
X44809Y94280D01*
X44000Y94387D01*
X43191Y94280D01*
X42749Y94097D01*
X40100Y96746D01*
X39736Y96989D01*
X39307Y97074D01*
X39307Y97074D01*
X34215D01*
X33782Y97507D01*
X34016Y97980D01*
X34500Y97917D01*
X35427Y98039D01*
X36292Y98397D01*
X37034Y98966D01*
X37603Y99708D01*
X37881Y100378D01*
X40724D01*
X40724Y100378D01*
X41154Y100464D01*
X41517Y100707D01*
X51140Y110329D01*
X53100D01*
Y112740D01*
X53900D01*
Y110329D01*
X57446D01*
Y110878D01*
X71119D01*
X71397Y110208D01*
X71966Y109466D01*
X72708Y108897D01*
X73573Y108539D01*
X74500Y108417D01*
X75427Y108539D01*
X76292Y108897D01*
X77034Y109466D01*
X77603Y110208D01*
X77961Y111073D01*
X78083Y112000D01*
X77961Y112927D01*
X77603Y113792D01*
X77034Y114534D01*
X76646Y114831D01*
X76816Y115331D01*
X82184D01*
X82354Y114831D01*
X81966Y114534D01*
X81397Y113792D01*
X81039Y112927D01*
X80969Y112400D01*
X84500D01*
Y112000D01*
D01*
Y112400D01*
X88031D01*
X87961Y112927D01*
X87603Y113792D01*
X87034Y114534D01*
X86646Y114831D01*
X86816Y115331D01*
X92184D01*
X92354Y114831D01*
X91966Y114534D01*
X91397Y113792D01*
X91039Y112927D01*
X90917Y112000D01*
X91039Y111073D01*
X91397Y110208D01*
X91966Y109466D01*
X92708Y108897D01*
X93573Y108539D01*
X94500Y108417D01*
X95427Y108539D01*
X96292Y108897D01*
X97034Y109466D01*
X97603Y110208D01*
X97961Y111073D01*
X98083Y112000D01*
X97961Y112927D01*
X97603Y113792D01*
X97034Y114534D01*
X96646Y114831D01*
X96816Y115331D01*
X102184D01*
X102354Y114831D01*
X101966Y114534D01*
X101397Y113792D01*
X101039Y112927D01*
X100917Y112000D01*
X101039Y111073D01*
X101397Y110208D01*
X101966Y109466D01*
X102708Y108897D01*
X103573Y108539D01*
X104500Y108417D01*
X105427Y108539D01*
X106292Y108897D01*
X107034Y109466D01*
X107603Y110208D01*
X107961Y111073D01*
X108083Y112000D01*
X107961Y112927D01*
X107603Y113792D01*
X107034Y114534D01*
X106646Y114831D01*
X106816Y115331D01*
X112184D01*
X112354Y114831D01*
X111966Y114534D01*
X111397Y113792D01*
X111039Y112927D01*
X110917Y112000D01*
X111039Y111073D01*
X111397Y110208D01*
X111966Y109466D01*
X112708Y108897D01*
X113573Y108539D01*
X114500Y108417D01*
X115427Y108539D01*
X116292Y108897D01*
X117034Y109466D01*
X117603Y110208D01*
X117961Y111073D01*
X118083Y112000D01*
X117961Y112927D01*
X117603Y113792D01*
X117034Y114534D01*
X116292Y115103D01*
X115951Y115245D01*
X115895Y115809D01*
X143965Y143878D01*
X157609D01*
X157792Y143437D01*
X158289Y142789D01*
X158937Y142292D01*
X159691Y141980D01*
X160500Y141873D01*
X161309Y141980D01*
X162063Y142292D01*
X162711Y142789D01*
X163208Y143437D01*
X163520Y144191D01*
X163627Y145000D01*
X163520Y145809D01*
X163208Y146563D01*
X162711Y147211D01*
X162063Y147708D01*
X161309Y148020D01*
X160500Y148127D01*
X159691Y148020D01*
X158937Y147708D01*
X158289Y147211D01*
X157792Y146563D01*
X157609Y146122D01*
X143500D01*
X143071Y146036D01*
X142707Y145793D01*
X142707Y145793D01*
X114488Y117574D01*
X89377D01*
X89278Y118074D01*
X89803Y118292D01*
X90451Y118789D01*
X90520Y118878D01*
X101000D01*
X101000Y118878D01*
X101429Y118964D01*
X101793Y119207D01*
X105293Y122707D01*
X105293Y122707D01*
X105536Y123071D01*
X105622Y123500D01*
X105622Y123500D01*
Y160619D01*
X106292Y160897D01*
X107034Y161466D01*
X107603Y162208D01*
X107961Y163073D01*
X108083Y164000D01*
X107961Y164927D01*
X107603Y165792D01*
X107034Y166534D01*
X106292Y167103D01*
X105427Y167461D01*
X104500Y167583D01*
D02*
G37*
G36*
X99409Y141218D02*
X96650D01*
Y139640D01*
X99409D01*
Y141218D01*
D02*
G37*
G36*
X95850D02*
X93091D01*
Y139640D01*
X95850D01*
Y141218D01*
D02*
G37*
G36*
X90218Y142159D02*
X88640D01*
Y139400D01*
X90218D01*
Y142159D01*
D02*
G37*
G36*
X87840D02*
X86262D01*
Y139400D01*
X87840D01*
Y142159D01*
D02*
G37*
G36*
X204500Y145083D02*
X203573Y144961D01*
X202708Y144603D01*
X201966Y144034D01*
X201397Y143292D01*
X201039Y142427D01*
X200917Y141500D01*
X201039Y140573D01*
X201397Y139708D01*
X201966Y138966D01*
X202708Y138397D01*
X203573Y138039D01*
X204500Y137917D01*
X205427Y138039D01*
X206292Y138397D01*
X207034Y138966D01*
X207603Y139708D01*
X207961Y140573D01*
X208083Y141500D01*
X207961Y142427D01*
X207603Y143292D01*
X207034Y144034D01*
X206292Y144603D01*
X205427Y144961D01*
X204500Y145083D01*
D02*
G37*
G36*
X194500D02*
X193573Y144961D01*
X192708Y144603D01*
X191966Y144034D01*
X191397Y143292D01*
X191039Y142427D01*
X190917Y141500D01*
X191039Y140573D01*
X191397Y139708D01*
X191966Y138966D01*
X192708Y138397D01*
X193573Y138039D01*
X194500Y137917D01*
X195427Y138039D01*
X196292Y138397D01*
X197034Y138966D01*
X197603Y139708D01*
X197961Y140573D01*
X198083Y141500D01*
X197961Y142427D01*
X197603Y143292D01*
X197034Y144034D01*
X196292Y144603D01*
X195427Y144961D01*
X194500Y145083D01*
D02*
G37*
G36*
X24500D02*
X23573Y144961D01*
X22708Y144603D01*
X21966Y144034D01*
X21397Y143292D01*
X21039Y142427D01*
X20917Y141500D01*
X21039Y140573D01*
X21397Y139708D01*
X21966Y138966D01*
X22708Y138397D01*
X23573Y138039D01*
X24500Y137917D01*
X25427Y138039D01*
X26292Y138397D01*
X27034Y138966D01*
X27603Y139708D01*
X27961Y140573D01*
X28083Y141500D01*
X27961Y142427D01*
X27603Y143292D01*
X27034Y144034D01*
X26292Y144603D01*
X25427Y144961D01*
X24500Y145083D01*
D02*
G37*
G36*
X99409Y138840D02*
X96650D01*
Y137262D01*
X99409D01*
Y138840D01*
D02*
G37*
G36*
X95850D02*
X93091D01*
Y137262D01*
X95850D01*
Y138840D01*
D02*
G37*
G36*
X90218Y138600D02*
X88640D01*
Y135841D01*
X90218D01*
Y138600D01*
D02*
G37*
G36*
X87840D02*
X86262D01*
Y135841D01*
X87840D01*
Y138600D01*
D02*
G37*
G36*
X194500Y135083D02*
X193573Y134961D01*
X192708Y134603D01*
X191966Y134034D01*
X191397Y133292D01*
X191039Y132427D01*
X190917Y131500D01*
X191039Y130573D01*
X191397Y129708D01*
X191966Y128966D01*
X192708Y128397D01*
X193573Y128039D01*
X194500Y127917D01*
X195427Y128039D01*
X196292Y128397D01*
X197034Y128966D01*
X197603Y129708D01*
X197961Y130573D01*
X198083Y131500D01*
X197961Y132427D01*
X197603Y133292D01*
X197034Y134034D01*
X196292Y134603D01*
X195427Y134961D01*
X194500Y135083D01*
D02*
G37*
G36*
X13000Y178377D02*
X12191Y178270D01*
X11437Y177958D01*
X10789Y177461D01*
X10292Y176813D01*
X9980Y176059D01*
X9873Y175250D01*
X9980Y174441D01*
X10292Y173687D01*
X10789Y173039D01*
X11437Y172542D01*
X11878Y172359D01*
Y143000D01*
X11878Y143000D01*
X11964Y142571D01*
X12207Y142207D01*
X21316Y133098D01*
X21039Y132427D01*
X20917Y131500D01*
X21039Y130573D01*
X21397Y129708D01*
X21966Y128966D01*
X22708Y128397D01*
X23573Y128039D01*
X24500Y127917D01*
X25427Y128039D01*
X26292Y128397D01*
X27034Y128966D01*
X27603Y129708D01*
X27961Y130573D01*
X28083Y131500D01*
X27961Y132427D01*
X27603Y133292D01*
X27034Y134034D01*
X26292Y134603D01*
X25427Y134961D01*
X24500Y135083D01*
X23573Y134961D01*
X22902Y134684D01*
X14121Y143465D01*
Y172359D01*
X14563Y172542D01*
X15211Y173039D01*
X15708Y173687D01*
X16020Y174441D01*
X16127Y175250D01*
X16020Y176059D01*
X15708Y176813D01*
X15211Y177461D01*
X14563Y177958D01*
X13809Y178270D01*
X13000Y178377D01*
D02*
G37*
G36*
X65100Y125100D02*
X57700D01*
Y123960D01*
X57700Y123460D01*
Y123382D01*
X57503Y122881D01*
X56391D01*
X56208Y123323D01*
X55711Y123971D01*
X55063Y124468D01*
X54309Y124780D01*
X53500Y124887D01*
X52691Y124780D01*
X51937Y124468D01*
X51289Y123971D01*
X50792Y123323D01*
X50480Y122569D01*
X50373Y121760D01*
X50480Y120951D01*
X50792Y120197D01*
X51289Y119549D01*
X51937Y119052D01*
X52691Y118740D01*
X53500Y118633D01*
X54309Y118740D01*
X55063Y119052D01*
X55711Y119549D01*
X56208Y120197D01*
X56391Y120638D01*
X57700D01*
Y120060D01*
X65100D01*
Y123300D01*
X65100Y123800D01*
X65100Y123960D01*
Y125100D01*
D02*
G37*
G36*
X204500Y125083D02*
X203573Y124961D01*
X202708Y124603D01*
X201966Y124034D01*
X201397Y123292D01*
X201039Y122427D01*
X200917Y121500D01*
X201039Y120573D01*
X201397Y119708D01*
X201966Y118966D01*
X202708Y118397D01*
X203573Y118039D01*
X204500Y117917D01*
X205427Y118039D01*
X206292Y118397D01*
X207034Y118966D01*
X207603Y119708D01*
X207961Y120573D01*
X208083Y121500D01*
X207961Y122427D01*
X207603Y123292D01*
X207034Y124034D01*
X206292Y124603D01*
X205427Y124961D01*
X204500Y125083D01*
D02*
G37*
G36*
X194500D02*
X193573Y124961D01*
X192708Y124603D01*
X191966Y124034D01*
X191397Y123292D01*
X191039Y122427D01*
X190917Y121500D01*
X191039Y120573D01*
X191397Y119708D01*
X191966Y118966D01*
X192708Y118397D01*
X193573Y118039D01*
X194500Y117917D01*
X195427Y118039D01*
X196292Y118397D01*
X197034Y118966D01*
X197603Y119708D01*
X197961Y120573D01*
X198083Y121500D01*
X197961Y122427D01*
X197603Y123292D01*
X197034Y124034D01*
X196292Y124603D01*
X195427Y124961D01*
X194500Y125083D01*
D02*
G37*
G36*
X24500D02*
X23573Y124961D01*
X22708Y124603D01*
X21966Y124034D01*
X21397Y123292D01*
X21039Y122427D01*
X20917Y121500D01*
X21039Y120573D01*
X21397Y119708D01*
X21966Y118966D01*
X22708Y118397D01*
X23573Y118039D01*
X24500Y117917D01*
X25427Y118039D01*
X26292Y118397D01*
X27034Y118966D01*
X27603Y119708D01*
X27961Y120573D01*
X28083Y121500D01*
X27961Y122427D01*
X27603Y123292D01*
X27034Y124034D01*
X26292Y124603D01*
X25427Y124961D01*
X24500Y125083D01*
D02*
G37*
G36*
X88031Y111600D02*
X84900D01*
Y108469D01*
X85427Y108539D01*
X86292Y108897D01*
X87034Y109466D01*
X87603Y110208D01*
X87961Y111073D01*
X88031Y111600D01*
D02*
G37*
G36*
X84100D02*
X80969D01*
X81039Y111073D01*
X81397Y110208D01*
X81966Y109466D01*
X82708Y108897D01*
X83573Y108539D01*
X84100Y108469D01*
Y111600D01*
D02*
G37*
G36*
X158053Y115553D02*
X150947D01*
Y108447D01*
X158053D01*
Y115553D01*
D02*
G37*
G36*
X124500Y115583D02*
X123573Y115461D01*
X122708Y115103D01*
X121966Y114534D01*
X121397Y113792D01*
X121039Y112927D01*
X120917Y112000D01*
X121039Y111073D01*
X121397Y110208D01*
X121966Y109466D01*
X122708Y108897D01*
X123573Y108539D01*
X124500Y108417D01*
X125427Y108539D01*
X126292Y108897D01*
X127034Y109466D01*
X127603Y110208D01*
X127961Y111073D01*
X128083Y112000D01*
X127961Y112927D01*
X127603Y113792D01*
X127034Y114534D01*
X126292Y115103D01*
X125427Y115461D01*
X124500Y115583D01*
D02*
G37*
G36*
X204500Y115083D02*
X203573Y114961D01*
X202708Y114603D01*
X201966Y114034D01*
X201397Y113292D01*
X201039Y112427D01*
X200917Y111500D01*
X201039Y110573D01*
X201397Y109708D01*
X201966Y108966D01*
X202708Y108397D01*
X203573Y108039D01*
X204500Y107917D01*
X205427Y108039D01*
X206292Y108397D01*
X207034Y108966D01*
X207603Y109708D01*
X207961Y110573D01*
X208083Y111500D01*
X207961Y112427D01*
X207603Y113292D01*
X207034Y114034D01*
X206292Y114603D01*
X205427Y114961D01*
X204500Y115083D01*
D02*
G37*
G36*
X194500D02*
X193573Y114961D01*
X192708Y114603D01*
X191966Y114034D01*
X191397Y113292D01*
X191039Y112427D01*
X190917Y111500D01*
X191039Y110573D01*
X191397Y109708D01*
X191966Y108966D01*
X192708Y108397D01*
X193573Y108039D01*
X194500Y107917D01*
X195427Y108039D01*
X196292Y108397D01*
X197034Y108966D01*
X197603Y109708D01*
X197961Y110573D01*
X198083Y111500D01*
X197961Y112427D01*
X197603Y113292D01*
X197034Y114034D01*
X196292Y114603D01*
X195427Y114961D01*
X194500Y115083D01*
D02*
G37*
G36*
X24500D02*
X23573Y114961D01*
X22708Y114603D01*
X21966Y114034D01*
X21397Y113292D01*
X21039Y112427D01*
X20917Y111500D01*
X21039Y110573D01*
X21397Y109708D01*
X21966Y108966D01*
X22708Y108397D01*
X23573Y108039D01*
X24500Y107917D01*
X25427Y108039D01*
X26292Y108397D01*
X27034Y108966D01*
X27603Y109708D01*
X27961Y110573D01*
X28083Y111500D01*
X27961Y112427D01*
X27603Y113292D01*
X27034Y114034D01*
X26292Y114603D01*
X25427Y114961D01*
X24500Y115083D01*
D02*
G37*
G36*
X116677Y105681D02*
X116677Y105681D01*
X80098D01*
X80098Y105681D01*
X79669Y105595D01*
X79305Y105352D01*
X79305Y105352D01*
X78618Y104666D01*
X78563Y104708D01*
X77809Y105020D01*
X77000Y105127D01*
X76191Y105020D01*
X75437Y104708D01*
X74789Y104211D01*
X74292Y103563D01*
X73980Y102809D01*
X73873Y102000D01*
X73980Y101191D01*
X74292Y100437D01*
X74789Y99789D01*
X75437Y99292D01*
X76191Y98980D01*
X77000Y98873D01*
X77809Y98980D01*
X78563Y99292D01*
X79211Y99789D01*
X79708Y100437D01*
X80020Y101191D01*
X80127Y102000D01*
X80020Y102809D01*
X79995Y102870D01*
X80562Y103437D01*
X92782D01*
Y98927D01*
X89315Y95460D01*
X86110D01*
X86060Y95520D01*
X85889Y95960D01*
X86128Y96318D01*
X86164Y96498D01*
X82465D01*
X78765D01*
X78801Y96318D01*
X79130Y95826D01*
Y95410D01*
X78801Y94918D01*
X78686Y94339D01*
X78801Y93759D01*
X79044Y93395D01*
X79097Y93059D01*
X79044Y92723D01*
X78801Y92359D01*
X78686Y91780D01*
X78801Y91200D01*
X79130Y90708D01*
Y90292D01*
X78801Y89800D01*
X78765Y89621D01*
X82464D01*
X86164D01*
X86128Y89800D01*
X85800Y90292D01*
Y90708D01*
X86128Y91200D01*
X86243Y91780D01*
X86128Y92359D01*
X85889Y92717D01*
X86060Y93157D01*
X86110Y93217D01*
X89780D01*
X89780Y93217D01*
X90209Y93302D01*
X90573Y93546D01*
X94368Y97341D01*
X96738D01*
Y103437D01*
X100262D01*
Y100900D01*
X104218D01*
Y103437D01*
X116213D01*
X123172Y96478D01*
Y94896D01*
X124557D01*
X126707Y92746D01*
X126707Y92746D01*
X127071Y92503D01*
X127500Y92418D01*
X127500Y92418D01*
X128450D01*
X128480Y92191D01*
X128792Y91437D01*
X129289Y90789D01*
X129937Y90292D01*
X130691Y89980D01*
X131500Y89873D01*
X132309Y89980D01*
X133063Y90292D01*
X133711Y90789D01*
X134208Y91437D01*
X134520Y92191D01*
X134627Y93000D01*
X134520Y93809D01*
X134208Y94563D01*
X133711Y95211D01*
X133063Y95708D01*
X132309Y96020D01*
X131500Y96127D01*
X130691Y96020D01*
X129937Y95708D01*
X129289Y95211D01*
X128867Y94661D01*
X127965D01*
X125946Y96679D01*
Y98065D01*
X124758D01*
X117470Y105352D01*
X117106Y105595D01*
X116677Y105681D01*
D02*
G37*
G36*
X57446Y107671D02*
X53900D01*
Y105260D01*
Y102849D01*
X57446D01*
Y107671D01*
D02*
G37*
G36*
X53100D02*
X49553D01*
Y102849D01*
X49819D01*
Y101406D01*
X48897Y100484D01*
X48809Y100520D01*
X48000Y100627D01*
X47191Y100520D01*
X46437Y100208D01*
X45789Y99711D01*
X45292Y99063D01*
X44980Y98309D01*
X44873Y97500D01*
X44980Y96691D01*
X45292Y95937D01*
X45789Y95289D01*
X46437Y94792D01*
X47191Y94480D01*
X48000Y94373D01*
X48809Y94480D01*
X49563Y94792D01*
X50211Y95289D01*
X50708Y95937D01*
X51020Y96691D01*
X51127Y97500D01*
X51020Y98309D01*
X50708Y99063D01*
X50682Y99096D01*
X51734Y100148D01*
X51734Y100148D01*
X51977Y100512D01*
X52062Y100941D01*
X52062Y100941D01*
Y102849D01*
X53100D01*
Y105260D01*
Y107671D01*
D02*
G37*
G36*
X113797Y100718D02*
X111038D01*
Y99140D01*
X113797D01*
Y100718D01*
D02*
G37*
G36*
X110238D02*
X107479D01*
Y99140D01*
X110238D01*
Y100718D01*
D02*
G37*
G36*
X204500Y105083D02*
X203573Y104961D01*
X202708Y104603D01*
X201966Y104034D01*
X201397Y103292D01*
X201039Y102427D01*
X200917Y101500D01*
X201039Y100573D01*
X201397Y99708D01*
X201966Y98966D01*
X202708Y98397D01*
X203573Y98039D01*
X204500Y97917D01*
X205427Y98039D01*
X206292Y98397D01*
X207034Y98966D01*
X207603Y99708D01*
X207961Y100573D01*
X208083Y101500D01*
X207961Y102427D01*
X207603Y103292D01*
X207034Y104034D01*
X206292Y104603D01*
X205427Y104961D01*
X204500Y105083D01*
D02*
G37*
G36*
X194500D02*
X193573Y104961D01*
X192708Y104603D01*
X191966Y104034D01*
X191397Y103292D01*
X191039Y102427D01*
X190917Y101500D01*
X191039Y100573D01*
X191397Y99708D01*
X191966Y98966D01*
X192708Y98397D01*
X193573Y98039D01*
X194500Y97917D01*
X195427Y98039D01*
X196292Y98397D01*
X197034Y98966D01*
X197603Y99708D01*
X197961Y100573D01*
X198083Y101500D01*
X197961Y102427D01*
X197603Y103292D01*
X197034Y104034D01*
X196292Y104603D01*
X195427Y104961D01*
X194500Y105083D01*
D02*
G37*
G36*
X104218Y100100D02*
X102640D01*
Y97341D01*
X104218D01*
Y100100D01*
D02*
G37*
G36*
X101840D02*
X100262D01*
Y97341D01*
X101840D01*
Y100100D01*
D02*
G37*
G36*
X67799Y98413D02*
X65935D01*
Y97298D01*
X69235D01*
X69199Y97477D01*
X68870Y97969D01*
X68379Y98297D01*
X67799Y98413D01*
D02*
G37*
G36*
X65135D02*
X63272D01*
X62692Y98297D01*
X62200Y97969D01*
X61872Y97477D01*
X61836Y97298D01*
X65135D01*
Y98413D01*
D02*
G37*
G36*
X84728D02*
X82865D01*
Y97298D01*
X86164D01*
X86128Y97477D01*
X85800Y97969D01*
X85308Y98297D01*
X84728Y98413D01*
D02*
G37*
G36*
X82065D02*
X80201D01*
X79621Y98297D01*
X79130Y97969D01*
X78801Y97477D01*
X78765Y97298D01*
X82065D01*
Y98413D01*
D02*
G37*
G36*
X120828Y98065D02*
X119841D01*
Y96880D01*
X120828D01*
Y98065D01*
D02*
G37*
G36*
X119041D02*
X118053D01*
Y96880D01*
X119041D01*
Y98065D01*
D02*
G37*
G36*
X113797Y98340D02*
X111038D01*
Y96762D01*
X113797D01*
Y98340D01*
D02*
G37*
G36*
X110238D02*
X107479D01*
Y96762D01*
X110238D01*
Y98340D01*
D02*
G37*
G36*
X143159Y97718D02*
X140400D01*
Y96140D01*
X143159D01*
Y97718D01*
D02*
G37*
G36*
X139600D02*
X136841D01*
Y96140D01*
X139600D01*
Y97718D01*
D02*
G37*
G36*
X69235Y96498D02*
X65535D01*
X61836D01*
X61872Y96318D01*
X62111Y95960D01*
X61940Y95520D01*
X61890Y95460D01*
X53839D01*
X53839Y95460D01*
X53409Y95375D01*
X53045Y95132D01*
X44207Y86293D01*
X43964Y85929D01*
X43878Y85500D01*
X43878Y85500D01*
Y80612D01*
X38569D01*
Y79559D01*
X38500D01*
X38071Y79473D01*
X37707Y79230D01*
X37707Y79230D01*
X30207Y71730D01*
X29964Y71366D01*
X29878Y70937D01*
X29878Y70937D01*
Y61553D01*
X27447D01*
Y56033D01*
X17707Y46293D01*
X17464Y45929D01*
X17378Y45500D01*
X17379Y45500D01*
Y17053D01*
X14947D01*
Y9947D01*
X22053D01*
Y17053D01*
X19622D01*
Y45035D01*
X29033Y54447D01*
X34553D01*
Y56878D01*
X43282D01*
Y54841D01*
X47238D01*
Y61159D01*
X43282D01*
Y59122D01*
X34553D01*
Y61553D01*
X32122D01*
Y70472D01*
X38107Y76458D01*
X38569Y76267D01*
Y76262D01*
X48431D01*
Y80612D01*
X46122D01*
Y85035D01*
X54303Y93217D01*
X58051D01*
X58203Y92717D01*
X57986Y92573D01*
X57986Y92573D01*
X49707Y84293D01*
X49464Y83929D01*
X49378Y83500D01*
X49378Y83500D01*
Y73027D01*
X48893Y72542D01*
X48431Y72733D01*
Y72738D01*
X38569D01*
Y68388D01*
X48431D01*
Y68957D01*
X48500Y69441D01*
X48929Y69527D01*
X49293Y69770D01*
X51293Y71770D01*
X51293Y71770D01*
X51536Y72134D01*
X51622Y72563D01*
X51622Y72563D01*
Y83035D01*
X59244Y90658D01*
X61890D01*
X61940Y90598D01*
X62111Y90158D01*
X61872Y89800D01*
X61757Y89220D01*
X61872Y88641D01*
X62115Y88277D01*
X62142Y88105D01*
X61803Y87635D01*
X61514D01*
X61514Y87635D01*
X61085Y87550D01*
X60721Y87307D01*
X60721Y87307D01*
X57251Y83837D01*
X56809Y84020D01*
X56000Y84127D01*
X55191Y84020D01*
X54437Y83708D01*
X53789Y83211D01*
X53292Y82563D01*
X52980Y81809D01*
X52873Y81000D01*
X52980Y80191D01*
X53292Y79437D01*
X53789Y78789D01*
X54437Y78292D01*
X54878Y78109D01*
Y61593D01*
X54718Y61159D01*
X54378Y61159D01*
X53140D01*
Y58000D01*
Y54841D01*
X54718Y54841D01*
X54878Y54407D01*
Y41465D01*
X30098Y16684D01*
X29427Y16961D01*
X28500Y17083D01*
X27573Y16961D01*
X26708Y16603D01*
X25966Y16034D01*
X25397Y15292D01*
X25039Y14427D01*
X24917Y13500D01*
X25039Y12573D01*
X25397Y11708D01*
X25966Y10966D01*
X26708Y10397D01*
X27573Y10039D01*
X28500Y9917D01*
X29427Y10039D01*
X30292Y10397D01*
X31034Y10966D01*
X31603Y11708D01*
X31961Y12573D01*
X32083Y13500D01*
X31961Y14427D01*
X31684Y15098D01*
X56793Y40207D01*
X56793Y40207D01*
X57036Y40571D01*
X57122Y41000D01*
Y78109D01*
X57563Y78292D01*
X58211Y78789D01*
X58708Y79437D01*
X59020Y80191D01*
X59127Y81000D01*
X59020Y81809D01*
X58837Y82251D01*
X61414Y84828D01*
X61846Y84553D01*
X61757Y84102D01*
X61872Y83523D01*
X62200Y83031D01*
X62692Y82703D01*
X63272Y82587D01*
X64378D01*
Y70218D01*
X62341D01*
Y66262D01*
X68659D01*
Y70218D01*
X66622D01*
Y82587D01*
X67799D01*
X68379Y82703D01*
X68870Y83031D01*
X69199Y83523D01*
X69314Y84102D01*
X69199Y84682D01*
X68870Y85174D01*
Y85590D01*
X69199Y86082D01*
X69314Y86661D01*
X69199Y87241D01*
X68956Y87605D01*
X68903Y87941D01*
X68956Y88277D01*
X69199Y88641D01*
X69314Y89220D01*
X69199Y89800D01*
X68870Y90292D01*
Y90708D01*
X69199Y91200D01*
X69314Y91780D01*
X69199Y92359D01*
X68956Y92723D01*
X68903Y93059D01*
X68956Y93395D01*
X69199Y93759D01*
X69314Y94339D01*
X69199Y94918D01*
X68870Y95410D01*
Y95826D01*
X69199Y96318D01*
X69235Y96498D01*
D02*
G37*
G36*
X120828Y96080D02*
X119841D01*
Y94896D01*
X120828D01*
Y96080D01*
D02*
G37*
G36*
X119041D02*
X118053D01*
Y94896D01*
X119041D01*
Y96080D01*
D02*
G37*
G36*
X143159Y95340D02*
X140400D01*
Y93762D01*
X143159D01*
Y95340D01*
D02*
G37*
G36*
X139600D02*
X136841D01*
Y93762D01*
X139600D01*
Y95340D01*
D02*
G37*
G36*
X204500Y95083D02*
X203573Y94961D01*
X202708Y94603D01*
X201966Y94034D01*
X201397Y93292D01*
X201039Y92427D01*
X200917Y91500D01*
X201039Y90573D01*
X201397Y89708D01*
X201966Y88966D01*
X202708Y88397D01*
X203573Y88039D01*
X204500Y87917D01*
X205427Y88039D01*
X206292Y88397D01*
X207034Y88966D01*
X207603Y89708D01*
X207961Y90573D01*
X208083Y91500D01*
X207961Y92427D01*
X207603Y93292D01*
X207034Y94034D01*
X206292Y94603D01*
X205427Y94961D01*
X204500Y95083D01*
D02*
G37*
G36*
X194500D02*
X193573Y94961D01*
X192708Y94603D01*
X191966Y94034D01*
X191397Y93292D01*
X191039Y92427D01*
X190917Y91500D01*
X191039Y90573D01*
X191397Y89708D01*
X191966Y88966D01*
X192708Y88397D01*
X193573Y88039D01*
X194500Y87917D01*
X195427Y88039D01*
X196292Y88397D01*
X197034Y88966D01*
X197603Y89708D01*
X197961Y90573D01*
X198083Y91500D01*
X197961Y92427D01*
X197603Y93292D01*
X197034Y94034D01*
X196292Y94603D01*
X195427Y94961D01*
X194500Y95083D01*
D02*
G37*
G36*
X102000Y94627D02*
X101191Y94520D01*
X100437Y94208D01*
X99789Y93711D01*
X99292Y93063D01*
X98980Y92309D01*
X98889Y91622D01*
X96000D01*
X95571Y91536D01*
X95207Y91293D01*
X95207Y91293D01*
X91697Y87783D01*
X86110D01*
X86060Y87843D01*
X85889Y88283D01*
X86128Y88641D01*
X86164Y88820D01*
X82464D01*
X78765D01*
X78801Y88641D01*
X79044Y88277D01*
X79097Y87941D01*
X79044Y87605D01*
X78801Y87241D01*
X78686Y86661D01*
X78801Y86082D01*
X79130Y85590D01*
Y85174D01*
X78801Y84682D01*
X78686Y84102D01*
X78801Y83523D01*
X79130Y83031D01*
X79621Y82703D01*
X80201Y82587D01*
X81343D01*
Y70218D01*
X79305D01*
Y66262D01*
X85624D01*
Y70218D01*
X83586D01*
Y82587D01*
X84728D01*
X85308Y82703D01*
X85724Y82981D01*
X96782D01*
Y80908D01*
X100738D01*
Y87226D01*
X96782D01*
Y85224D01*
X92890D01*
X92738Y85724D01*
X92954Y85868D01*
X96465Y89378D01*
X99721D01*
X99789Y89289D01*
X100437Y88792D01*
X101191Y88480D01*
X102000Y88373D01*
X102809Y88480D01*
X103563Y88792D01*
X104211Y89289D01*
X104279Y89378D01*
X107479D01*
Y89282D01*
X113797D01*
Y89378D01*
X117476D01*
X118053Y88801D01*
Y88624D01*
X118032Y88516D01*
X118053Y88407D01*
Y87416D01*
X119045D01*
X119153Y87394D01*
X119262Y87416D01*
X120878D01*
Y86079D01*
X119947Y85147D01*
X119704Y84784D01*
X119619Y84354D01*
X119619Y84354D01*
Y83159D01*
X118762D01*
Y76841D01*
X122718D01*
Y78878D01*
X125614D01*
X127841Y76652D01*
Y74282D01*
X134159D01*
Y78238D01*
X129427D01*
X126872Y80793D01*
X126508Y81036D01*
X126079Y81122D01*
X126079Y81122D01*
X122718D01*
Y83159D01*
X121862D01*
Y83890D01*
X122793Y84821D01*
X122793Y84821D01*
X123036Y85185D01*
X123122Y85614D01*
X123122Y85614D01*
Y87416D01*
X124557D01*
X127841Y84132D01*
Y81762D01*
X134159D01*
Y82619D01*
X135059D01*
X135059Y82619D01*
X135488Y82704D01*
X135852Y82947D01*
X137293Y84388D01*
X137293Y84388D01*
X137536Y84752D01*
X137622Y85181D01*
X137622Y85181D01*
Y85476D01*
X138427Y86282D01*
X143159D01*
Y90238D01*
X136841D01*
Y87868D01*
X135707Y86734D01*
X135464Y86370D01*
X135378Y85941D01*
X135378Y85941D01*
Y85646D01*
X134659Y84926D01*
X134159Y85018D01*
Y85718D01*
X129427D01*
X125946Y89199D01*
Y90584D01*
X119443D01*
X118734Y91293D01*
X118370Y91536D01*
X117941Y91622D01*
X117941Y91622D01*
X113797D01*
Y93238D01*
X107479D01*
Y91622D01*
X105111D01*
X105020Y92309D01*
X104708Y93063D01*
X104211Y93711D01*
X103563Y94208D01*
X102809Y94520D01*
X102000Y94627D01*
D02*
G37*
G36*
X204500Y135083D02*
X203573Y134961D01*
X202708Y134603D01*
X201966Y134034D01*
X201397Y133292D01*
X201039Y132427D01*
X200917Y131500D01*
X201039Y130573D01*
X201397Y129708D01*
X201966Y128966D01*
X202708Y128397D01*
X203573Y128039D01*
X204500Y127917D01*
X205427Y128039D01*
X206098Y128316D01*
X217059Y117354D01*
Y85646D01*
X212535Y81122D01*
X166965D01*
X137684Y110402D01*
X137961Y111073D01*
X138083Y112000D01*
X137961Y112927D01*
X137603Y113792D01*
X137034Y114534D01*
X136292Y115103D01*
X135427Y115461D01*
X134500Y115583D01*
X133573Y115461D01*
X132708Y115103D01*
X131966Y114534D01*
X131397Y113792D01*
X131039Y112927D01*
X130917Y112000D01*
X131039Y111073D01*
X131397Y110208D01*
X131966Y109466D01*
X132708Y108897D01*
X133573Y108539D01*
X134500Y108417D01*
X135427Y108539D01*
X136098Y108816D01*
X165707Y79207D01*
X165707Y79207D01*
X166071Y78964D01*
X166500Y78878D01*
X213000D01*
X213000Y78878D01*
X213429Y78964D01*
X213793Y79207D01*
X218974Y84388D01*
X218974Y84388D01*
X219217Y84752D01*
X219303Y85181D01*
X219303Y85181D01*
Y117819D01*
X219217Y118248D01*
X218974Y118612D01*
X218974Y118612D01*
X207684Y129902D01*
X207961Y130573D01*
X208083Y131500D01*
X207961Y132427D01*
X207603Y133292D01*
X207034Y134034D01*
X206292Y134603D01*
X205427Y134961D01*
X204500Y135083D01*
D02*
G37*
G36*
X101159Y62738D02*
X98400D01*
Y61160D01*
X101159D01*
Y62738D01*
D02*
G37*
G36*
X68659D02*
X65900D01*
Y61160D01*
X68659D01*
Y62738D01*
D02*
G37*
G36*
X97600D02*
X94841D01*
Y61160D01*
X97600D01*
Y62738D01*
D02*
G37*
G36*
X65100D02*
X62341D01*
Y61160D01*
X65100D01*
Y62738D01*
D02*
G37*
G36*
X85624Y62738D02*
X82865D01*
Y61160D01*
X85624D01*
Y62738D01*
D02*
G37*
G36*
X82065D02*
X79305D01*
Y61160D01*
X82065D01*
Y62738D01*
D02*
G37*
G36*
X101159Y60360D02*
X98400D01*
Y58782D01*
X101159D01*
Y60360D01*
D02*
G37*
G36*
X97600D02*
X94841D01*
Y58782D01*
X97600D01*
Y60360D01*
D02*
G37*
G36*
X68659D02*
X65900D01*
Y58782D01*
X68659D01*
Y60360D01*
D02*
G37*
G36*
X65100D02*
X62341D01*
Y58782D01*
X65100D01*
Y60360D01*
D02*
G37*
G36*
X85624Y60360D02*
X82865D01*
Y58782D01*
X85624D01*
Y60360D01*
D02*
G37*
G36*
X82065D02*
X79305D01*
Y58782D01*
X82065D01*
Y60360D01*
D02*
G37*
G36*
X52340Y61159D02*
X50762D01*
Y58400D01*
X52340D01*
Y61159D01*
D02*
G37*
G36*
Y57600D02*
X50762D01*
Y54841D01*
X52340D01*
Y57600D01*
D02*
G37*
G36*
X108218Y87226D02*
X104262D01*
Y80908D01*
X105119D01*
Y77965D01*
X103776Y76622D01*
X100891D01*
X100708Y77063D01*
X100211Y77711D01*
X99563Y78208D01*
X98809Y78520D01*
X98000Y78627D01*
X97191Y78520D01*
X96437Y78208D01*
X95789Y77711D01*
X95292Y77063D01*
X94980Y76309D01*
X94873Y75500D01*
X94980Y74691D01*
X95292Y73937D01*
X95789Y73289D01*
X96437Y72792D01*
X96878Y72609D01*
Y70218D01*
X94841D01*
Y66262D01*
X101159D01*
Y70218D01*
X99122D01*
Y72609D01*
X99563Y72792D01*
X100211Y73289D01*
X100708Y73937D01*
X100891Y74378D01*
X104240D01*
X104240Y74378D01*
X104669Y74464D01*
X105033Y74707D01*
X107033Y76707D01*
X107033Y76707D01*
X107276Y77071D01*
X107362Y77500D01*
X107362Y77500D01*
Y80908D01*
X108218D01*
Y82945D01*
X109909D01*
X111282Y81573D01*
Y76841D01*
X112138D01*
Y65055D01*
X112138Y65055D01*
X112224Y64626D01*
X112467Y64262D01*
X117931Y58797D01*
Y54065D01*
X123068D01*
Y56103D01*
X137932D01*
Y54065D01*
X143069D01*
Y56103D01*
X157931D01*
Y54065D01*
X163068D01*
Y56103D01*
X177931D01*
Y54065D01*
X183069D01*
Y56103D01*
X197932D01*
Y54065D01*
X203068D01*
Y60383D01*
X197932D01*
Y58346D01*
X183069D01*
Y60383D01*
X177931D01*
Y58346D01*
X163068D01*
Y60383D01*
X157931D01*
Y58346D01*
X143069D01*
Y60383D01*
X137932D01*
Y58346D01*
X123068D01*
Y60383D01*
X119518D01*
X114381Y65520D01*
Y76841D01*
X115238D01*
Y83159D01*
X112868D01*
X111167Y84860D01*
X110803Y85103D01*
X110374Y85189D01*
X110374Y85189D01*
X108218D01*
Y87226D01*
D02*
G37*
G36*
X31400Y51531D02*
Y48400D01*
X34531D01*
X34461Y48927D01*
X34103Y49792D01*
X33534Y50534D01*
X32792Y51103D01*
X31927Y51461D01*
X31400Y51531D01*
D02*
G37*
G36*
X30600D02*
X30073Y51461D01*
X29208Y51103D01*
X28466Y50534D01*
X27897Y49792D01*
X27539Y48927D01*
X27469Y48400D01*
X30600D01*
Y51531D01*
D02*
G37*
G36*
X203068Y50935D02*
X200900D01*
Y48176D01*
X203068D01*
Y50935D01*
D02*
G37*
G36*
X183069D02*
X180900D01*
Y48176D01*
X183069D01*
Y50935D01*
D02*
G37*
G36*
X163068D02*
X160900D01*
Y48176D01*
X163068D01*
Y50935D01*
D02*
G37*
G36*
X143069D02*
X140900D01*
Y48176D01*
X143069D01*
Y50935D01*
D02*
G37*
G36*
X123068D02*
X120900D01*
Y48176D01*
X123068D01*
Y50935D01*
D02*
G37*
G36*
X200100D02*
X197932D01*
Y48176D01*
X200100D01*
Y50935D01*
D02*
G37*
G36*
X180100D02*
X177931D01*
Y48176D01*
X180100D01*
Y50935D01*
D02*
G37*
G36*
X160100D02*
X157931D01*
Y48176D01*
X160100D01*
Y50935D01*
D02*
G37*
G36*
X140100D02*
X137932D01*
Y48176D01*
X140100D01*
Y50935D01*
D02*
G37*
G36*
X120100D02*
X117931D01*
Y48176D01*
X120100D01*
Y50935D01*
D02*
G37*
G36*
X203068Y47376D02*
X200900D01*
Y44616D01*
X203068D01*
Y47376D01*
D02*
G37*
G36*
X200100D02*
X197932D01*
Y44616D01*
X200100D01*
Y47376D01*
D02*
G37*
G36*
X183069D02*
X180900D01*
Y44616D01*
X183069D01*
Y47376D01*
D02*
G37*
G36*
X180100D02*
X177931D01*
Y44616D01*
X180100D01*
Y47376D01*
D02*
G37*
G36*
X163068D02*
X160900D01*
Y44616D01*
X163068D01*
Y47376D01*
D02*
G37*
G36*
X160100D02*
X157931D01*
Y44616D01*
X160100D01*
Y47376D01*
D02*
G37*
G36*
X143069D02*
X140900D01*
Y44616D01*
X143069D01*
Y47376D01*
D02*
G37*
G36*
X140100D02*
X137932D01*
Y44616D01*
X140100D01*
Y47376D01*
D02*
G37*
G36*
X123068D02*
X120900D01*
Y44616D01*
X123068D01*
Y47376D01*
D02*
G37*
G36*
X120100D02*
X117931D01*
Y44616D01*
X120100D01*
Y47376D01*
D02*
G37*
G36*
X34531Y47600D02*
X31400D01*
Y44469D01*
X31927Y44539D01*
X32792Y44897D01*
X33534Y45466D01*
X34103Y46208D01*
X34461Y47073D01*
X34531Y47600D01*
D02*
G37*
G36*
X30600D02*
X27469D01*
X27539Y47073D01*
X27897Y46208D01*
X28466Y45466D01*
X29208Y44897D01*
X30073Y44539D01*
X30600Y44469D01*
Y47600D01*
D02*
G37*
G36*
X48500Y17083D02*
X47573Y16961D01*
X46708Y16603D01*
X45966Y16034D01*
X45397Y15292D01*
X45039Y14427D01*
X44917Y13500D01*
X45039Y12573D01*
X45397Y11708D01*
X45966Y10966D01*
X46708Y10397D01*
X47573Y10039D01*
X48500Y9917D01*
X49427Y10039D01*
X50292Y10397D01*
X51034Y10966D01*
X51603Y11708D01*
X51961Y12573D01*
X52083Y13500D01*
X51961Y14427D01*
X51603Y15292D01*
X51034Y16034D01*
X50292Y16603D01*
X49427Y16961D01*
X48500Y17083D01*
D02*
G37*
G36*
X38500D02*
X37573Y16961D01*
X36708Y16603D01*
X35966Y16034D01*
X35397Y15292D01*
X35039Y14427D01*
X34917Y13500D01*
X35039Y12573D01*
X35397Y11708D01*
X35966Y10966D01*
X36708Y10397D01*
X37573Y10039D01*
X38500Y9917D01*
X39427Y10039D01*
X40292Y10397D01*
X41034Y10966D01*
X41603Y11708D01*
X41961Y12573D01*
X42083Y13500D01*
X41961Y14427D01*
X41603Y15292D01*
X41034Y16034D01*
X40292Y16603D01*
X39427Y16961D01*
X38500Y17083D01*
D02*
G37*
G36*
X118053Y15553D02*
X110947D01*
Y8447D01*
X118053D01*
Y15553D01*
D02*
G37*
G36*
X104500Y15583D02*
X103573Y15461D01*
X102708Y15103D01*
X101966Y14534D01*
X101397Y13792D01*
X101039Y12927D01*
X100917Y12000D01*
X101039Y11073D01*
X101397Y10208D01*
X101966Y9466D01*
X102708Y8897D01*
X103573Y8539D01*
X104500Y8417D01*
X105427Y8539D01*
X106292Y8897D01*
X107034Y9466D01*
X107603Y10208D01*
X107961Y11073D01*
X108083Y12000D01*
X107961Y12927D01*
X107603Y13792D01*
X107034Y14534D01*
X106292Y15103D01*
X105427Y15461D01*
X104500Y15583D01*
D02*
G37*
G36*
X94500D02*
X93573Y15461D01*
X92708Y15103D01*
X91966Y14534D01*
X91397Y13792D01*
X91039Y12927D01*
X90917Y12000D01*
X91039Y11073D01*
X91397Y10208D01*
X91966Y9466D01*
X92708Y8897D01*
X93573Y8539D01*
X94500Y8417D01*
X95427Y8539D01*
X96292Y8897D01*
X97034Y9466D01*
X97603Y10208D01*
X97961Y11073D01*
X98083Y12000D01*
X97961Y12927D01*
X97603Y13792D01*
X97034Y14534D01*
X96292Y15103D01*
X95427Y15461D01*
X94500Y15583D01*
D02*
G37*
G36*
X84500D02*
X83573Y15461D01*
X82708Y15103D01*
X81966Y14534D01*
X81397Y13792D01*
X81039Y12927D01*
X80917Y12000D01*
X81039Y11073D01*
X81397Y10208D01*
X81966Y9466D01*
X82708Y8897D01*
X83573Y8539D01*
X84500Y8417D01*
X85427Y8539D01*
X86292Y8897D01*
X87034Y9466D01*
X87603Y10208D01*
X87961Y11073D01*
X88083Y12000D01*
X87961Y12927D01*
X87603Y13792D01*
X87034Y14534D01*
X86292Y15103D01*
X85427Y15461D01*
X84500Y15583D01*
D02*
G37*
G36*
X74500D02*
X73573Y15461D01*
X72708Y15103D01*
X71966Y14534D01*
X71397Y13792D01*
X71039Y12927D01*
X70917Y12000D01*
X71039Y11073D01*
X71397Y10208D01*
X71966Y9466D01*
X72708Y8897D01*
X73573Y8539D01*
X74500Y8417D01*
X75427Y8539D01*
X76292Y8897D01*
X77034Y9466D01*
X77603Y10208D01*
X77961Y11073D01*
X78083Y12000D01*
X77961Y12927D01*
X77603Y13792D01*
X77034Y14534D01*
X76292Y15103D01*
X75427Y15461D01*
X74500Y15583D01*
D02*
G37*
%LPD*%
G36*
X123378Y191535D02*
Y189381D01*
X122708Y189103D01*
X121966Y188534D01*
X121397Y187792D01*
X121039Y186927D01*
X120917Y186000D01*
X121039Y185073D01*
X121397Y184208D01*
X121966Y183466D01*
X122708Y182897D01*
X123573Y182539D01*
X124500Y182417D01*
X124984Y182480D01*
X125218Y182007D01*
X124880Y181669D01*
X119047D01*
X119047Y181669D01*
X118618Y181583D01*
X118254Y181340D01*
X118254Y181340D01*
X116098Y179184D01*
X115427Y179461D01*
X114500Y179583D01*
X113573Y179461D01*
X112708Y179103D01*
X111966Y178534D01*
X111397Y177792D01*
X111122Y177128D01*
X110622Y177227D01*
Y184773D01*
X111122Y184872D01*
X111397Y184208D01*
X111966Y183466D01*
X112708Y182897D01*
X113573Y182539D01*
X114500Y182417D01*
X115427Y182539D01*
X116292Y182897D01*
X117034Y183466D01*
X117603Y184208D01*
X117961Y185073D01*
X118083Y186000D01*
X117961Y186927D01*
X117603Y187792D01*
X117034Y188534D01*
X116292Y189103D01*
X115427Y189461D01*
X114500Y189583D01*
X113573Y189461D01*
X112708Y189103D01*
X111966Y188534D01*
X111397Y187792D01*
X111122Y187127D01*
X110622Y187227D01*
Y190535D01*
X112965Y192878D01*
X122035D01*
X123378Y191535D01*
D02*
G37*
G36*
X108378Y184773D02*
Y177227D01*
X107878Y177128D01*
X107603Y177792D01*
X107034Y178534D01*
X106292Y179103D01*
X105427Y179461D01*
X104500Y179583D01*
X103573Y179461D01*
X102708Y179103D01*
X101966Y178534D01*
X101397Y177792D01*
X101039Y176927D01*
X100965Y176372D01*
X100047D01*
X100047Y176372D01*
X99618Y176286D01*
X99254Y176043D01*
X98493Y175282D01*
X98020Y175516D01*
X98083Y176000D01*
X97961Y176927D01*
X97684Y177598D01*
X100293Y180207D01*
X100293Y180207D01*
X100536Y180571D01*
X100622Y181000D01*
X100622Y181000D01*
Y184773D01*
X101122Y184872D01*
X101397Y184208D01*
X101966Y183466D01*
X102708Y182897D01*
X103573Y182539D01*
X104500Y182417D01*
X105427Y182539D01*
X106292Y182897D01*
X107034Y183466D01*
X107603Y184208D01*
X107878Y184872D01*
X108378Y184773D01*
D02*
G37*
G36*
X78782Y135841D02*
X79638D01*
Y132159D01*
X78782D01*
Y126622D01*
X74654D01*
X74300Y126975D01*
X74300Y127540D01*
X74300Y127700D01*
Y130940D01*
X71722D01*
Y135707D01*
X72222Y135877D01*
X72289Y135789D01*
X72937Y135292D01*
X73691Y134980D01*
X74500Y134873D01*
X75309Y134980D01*
X76063Y135292D01*
X76711Y135789D01*
X77208Y136437D01*
X77391Y136878D01*
X78782D01*
Y135841D01*
D02*
G37*
G36*
X72354Y114831D02*
X71966Y114534D01*
X71397Y113792D01*
X71119Y113122D01*
X57446D01*
Y115151D01*
X57872Y115331D01*
X72184D01*
X72354Y114831D01*
D02*
G37*
G36*
X49553Y115151D02*
Y111915D01*
X40260Y102622D01*
X37881D01*
X37603Y103292D01*
X37034Y104034D01*
X36292Y104603D01*
X35427Y104961D01*
X34500Y105083D01*
X33573Y104961D01*
X32708Y104603D01*
X31966Y104034D01*
X31622Y103585D01*
X31122Y103754D01*
Y109246D01*
X31622Y109415D01*
X31966Y108966D01*
X32708Y108397D01*
X33573Y108039D01*
X34500Y107917D01*
X35427Y108039D01*
X36292Y108397D01*
X37034Y108966D01*
X37603Y109708D01*
X37961Y110573D01*
X38083Y111500D01*
X37961Y112427D01*
X37684Y113098D01*
X39917Y115331D01*
X49128D01*
X49553Y115151D01*
D02*
G37*
D10*
X63500Y188500D02*
X65500D01*
X48000Y97500D02*
Y98000D01*
X50941Y100941D01*
Y105260D01*
X56059Y112287D02*
X56346Y112000D01*
X56059Y112287D02*
Y112740D01*
X56346Y112000D02*
X74500D01*
X180500Y57224D02*
X200500D01*
X160500D02*
X180500D01*
X140500D02*
X160500D01*
X120500D02*
X140500D01*
X113260Y65055D02*
X120500Y57815D01*
Y57224D02*
Y57815D01*
X113260Y65055D02*
Y80000D01*
X130961Y93539D02*
X131500Y93000D01*
X127500Y93539D02*
X130961D01*
X125043Y95996D02*
X127500Y93539D01*
X124846Y95996D02*
X125043D01*
X124559Y96284D02*
X124846Y95996D01*
X124559Y96284D02*
Y96480D01*
X101500Y90500D02*
X117941D01*
X96000D02*
X101500D01*
Y91000D02*
X102000Y91500D01*
X101500Y90500D02*
Y91000D01*
X56000Y41000D02*
Y81000D01*
X28500Y13500D02*
X56000Y41000D01*
X18500Y45500D02*
X31000Y58000D01*
X18500Y13500D02*
Y45500D01*
X80760Y129000D02*
Y138878D01*
Y126378D02*
Y129000D01*
X74500Y138000D02*
X79882D01*
X80760Y138878D01*
Y139000D01*
X70600Y129240D02*
Y135900D01*
X67500Y139000D02*
X70600Y135900D01*
X64500Y142000D02*
X67500Y139000D01*
X50000Y193086D02*
X76414D01*
X79781Y189719D01*
X57059Y175740D02*
Y176764D01*
X16586Y193086D02*
X50000D01*
X80098Y104559D02*
X116677D01*
X77539Y102000D02*
X80098Y104559D01*
X77000Y102000D02*
X77539D01*
X116677Y104559D02*
X124559Y96677D01*
Y96480D02*
Y96677D01*
X53500Y121760D02*
X61400D01*
X34500Y131500D02*
X45000Y121000D01*
X88240D02*
X89240Y120000D01*
X101000D01*
X95549Y131059D02*
X96250Y131760D01*
X89118Y131059D02*
X95549D01*
X88240Y130181D02*
X89118Y131059D01*
X88240Y129000D02*
Y130181D01*
X84759Y124441D02*
X84862D01*
X88240Y127819D01*
Y129000D01*
X39453Y116453D02*
X114953D01*
X82078Y121760D02*
X84759Y124441D01*
X70600Y121760D02*
X82078D01*
X101000Y120000D02*
X104500Y123500D01*
Y164000D01*
X34500Y111500D02*
X39453Y116453D01*
X114953D02*
X143500Y145000D01*
X79882Y125500D02*
X80760Y126378D01*
X70600Y125500D02*
X79882D01*
X109500Y169000D02*
X114500Y164000D01*
X143500Y145000D02*
X160500D01*
X30000Y117500D02*
X34000Y121500D01*
X34500D01*
X30000Y99703D02*
Y117500D01*
Y99703D02*
X33750Y95953D01*
X39307D01*
X44000Y91260D01*
X40724Y101500D02*
X50941Y111716D01*
X34500Y101500D02*
X40724D01*
X45000Y85500D02*
X53839Y94339D01*
X65535D01*
X45000Y79512D02*
Y85500D01*
X154500Y176000D02*
X183000D01*
X13000Y143000D02*
Y175250D01*
Y143000D02*
X24500Y131500D01*
X8000Y118000D02*
X24500Y101500D01*
X8000Y118000D02*
Y184500D01*
X16586Y193086D01*
X2500Y113500D02*
Y187500D01*
Y113500D02*
X24500Y91500D01*
X11086Y196086D02*
X79586D01*
X2500Y187500D02*
X11086Y196086D01*
X79781Y184422D02*
Y189719D01*
Y184422D02*
X83750Y180453D01*
Y176750D02*
Y180453D01*
Y176750D02*
X84500Y176000D01*
X79586Y196086D02*
X84500Y191172D01*
Y186000D02*
Y191172D01*
X56540Y161500D02*
X65000D01*
X52213Y165828D02*
X56540Y161500D01*
X52213Y165828D02*
Y167988D01*
X51941Y168260D02*
X52213Y167988D01*
X48854Y174429D02*
X51653D01*
X41144Y166719D02*
X48854Y174429D01*
X33422Y166719D02*
X41144D01*
X182000Y194000D02*
X194500Y181500D01*
X132500Y194000D02*
X182000D01*
X128953Y190453D02*
X132500Y194000D01*
X128953Y184156D02*
Y190453D01*
X125344Y180547D02*
X128953Y184156D01*
X119047Y180547D02*
X125344D01*
X114500Y176000D02*
X119047Y180547D01*
X124500Y164000D02*
Y176000D01*
X94500Y149843D02*
Y164000D01*
X89118Y150118D02*
Y168260D01*
X88500Y149500D02*
X89118Y150118D01*
X90157Y145500D02*
X94500Y149843D01*
X67323Y145500D02*
X90157D01*
X64992Y147831D02*
X67323Y145500D01*
X40831Y147831D02*
X64992D01*
X34500Y141500D02*
X40831Y147831D01*
X89118Y168260D02*
X92405Y171547D01*
X96344D01*
X100047Y175250D01*
X103750D01*
X104500Y176000D01*
X124500Y186000D02*
Y192000D01*
X122500Y194000D02*
X124500Y192000D01*
X112500Y194000D02*
X122500D01*
X109500Y191000D02*
X112500Y194000D01*
X109500Y169000D02*
Y191000D01*
X198000Y197000D02*
X214000Y181000D01*
X109000Y197000D02*
X198000D01*
X104500Y192500D02*
X109000Y197000D01*
X104500Y186000D02*
Y192500D01*
X209000Y171500D02*
X209086Y171414D01*
X209914D01*
X204500Y171500D02*
X209000D01*
X209914Y171414D02*
X214000Y175500D01*
Y181000D01*
X94500Y176000D02*
X99500Y181000D01*
Y195000D01*
X134500Y174673D02*
Y176000D01*
X46000Y155500D02*
X74000D01*
X34500Y151500D02*
X79172D01*
X84500Y156828D01*
X139500Y169000D02*
Y181000D01*
X144500Y186000D01*
X139500Y159000D02*
X182000D01*
X194500Y171500D01*
X134500Y164000D02*
X139500Y159000D01*
Y169000D02*
X144500Y164000D01*
X84500Y156828D02*
Y164000D01*
X74500D02*
Y176000D01*
X189000Y156000D02*
X194500Y161500D01*
X132500Y156000D02*
X189000D01*
X124500Y164000D02*
X132500Y156000D01*
X114500Y164000D02*
X127000Y151500D01*
X194500D01*
X179500Y147000D02*
X200000D01*
X204500Y151500D01*
X144500Y112000D02*
X179500Y147000D01*
X218181Y85181D02*
Y117819D01*
X204500Y131500D02*
X218181Y117819D01*
X213000Y80000D02*
X218181Y85181D01*
X166500Y80000D02*
X213000D01*
X134500Y112000D02*
X166500Y80000D01*
X50941Y111716D02*
Y112740D01*
X135059Y83740D02*
X136500Y85181D01*
Y85941D01*
X138819Y88260D01*
X140000D01*
X131000Y83740D02*
X135059D01*
X124559Y89000D02*
X129819Y83740D01*
X131000D01*
X120740Y80000D02*
X126079D01*
X129819Y76260D01*
X131000D01*
X122000Y85614D02*
Y89000D01*
X120740Y84354D02*
X122000Y85614D01*
X120740Y80000D02*
Y84354D01*
X106240Y84067D02*
X110374D01*
X113260Y81181D01*
Y80000D02*
Y81181D01*
X92161Y86661D02*
X96000Y90500D01*
X117941D02*
X118957Y89484D01*
X119153D01*
X119441Y89197D01*
Y89000D02*
Y89197D01*
X94760Y99319D02*
Y100500D01*
X89780Y94339D02*
X94760Y99319D01*
X82465Y94339D02*
X89780D01*
X98000Y68240D02*
Y75500D01*
X40000Y161500D02*
X46000Y155500D01*
X34500Y161500D02*
X40000D01*
X74240Y175740D02*
X74500Y176000D01*
X57059Y175740D02*
X74240D01*
X51653Y174429D02*
X51941Y174716D01*
Y175740D01*
X28953Y162250D02*
X33422Y166719D01*
X25250Y162250D02*
X28953D01*
X24500Y161500D02*
X25250Y162250D01*
X57000Y142000D02*
X64500D01*
X49000Y136000D02*
Y142500D01*
Y136000D02*
X55760Y129240D01*
X61400D01*
Y121760D02*
X63400D01*
X119153Y88516D02*
X119441Y88803D01*
Y89000D01*
X82465Y86661D02*
X92161D01*
X106240Y77500D02*
Y84067D01*
X104240Y75500D02*
X106240Y77500D01*
X98000Y75500D02*
X104240D01*
X56000Y81000D02*
X61514Y86514D01*
X65388D01*
X65535Y86661D01*
X98724Y84102D02*
X98760Y84067D01*
X82465Y84102D02*
X98724D01*
X82465Y68240D02*
Y84102D01*
X31000Y58000D02*
X45260D01*
X65500Y84067D02*
X65535Y84102D01*
X65500Y68240D02*
Y84067D01*
X82465Y94339D02*
X82612Y94486D01*
X65500Y68240D02*
X65535Y68276D01*
X43500Y70563D02*
X48500D01*
X50500Y72563D01*
Y83500D01*
X58780Y91780D01*
X65535D01*
X43925Y78437D02*
X45000Y79512D01*
X43500Y78437D02*
X43925D01*
X38500D02*
X43500D01*
X31000Y70937D02*
X38500Y78437D01*
X31000Y58000D02*
Y70937D01*
D12*
X58740Y188500D02*
X65500D01*
X58000Y189240D02*
X58740Y188500D01*
X50000Y189240D02*
Y193086D01*
Y181760D02*
X59556D01*
X58578Y178283D02*
Y180782D01*
X59556Y181760D01*
X57056D02*
X58000D01*
X57059Y176764D02*
X58578Y178283D01*
D16*
X48000Y181760D02*
D03*
Y189240D02*
D03*
X58000Y181760D02*
D03*
Y189240D02*
D03*
X140000Y95740D02*
D03*
Y88260D02*
D03*
X131000Y83740D02*
D03*
Y76260D02*
D03*
X98000Y60760D02*
D03*
Y68240D02*
D03*
X82465Y68240D02*
D03*
Y60760D02*
D03*
X65500Y60760D02*
D03*
Y68240D02*
D03*
X110638Y98740D02*
D03*
Y91260D02*
D03*
X96250Y139240D02*
D03*
Y131760D02*
D03*
D17*
X43500Y70563D02*
D03*
Y78437D02*
D03*
D18*
X120740Y80000D02*
D03*
X113260D02*
D03*
X106240Y84067D02*
D03*
X98760D02*
D03*
X94760Y100500D02*
D03*
X102240D02*
D03*
X88240Y139000D02*
D03*
X80760D02*
D03*
X88240Y129000D02*
D03*
X80760D02*
D03*
X52740Y58000D02*
D03*
X45260D02*
D03*
D19*
X120500Y57224D02*
D03*
Y47776D02*
D03*
X140500D02*
D03*
Y57224D02*
D03*
X160500D02*
D03*
Y47776D02*
D03*
X180500Y57224D02*
D03*
Y47776D02*
D03*
X200500Y57224D02*
D03*
Y47776D02*
D03*
D20*
X119441Y96480D02*
D03*
X124559D02*
D03*
Y89000D02*
D03*
X122000D02*
D03*
X119441D02*
D03*
D21*
X53500Y105260D02*
D03*
X50941D02*
D03*
Y112740D02*
D03*
X53500D02*
D03*
X56059D02*
D03*
Y105260D02*
D03*
X54500Y168260D02*
D03*
X51941D02*
D03*
Y175740D02*
D03*
X54500D02*
D03*
X57059D02*
D03*
Y168260D02*
D03*
D22*
X65535Y96898D02*
D03*
Y94339D02*
D03*
Y91780D02*
D03*
Y89220D02*
D03*
Y86661D02*
D03*
Y84102D02*
D03*
X82465Y96898D02*
D03*
Y94339D02*
D03*
Y91780D02*
D03*
Y89220D02*
D03*
Y86661D02*
D03*
Y84102D02*
D03*
D23*
X61400Y129240D02*
D03*
Y125500D02*
D03*
Y121760D02*
D03*
X70600D02*
D03*
Y125500D02*
D03*
Y129240D02*
D03*
D24*
X49063Y142000D02*
D03*
X56937D02*
D03*
D38*
X144500Y112000D02*
D03*
X74500D02*
D03*
X84500D02*
D03*
X94500D02*
D03*
X104500D02*
D03*
X114500D02*
D03*
X124500D02*
D03*
X134500D02*
D03*
X84500Y176000D02*
D03*
X94500D02*
D03*
X104500D02*
D03*
X114500D02*
D03*
X124500D02*
D03*
X134500D02*
D03*
X144500D02*
D03*
X154500D02*
D03*
X74500Y186000D02*
D03*
X84500D02*
D03*
X94500D02*
D03*
X104500D02*
D03*
X114500D02*
D03*
X124500D02*
D03*
X134500D02*
D03*
X144500D02*
D03*
X154500D02*
D03*
X84500Y164000D02*
D03*
X154500D02*
D03*
X144500D02*
D03*
X134500D02*
D03*
X124500D02*
D03*
X114500D02*
D03*
X104500D02*
D03*
X94500D02*
D03*
X194500Y171500D02*
D03*
Y161500D02*
D03*
Y151500D02*
D03*
Y141500D02*
D03*
Y131500D02*
D03*
Y121500D02*
D03*
Y111500D02*
D03*
Y101500D02*
D03*
Y91500D02*
D03*
X204500Y181500D02*
D03*
Y171500D02*
D03*
Y161500D02*
D03*
Y151500D02*
D03*
Y141500D02*
D03*
Y131500D02*
D03*
Y121500D02*
D03*
Y111500D02*
D03*
Y101500D02*
D03*
Y91500D02*
D03*
X24500Y171500D02*
D03*
Y161500D02*
D03*
Y151500D02*
D03*
Y141500D02*
D03*
Y131500D02*
D03*
Y121500D02*
D03*
Y111500D02*
D03*
Y101500D02*
D03*
Y91500D02*
D03*
X34500Y181500D02*
D03*
Y171500D02*
D03*
Y161500D02*
D03*
Y151500D02*
D03*
Y141500D02*
D03*
Y131500D02*
D03*
Y121500D02*
D03*
Y111500D02*
D03*
Y101500D02*
D03*
Y91500D02*
D03*
X31000Y48000D02*
D03*
X74500Y12000D02*
D03*
X84500D02*
D03*
X94500D02*
D03*
X104500D02*
D03*
X48500Y13500D02*
D03*
X38500D02*
D03*
X28500D02*
D03*
D39*
X154500Y112000D02*
D03*
X74500Y176000D02*
D03*
Y164000D02*
D03*
X114500Y12000D02*
D03*
X18500Y13500D02*
D03*
D40*
X194500Y181500D02*
D03*
X24500D02*
D03*
X31000Y58000D02*
D03*
D41*
X65500Y188500D02*
D03*
X48000Y97500D02*
D03*
X131500Y93000D02*
D03*
X102000Y91500D02*
D03*
X74500Y138000D02*
D03*
X77000Y102000D02*
D03*
X53500Y121760D02*
D03*
X45000Y121000D02*
D03*
X88240D02*
D03*
X160500Y145000D02*
D03*
X44000Y91260D02*
D03*
X183000Y176000D02*
D03*
X13000Y175250D02*
D03*
X65000Y161500D02*
D03*
X88500Y149500D02*
D03*
X99500Y195000D02*
D03*
X74000Y155500D02*
D03*
X67500Y139000D02*
D03*
X98000Y75500D02*
D03*
X56000Y81000D02*
D03*
M02*
