G04*
G04 #@! TF.GenerationSoftware,Altium Limited,Altium Designer,19.0.12 (326)*
G04*
G04 Layer_Color=65535*
%FSLAX25Y25*%
%MOIN*%
G70*
G01*
G75*
%ADD42C,0.00600*%
G36*
X66193Y128293D02*
X66229Y128279D01*
X66265Y128257D01*
X66272Y128250D01*
X66286Y128221D01*
X66293Y128178D01*
X66300Y128106D01*
Y127067D01*
X66293Y127024D01*
X66286Y126981D01*
X66258Y126938D01*
X66250Y126930D01*
X66229Y126909D01*
X66200Y126895D01*
X66157Y126888D01*
X66150D01*
X66121Y126895D01*
X66085Y126909D01*
X66057Y126938D01*
X66049Y126945D01*
X66042Y126974D01*
X66028Y127017D01*
X66021Y127081D01*
Y127597D01*
X63676D01*
X63669D01*
X63655D01*
X63633D01*
X63597Y127590D01*
X63561D01*
X63511Y127583D01*
X63404Y127561D01*
X63282Y127526D01*
X63153Y127468D01*
X63017Y127389D01*
X62952Y127346D01*
X62888Y127289D01*
Y127282D01*
X62873Y127275D01*
X62837Y127232D01*
X62787Y127167D01*
X62730Y127074D01*
X62673Y126966D01*
X62615Y126837D01*
X62586Y126694D01*
X62572Y126615D01*
Y126486D01*
X62579Y126436D01*
X62586Y126364D01*
X62601Y126285D01*
X62622Y126206D01*
X62651Y126113D01*
X62694Y126027D01*
X62701Y126020D01*
X62716Y125991D01*
X62751Y125948D01*
X62794Y125891D01*
X62845Y125826D01*
X62909Y125762D01*
X62988Y125690D01*
X63081Y125626D01*
X63095Y125618D01*
X63131Y125597D01*
X63182Y125568D01*
X63253Y125540D01*
X63346Y125511D01*
X63447Y125482D01*
X63554Y125461D01*
X63676Y125453D01*
X66021D01*
Y125984D01*
X66028Y126027D01*
X66035Y126077D01*
X66057Y126120D01*
X66064Y126128D01*
X66085Y126142D01*
X66114Y126156D01*
X66157Y126163D01*
X66171D01*
X66193Y126156D01*
X66229Y126142D01*
X66258Y126120D01*
X66265Y126113D01*
X66279Y126084D01*
X66293Y126041D01*
X66300Y125970D01*
Y124930D01*
X66293Y124887D01*
X66286Y124844D01*
X66258Y124801D01*
X66250Y124794D01*
X66229Y124772D01*
X66200Y124758D01*
X66157Y124751D01*
X66150D01*
X66121Y124758D01*
X66085Y124772D01*
X66057Y124801D01*
X66049Y124808D01*
X66042Y124837D01*
X66028Y124880D01*
X66021Y124944D01*
Y125174D01*
X63676D01*
X63669D01*
X63648D01*
X63619D01*
X63576Y125181D01*
X63526Y125188D01*
X63468Y125195D01*
X63332Y125224D01*
X63174Y125267D01*
X63010Y125339D01*
X62931Y125382D01*
X62845Y125439D01*
X62766Y125496D01*
X62687Y125568D01*
X62680Y125575D01*
X62673Y125583D01*
X62651Y125611D01*
X62622Y125640D01*
X62594Y125676D01*
X62565Y125719D01*
X62529Y125776D01*
X62493Y125833D01*
X62414Y125977D01*
X62357Y126135D01*
X62307Y126321D01*
X62300Y126421D01*
X62292Y126522D01*
Y126586D01*
X62300Y126658D01*
X62314Y126744D01*
X62328Y126852D01*
X62357Y126959D01*
X62400Y127074D01*
X62450Y127189D01*
X62457Y127203D01*
X62479Y127239D01*
X62522Y127289D01*
X62572Y127354D01*
X62644Y127432D01*
X62730Y127518D01*
X62830Y127597D01*
X62945Y127676D01*
X62952D01*
X62959Y127683D01*
X63002Y127705D01*
X63074Y127741D01*
X63160Y127777D01*
X63275Y127812D01*
X63397Y127848D01*
X63533Y127870D01*
X63676Y127877D01*
X66021D01*
Y128121D01*
X66028Y128164D01*
X66035Y128214D01*
X66057Y128257D01*
X66064Y128264D01*
X66085Y128279D01*
X66114Y128293D01*
X66157Y128300D01*
X66171D01*
X66193Y128293D01*
D02*
G37*
G36*
X66114Y123711D02*
X66143Y123704D01*
X66179Y123682D01*
X66186Y123675D01*
X66200Y123661D01*
X66214Y123625D01*
X66236Y123575D01*
X66645Y122292D01*
X62680D01*
Y121316D01*
X62673Y121281D01*
X62665Y121230D01*
X62637Y121195D01*
X62629Y121187D01*
X62608Y121166D01*
X62579Y121151D01*
X62536Y121144D01*
X62529D01*
X62500Y121151D01*
X62472Y121166D01*
X62436Y121195D01*
X62429Y121202D01*
X62422Y121230D01*
X62407Y121273D01*
X62400Y121331D01*
Y123546D01*
X62407Y123589D01*
X62414Y123632D01*
X62436Y123675D01*
X62443Y123682D01*
X62464Y123697D01*
X62493Y123711D01*
X62536Y123718D01*
X62551D01*
X62572Y123711D01*
X62608Y123697D01*
X62637Y123675D01*
X62644Y123668D01*
X62658Y123640D01*
X62673Y123597D01*
X62680Y123532D01*
Y122571D01*
X66258D01*
X65964Y123489D01*
Y123496D01*
X65956Y123525D01*
X65949Y123554D01*
Y123589D01*
X65956Y123611D01*
X65964Y123640D01*
X65985Y123675D01*
X65992Y123682D01*
X66014Y123697D01*
X66042Y123711D01*
X66085Y123718D01*
X66093D01*
X66114Y123711D01*
D02*
G37*
D42*
X64900Y129500D02*
G03*
X63700Y129500I-600J0D01*
G01*
D02*
G03*
X64900Y129500I600J0D01*
G01*
X69200Y120000D02*
Y121000D01*
Y122600D02*
Y124800D01*
Y126300D02*
Y128500D01*
Y130100D02*
Y131100D01*
X63000Y119700D02*
X68900D01*
X63000Y131400D02*
X68900D01*
X62700Y120000D02*
Y121000D01*
Y122600D02*
Y124800D01*
Y126300D02*
Y128500D01*
Y130100D02*
Y131100D01*
X60300Y130100D02*
X62800D01*
X60300Y128500D02*
X62800D01*
X60300D02*
Y130100D01*
Y126300D02*
X62800D01*
X60300Y124800D02*
X62800D01*
X60300D02*
Y126300D01*
Y122600D02*
X62800D01*
X60300Y121000D02*
X62800D01*
X60300D02*
Y122600D01*
X69100Y128500D02*
X71600D01*
X69100Y130100D02*
X71600D01*
Y128500D02*
Y130100D01*
X69100Y124800D02*
X71600D01*
X69100Y126300D02*
X71600D01*
Y124800D02*
Y126300D01*
X69100Y121000D02*
X71600D01*
X69100Y122600D02*
X71600D01*
Y121000D02*
Y122600D01*
M02*
