G04*
G04 #@! TF.GenerationSoftware,Altium Limited,Altium Designer,19.0.12 (326)*
G04*
G04 Layer_Color=11065270*
%FSLAX25Y25*%
%MOIN*%
G70*
G01*
G75*
%ADD44C,0.00200*%
%ADD47C,0.00267*%
D44*
X143700Y111200D02*
Y112800D01*
X145300D01*
Y111200D01*
X143700D01*
X73700D02*
Y112800D01*
X75300D01*
Y111200D01*
X73700D01*
X83700D02*
Y112800D01*
X85300D01*
Y111200D01*
X83700D01*
X93700D02*
Y112800D01*
X95300D01*
Y111200D01*
X93700D01*
X103700D02*
Y112800D01*
X105300D01*
Y111200D01*
X103700D01*
X113700D02*
Y112800D01*
X115300D01*
Y111200D01*
X113700D01*
X123700D02*
Y112800D01*
X125300D01*
Y111200D01*
X123700D01*
X133700D02*
Y112800D01*
X135300D01*
Y111200D01*
X133700D01*
X153700D02*
Y112800D01*
X155300D01*
Y111200D01*
X153700D01*
X73700Y175200D02*
Y176800D01*
X75300D01*
Y175200D01*
X73700D01*
X83700D02*
Y176800D01*
X85300D01*
Y175200D01*
X83700D01*
X93700D02*
Y176800D01*
X95300D01*
Y175200D01*
X93700D01*
X103700D02*
Y176800D01*
X105300D01*
Y175200D01*
X103700D01*
X113700D02*
Y176800D01*
X115300D01*
Y175200D01*
X113700D01*
X123700D02*
Y176800D01*
X125300D01*
Y175200D01*
X123700D01*
X133700D02*
Y176800D01*
X135300D01*
Y175200D01*
X133700D01*
X143700D02*
Y176800D01*
X145300D01*
Y175200D01*
X143700D01*
X153700D02*
Y176800D01*
X155300D01*
Y175200D01*
X153700D01*
X73700Y185200D02*
Y186800D01*
X75300D01*
Y185200D01*
X73700D01*
X83700D02*
Y186800D01*
X85300D01*
Y185200D01*
X83700D01*
X93700D02*
Y186800D01*
X95300D01*
Y185200D01*
X93700D01*
X103700D02*
Y186800D01*
X105300D01*
Y185200D01*
X103700D01*
X113700D02*
Y186800D01*
X115300D01*
Y185200D01*
X113700D01*
X123700D02*
Y186800D01*
X125300D01*
Y185200D01*
X123700D01*
X133700D02*
Y186800D01*
X135300D01*
Y185200D01*
X133700D01*
X143700D02*
Y186800D01*
X145300D01*
Y185200D01*
X143700D01*
X153700D02*
Y186800D01*
X155300D01*
Y185200D01*
X153700D01*
X83700Y163200D02*
Y164800D01*
X85300D01*
Y163200D01*
X83700D01*
X153700D02*
Y164800D01*
X155300D01*
Y163200D01*
X153700D01*
X143700D02*
Y164800D01*
X145300D01*
Y163200D01*
X143700D01*
X133700D02*
Y164800D01*
X135300D01*
Y163200D01*
X133700D01*
X123700D02*
Y164800D01*
X125300D01*
Y163200D01*
X123700D01*
X113700D02*
Y164800D01*
X115300D01*
Y163200D01*
X113700D01*
X103700D02*
Y164800D01*
X105300D01*
Y163200D01*
X103700D01*
X93700D02*
Y164800D01*
X95300D01*
Y163200D01*
X93700D01*
X73700D02*
Y164800D01*
X75300D01*
Y163200D01*
X73700D01*
X193700Y180700D02*
Y182300D01*
X195300D01*
Y180700D01*
X193700D01*
Y170700D02*
Y172300D01*
X195300D01*
Y170700D01*
X193700D01*
Y160700D02*
Y162300D01*
X195300D01*
Y160700D01*
X193700D01*
Y150700D02*
Y152300D01*
X195300D01*
Y150700D01*
X193700D01*
Y140700D02*
Y142300D01*
X195300D01*
Y140700D01*
X193700D01*
Y130700D02*
Y132300D01*
X195300D01*
Y130700D01*
X193700D01*
Y120700D02*
Y122300D01*
X195300D01*
Y120700D01*
X193700D01*
Y110700D02*
Y112300D01*
X195300D01*
Y110700D01*
X193700D01*
Y100700D02*
Y102300D01*
X195300D01*
Y100700D01*
X193700D01*
Y90700D02*
Y92300D01*
X195300D01*
Y90700D01*
X193700D01*
X203700Y180700D02*
Y182300D01*
X205300D01*
Y180700D01*
X203700D01*
Y170700D02*
Y172300D01*
X205300D01*
Y170700D01*
X203700D01*
Y160700D02*
Y162300D01*
X205300D01*
Y160700D01*
X203700D01*
Y150700D02*
Y152300D01*
X205300D01*
Y150700D01*
X203700D01*
Y140700D02*
Y142300D01*
X205300D01*
Y140700D01*
X203700D01*
Y130700D02*
Y132300D01*
X205300D01*
Y130700D01*
X203700D01*
Y120700D02*
Y122300D01*
X205300D01*
Y120700D01*
X203700D01*
Y110700D02*
Y112300D01*
X205300D01*
Y110700D01*
X203700D01*
Y100700D02*
Y102300D01*
X205300D01*
Y100700D01*
X203700D01*
Y90700D02*
Y92300D01*
X205300D01*
Y90700D01*
X203700D01*
X23700Y180700D02*
Y182300D01*
X25300D01*
Y180700D01*
X23700D01*
Y170700D02*
Y172300D01*
X25300D01*
Y170700D01*
X23700D01*
Y160700D02*
Y162300D01*
X25300D01*
Y160700D01*
X23700D01*
Y150700D02*
Y152300D01*
X25300D01*
Y150700D01*
X23700D01*
Y140700D02*
Y142300D01*
X25300D01*
Y140700D01*
X23700D01*
Y130700D02*
Y132300D01*
X25300D01*
Y130700D01*
X23700D01*
Y120700D02*
Y122300D01*
X25300D01*
Y120700D01*
X23700D01*
Y110700D02*
Y112300D01*
X25300D01*
Y110700D01*
X23700D01*
Y100700D02*
Y102300D01*
X25300D01*
Y100700D01*
X23700D01*
Y90700D02*
Y92300D01*
X25300D01*
Y90700D01*
X23700D01*
X33700Y180700D02*
Y182300D01*
X35300D01*
Y180700D01*
X33700D01*
Y170700D02*
Y172300D01*
X35300D01*
Y170700D01*
X33700D01*
Y160700D02*
Y162300D01*
X35300D01*
Y160700D01*
X33700D01*
Y150700D02*
Y152300D01*
X35300D01*
Y150700D01*
X33700D01*
Y140700D02*
Y142300D01*
X35300D01*
Y140700D01*
X33700D01*
Y130700D02*
Y132300D01*
X35300D01*
Y130700D01*
X33700D01*
Y120700D02*
Y122300D01*
X35300D01*
Y120700D01*
X33700D01*
Y110700D02*
Y112300D01*
X35300D01*
Y110700D01*
X33700D01*
Y100700D02*
Y102300D01*
X35300D01*
Y100700D01*
X33700D01*
Y90700D02*
Y92300D01*
X35300D01*
Y90700D01*
X33700D01*
X30200Y47200D02*
Y48800D01*
X31800D01*
Y47200D01*
X30200D01*
Y57200D02*
Y58800D01*
X31800D01*
Y57200D01*
X30200D01*
X73700Y11200D02*
Y12800D01*
X75300D01*
Y11200D01*
X73700D01*
X83700D02*
Y12800D01*
X85300D01*
Y11200D01*
X83700D01*
X93700D02*
Y12800D01*
X95300D01*
Y11200D01*
X93700D01*
X103700D02*
Y12800D01*
X105300D01*
Y11200D01*
X103700D01*
X113700D02*
Y12800D01*
X115300D01*
Y11200D01*
X113700D01*
X47700Y12700D02*
Y14300D01*
X49300D01*
Y12700D01*
X47700D01*
X37700D02*
Y14300D01*
X39300D01*
Y12700D01*
X37700D01*
X27700D02*
Y14300D01*
X29300D01*
Y12700D01*
X27700D01*
X17700D02*
Y14300D01*
X19300D01*
Y12700D01*
X17700D01*
D47*
X66300Y188500D02*
G03*
X66300Y188500I-800J0D01*
G01*
X48800Y97500D02*
G03*
X48800Y97500I-800J0D01*
G01*
X132300Y93000D02*
G03*
X132300Y93000I-800J0D01*
G01*
X102800Y91500D02*
G03*
X102800Y91500I-800J0D01*
G01*
X75300Y138000D02*
G03*
X75300Y138000I-800J0D01*
G01*
X77800Y102000D02*
G03*
X77800Y102000I-800J0D01*
G01*
X54300Y121760D02*
G03*
X54300Y121760I-800J0D01*
G01*
X45800Y121000D02*
G03*
X45800Y121000I-800J0D01*
G01*
X89040D02*
G03*
X89040Y121000I-800J0D01*
G01*
X161300Y145000D02*
G03*
X161300Y145000I-800J0D01*
G01*
X44800Y91260D02*
G03*
X44800Y91260I-800J0D01*
G01*
X183800Y176000D02*
G03*
X183800Y176000I-800J0D01*
G01*
X13800Y175250D02*
G03*
X13800Y175250I-800J0D01*
G01*
X65800Y161500D02*
G03*
X65800Y161500I-800J0D01*
G01*
X89300Y149500D02*
G03*
X89300Y149500I-800J0D01*
G01*
X100300Y195000D02*
G03*
X100300Y195000I-800J0D01*
G01*
X74800Y155500D02*
G03*
X74800Y155500I-800J0D01*
G01*
X68300Y139000D02*
G03*
X68300Y139000I-800J0D01*
G01*
X98800Y75500D02*
G03*
X98800Y75500I-800J0D01*
G01*
X56800Y81000D02*
G03*
X56800Y81000I-800J0D01*
G01*
M02*
