M48
;Layer_Color=9474304
;FILE_FORMAT=2:4
INCH
;TYPE=PLATED
T1F00S00C0.0280
T2F00S00C0.0354
%
T01
X005600Y008100
X007700Y010200
X008824Y012100
X008850Y014950
X007400Y015550
X006500Y016150
X006750Y013900
X007450Y013800
X006550Y018850
X009950Y019500
X018300Y017600
X016050Y014500
X013150Y009300
X010200Y009150
X009800Y007550
X004400Y009126
X004800Y009750
X004500Y012100
X005350Y012176
X001300Y017525
T02
X001850Y001350
X002850
X003850
X004850
X003100Y004800
X007450Y001200
X008450
X009450
X010450
X011450
Y011200
X010450
X009450
X008450
X007450
X012450
X013450
X014450
X015450
X019450Y011150
Y012150
Y013150
Y014150
Y015150
Y016150
Y017150
Y018150
X020450
Y017150
Y016150
Y015150
Y014150
Y013150
Y012150
Y011150
Y010150
X019450
Y009150
X020450
X015450Y016400
X014450
X013450
X012450
X011450
X010450
X009450
X008450
X007450
Y017600
X008450
X009450
X010450
X011450
X012450
X013450
X014450
X015450
Y018600
X014450
X013450
X012450
X011450
X010450
X009450
X008450
X007450
X003450Y018150
X002450
Y017150
Y016150
Y015150
Y014150
Y013150
Y012150
Y011150
Y010150
Y009150
X003450
Y010150
Y011150
Y012150
Y013150
Y014150
Y015150
Y016150
Y017150
X003100Y005800
M30
