G04*
G04 #@! TF.GenerationSoftware,Altium Limited,Altium Designer,19.0.12 (326)*
G04*
G04 Layer_Color=32768*
%FSLAX25Y25*%
%MOIN*%
G70*
G01*
G75*
%ADD42C,0.00600*%
G36*
X66766Y136509D02*
X66800Y136505D01*
X66837Y136498D01*
X66877Y136487D01*
X66918Y136472D01*
X66955Y136453D01*
X66959D01*
X66962Y136450D01*
X66977Y136435D01*
X66992Y136413D01*
X67000Y136398D01*
Y136383D01*
Y136379D01*
X66996Y136365D01*
X66992Y136346D01*
X66977Y136331D01*
X66974Y136328D01*
X66966Y136324D01*
X66948Y136317D01*
X66929Y136313D01*
X66926D01*
X66914Y136317D01*
X66900Y136320D01*
X66877Y136331D01*
X66874D01*
X66866Y136339D01*
X66852Y136342D01*
X66829Y136350D01*
X66803Y136357D01*
X66774Y136361D01*
X66741Y136368D01*
X66670D01*
X66648Y136365D01*
X66618Y136361D01*
X66581Y136354D01*
X66544Y136342D01*
X66500Y136331D01*
X66456Y136317D01*
X66408Y136298D01*
X66356Y136276D01*
X66304Y136246D01*
X66248Y136213D01*
X66197Y136176D01*
X66141Y136132D01*
X66089Y136080D01*
X66086Y136076D01*
X66078Y136065D01*
X66063Y136050D01*
X66045Y136028D01*
X66026Y136002D01*
X66004Y135969D01*
X65978Y135928D01*
X65952Y135887D01*
X65926Y135839D01*
X65901Y135784D01*
X65878Y135728D01*
X65860Y135669D01*
X65841Y135602D01*
X65827Y135536D01*
X65819Y135466D01*
X65816Y135391D01*
Y135388D01*
Y135380D01*
Y135366D01*
Y135347D01*
X65819Y135321D01*
Y135292D01*
Y135255D01*
X65823Y135210D01*
Y135214D01*
X65830Y135218D01*
X65838Y135229D01*
X65845Y135243D01*
X65875Y135277D01*
X65908Y135321D01*
X65952Y135369D01*
X65997Y135421D01*
X66049Y135466D01*
X66100Y135506D01*
X66108Y135510D01*
X66126Y135521D01*
X66156Y135536D01*
X66193Y135554D01*
X66237Y135573D01*
X66293Y135588D01*
X66352Y135599D01*
X66415Y135602D01*
X66437D01*
X66456Y135599D01*
X66474Y135595D01*
X66496Y135591D01*
X66556Y135580D01*
X66618Y135554D01*
X66685Y135521D01*
X66722Y135499D01*
X66755Y135473D01*
X66792Y135443D01*
X66826Y135410D01*
X66829Y135406D01*
X66833Y135403D01*
X66844Y135391D01*
X66855Y135377D01*
X66866Y135358D01*
X66885Y135336D01*
X66918Y135277D01*
X66951Y135210D01*
X66977Y135129D01*
X67000Y135036D01*
X67003Y134985D01*
X67007Y134933D01*
Y134929D01*
Y134922D01*
Y134907D01*
X67003Y134888D01*
Y134866D01*
X67000Y134840D01*
X66985Y134777D01*
X66966Y134703D01*
X66937Y134626D01*
X66896Y134540D01*
X66870Y134500D01*
X66840Y134459D01*
Y134455D01*
X66833Y134452D01*
X66822Y134441D01*
X66811Y134426D01*
X66774Y134392D01*
X66722Y134355D01*
X66659Y134315D01*
X66581Y134282D01*
X66537Y134267D01*
X66493Y134256D01*
X66441Y134252D01*
X66389Y134248D01*
X66370D01*
X66359Y134252D01*
X66322Y134256D01*
X66278Y134263D01*
X66223Y134278D01*
X66163Y134296D01*
X66104Y134326D01*
X66041Y134363D01*
X66034Y134367D01*
X66015Y134385D01*
X65986Y134411D01*
X65949Y134452D01*
X65908Y134500D01*
X65864Y134563D01*
X65823Y134633D01*
X65786Y134718D01*
Y134722D01*
X65782Y134733D01*
X65775Y134748D01*
X65767Y134770D01*
X65760Y134800D01*
X65749Y134833D01*
X65738Y134870D01*
X65727Y134911D01*
X65716Y134959D01*
X65705Y135010D01*
X65686Y135121D01*
X65675Y135243D01*
X65671Y135377D01*
Y135380D01*
Y135388D01*
Y135403D01*
Y135421D01*
X65675Y135447D01*
X65679Y135477D01*
X65686Y135543D01*
X65697Y135621D01*
X65716Y135706D01*
X65741Y135795D01*
X65778Y135884D01*
Y135887D01*
X65782Y135891D01*
X65793Y135913D01*
X65812Y135947D01*
X65838Y135991D01*
X65867Y136043D01*
X65904Y136094D01*
X65949Y136150D01*
X65997Y136202D01*
X66004Y136209D01*
X66023Y136224D01*
X66052Y136250D01*
X66089Y136279D01*
X66137Y136317D01*
X66193Y136354D01*
X66252Y136390D01*
X66319Y136424D01*
X66322D01*
X66326Y136427D01*
X66337Y136431D01*
X66352Y136439D01*
X66389Y136453D01*
X66437Y136468D01*
X66496Y136483D01*
X66563Y136498D01*
X66637Y136509D01*
X66715Y136513D01*
X66741D01*
X66766Y136509D01*
D02*
G37*
G36*
X64184Y136354D02*
X64210Y136350D01*
X64239Y136346D01*
X64273Y136342D01*
X64313Y136335D01*
X64395Y136309D01*
X64483Y136276D01*
X64528Y136254D01*
X64572Y136228D01*
X64617Y136198D01*
X64657Y136165D01*
Y136213D01*
Y136217D01*
Y136220D01*
X64661Y136242D01*
X64665Y136265D01*
X64676Y136287D01*
X64680Y136291D01*
X64691Y136302D01*
X64705Y136309D01*
X64728Y136313D01*
X64735D01*
X64746Y136309D01*
X64765Y136302D01*
X64780Y136287D01*
X64783Y136283D01*
X64791Y136268D01*
X64798Y136246D01*
X64802Y136213D01*
Y135847D01*
Y135843D01*
Y135839D01*
X64798Y135817D01*
X64794Y135795D01*
X64780Y135773D01*
X64776Y135769D01*
X64765Y135761D01*
X64750Y135754D01*
X64728Y135750D01*
X64724D01*
X64709Y135754D01*
X64694Y135758D01*
X64676Y135769D01*
X64672Y135773D01*
X64669Y135787D01*
X64661Y135806D01*
X64657Y135836D01*
Y135843D01*
X64654Y135861D01*
X64646Y135887D01*
X64635Y135921D01*
X64617Y135961D01*
X64587Y136006D01*
X64554Y136050D01*
X64506Y136094D01*
X64498Y136098D01*
X64480Y136113D01*
X64450Y136132D01*
X64406Y136154D01*
X64354Y136176D01*
X64291Y136194D01*
X64221Y136209D01*
X64139Y136213D01*
X64099D01*
X64054Y136205D01*
X64003Y136198D01*
X63940Y136183D01*
X63877Y136161D01*
X63814Y136132D01*
X63758Y136091D01*
X63751Y136087D01*
X63736Y136069D01*
X63714Y136043D01*
X63688Y136009D01*
X63662Y135965D01*
X63640Y135917D01*
X63625Y135861D01*
X63618Y135799D01*
Y135795D01*
Y135784D01*
X63621Y135769D01*
Y135747D01*
X63633Y135699D01*
X63655Y135643D01*
X63658Y135639D01*
X63662Y135632D01*
X63670Y135617D01*
X63684Y135602D01*
X63714Y135565D01*
X63758Y135528D01*
X63762D01*
X63769Y135521D01*
X63784Y135514D01*
X63803Y135506D01*
X63825Y135495D01*
X63851Y135480D01*
X63906Y135458D01*
X63910D01*
X63921Y135454D01*
X63943Y135447D01*
X63973Y135443D01*
X64006Y135436D01*
X64054Y135425D01*
X64106Y135417D01*
X64169Y135406D01*
X64173D01*
X64180Y135403D01*
X64199D01*
X64217Y135399D01*
X64239Y135391D01*
X64269Y135388D01*
X64328Y135373D01*
X64398Y135358D01*
X64465Y135343D01*
X64524Y135325D01*
X64554Y135314D01*
X64576Y135306D01*
X64583Y135303D01*
X64602Y135295D01*
X64628Y135281D01*
X64661Y135258D01*
X64698Y135232D01*
X64735Y135199D01*
X64768Y135162D01*
X64802Y135121D01*
X64805Y135118D01*
X64813Y135099D01*
X64828Y135077D01*
X64842Y135044D01*
X64854Y134999D01*
X64868Y134951D01*
X64876Y134899D01*
X64879Y134840D01*
Y134836D01*
Y134829D01*
Y134818D01*
X64876Y134800D01*
X64872Y134777D01*
X64868Y134751D01*
X64854Y134696D01*
X64831Y134629D01*
X64794Y134559D01*
X64772Y134522D01*
X64746Y134485D01*
X64717Y134452D01*
X64680Y134418D01*
X64676D01*
X64672Y134411D01*
X64657Y134404D01*
X64643Y134392D01*
X64624Y134378D01*
X64598Y134363D01*
X64572Y134348D01*
X64539Y134333D01*
X64502Y134315D01*
X64461Y134300D01*
X64417Y134285D01*
X64372Y134270D01*
X64265Y134252D01*
X64206Y134248D01*
X64147Y134245D01*
X64110D01*
X64084Y134248D01*
X64054Y134252D01*
X64017Y134256D01*
X63973Y134263D01*
X63929Y134274D01*
X63832Y134300D01*
X63784Y134322D01*
X63732Y134344D01*
X63684Y134370D01*
X63636Y134400D01*
X63588Y134437D01*
X63544Y134478D01*
Y134396D01*
Y134392D01*
Y134389D01*
X63540Y134367D01*
X63536Y134344D01*
X63521Y134322D01*
X63518Y134318D01*
X63507Y134311D01*
X63492Y134304D01*
X63470Y134300D01*
X63466D01*
X63451Y134304D01*
X63436Y134311D01*
X63418Y134322D01*
X63414Y134326D01*
X63411Y134341D01*
X63403Y134363D01*
X63399Y134396D01*
Y134796D01*
Y134800D01*
Y134803D01*
X63403Y134825D01*
X63407Y134848D01*
X63418Y134870D01*
X63422Y134873D01*
X63433Y134885D01*
X63447Y134892D01*
X63470Y134896D01*
X63473D01*
X63488Y134892D01*
X63503Y134888D01*
X63518Y134873D01*
X63521Y134870D01*
X63529Y134859D01*
X63540Y134836D01*
X63544Y134807D01*
Y134800D01*
X63547Y134781D01*
X63555Y134751D01*
X63566Y134711D01*
X63588Y134666D01*
X63618Y134618D01*
X63658Y134566D01*
X63710Y134518D01*
X63714D01*
X63718Y134515D01*
X63740Y134500D01*
X63777Y134478D01*
X63825Y134455D01*
X63888Y134430D01*
X63962Y134411D01*
X64051Y134396D01*
X64147Y134389D01*
X64173D01*
X64191Y134392D01*
X64213D01*
X64239Y134396D01*
X64302Y134407D01*
X64369Y134422D01*
X64443Y134444D01*
X64513Y134478D01*
X64576Y134522D01*
X64580D01*
X64583Y134529D01*
X64602Y134544D01*
X64628Y134574D01*
X64657Y134611D01*
X64683Y134659D01*
X64709Y134714D01*
X64728Y134777D01*
X64735Y134811D01*
Y134844D01*
Y134848D01*
Y134862D01*
X64731Y134885D01*
X64728Y134914D01*
X64720Y134944D01*
X64709Y134977D01*
X64694Y135014D01*
X64672Y135047D01*
X64669Y135051D01*
X64661Y135062D01*
X64646Y135077D01*
X64628Y135099D01*
X64602Y135121D01*
X64572Y135144D01*
X64535Y135166D01*
X64495Y135188D01*
X64491D01*
X64476Y135195D01*
X64454Y135203D01*
X64421Y135210D01*
X64372Y135221D01*
X64313Y135236D01*
X64280Y135243D01*
X64239Y135251D01*
X64199Y135262D01*
X64151Y135269D01*
X64147D01*
X64136Y135273D01*
X64117Y135277D01*
X64091Y135281D01*
X64062Y135288D01*
X64028Y135295D01*
X63951Y135314D01*
X63866Y135340D01*
X63777Y135369D01*
X63695Y135406D01*
X63662Y135429D01*
X63629Y135451D01*
X63621Y135458D01*
X63603Y135473D01*
X63581Y135503D01*
X63551Y135543D01*
X63521Y135591D01*
X63499Y135651D01*
X63481Y135721D01*
X63473Y135802D01*
Y135806D01*
Y135813D01*
Y135824D01*
X63477Y135839D01*
X63485Y135884D01*
X63496Y135935D01*
X63518Y135995D01*
X63551Y136061D01*
X63570Y136094D01*
X63595Y136128D01*
X63621Y136161D01*
X63655Y136191D01*
X63658Y136194D01*
X63662Y136198D01*
X63673Y136205D01*
X63688Y136217D01*
X63706Y136228D01*
X63729Y136242D01*
X63784Y136276D01*
X63851Y136305D01*
X63932Y136331D01*
X64028Y136350D01*
X64077Y136357D01*
X64162D01*
X64184Y136354D01*
D02*
G37*
G36*
X60717Y135669D02*
Y135665D01*
Y135662D01*
X60713Y135639D01*
X60710Y135614D01*
X60695Y135591D01*
X60691Y135588D01*
X60680Y135580D01*
X60665Y135573D01*
X60643Y135569D01*
X60639D01*
X60624Y135573D01*
X60606Y135580D01*
X60591Y135591D01*
X60587Y135595D01*
X60584Y135610D01*
X60576Y135632D01*
X60573Y135669D01*
Y136169D01*
X59981D01*
Y134444D01*
X60365D01*
X60384Y134441D01*
X60410Y134437D01*
X60428Y134422D01*
X60432Y134418D01*
X60443Y134407D01*
X60451Y134392D01*
X60454Y134370D01*
Y134367D01*
X60451Y134352D01*
X60443Y134337D01*
X60428Y134318D01*
X60425Y134315D01*
X60410Y134311D01*
X60388Y134304D01*
X60358Y134300D01*
X59452D01*
X59429Y134304D01*
X59407Y134307D01*
X59385Y134318D01*
X59381Y134322D01*
X59374Y134333D01*
X59366Y134348D01*
X59363Y134370D01*
Y134378D01*
X59366Y134389D01*
X59374Y134407D01*
X59385Y134422D01*
X59389Y134426D01*
X59403Y134433D01*
X59426Y134441D01*
X59459Y134444D01*
X59836D01*
Y136169D01*
X59244D01*
Y135669D01*
Y135665D01*
Y135662D01*
X59241Y135639D01*
X59237Y135614D01*
X59222Y135591D01*
X59218Y135588D01*
X59207Y135580D01*
X59193Y135573D01*
X59170Y135569D01*
X59167D01*
X59152Y135573D01*
X59137Y135580D01*
X59118Y135591D01*
X59115Y135595D01*
X59111Y135610D01*
X59104Y135632D01*
X59100Y135669D01*
Y136313D01*
X60717D01*
Y135669D01*
D02*
G37*
G36*
X73238Y136231D02*
X72653Y134370D01*
X72649Y134363D01*
X72642Y134348D01*
X72635Y134326D01*
X72620Y134311D01*
X72616D01*
X72609Y134307D01*
X72594Y134304D01*
X72579Y134300D01*
X72575D01*
X72561Y134304D01*
X72542Y134307D01*
X72524Y134318D01*
X72520Y134322D01*
X72516Y134333D01*
X72509Y134348D01*
X72505Y134367D01*
Y134370D01*
Y134381D01*
X72509Y134396D01*
X72516Y134415D01*
X73093Y136250D01*
Y136317D01*
X72054D01*
Y136191D01*
Y136187D01*
Y136183D01*
X72050Y136161D01*
X72046Y136139D01*
X72031Y136117D01*
X72028Y136113D01*
X72017Y136106D01*
X72002Y136098D01*
X71980Y136094D01*
X71976D01*
X71961Y136098D01*
X71946Y136106D01*
X71928Y136117D01*
X71924Y136120D01*
X71921Y136135D01*
X71913Y136157D01*
X71909Y136191D01*
Y136461D01*
X73238D01*
Y136231D01*
D02*
G37*
G36*
X68442Y134444D02*
X68946D01*
X68964Y134441D01*
X68990Y134437D01*
X69009Y134422D01*
X69012Y134418D01*
X69023Y134407D01*
X69031Y134392D01*
X69034Y134370D01*
Y134367D01*
X69031Y134352D01*
X69023Y134337D01*
X69009Y134318D01*
X69005Y134315D01*
X68990Y134311D01*
X68968Y134304D01*
X68938Y134300D01*
X67795D01*
X67773Y134304D01*
X67751Y134307D01*
X67728Y134318D01*
X67725Y134322D01*
X67717Y134333D01*
X67710Y134348D01*
X67706Y134370D01*
Y134378D01*
X67710Y134389D01*
X67717Y134407D01*
X67728Y134422D01*
X67732Y134426D01*
X67747Y134433D01*
X67769Y134441D01*
X67802Y134444D01*
X68298D01*
Y136291D01*
X67825Y136139D01*
X67821D01*
X67806Y136135D01*
X67791Y136132D01*
X67773D01*
X67762Y136135D01*
X67747Y136139D01*
X67728Y136150D01*
X67725Y136154D01*
X67717Y136165D01*
X67710Y136180D01*
X67706Y136202D01*
Y136205D01*
X67710Y136217D01*
X67714Y136231D01*
X67725Y136250D01*
X67728Y136254D01*
X67736Y136261D01*
X67754Y136268D01*
X67780Y136279D01*
X68442Y136490D01*
Y134444D01*
D02*
G37*
G36*
X62256Y136309D02*
X62282D01*
X62312Y136305D01*
X62382Y136291D01*
X62460Y136268D01*
X62541Y136239D01*
X62622Y136194D01*
X62659Y136165D01*
X62696Y136135D01*
X62700Y136132D01*
X62704Y136128D01*
X62715Y136117D01*
X62726Y136106D01*
X62756Y136069D01*
X62793Y136021D01*
X62826Y135958D01*
X62855Y135887D01*
X62878Y135810D01*
X62881Y135769D01*
X62885Y135724D01*
Y135717D01*
Y135702D01*
X62881Y135673D01*
X62878Y135639D01*
X62870Y135602D01*
X62859Y135558D01*
X62844Y135517D01*
X62822Y135473D01*
X62818Y135469D01*
X62811Y135454D01*
X62796Y135436D01*
X62782Y135410D01*
X62759Y135380D01*
X62733Y135351D01*
X62704Y135321D01*
X62674Y135295D01*
X62667Y135292D01*
X62652Y135281D01*
X62626Y135262D01*
X62593Y135243D01*
X62552Y135218D01*
X62508Y135195D01*
X62460Y135173D01*
X62408Y135155D01*
X62404D01*
X62389Y135151D01*
X62367Y135147D01*
X62341Y135140D01*
X62304Y135136D01*
X62260Y135129D01*
X62212Y135125D01*
X61708D01*
Y134444D01*
X62208D01*
X62230Y134441D01*
X62252Y134437D01*
X62275Y134422D01*
X62278Y134418D01*
X62289Y134407D01*
X62297Y134392D01*
X62300Y134370D01*
Y134367D01*
X62297Y134352D01*
X62289Y134337D01*
X62275Y134318D01*
X62271Y134315D01*
X62256Y134311D01*
X62234Y134304D01*
X62201Y134300D01*
X61364D01*
X61342Y134304D01*
X61316Y134307D01*
X61294Y134318D01*
X61290Y134322D01*
X61283Y134333D01*
X61276Y134348D01*
X61272Y134370D01*
Y134378D01*
X61276Y134389D01*
X61283Y134407D01*
X61294Y134422D01*
X61298Y134426D01*
X61313Y134433D01*
X61335Y134441D01*
X61372Y134444D01*
X61564D01*
Y136169D01*
X61364D01*
X61342Y136172D01*
X61316Y136176D01*
X61294Y136187D01*
X61290Y136191D01*
X61283Y136202D01*
X61276Y136217D01*
X61272Y136239D01*
Y136246D01*
X61276Y136257D01*
X61283Y136276D01*
X61294Y136291D01*
X61298Y136294D01*
X61313Y136302D01*
X61335Y136309D01*
X61372Y136313D01*
X62238D01*
X62256Y136309D01*
D02*
G37*
G36*
X74766Y136509D02*
X74795Y136505D01*
X74832Y136502D01*
X74873Y136490D01*
X74918Y136479D01*
X74958Y136461D01*
X74962Y136457D01*
X74977Y136450D01*
X74999Y136439D01*
X75025Y136424D01*
X75054Y136402D01*
X75084Y136379D01*
X75117Y136350D01*
X75147Y136317D01*
X75151Y136313D01*
X75154Y136305D01*
X75165Y136291D01*
X75180Y136272D01*
X75199Y136246D01*
X75217Y136217D01*
X75236Y136180D01*
X75258Y136135D01*
X75262Y136132D01*
X75269Y136113D01*
X75276Y136091D01*
X75291Y136061D01*
X75306Y136024D01*
X75317Y135987D01*
X75343Y135906D01*
X75347Y135898D01*
X75350Y135880D01*
X75358Y135850D01*
X75365Y135806D01*
X75373Y135758D01*
X75376Y135699D01*
X75384Y135632D01*
Y135558D01*
Y135199D01*
Y135195D01*
Y135177D01*
Y135155D01*
X75380Y135121D01*
X75376Y135084D01*
X75373Y135036D01*
X75365Y134988D01*
X75354Y134933D01*
X75328Y134814D01*
X75310Y134751D01*
X75287Y134692D01*
X75262Y134629D01*
X75232Y134570D01*
X75199Y134511D01*
X75158Y134459D01*
X75154Y134455D01*
X75151Y134452D01*
X75139Y134441D01*
X75128Y134426D01*
X75091Y134392D01*
X75040Y134355D01*
X74977Y134315D01*
X74903Y134282D01*
X74862Y134267D01*
X74818Y134256D01*
X74770Y134252D01*
X74721Y134248D01*
X74699D01*
X74677Y134252D01*
X74644Y134256D01*
X74607Y134259D01*
X74566Y134270D01*
X74525Y134282D01*
X74481Y134300D01*
X74477Y134304D01*
X74462Y134307D01*
X74440Y134318D01*
X74414Y134337D01*
X74385Y134355D01*
X74355Y134381D01*
X74322Y134407D01*
X74292Y134441D01*
X74288Y134444D01*
X74285Y134452D01*
X74274Y134467D01*
X74259Y134485D01*
X74244Y134511D01*
X74222Y134540D01*
X74203Y134578D01*
X74181Y134622D01*
X74177Y134629D01*
X74170Y134644D01*
X74163Y134666D01*
X74148Y134700D01*
X74133Y134733D01*
X74122Y134774D01*
X74096Y134851D01*
Y134859D01*
X74089Y134877D01*
X74085Y134911D01*
X74078Y134951D01*
X74070Y135003D01*
X74067Y135062D01*
X74059Y135125D01*
Y135199D01*
Y135558D01*
Y135562D01*
Y135580D01*
Y135602D01*
X74063Y135636D01*
X74067Y135676D01*
X74070Y135721D01*
X74078Y135769D01*
X74085Y135824D01*
X74111Y135943D01*
X74129Y136006D01*
X74152Y136069D01*
X74177Y136128D01*
X74207Y136187D01*
X74240Y136246D01*
X74277Y136298D01*
X74281Y136302D01*
X74285Y136309D01*
X74296Y136317D01*
X74311Y136331D01*
X74348Y136365D01*
X74400Y136405D01*
X74462Y136446D01*
X74536Y136479D01*
X74577Y136494D01*
X74621Y136505D01*
X74670Y136509D01*
X74718Y136513D01*
X74740D01*
X74766Y136509D01*
D02*
G37*
G36*
X70533D02*
X70563Y136505D01*
X70600Y136502D01*
X70640Y136490D01*
X70685Y136479D01*
X70725Y136461D01*
X70729Y136457D01*
X70744Y136450D01*
X70766Y136439D01*
X70792Y136424D01*
X70822Y136402D01*
X70851Y136379D01*
X70885Y136350D01*
X70914Y136317D01*
X70918Y136313D01*
X70921Y136305D01*
X70933Y136291D01*
X70947Y136272D01*
X70966Y136246D01*
X70984Y136217D01*
X71003Y136180D01*
X71025Y136135D01*
X71029Y136132D01*
X71036Y136113D01*
X71044Y136091D01*
X71058Y136061D01*
X71073Y136024D01*
X71084Y135987D01*
X71110Y135906D01*
X71114Y135898D01*
X71118Y135880D01*
X71125Y135850D01*
X71132Y135806D01*
X71140Y135758D01*
X71144Y135699D01*
X71151Y135632D01*
Y135558D01*
Y135199D01*
Y135195D01*
Y135177D01*
Y135155D01*
X71147Y135121D01*
X71144Y135084D01*
X71140Y135036D01*
X71132Y134988D01*
X71121Y134933D01*
X71095Y134814D01*
X71077Y134751D01*
X71055Y134692D01*
X71029Y134629D01*
X70999Y134570D01*
X70966Y134511D01*
X70925Y134459D01*
X70921Y134455D01*
X70918Y134452D01*
X70907Y134441D01*
X70896Y134426D01*
X70859Y134392D01*
X70807Y134355D01*
X70744Y134315D01*
X70670Y134282D01*
X70629Y134267D01*
X70585Y134256D01*
X70537Y134252D01*
X70489Y134248D01*
X70466D01*
X70444Y134252D01*
X70411Y134256D01*
X70374Y134259D01*
X70333Y134270D01*
X70293Y134282D01*
X70248Y134300D01*
X70244Y134304D01*
X70230Y134307D01*
X70207Y134318D01*
X70182Y134337D01*
X70152Y134355D01*
X70122Y134381D01*
X70089Y134407D01*
X70059Y134441D01*
X70056Y134444D01*
X70052Y134452D01*
X70041Y134467D01*
X70026Y134485D01*
X70011Y134511D01*
X69989Y134540D01*
X69971Y134578D01*
X69948Y134622D01*
X69945Y134629D01*
X69937Y134644D01*
X69930Y134666D01*
X69915Y134700D01*
X69900Y134733D01*
X69889Y134774D01*
X69863Y134851D01*
Y134859D01*
X69856Y134877D01*
X69852Y134911D01*
X69845Y134951D01*
X69837Y135003D01*
X69834Y135062D01*
X69826Y135125D01*
Y135199D01*
Y135558D01*
Y135562D01*
Y135580D01*
Y135602D01*
X69830Y135636D01*
X69834Y135676D01*
X69837Y135721D01*
X69845Y135769D01*
X69852Y135824D01*
X69878Y135943D01*
X69897Y136006D01*
X69919Y136069D01*
X69945Y136128D01*
X69974Y136187D01*
X70008Y136246D01*
X70045Y136298D01*
X70048Y136302D01*
X70052Y136309D01*
X70063Y136317D01*
X70078Y136331D01*
X70115Y136365D01*
X70167Y136405D01*
X70230Y136446D01*
X70304Y136479D01*
X70344Y136494D01*
X70389Y136505D01*
X70437Y136509D01*
X70485Y136513D01*
X70507D01*
X70533Y136509D01*
D02*
G37*
%LPC*%
G36*
X66411Y135458D02*
X66404D01*
X66382Y135454D01*
X66352Y135451D01*
X66308Y135440D01*
X66259Y135425D01*
X66204Y135399D01*
X66149Y135362D01*
X66089Y135314D01*
X66086Y135310D01*
X66071Y135295D01*
X66049Y135269D01*
X66023Y135236D01*
X65986Y135188D01*
X65949Y135129D01*
X65904Y135058D01*
X65856Y134973D01*
Y134970D01*
X65860Y134959D01*
X65864Y134944D01*
X65867Y134922D01*
X65875Y134896D01*
X65886Y134866D01*
X65908Y134800D01*
X65938Y134725D01*
X65971Y134652D01*
X66015Y134581D01*
X66037Y134548D01*
X66063Y134522D01*
X66071Y134515D01*
X66089Y134500D01*
X66119Y134481D01*
X66156Y134455D01*
X66204Y134433D01*
X66263Y134411D01*
X66326Y134396D01*
X66393Y134392D01*
X66411D01*
X66426Y134396D01*
X66459Y134400D01*
X66507Y134411D01*
X66559Y134430D01*
X66615Y134455D01*
X66670Y134492D01*
X66722Y134540D01*
X66729Y134548D01*
X66744Y134566D01*
X66766Y134600D01*
X66792Y134648D01*
X66818Y134703D01*
X66840Y134770D01*
X66855Y134848D01*
X66859Y134933D01*
Y134936D01*
Y134944D01*
Y134955D01*
Y134970D01*
X66852Y135014D01*
X66844Y135066D01*
X66826Y135125D01*
X66803Y135188D01*
X66770Y135251D01*
X66722Y135310D01*
X66715Y135318D01*
X66700Y135332D01*
X66670Y135358D01*
X66633Y135384D01*
X66585Y135410D01*
X66533Y135436D01*
X66474Y135451D01*
X66411Y135458D01*
D02*
G37*
G36*
X62223Y136169D02*
X61708D01*
Y135269D01*
X62197D01*
X62226Y135273D01*
X62267Y135277D01*
X62312Y135288D01*
X62363Y135299D01*
X62419Y135318D01*
X62471Y135340D01*
X62478Y135343D01*
X62493Y135351D01*
X62519Y135369D01*
X62548Y135388D01*
X62582Y135414D01*
X62615Y135443D01*
X62648Y135477D01*
X62674Y135514D01*
X62678Y135517D01*
X62685Y135532D01*
X62696Y135551D01*
X62708Y135580D01*
X62719Y135610D01*
X62730Y135647D01*
X62737Y135684D01*
X62741Y135724D01*
Y135728D01*
Y135732D01*
X62737Y135754D01*
X62733Y135787D01*
X62722Y135828D01*
X62704Y135876D01*
X62678Y135924D01*
X62641Y135980D01*
X62593Y136032D01*
X62585Y136039D01*
X62567Y136054D01*
X62534Y136076D01*
X62493Y136102D01*
X62437Y136124D01*
X62375Y136146D01*
X62304Y136161D01*
X62223Y136169D01*
D02*
G37*
G36*
X74718Y136368D02*
X74707D01*
X74695Y136365D01*
X74677D01*
X74633Y136354D01*
X74581Y136335D01*
X74518Y136305D01*
X74488Y136283D01*
X74455Y136261D01*
X74425Y136231D01*
X74392Y136198D01*
X74362Y136161D01*
X74337Y136117D01*
Y136113D01*
X74329Y136106D01*
X74326Y136091D01*
X74314Y136072D01*
X74303Y136050D01*
X74292Y136021D01*
X74281Y135987D01*
X74270Y135950D01*
X74255Y135909D01*
X74244Y135869D01*
X74222Y135769D01*
X74207Y135658D01*
X74203Y135539D01*
Y135218D01*
Y135214D01*
Y135210D01*
Y135199D01*
Y135184D01*
X74207Y135144D01*
X74211Y135096D01*
X74218Y135036D01*
X74226Y134970D01*
X74240Y134903D01*
X74259Y134836D01*
Y134833D01*
X74263Y134829D01*
X74270Y134807D01*
X74281Y134774D01*
X74296Y134737D01*
X74314Y134688D01*
X74337Y134644D01*
X74362Y134596D01*
X74388Y134555D01*
X74392Y134552D01*
X74396Y134544D01*
X74407Y134533D01*
X74418Y134522D01*
X74455Y134485D01*
X74499Y134452D01*
X74503Y134448D01*
X74518Y134444D01*
X74536Y134433D01*
X74566Y134422D01*
X74599Y134411D01*
X74636Y134404D01*
X74677Y134396D01*
X74721Y134392D01*
X74744D01*
X74762Y134396D01*
X74806Y134404D01*
X74858Y134422D01*
X74918Y134452D01*
X74951Y134470D01*
X74980Y134492D01*
X75014Y134522D01*
X75043Y134555D01*
X75073Y134592D01*
X75099Y134637D01*
Y134640D01*
X75106Y134648D01*
X75114Y134663D01*
X75121Y134681D01*
X75132Y134707D01*
X75143Y134733D01*
X75154Y134766D01*
X75169Y134803D01*
X75184Y134844D01*
X75195Y134888D01*
X75217Y134988D01*
X75232Y135099D01*
X75239Y135218D01*
Y135539D01*
Y135543D01*
Y135547D01*
Y135558D01*
Y135573D01*
X75236Y135614D01*
X75232Y135665D01*
X75225Y135721D01*
X75213Y135787D01*
X75199Y135854D01*
X75180Y135921D01*
Y135924D01*
X75177Y135928D01*
X75169Y135950D01*
X75158Y135984D01*
X75143Y136024D01*
X75125Y136069D01*
X75103Y136113D01*
X75077Y136161D01*
X75051Y136202D01*
X75047Y136205D01*
X75043Y136213D01*
X75032Y136224D01*
X75021Y136239D01*
X74984Y136272D01*
X74940Y136305D01*
X74936Y136309D01*
X74921Y136317D01*
X74903Y136324D01*
X74873Y136339D01*
X74844Y136350D01*
X74803Y136357D01*
X74762Y136365D01*
X74718Y136368D01*
D02*
G37*
G36*
X70485D02*
X70474D01*
X70463Y136365D01*
X70444D01*
X70400Y136354D01*
X70348Y136335D01*
X70285Y136305D01*
X70256Y136283D01*
X70222Y136261D01*
X70193Y136231D01*
X70159Y136198D01*
X70130Y136161D01*
X70104Y136117D01*
Y136113D01*
X70096Y136106D01*
X70093Y136091D01*
X70082Y136072D01*
X70070Y136050D01*
X70059Y136021D01*
X70048Y135987D01*
X70037Y135950D01*
X70022Y135909D01*
X70011Y135869D01*
X69989Y135769D01*
X69974Y135658D01*
X69971Y135539D01*
Y135218D01*
Y135214D01*
Y135210D01*
Y135199D01*
Y135184D01*
X69974Y135144D01*
X69978Y135096D01*
X69985Y135036D01*
X69993Y134970D01*
X70008Y134903D01*
X70026Y134836D01*
Y134833D01*
X70030Y134829D01*
X70037Y134807D01*
X70048Y134774D01*
X70063Y134737D01*
X70082Y134688D01*
X70104Y134644D01*
X70130Y134596D01*
X70156Y134555D01*
X70159Y134552D01*
X70163Y134544D01*
X70174Y134533D01*
X70185Y134522D01*
X70222Y134485D01*
X70267Y134452D01*
X70270Y134448D01*
X70285Y134444D01*
X70304Y134433D01*
X70333Y134422D01*
X70367Y134411D01*
X70403Y134404D01*
X70444Y134396D01*
X70489Y134392D01*
X70511D01*
X70529Y134396D01*
X70574Y134404D01*
X70626Y134422D01*
X70685Y134452D01*
X70718Y134470D01*
X70748Y134492D01*
X70781Y134522D01*
X70811Y134555D01*
X70840Y134592D01*
X70866Y134637D01*
Y134640D01*
X70873Y134648D01*
X70881Y134663D01*
X70888Y134681D01*
X70899Y134707D01*
X70910Y134733D01*
X70921Y134766D01*
X70936Y134803D01*
X70951Y134844D01*
X70962Y134888D01*
X70984Y134988D01*
X70999Y135099D01*
X71007Y135218D01*
Y135539D01*
Y135543D01*
Y135547D01*
Y135558D01*
Y135573D01*
X71003Y135614D01*
X70999Y135665D01*
X70992Y135721D01*
X70981Y135787D01*
X70966Y135854D01*
X70947Y135921D01*
Y135924D01*
X70944Y135928D01*
X70936Y135950D01*
X70925Y135984D01*
X70910Y136024D01*
X70892Y136069D01*
X70870Y136113D01*
X70844Y136161D01*
X70818Y136202D01*
X70814Y136205D01*
X70811Y136213D01*
X70799Y136224D01*
X70788Y136239D01*
X70751Y136272D01*
X70707Y136305D01*
X70703Y136309D01*
X70688Y136317D01*
X70670Y136324D01*
X70640Y136339D01*
X70611Y136350D01*
X70570Y136357D01*
X70529Y136365D01*
X70485Y136368D01*
D02*
G37*
%LPD*%
D42*
X65300Y130500D02*
G03*
X66700Y130500I700J946D01*
G01*
X62600Y119500D02*
X69400D01*
X62600Y131500D02*
X69400D01*
M02*
