G04*
G04 #@! TF.GenerationSoftware,Altium Limited,Altium Designer,19.0.12 (326)*
G04*
G04 Layer_Color=255*
%FSLAX25Y25*%
%MOIN*%
G70*
G01*
G75*
%ADD16R,0.05118X0.02756*%
%ADD17R,0.08661X0.03150*%
%ADD18R,0.02756X0.05118*%
%ADD19R,0.03937X0.05118*%
%ADD20R,0.01575X0.01968*%
%ADD21R,0.01575X0.03622*%
%ADD22O,0.06299X0.01772*%
%ADD23R,0.06200X0.02200*%
%ADD24R,0.03150X0.08661*%
%ADD38C,0.05906*%
%ADD39R,0.05906X0.05906*%
%ADD40R,0.05906X0.05906*%
D16*
X48000Y181760D02*
D03*
Y189240D02*
D03*
X58000Y181760D02*
D03*
Y189240D02*
D03*
X140000Y95740D02*
D03*
Y88260D02*
D03*
X131000Y83740D02*
D03*
Y76260D02*
D03*
X98000Y60760D02*
D03*
Y68240D02*
D03*
X82465Y68240D02*
D03*
Y60760D02*
D03*
X65500Y60760D02*
D03*
Y68240D02*
D03*
X110638Y98740D02*
D03*
Y91260D02*
D03*
X96250Y139240D02*
D03*
Y131760D02*
D03*
D17*
X43500Y70563D02*
D03*
Y78437D02*
D03*
D18*
X120740Y80000D02*
D03*
X113260D02*
D03*
X106240Y84067D02*
D03*
X98760D02*
D03*
X94760Y100500D02*
D03*
X102240D02*
D03*
X88240Y139000D02*
D03*
X80760D02*
D03*
X88240Y129000D02*
D03*
X80760D02*
D03*
X52740Y58000D02*
D03*
X45260D02*
D03*
D19*
X120500Y57224D02*
D03*
Y47776D02*
D03*
X140500D02*
D03*
Y57224D02*
D03*
X160500D02*
D03*
Y47776D02*
D03*
X180500Y57224D02*
D03*
Y47776D02*
D03*
X200500Y57224D02*
D03*
Y47776D02*
D03*
D20*
X119441Y96480D02*
D03*
X124559D02*
D03*
Y89000D02*
D03*
X122000D02*
D03*
X119441D02*
D03*
D21*
X53500Y105260D02*
D03*
X50941D02*
D03*
Y112740D02*
D03*
X53500D02*
D03*
X56059D02*
D03*
Y105260D02*
D03*
X54500Y168260D02*
D03*
X51941D02*
D03*
Y175740D02*
D03*
X54500D02*
D03*
X57059D02*
D03*
Y168260D02*
D03*
D22*
X65535Y96898D02*
D03*
Y94339D02*
D03*
Y91780D02*
D03*
Y89220D02*
D03*
Y86661D02*
D03*
Y84102D02*
D03*
X82465Y96898D02*
D03*
Y94339D02*
D03*
Y91780D02*
D03*
Y89220D02*
D03*
Y86661D02*
D03*
Y84102D02*
D03*
D23*
X61400Y129240D02*
D03*
Y125500D02*
D03*
Y121760D02*
D03*
X70600D02*
D03*
Y125500D02*
D03*
Y129240D02*
D03*
D24*
X49063Y142000D02*
D03*
X56937D02*
D03*
D38*
X144500Y112000D02*
D03*
X74500D02*
D03*
X84500D02*
D03*
X94500D02*
D03*
X104500D02*
D03*
X114500D02*
D03*
X124500D02*
D03*
X134500D02*
D03*
X84500Y176000D02*
D03*
X94500D02*
D03*
X104500D02*
D03*
X114500D02*
D03*
X124500D02*
D03*
X134500D02*
D03*
X144500D02*
D03*
X154500D02*
D03*
X74500Y186000D02*
D03*
X84500D02*
D03*
X94500D02*
D03*
X104500D02*
D03*
X114500D02*
D03*
X124500D02*
D03*
X134500D02*
D03*
X144500D02*
D03*
X154500D02*
D03*
X84500Y164000D02*
D03*
X154500D02*
D03*
X144500D02*
D03*
X134500D02*
D03*
X124500D02*
D03*
X114500D02*
D03*
X104500D02*
D03*
X94500D02*
D03*
X194500Y171500D02*
D03*
Y161500D02*
D03*
Y151500D02*
D03*
Y141500D02*
D03*
Y131500D02*
D03*
Y121500D02*
D03*
Y111500D02*
D03*
Y101500D02*
D03*
Y91500D02*
D03*
X204500Y181500D02*
D03*
Y171500D02*
D03*
Y161500D02*
D03*
Y151500D02*
D03*
Y141500D02*
D03*
Y131500D02*
D03*
Y121500D02*
D03*
Y111500D02*
D03*
Y101500D02*
D03*
Y91500D02*
D03*
X24500Y171500D02*
D03*
Y161500D02*
D03*
Y151500D02*
D03*
Y141500D02*
D03*
Y131500D02*
D03*
Y121500D02*
D03*
Y111500D02*
D03*
Y101500D02*
D03*
Y91500D02*
D03*
X34500Y181500D02*
D03*
Y171500D02*
D03*
Y161500D02*
D03*
Y151500D02*
D03*
Y141500D02*
D03*
Y131500D02*
D03*
Y121500D02*
D03*
Y111500D02*
D03*
Y101500D02*
D03*
Y91500D02*
D03*
X31000Y48000D02*
D03*
X74500Y12000D02*
D03*
X84500D02*
D03*
X94500D02*
D03*
X104500D02*
D03*
X48500Y13500D02*
D03*
X38500D02*
D03*
X28500D02*
D03*
D39*
X154500Y112000D02*
D03*
X74500Y176000D02*
D03*
Y164000D02*
D03*
X114500Y12000D02*
D03*
X18500Y13500D02*
D03*
D40*
X194500Y181500D02*
D03*
X24500D02*
D03*
X31000Y58000D02*
D03*
M02*
