G04*
G04 #@! TF.GenerationSoftware,Altium Limited,Altium Designer,19.1.5 (86)*
G04*
G04 Layer_Physical_Order=2*
G04 Layer_Color=16711680*
%FSLAX25Y25*%
%MOIN*%
G70*
G01*
G75*
%ADD14C,0.11811*%
%ADD15C,0.03937*%
%ADD16C,0.01000*%
%ADD17C,0.02756*%
%ADD18C,0.02362*%
%ADD19R,0.02000X0.05400*%
D14*
X88976Y47244D02*
Y50000D01*
Y60236D02*
Y62992D01*
Y55118D02*
Y60236D01*
Y50000D02*
Y55118D01*
X11024Y31496D02*
Y44488D01*
X106299Y21063D02*
Y25984D01*
Y16142D02*
Y21063D01*
Y60236D02*
Y62992D01*
Y55512D02*
Y60236D01*
Y50000D02*
Y55512D01*
Y46850D02*
Y50000D01*
Y25984D02*
Y29528D01*
Y12598D02*
Y16142D01*
X184252Y60236D02*
Y63386D01*
Y55118D02*
Y60236D01*
Y44882D02*
Y50394D01*
Y55118D01*
Y31496D02*
Y44882D01*
Y26378D02*
Y31496D01*
Y21260D02*
Y26378D01*
Y16142D02*
Y21260D01*
Y12598D02*
Y16142D01*
X11024Y59842D02*
Y62992D01*
Y54724D02*
Y59842D01*
Y49606D02*
Y54724D01*
Y44488D02*
Y49606D01*
Y12598D02*
Y16142D01*
Y26378D02*
Y31496D01*
Y21260D02*
Y26378D01*
Y16142D02*
Y21260D01*
X88976Y26378D02*
Y29134D01*
Y21260D02*
Y26378D01*
Y16142D02*
Y21260D01*
Y12598D02*
Y16142D01*
D15*
X159843Y12205D02*
X162993D01*
X164961D01*
X153542D02*
X156693D01*
X70472Y55118D02*
X88976D01*
X156693Y12205D02*
X159843D01*
X147488D02*
X153542D01*
X138752Y3469D02*
X147488Y12205D01*
X70941Y3469D02*
X138752D01*
X66141Y8268D02*
X70941Y3469D01*
X62991Y55044D02*
X64961D01*
X13854D02*
X62991D01*
X166142Y28272D02*
X181028D01*
X162993D02*
X166142D01*
X161024D02*
X162993D01*
X12205Y73228D02*
X183071D01*
X11024Y72047D02*
X12205Y73228D01*
X183071D02*
X184252Y72047D01*
Y65354D02*
Y72047D01*
X11024Y64961D02*
Y72047D01*
X66141Y39444D02*
X68110D01*
X64173D02*
X66141D01*
Y8268D02*
Y39444D01*
D16*
X151181Y23622D02*
X155713D01*
X137433Y37370D02*
X151181Y23622D01*
X80283Y37370D02*
X137433D01*
X155713Y23622D02*
X156693Y24601D01*
X76772Y33858D02*
X80283Y37370D01*
X73622Y33858D02*
X76772D01*
X72441Y35039D02*
X73622Y33858D01*
X72441Y35039D02*
Y39444D01*
X150394Y39370D02*
X153543Y36220D01*
Y28273D02*
Y36220D01*
X75197Y37795D02*
Y38976D01*
X75591Y39370D01*
X156693Y24601D02*
Y28272D01*
X75591Y39370D02*
X77166D01*
X150394Y39370D01*
X11024Y44488D02*
X13854Y41658D01*
X181028Y28272D02*
X184252Y31496D01*
X153542Y28272D02*
X153543Y28273D01*
D17*
X64567Y47244D02*
D03*
X74016D02*
D03*
X164567Y20472D02*
D03*
X155118D02*
D03*
D18*
X88976Y55118D02*
D03*
Y60236D02*
D03*
Y65354D02*
D03*
Y50000D02*
D03*
Y44882D02*
D03*
Y31496D02*
D03*
X106398Y65059D02*
D03*
X106299Y60236D02*
D03*
Y55512D02*
D03*
Y50000D02*
D03*
Y44882D02*
D03*
Y31496D02*
D03*
Y25984D02*
D03*
Y21063D02*
D03*
Y16142D02*
D03*
Y11024D02*
D03*
X184252Y65354D02*
D03*
Y60236D02*
D03*
Y50394D02*
D03*
Y55118D02*
D03*
Y44882D02*
D03*
Y31496D02*
D03*
Y26378D02*
D03*
Y21260D02*
D03*
Y16142D02*
D03*
Y11024D02*
D03*
X11024Y64961D02*
D03*
Y59842D02*
D03*
Y49606D02*
D03*
Y54724D02*
D03*
Y44488D02*
D03*
Y11417D02*
D03*
Y31496D02*
D03*
Y26378D02*
D03*
Y21260D02*
D03*
Y16142D02*
D03*
X88976Y11024D02*
D03*
Y16142D02*
D03*
Y21260D02*
D03*
Y26378D02*
D03*
D19*
X62991Y39444D02*
D03*
Y55044D02*
D03*
X66141Y39444D02*
D03*
Y55044D02*
D03*
X69291Y39444D02*
D03*
Y55044D02*
D03*
X72441Y39444D02*
D03*
Y55044D02*
D03*
X75591Y39444D02*
D03*
Y55044D02*
D03*
X166142Y28272D02*
D03*
Y12672D02*
D03*
X162993Y28272D02*
D03*
Y12672D02*
D03*
X159843Y28272D02*
D03*
Y12672D02*
D03*
X156693Y28272D02*
D03*
Y12672D02*
D03*
X153542Y28272D02*
D03*
Y12672D02*
D03*
M02*
