G04*
G04 #@! TF.GenerationSoftware,Altium Limited,Altium Designer,19.1.5 (86)*
G04*
G04 Layer_Physical_Order=1*
G04 Layer_Color=255*
%FSLAX25Y25*%
%MOIN*%
G70*
G01*
G75*
%ADD11R,0.11811X0.28150*%
%ADD14C,0.11811*%
%ADD15C,0.03937*%
%ADD16C,0.01000*%
%ADD17C,0.02756*%
%ADD18C,0.02362*%
D11*
X88976Y20866D02*
D03*
X11024D02*
D03*
X106299D02*
D03*
X184252D02*
D03*
X88976Y54724D02*
D03*
X11024D02*
D03*
X106299D02*
D03*
X184252D02*
D03*
D14*
X105905Y21260D02*
X106299Y20866D01*
X88976Y54724D02*
X106299D01*
X88976Y21260D02*
X105905D01*
X11024Y31496D02*
Y44488D01*
X106299Y31496D02*
Y44882D01*
Y50000D01*
X11024Y44488D02*
Y49606D01*
Y26378D02*
Y31496D01*
X88976Y26378D02*
Y31496D01*
Y44882D01*
X106299Y50000D02*
Y54724D01*
Y25984D02*
Y31496D01*
Y21063D02*
Y25984D01*
Y20866D02*
Y21063D01*
X184252Y50394D02*
Y54724D01*
Y44882D02*
Y50394D01*
Y31496D02*
Y44882D01*
Y26378D02*
Y31496D01*
Y21260D02*
Y26378D01*
Y20866D02*
Y21260D01*
X11024D02*
Y26378D01*
Y20866D02*
Y21260D01*
X88976Y50000D02*
Y54724D01*
Y44882D02*
Y50000D01*
Y21260D02*
Y26378D01*
D15*
X12319Y3823D02*
X183236D01*
X184252Y4839D01*
Y11024D01*
X11024Y5118D02*
Y11417D01*
Y5118D02*
X12319Y3823D01*
D16*
X184252Y16142D02*
Y20866D01*
Y11024D02*
Y16142D01*
X11024D02*
Y20866D01*
Y11417D02*
Y16142D01*
D17*
X64567Y47244D02*
D03*
X74016D02*
D03*
X164567Y20472D02*
D03*
X155118D02*
D03*
D18*
X88976Y55118D02*
D03*
Y60236D02*
D03*
Y65354D02*
D03*
Y50000D02*
D03*
Y44882D02*
D03*
Y31496D02*
D03*
X106398Y65059D02*
D03*
X106299Y60236D02*
D03*
Y55512D02*
D03*
Y50000D02*
D03*
Y44882D02*
D03*
Y31496D02*
D03*
Y25984D02*
D03*
Y21063D02*
D03*
Y16142D02*
D03*
Y11024D02*
D03*
X184252Y65354D02*
D03*
Y60236D02*
D03*
Y50394D02*
D03*
Y55118D02*
D03*
Y44882D02*
D03*
Y31496D02*
D03*
Y26378D02*
D03*
Y21260D02*
D03*
Y16142D02*
D03*
Y11024D02*
D03*
X11024Y64961D02*
D03*
Y59842D02*
D03*
Y49606D02*
D03*
Y54724D02*
D03*
Y44488D02*
D03*
Y11417D02*
D03*
Y31496D02*
D03*
Y26378D02*
D03*
Y21260D02*
D03*
Y16142D02*
D03*
X88976Y11024D02*
D03*
Y16142D02*
D03*
Y21260D02*
D03*
Y26378D02*
D03*
M02*
