M48
;Layer_Color=9474304
;FILE_FORMAT=2:5
INCH,TZ
;TYPE=PLATED
T1F00S00C0.01575
;TYPE=NON_PLATED
T2F00S00C0.02756
%
T01
X11024Y11417
Y16142
Y21260
Y26378
Y31496
Y44488
Y49606
Y54724
Y59842
Y64961
X88976Y65354
Y60236
Y55118
Y50000
Y44882
Y31496
Y26378
Y21260
Y16142
Y11024
X106299
Y16142
Y21063
Y25984
Y31496
Y44882
Y50000
Y55512
Y60236
X106398Y65059
X184252Y65354
Y60236
Y55118
Y50394
Y44882
Y31496
Y26378
Y21260
Y16142
Y11024
T02
X64567Y47244
X74016
X155118Y20472
X164567
M30
